<?xml version="1.0" encoding="UTF-8"?>
<svg id="Layer_2" data-name="Layer 2" xmlns="http://www.w3.org/2000/svg" viewBox="0 0 1311.83 1081.13">
  <defs>
    <style>
      .cls-1 {
        isolation: isolate;
        opacity: .25;
      }

      .cls-1, .cls-2 {
        fill: #fff;
        stroke-width: 0px;
      }
    </style>
  </defs>
  <g id="Layer_1-2" data-name="Layer 1">
    <g id="Layer_1-2" data-name="Layer 1-2">
      <g id="Layer_1-2-2" data-name="Layer 1-2">
        <path class="cls-1" d="m1300.21,712.25c-10.21-1.94-20.54,6.18-27.84,12.67-8.73,7.76-18.23,17.56-31.04,15.98-11.1-1.37-16.82-11.16-20.76-20.6-4.08-9.76-6.02-20.44-10.75-29.92-6.89-13.82-22.98-20.99-36.59-11.57-12.81,8.88-13.03,26.01-23.34,36.59-3.11,3.2-7.51,6.02-12.12,4.34-8.19-2.99-7.39-14.86-7.12-21.67.55-14.17.51-35.08-18.17-37.39s-26.82,18.07-33.73,30.81c-6.95,12.8-19.41,28.81-34.73,16.61-13.07-10.41-11.6-29.29-15.43-43.94-3.55-13.59-12.06-23.9-24.91-29.6-12.28-5.45-27.59-3.06-39.11-9.81-14.87-8.71-5.36-24.45,3.79-33.23,13.1-12.56,25.29-24.37,35.6-39.53,22.86-33.6,41.53-70.16,59.41-106.58,18.62-37.93,36.68-76.16,52.49-115.36,15.4-38.19,30.54-77.74,36.08-118.76,9.19-68.05-17.84-138.1-74.36-178.51-64.64-46.21-147.14-35.79-219.2-15.9-80.44,22.2-159.06,51.67-236.58,82.38-159.45,63.16-315.7,136.21-464.26,222.09-33.49,19.36-67.23,38.87-96.9,63.89-46.66,39.35-106.84,147.19-4.82,162.73,39.87,6.07,81.57-6.21,121.3-9.48,42.58-3.51,85.5-2.77,127.83-9.12,18.73-2.81,41.16-11.11,59.96-5.52,8.18,2.43,12.61,8.16,11.64,16.76-1.88,16.65-18.19,26.58-29.88,36.37-31.16,26.1-59.49,57.39-87.17,87.12-23.73,25.48-52.18,56.04-58.55,91.69-6.35,35.52,19.81,59.47,52.19,67.07,35.37,8.3,74.61,5.27,110.53,3.09,42.07-2.55,83.93-8.16,125.36-15.83,41.18-7.62,81.63-18.14,122.48-27.25,20-4.46,40.46-7.24,60.19-12.81,12.64-3.57,32.11-8.44,38.19-21.63,5.12-11.11-1.09-21-12.63-23.01-14.55-2.53-29.89,3.54-42.91,9.18-37.45,16.21-74.79,29.19-114.89,37.35-41.64,8.47-83.88,12.53-126.19,15.83-39.1,3.06-78.36,6.08-117.58,6.96-18.3.41-44.04,1.28-58.63-11.97-22.4-20.34,8.03-55.56,21.33-71.21,25.73-30.27,55.45-56.59,84.33-83.75,25.49-23.97,58.23-51.46,68.75-86.16,10.66-35.13-25.94-47.93-54.15-49.28-35.92-1.72-72.68,5.02-108.4,7.84-44.85,3.54-89.88,3.28-134.71,6.76-29.95,2.32-63.03,9.16-92.92,2.31-8.87-2.03-19.02-6.28-20.56-16.43-2.29-15.11,12.95-28.64,22.92-37.42,29.15-25.65,59.87-49.77,91.17-72.73,67.67-49.65,140.9-90.19,216.66-126.05,78.05-36.94,157.76-70.38,237.37-103.76,77-32.28,153.6-67.28,233.06-93.17,65.7-21.4,141.33-40.78,210.42-24.6,30.75,7.2,59.12,22.76,79.02,47.65,20.3,25.39,29.33,57.54,31.08,89.6,3.92,71.74-23.1,143.3-54.97,206.22-37.24,73.53-86.08,140.08-126.96,211.48-17.81,31.11-40.01,56.43-78.63,54.02-18.48-1.15-36.47-6.76-55.05-6.73s-36.21,5.84-51.52,15.84c-24.7,16.14-51.82,48.16-42.37,79.93,6.55,22.03,33.75,30.04,40.45,51.73,9.42,30.5-35.83,52.57-55.26,65.71-32.18,21.77-61.46,47.77-90.62,73.35-29.5,25.87-59,51.9-91.11,74.54-15.57,10.98-31.69,21.23-48.33,30.51-8.76,4.89-17.68,9.52-26.92,13.44-8.43,3.57-17.46,6.23-25.22,11.2-10.62,6.8-21.79,23.42-3.09,26.82,17.77,3.23,37.28-5.32,52.97-12.78,35.52-16.88,65.71-42.21,96.51-66.22,33.92-26.44,68.53-52,101.18-80.03,30.37-26.07,56.91-56.3,87.75-81.82,14.51-12,30.13-22.59,47.3-30.44,19.27-8.81,40.46-12.5,59.59-21.63,14.35-6.85,26.48-18.53,41.93-23.08,17.75-5.22,31.99,3.64,48.05,9.6,17.51,6.5,33.19,3.19,49.47-4.95,18.02-9.01,36.21-15.3,55.06-22.25,8.29-3.06,16.78-6.32,23.36-12.42,6.63-6.14,9.98-14.9,16.59-21.03,15.5-14.39,21.56,4.93,20.43,18.5-1.09,13.07-4.68,32.78,11.05,39.06,16.68,6.66,27.73-14.36,32.89-26.41,5.25-12.27,12.41-29.61,29.06-26.41,17.01,3.27,20.65,23.27,28.3,35.72,19.81,32.23,64.67,12.21,85.85-8.66,7.03-6.93,18.3-22.22,6.57-30.15-2.14-1.45-4.32-2.32-6.5-2.74l-.03-.04h0Zm-910.79-180.5s-.07-.05-.19-.23c1.66-.34.08,1.62.19.23Zm-3.52-6.59c-.12-.26-.18-.42-.15-.41-1.42-.48,2.76-1.88.15.41Zm393.6,236.05c-2.27-.66-4.5-1.55-6.62-2.44-5.63-2.37-11.09-5.15-16.31-8.32-4.79-2.91-9.46-6.36-12.21-11.37-8.35-15.23,3.48-32.06,12.89-43.58,6.49-7.95,14.08-15.06,22.8-20.5,4.46-2.78,9.21-5.14,14.28-6.55,5.35-1.49,10.93-1.95,16.46-2.14,11.03-.38,22.25.51,32.76,4.07,4.47,1.51,8.97,3.58,12.11,7.23,2.93,3.41,4.98,8.53,2.63,12.79-1.12,2.04-3.06,3.48-4.68,5.09-2.05,2.05-3.85,4.32-5.73,6.52-3.63,4.24-7.44,8.32-11.2,12.45-7.83,8.59-15.58,17.27-23.38,25.89-3.95,4.36-7.92,8.7-11.89,13.04-3.1,3.39-6.4,7.05-10.99,8.32-3.64,1.01-7.35.54-10.93-.5h0Zm105.47-41c-.67,3.9-1.72,7.71-3.14,11.4-1.82,3.95-4.03,7.69-6.58,11.21-3.28,4.01-6.96,7.66-10.97,10.93-4.87,3.58-10.11,6.63-15.61,9.11-5.89,2.32-11.99,3.98-18.23,4.98-.97.11-1.93.21-2.9.29,19.46-20.35,38.41-41.19,56.79-62.52.24,1.04.45,2.09.63,3.15.37,3.81.38,7.64,0,11.45h.01Zm113.51,11.89c-1.45,2.82-3.7,5.4-6.97,7.82-3.88,2.88-7.87,5.58-12.38,7.39-9.29,3.72-19.94,4.17-29.47,1.07-15.51-5.03-27.35-18.83-31.1-34.56-2.54-10.65-1.87-22.21,2.58-32.27,7.85-17.77,28.65-32.47,48.54-26.34,8.27,2.55,15.62,8.41,19.69,16.08,2.34,4.41,3.33,9.31,4.34,14.15,1.07,5.12,2.58,10.12,3.81,15.19s1.93,10.43,2.68,15.69c.87,6.15.59,11.28-1.72,15.78Z"/>
        <g>
          <g>
            <path class="cls-2" d="m466.52,397.21v42h-8v-18h-18v18h-8v-42h8v17h18v-17h8Z"/>
            <path class="cls-2" d="m505.32,425.21h-26.53c.22,2.62,1.13,4.67,2.75,6.16s3.61,2.23,5.97,2.23c3.4,0,5.83-1.47,7.27-4.39h9.89c-1.04,3.5-3.05,6.37-6.03,8.62-2.97,2.25-6.62,3.37-10.95,3.37-3.5,0-6.63-.77-9.4-2.33s-4.93-3.75-6.49-6.59-2.33-6.12-2.33-9.83.76-7.05,2.29-9.89c1.53-2.84,3.67-5.02,6.42-6.55s5.91-2.29,9.5-2.29c4.13,0,7.42.98,10.49,2.95,1.14.74,2.19,1.63,3.08,2.66,2.89,3.35,4.32,7.45,4.32,12.35,0,1.32-.09,2.49-.26,3.54h0Zm-8.09-6c-.04-2.17-.82-3.91-2.35-5.21-1.53-1.31-3.4-1.96-5.61-1.96-2.09,0-3.85.63-5.27,1.9s-2.3,3.02-2.62,5.27h15.85,0Z"/>
            <path class="cls-2" d="m520.52,395.21v45h-8v-45h8Z"/>
            <path class="cls-2" d="m537.52,395.21v45h-8v-45h8Z"/>
            <path class="cls-2" d="m551.78,437.88c-2.57-1.43-4.59-3.45-6.06-6.06s-2.2-5.63-2.2-9.04.75-6.43,2.26-9.04c1.51-2.61,3.57-4.63,6.18-6.06s5.52-2.14,8.74-2.14,6.13.71,8.74,2.14c2.61,1.43,4.67,3.45,6.18,6.06s2.26,5.63,2.26,9.04-.77,6.43-2.32,9.04c-1.55,2.61-3.64,4.63-6.27,6.06s-5.58,2.14-8.83,2.14-6.11-.71-8.68-2.14h0Zm12.74-6.66c1.35-.74,2.42-1.86,3.22-3.35.8-1.49,1.2-3.29,1.2-5.43,0-3.17-.83-5.61-2.5-7.32-1.67-1.71-3.71-2.56-6.12-2.56s-4.43.85-6.06,2.56-2.44,4.15-2.44,7.32.79,5.62,2.38,7.32c1.59,1.71,3.59,2.56,6,2.56,1.53,0,2.96-.37,4.31-1.11h.01Z"/>
            <path class="cls-2" d="m586.89,438.48c-.98-.94-1.48-2.12-1.48-3.53s.49-2.58,1.48-3.53c.98-.94,2.24-1.42,3.77-1.42s2.71.47,3.68,1.42c.96.94,1.45,2.12,1.45,3.53s-.48,2.58-1.45,3.53c-.96.94-2.19,1.42-3.68,1.42s-2.78-.47-3.77-1.42Zm8.09-41.27l-.96,29h-7.08l-1.02-29h9.07,0Z"/>
            <path class="cls-2" d="m628.52,397.21v42h-8v-42h8Z"/>
            <path class="cls-2" d="m638.24,397.21h8.75l-6.43,15h-5.72l3.4-15h0Z"/>
            <path class="cls-2" d="m704.73,409.21c2.52,2.5,3.79,6,3.79,10.48v19.52h-8v-18.44c0-2.61-.66-4.61-2-6s-3.15-2.08-5.47-2.08-4.14.69-5.49,2.08c-1.36,1.39-2.03,3.39-2.03,6v18.44h-9v-18.44c0-2.61-.66-4.61-2-6s-3.14-2.08-5.44-2.08-4.18.69-5.53,2.08c-1.35,1.39-2.03,3.39-2.03,6v18.44h-8v-33h8v3.76c1.1-1.4,2.49-2.5,4.21-3.31s3.61-1.21,5.67-1.21c2.63,0,4.97.55,7.03,1.65,2.06,1.11,3.66,2.67,4.79,4.71,1.1-1.92,2.68-3.46,4.76-4.62s4.33-1.74,6.76-1.74c4.12,0,7.44,1.26,9.98,3.76h.01,0Z"/>
            <path class="cls-2" d="m763.01,397.21l-13.49,27.38v14.62h-8v-14.62l-13.54-27.38h9.02l8.57,19.19,8.51-19.19h8.93,0Z"/>
            <path class="cls-2" d="m775.1,437.88c-2.57-1.43-4.59-3.45-6.06-6.06s-2.2-5.63-2.2-9.04.75-6.43,2.26-9.04c1.51-2.61,3.57-4.63,6.18-6.06s5.52-2.14,8.74-2.14,6.13.71,8.74,2.14c2.61,1.43,4.67,3.45,6.18,6.06s2.26,5.63,2.26,9.04-.77,6.43-2.32,9.04c-1.55,2.61-3.64,4.63-6.27,6.06s-5.58,2.14-8.83,2.14-6.11-.71-8.68-2.14h0Zm13.42-6.66c1.35-.74,2.42-1.86,3.22-3.35.8-1.49,1.2-3.29,1.2-5.43,0-3.17-.83-5.61-2.5-7.32-1.67-1.71-3.71-2.56-6.12-2.56s-4.43.85-6.06,2.56-2.44,4.15-2.44,7.32.79,5.62,2.38,7.32c1.59,1.71,3.59,2.56,6,2.56,1.53,0,2.96-.37,4.31-1.11h.01Z"/>
            <path class="cls-2" d="m805.52,414.2c1.45-2.53,3.4-4.48,5.88-5.85,2.48-1.36,5.24-2.05,8.31-2.05,2.67,0,5,.48,7,1.46s3.61,2.2,4.81,3.69v-5.24h9v33h-9v-4.73c-1.16,1.52-2.76,2.78-4.81,3.77-2.04,1-4.4,1.49-7.07,1.49-3.02,0-5.76-.7-8.23-2.1s-4.43-3.38-5.88-5.93-2.17-5.48-2.17-8.79.72-6.18,2.17-8.71h-.01Zm24.79,3.01c-.8-1.47-1.89-2.59-3.26-3.38-1.37-.78-2.83-1.18-4.4-1.18s-3.01.38-4.34,1.15-2.4,1.88-3.22,3.35c-.82,1.47-1.24,3.21-1.24,5.21s.41,3.77,1.24,5.27c.82,1.51,1.91,2.66,3.26,3.47,1.35.8,2.78,1.21,4.31,1.21s3.03-.39,4.4-1.18c1.37-.78,2.45-1.91,3.26-3.38.8-1.47,1.2-3.22,1.2-5.27s-.4-3.81-1.2-5.27h-.01Z"/>
            <path class="cls-2" d="m876.9,409.21c2.41,2.5,3.62,6,3.62,10.48v19.52h-9v-18.44c0-2.65-.66-4.69-2-6.12s-3.14-2.14-5.44-2.14-4.18.71-5.53,2.14c-1.35,1.43-2.03,3.47-2.03,6.12l1,18.44h-9v-33h9v3.88c1.1-1.44,2.52-2.57,4.24-3.4,1.72-.82,3.61-1.24,5.66-1.24,3.91,0,7.07,1.26,9.48,3.76h0Z"/>
          </g>
          <g>
            <path class="cls-2" d="m489.52,497.24c-1.79-3.26-4.27-5.73-7.43-7.44-3.15-1.71-6.82-2.56-11.03-2.56-4.64,0-8.76,1.04-12.36,3.11-3.6,2.07-6.4,5.04-8.44,8.88s-3.03,8.29-3.03,13.32,1.03,9.7,3.09,13.55,4.93,6.81,8.61,8.88c3.67,2.07,7.94,3.11,12.82,3.11,6,0,10.91-1.58,14.72-4.72s6.33-7.52,7.54-13.16h-26.48v-12h42v13.68c-1.05,5.41-3.3,10.4-6.75,14.99-3.45,4.6-7.89,8.27-13.32,11.05-5.43,2.78-11.52,4.16-18.27,4.16-7.57,0-14.42-1.69-20.52-5.06-6.11-3.37-10.91-8.05-14.4-14.05-3.48-5.99-5.23-12.81-5.23-20.43s1.74-14.45,5.23-20.48,8.29-10.73,14.4-14.11c6.11-3.37,12.91-5.06,20.4-5.06,8.84,0,16.53,2.13,23.04,6.38s11.03,10.23,13.49,17.92h-18.1l.02-.02v.05Z"/>
            <path class="cls-2" d="m545.51,492.09c3.21-1.9,6.88-2.85,11.01-2.85v16.97h-4.14c-4.92,0-8.63,1.19-11.12,3.58-2.5,2.38-3.74,6.53-3.74,12.44v29.98h-16v-62h16v9.91c2.04-3.38,4.71-6.03,8-7.94v-.08h0Z"/>
            <path class="cls-2" d="m565.52,504.2c2.55-4.86,6.02-8.6,10.4-11.22s9.28-3.92,14.68-3.92c4.73,0,8.86.94,12.4,2.81,3.55,1.87,6.39,4.22,8.51,7.07v-8.73h16v62h-16v-9.09c-2.06,2.93-4.9,5.33-8.51,7.24-3.62,1.91-7.79,2.87-12.53,2.87-5.33,0-10.19-1.34-14.57-4.04-4.38-2.7-7.85-6.48-10.4-11.39-2.56-4.89-3.83-10.52-3.83-16.88s1.28-11.85,3.83-16.71h.01Zm44,7.06c-1.5-2.73-3.51-4.82-6.05-6.28s-5.27-2.19-8.18-2.19-5.6.71-8.07,2.13-4.47,3.49-6,6.22c-1.53,2.73-2.3,5.96-2.3,9.7s.77,7.01,2.3,9.81c1.53,2.8,3.55,4.95,6.05,6.45s5.17,2.24,8.02,2.24,5.64-.73,8.18-2.19,4.56-3.55,6.05-6.28c1.49-2.73,2.24-6,2.24-9.81s-.75-7.08-2.24-9.81h0Z"/>
            <path class="cls-2" d="m667.04,492.06c3.62-1.91,7.75-2.87,12.4-2.87,5.41,0,10.31,1.31,14.69,3.93,4.37,2.63,7.85,6.35,10.4,11.19s3.82,10.44,3.82,16.81-1.27,12.02-3.82,16.93c-2.56,4.92-6.03,8.72-10.4,11.42-4.38,2.7-9.28,4.05-14.69,4.05-4.65,0-8.75-.94-12.29-2.81-3.55-1.88-6.42-4.23-8.63-7.08v38.58h-16v-92h16v9c2.06-2.85,4.89-5.23,8.51-7.14h0Zm22.48,19.08c-1.53-2.73-3.55-4.8-6.05-6.22-2.51-1.42-5.21-2.13-8.13-2.13s-5.51.73-8.02,2.19-4.52,3.57-6.05,6.33c-1.53,2.77-2.3,6.02-2.3,9.75s.76,6.99,2.3,9.75c1.53,2.77,3.55,4.88,6.05,6.33,2.5,1.46,5.17,2.19,8.02,2.19s5.62-.75,8.13-2.24c2.5-1.49,4.52-3.62,6.05-6.39,1.53-2.76,2.3-6.05,2.3-9.87s-.77-6.97-2.3-9.7h0Z"/>
            <path class="cls-2" d="m766.52,492.26c3.77,2.06,6.71,5.08,8.83,9.09,2.11,4,3.17,8.81,3.17,14.41v36.45h-16v-34.3c0-4.93-1.24-8.72-3.73-11.38-2.49-2.65-5.87-3.98-10.16-3.98s-7.81,1.33-10.33,3.98c-2.53,2.65-3.78,6.45-3.78,11.38v34.3h-16v-83h17v28.61c1.97-2.69,4.59-4.8,7.86-6.33s6.92-2.3,10.91-2.3c4.59,0,8.66,1.03,12.22,3.08h0Z"/>
            <path class="cls-2" d="m794.06,479.98c-1.83-1.76-2.75-3.94-2.75-6.56s.91-4.8,2.75-6.56c1.83-1.76,4.13-2.63,6.89-2.63s5.06.88,6.89,2.63c1.83,1.76,2.75,3.94,2.75,6.56s-.92,4.8-2.75,6.56-4.13,2.63-6.89,2.63-5.06-.88-6.89-2.63Zm15.46,10.23v62h-16v-62h16Z"/>
            <path class="cls-2" d="m823.14,504.2c2.69-4.98,6.44-8.84,11.22-11.57s10.26-4.11,16.44-4.11c7.95,0,14.53,1.98,19.73,5.96,5.2,3.97,8.69,9.55,10.47,16.73h-17.97c-.89-2.67-2.39-4.76-4.5-6.26s-4.72-2.28-7.82-2.28c-4.44,0-7.96,1.62-10.55,4.84-2.6,3.22-3.89,7.79-3.89,13.71s1.3,10.38,3.89,13.6,6.1,4.84,10.55,4.84c6.28,0,10.4-2.81,12.32-8.43h17.08c-1.72,6.74-5.13,12.08-10.21,16.04s-11.44,5.95-19.08,5.95c-5.99,0-11.29-1.33-15.93-3.99-4.65-2.65-8.26-6.4-10.88-11.22-2.62-4.83-3.93-10.45-3.93-16.89s1.31-12.06,3.93-16.89h-.88.01Z"/>
          </g>
          <g>
            <path class="cls-2" d="m476.52,592.59c5.72,2.92,10.14,7.07,13.27,12.46s4.68,11.65,4.68,18.77-1.57,13.34-4.68,18.67c-3.12,5.33-7.54,9.44-13.27,12.35-5.72,2.92-12.36,4.37-19.9,4.37h-25.1v-71h25.1c7.54,0,14.18,1.46,19.9,4.37h0Zm-3,48.5c4.02-4.08,6.02-9.82,6.02-17.23s-2-13.21-6.02-17.38c-4.02-4.18-9.7-6.27-17.06-6.27h-9.94v47h9.94c7.36,0,13.04-2.04,17.06-6.12h0Z"/>
            <path class="cls-2" d="m555.16,635.21h-39.78c.33,3.93,1.7,7.01,4.12,9.23s5.41,3.34,8.95,3.34c5.11,0,8.75-2.2,10.9-6.58h14.84c-1.58,5.24-4.58,9.54-9.04,12.92-4.45,3.37-9.92,5.06-16.4,5.06-5.24,0-9.94-1.17-14.1-3.48-4.15-2.32-7.4-5.61-9.72-9.87-2.33-4.25-3.48-9.16-3.48-14.74s1.15-10.57,3.43-14.84c2.29-4.25,5.5-7.54,9.63-9.82s8.88-3.43,14.25-3.43,9.8,1.12,13.91,3.34c4.08,2.23,7.27,5.39,9.52,9.48,2.27,4.09,3.38,8.8,3.38,14.1,0,1.96-.14,3.73-.4,5.3h0v-.02Zm-13.47-10c-.07-3.64-1.38-6.56-3.95-8.75-2.56-2.19-5.7-3.29-9.41-3.29-3.51,0-6.46,1.06-8.85,3.19s-3.86,5.08-4.4,8.85h26.61Z"/>
            <path class="cls-2" d="m575.75,657.23c-3.61-1.64-6.48-3.87-8.58-6.68s-3.26-5.93-3.46-9.34h14.11c.27,2.19,1.35,4,3.23,5.42,1.87,1.44,4.21,2.16,7.01,2.16s4.87-.55,6.4-1.64c1.54-1.09,2.31-2.49,2.31-4.2,0-1.84-.94-3.23-2.81-4.15-1.88-.92-4.87-1.93-8.96-3.02-4.23-1.02-7.7-2.08-10.39-3.18-2.7-1.09-5.02-2.76-6.96-5.02s-2.91-5.29-2.91-9.12c0-3.14.9-6.01,2.71-8.6s4.4-4.65,7.78-6.14,7.36-2.26,11.92-2.26c6.76,0,12.14,1.69,16.17,5.07s6.24,7.93,6.66,13.66h-13.81c-.2-2.24-1.13-4.01-2.79-5.33-1.65-1.32-3.87-1.98-6.65-1.98-3.56,0-5.98.9-7.28,2.72-.39.55-.61,1.21-.69,1.88-.28,2.29.64,3.98,2.79,5.09,1.9.98,4.83,1.98,8.83,2.99,4.06,1.01,7.41,2.07,10.05,3.15s4.92,2.76,6.85,5.02c1.93,2.27,2.93,5.27,3,8.98,0,3.25-.9,6.16-2.69,8.73-1.8,2.57-4.36,4.58-7.71,6.04s-7.26,2.19-11.72,2.19-8.73-.83-12.39-2.49h0v.02Z"/>
            <path class="cls-2" d="m622.81,593.44c-1.65-1.58-2.48-3.56-2.48-5.92s.83-4.33,2.48-5.92c1.65-1.58,3.73-2.38,6.22-2.38s4.57.79,6.22,2.38c1.65,1.59,2.48,3.56,2.48,5.92s-.83,4.33-2.48,5.92c-1.65,1.59-3.73,2.38-6.22,2.38s-4.57-.79-6.22-2.38Zm13.71,8.77v56h-14v-56h14Z"/>
            <path class="cls-2" d="m683.17,604.21c3.11,1.64,5.56,3.76,7.35,6.39v-8.39h14v56.58c0,5.16-1.03,9.77-3.08,13.83-2.05,4.05-5.13,7.28-9.23,9.65s-9.07,3.57-14.89,3.57c-7.81,0-14.22-1.85-19.21-5.54s-7.83-8.72-8.49-15.1h13.8c.73,2.54,2.3,4.58,4.72,6.09,2.41,1.51,5.35,2.26,8.78,2.26,4.03,0,7.31-1.22,9.83-3.66,2.51-2.44,3.77-6.16,3.77-11.11v-8.65c-1.79,2.61-4.25,4.8-7.4,6.54-3.15,1.74-6.73,2.61-10.77,2.61-4.63,0-8.87-1.2-12.7-3.62-3.84-2.41-6.87-5.82-9.08-10.21-2.22-4.39-3.33-9.44-3.33-15.15s1.11-10.63,3.33-15c2.22-4.35,5.23-7.72,9.04-10.06s8.05-3.52,12.75-3.52c4.1,0,7.71.82,10.82,2.46h0Zm5.25,17.47c-1.35-2.46-3.17-4.35-5.46-5.67-2.29-1.31-4.76-1.97-7.39-1.97s-5.06.64-7.29,1.92-4.03,3.15-5.41,5.62c-1.38,2.46-2.08,5.38-2.08,8.75s.69,6.32,2.08,8.85c1.38,2.53,3.2,4.47,5.46,5.82,2.26,1.35,4.67,2.02,7.24,2.02s5.09-.66,7.39-1.97c2.29-1.32,4.11-3.2,5.46-5.67,1.35-2.46,2.02-5.41,2.02-8.85s-.68-6.39-2.02-8.85h0Z"/>
            <path class="cls-2" d="m766.39,608.21c4.08,4.26,6.13,10.19,6.13,17.82v33.18h-15v-30.97c0-4.45-1.11-7.87-3.33-10.27-2.22-2.39-5.24-3.59-9.07-3.59s-6.97,1.2-9.22,3.59c-2.25,2.4-3.38,5.82-3.38,10.27l1,29.97h-15v-56h15v7.48c1.88-2.45,4.27-4.37,7.19-5.77,2.91-1.39,6.11-2.09,9.59-2.09,6.63,0,12,2.13,16.08,6.38h.01,0Z"/>
            <path class="cls-2" d="m836.37,635.21h-39.78c.33,3.93,1.7,7.01,4.12,9.23s5.41,3.34,8.95,3.34c5.11,0,8.75-2.2,10.9-6.58h14.84c-1.58,5.24-4.58,9.54-9.04,12.92s-9.92,5.06-16.4,5.06c-5.24,0-9.94-1.17-14.1-3.48s-7.4-5.61-9.72-9.87c-2.33-4.25-3.48-9.16-3.48-14.74s1.15-10.57,3.43-14.84c2.29-4.25,5.5-7.54,9.63-9.82s8.88-3.43,14.25-3.43,9.8,1.12,13.91,3.34c4.08,2.23,7.27,5.39,9.52,9.48,2.27,4.09,3.38,8.8,3.38,14.1,0,1.96-.14,3.73-.4,5.3h0v-.02Zm-13.47-10c-.07-3.64-1.38-6.56-3.95-8.75-2.56-2.19-5.7-3.29-9.41-3.29-3.51,0-6.46,1.06-8.85,3.19s-3.86,5.08-4.4,8.85h26.61Z"/>
            <path class="cls-2" d="m869.57,604.21c2.89-1.64,6.21-2.46,9.95-2.46v14.46h-3.7c-4.4,0-7.71,1.02-9.95,3.05s-3.35,5.57-3.35,10.63v28.32h-14v-56h14v8.79c1.8-2.89,4.15-5.15,7.04-6.79h.01Z"/>
          </g>
        </g>
      </g>
    </g>
  </g>
</svg>