<?xml version="1.0" encoding="UTF-8"?>
<svg id="Layer_2" data-name="Layer 2" xmlns="http://www.w3.org/2000/svg" xmlns:xlink="http://www.w3.org/1999/xlink" viewBox="0 0 608 246">
  <defs>
    <style>
      .cls-1 {
        fill: #be9a6b;
      }

      .cls-1, .cls-2, .cls-3, .cls-4, .cls-5, .cls-6, .cls-7, .cls-8, .cls-9, .cls-10, .cls-11, .cls-12, .cls-13, .cls-14, .cls-15, .cls-16, .cls-17 {
        stroke-width: 0px;
      }

      .cls-2 {
        fill: #003da6;
      }

      .cls-3 {
        fill: #cbe1f4;
      }

      .cls-4 {
        opacity: .1;
      }

      .cls-4, .cls-13, .cls-17 {
        fill: #3fa9f5;
      }

      .cls-5 {
        fill: none;
      }

      .cls-6 {
        fill: #826a4e;
      }

      .cls-7 {
        fill: #d9e5ef;
      }

      .cls-8 {
        fill: #fff;
      }

      .cls-9 {
        fill: #1f2857;
      }

      .cls-18 {
        clip-path: url(#clippath);
      }

      .cls-10 {
        fill: #0b1b2b;
      }

      .cls-11 {
        fill: #ba966b;
      }

      .cls-12 {
        fill: #d8e4ee;
      }

      .cls-13 {
        opacity: .05;
      }

      .cls-14 {
        fill: #c09b6b;
      }

      .cls-15 {
        fill: #221c35;
      }

      .cls-16 {
        fill: #141c44;
      }
    </style>
    <clipPath id="clippath">
      <rect class="cls-5" width="608" height="246"/>
    </clipPath>
  </defs>
  <g id="Layer_1-2" data-name="Layer 1">
    <rect class="cls-17" width="608" height="246"/>
    <g>
      <path class="cls-8" d="m294.16,222.5c-1.67,0-3.66-.7-4.1-.88-2.14-.9-4.28-2.43-6.2-4.42-.47-.49-1.2-1.29-2.02-2.37l-.62-.82-.74.71c-1.08,1.03-2.5,1.63-3.98,1.68-.04,0-.12,0-.19,0-2.46,0-4.65-1.45-5.58-3.69-.83-2-1.47-4.06-1.9-6.12l-.25-1.2-1.08.58c-.88.48-1.88.73-2.87.73-.12,0-.23,0-.35,0-2.32-.13-4.32-1.54-5.22-3.68-.75-1.77-1.08-3.94-1.02-6.64v-.04c-.06-3.25.58-7.56,1.81-12.13l.31-1.15h-6.89c-3.8,0-6.89-3.09-6.89-6.89v-2.52l-.35-.27c-1.6-1.27-3.1-2.5-4.08-3.3-3.08-2.54-5.84-5.34-8.22-8.31l-.02-.02c-.09-.1-.18-.21-.27-.32-2.36-3.02-4.34-6.18-6.84-10.91l-.02-.04c-.52-.87-.96-1.66-1.35-2.41l-.12-.24-.1-.21c-4.99-10.35-7.52-21.58-7.52-33.36,0-5.84.67-11.68,1.99-17.35,1.6-6.54,4.01-12.8,7.18-18.62.18-.34.36-.66.54-.97l.24-.42c.57-.98,1.18-1.98,1.92-3.13l.38-.59c.97-1.51,1.98-2.97,3-4.34l.2-.27c.28-.37.54-.71.8-1.05.22-.28.44-.57.67-.85.02-.02.45-.56.58-.73.45-.55.91-1.09,1.37-1.63l.21-.24c.43-.49.88-.99,1.35-1.49l-.03.03s.05-.06.13-.14c.19-.21.6-.64.68-.73.12-.13.24-.24.35-.35l.12-.12c.45-.47.92-.94,1.4-1.41l.19-.19c.2-.19.4-.39.6-.58.63-.6,1.24-1.16,1.86-1.71.45-.4.92-.8,1.34-1.16l.28-.24c.19-.16.38-.33.58-.49.49-.41,1.04-.85,1.64-1.32l.18-.14c3.31-2.58,6.82-4.89,10.45-6.87l.28-.15.12-.29c2.97-6.86,7.88-12.68,14.19-16.83,6.33-4.17,13.64-6.37,21.14-6.37.22,0,.44,0,.67,0h.05c.22,0,.44,0,.66,0,7.49,0,14.8,2.2,21.13,6.37,6.32,4.16,11.22,9.98,14.2,16.83l.12.29.28.15c6.41,3.49,12.33,7.93,17.59,13.18l.85.85c.17.17.36.36.54.55,1.87,1.96,3.67,4.08,5.35,6.28l.12.16c.5.66.95,1.27,1.36,1.84l.26.37c.32.45.63.9.92,1.34.25.37.5.76.75,1.14l.24.37c.73,1.13,1.35,2.15,1.89,3.1,0,0,.29.51.32.56l.25.44c.17.3.35.62.53.94,3.17,5.82,5.59,12.07,7.18,18.57,1.33,5.71,2,11.57,2,17.41,0,11.78-2.53,23-7.51,33.33l-.14.28c-.04.08-.09.18-.14.27v.02c-.3.54-.59,1.09-.92,1.66l-.28.53c-2.08,3.96-3.84,6.88-5.7,9.45-.41.57-.82,1.12-1.23,1.64-1.07,1.37-2.25,2.73-3.5,4.03l-1.48,1.54h2.14c11.77,0,13,0,13.2.01,3.32.1,6.73,1.68,9.61,4.45,2.11,2.03,4.25,4.19,6.35,6.44,2.36,2.53,4.69,5.15,6.91,7.8,3.44,4.1,3.34,9.62-.24,14.07-1.98,2.48-5.98,3.78-8.91,3.78s-5.76-1.18-7.69-3.31c-.88-.98-2.06-2.37-3.42-3.99-6.08-7.2-10.1-11.56-11.99-12.97l-.22-.17h-.28c-.15-.02-.33-.03-.53-.04h-.04s-26.24,0-26.24,0l.31,1.15c1.23,4.56,1.86,8.86,1.8,12.12v.04c.07,2.71-.27,4.89-1.04,6.67-.92,2.13-2.92,3.53-5.24,3.65-.09,0-.2,0-.32,0-1,0-1.99-.25-2.87-.73l-1.08-.58-.25,1.2c-.43,2.06-1.06,4.12-1.9,6.12-.93,2.24-3.12,3.69-5.57,3.69-.07,0-.15,0-.22,0-1.47-.05-2.88-.65-3.96-1.68l-.74-.71-.62.82c-.81,1.08-1.54,1.89-2.01,2.37-1.93,1.99-4.08,3.51-6.21,4.41-.44.19-2.43.88-4.09.88h-.26Z"/>
      <path class="cls-2" d="m294.16,221.13c-1.32,0-3.08-.57-3.57-.78-1.97-.83-3.96-2.25-5.75-4.11-.37-.38-1.1-1.17-1.91-2.24l-1.54-2.05-1.86,1.77c-.84.8-1.93,1.26-3.08,1.3-.05,0-.1,0-.14,0-1.9,0-3.6-1.12-4.32-2.85-.8-1.92-1.41-3.9-1.82-5.87l-.62-3-2.69,1.45c-.68.37-1.45.56-2.22.56-.09,0-.18,0-.27,0-1.79-.1-3.34-1.19-4.04-2.85-.67-1.58-.97-3.57-.92-6.08v-.05s0-.05,0-.05c-.06-3.13.57-7.3,1.76-11.74l.77-2.87h-8.68c-3.04,0-5.52-2.48-5.52-5.52v-3.18l-.86-.68c-1.59-1.26-3.08-2.48-4.06-3.29-3.01-2.48-5.7-5.21-8.02-8.11l-.05-.06c-.08-.09-.15-.18-.23-.28-2.31-2.95-4.25-6.05-6.71-10.7l-.03-.05-.03-.05c-.51-.85-.93-1.61-1.31-2.34l-.12-.22-.1-.19c-4.9-10.17-7.39-21.2-7.39-32.77,0-5.73.66-11.46,1.95-17.02,1.57-6.43,3.94-12.58,7.05-18.28.18-.33.36-.64.53-.95l.24-.42c.55-.95,1.15-1.93,1.88-3.07l.38-.58c.96-1.49,1.95-2.92,2.95-4.26l.2-.27c.26-.35.52-.69.78-1.02.21-.28.44-.56.66-.84h0c.06-.08.44-.56.57-.71.44-.53.89-1.07,1.34-1.59l.21-.23c.43-.49.87-.98,1.33-1.47l-.05.05s.06-.07.14-.15c.18-.2.6-.65.68-.73.11-.12.22-.22.32-.32l.15-.15c.44-.45.9-.91,1.36-1.37l.19-.19c.19-.19.39-.38.58-.57.62-.59,1.22-1.14,1.82-1.68.44-.39.9-.79,1.32-1.14l.28-.24c.18-.16.37-.32.56-.47.49-.41,1.03-.84,1.61-1.3l.17-.13c3.25-2.54,6.71-4.81,10.27-6.75l.69-.38.31-.72c2.86-6.61,7.6-12.23,13.69-16.24,6.11-4.02,13.16-6.15,20.38-6.15.21,0,.42,0,.63,0h.06s.06,0,.06,0c.21,0,.42,0,.63,0,7.23,0,14.27,2.13,20.38,6.15,6.09,4.01,10.83,9.62,13.7,16.24l.31.72.69.38c6.3,3.43,12.11,7.79,17.28,12.95l.84.85c.17.16.35.34.52.53,1.83,1.93,3.6,4,5.25,6.16l.12.16c.49.65.93,1.24,1.33,1.8l.25.36c.31.44.62.88.91,1.31.25.37.5.75.74,1.12l.24.37c.71,1.11,1.32,2.11,1.86,3.04,0,0,.28.49.32.55l.25.44c.17.3.35.61.52.93,3.11,5.71,5.49,11.84,7.04,18.22,1.31,5.61,1.97,11.36,1.97,17.1,0,11.57-2.48,22.59-7.37,32.73l-.15.31c-.02.05-.06.12-.1.18l-.03.06c-.27.53-.56,1.05-.88,1.61l-.02.04-.28.54c-2.05,3.9-3.78,6.76-5.6,9.28-.41.56-.8,1.08-1.2,1.59-1.05,1.34-2.19,2.66-3.41,3.93l-3.7,3.86h5.34c11.51,0,12.99,0,13.16.01,2.97.09,6.06,1.53,8.69,4.07,2.1,2.01,4.22,4.16,6.3,6.39,2.35,2.51,4.65,5.12,6.86,7.74,3.05,3.63,2.95,8.36-.26,12.33-1.72,2.15-5.25,3.27-7.85,3.27s-5.01-1.02-6.68-2.86c-.87-.96-2.04-2.34-3.39-3.95l-.02-.02c-6.22-7.36-10.21-11.67-12.2-13.17l-.56-.42-.69-.04c-.15,0-.33-.02-.54-.03h-.05s-28.08,0-28.08,0l.77,2.87c1.19,4.44,1.82,8.6,1.75,11.74v.05s0,.05,0,.05c.06,2.51-.24,4.5-.93,6.1-.71,1.65-2.26,2.73-4.05,2.83-.08,0-.16,0-.25,0-.77,0-1.54-.19-2.22-.56l-2.7-1.46-.62,3c-.41,1.97-1.02,3.95-1.82,5.87-.72,1.73-2.41,2.85-4.31,2.85-.05,0-.11,0-.17,0-1.14-.04-2.23-.5-3.07-1.3l-1.86-1.77-1.54,2.05c-.81,1.08-1.54,1.87-1.9,2.24-1.8,1.86-3.79,3.28-5.76,4.1-.49.21-2.24.77-3.56.77h-.26Z"/>
      <path class="cls-2" d="m294.16,221.13c-1.32,0-3.08-.57-3.57-.78-1.97-.83-3.96-2.25-5.75-4.11-.37-.38-1.1-1.17-1.91-2.24l-1.54-2.05-1.86,1.77c-.84.8-1.93,1.26-3.08,1.3-.05,0-.1,0-.14,0-1.9,0-3.6-1.12-4.32-2.85-.8-1.92-1.41-3.9-1.82-5.87l-.62-3-2.69,1.45c-.68.37-1.45.56-2.22.56-.09,0-.18,0-.27,0-1.79-.1-3.34-1.19-4.04-2.85-.67-1.58-.97-3.57-.92-6.08v-.05s0-.05,0-.05c-.06-3.13.57-7.3,1.76-11.74l.77-2.87h-8.68c-3.04,0-5.52-2.48-5.52-5.52v-3.18l-.86-.68c-1.59-1.26-3.08-2.48-4.06-3.29-3.01-2.48-5.7-5.21-8.02-8.11l-.05-.06c-.08-.09-.15-.18-.23-.28-2.31-2.95-4.25-6.05-6.71-10.7l-.03-.05-.03-.05c-.51-.85-.93-1.61-1.31-2.34l-.12-.22-.1-.19c-4.9-10.17-7.39-21.2-7.39-32.77,0-5.73.66-11.46,1.95-17.02,1.57-6.43,3.94-12.58,7.05-18.28.18-.33.36-.64.53-.95l.24-.42c.55-.95,1.15-1.93,1.88-3.07l.38-.58c.96-1.49,1.95-2.92,2.95-4.26l.2-.27c.26-.35.52-.69.78-1.02.21-.28.44-.56.66-.84h0c.06-.08.44-.56.57-.71.44-.53.89-1.07,1.34-1.59l.21-.23c.43-.49.87-.98,1.33-1.47l-.05.05s.06-.07.14-.15c.18-.2.6-.65.68-.73.11-.12.22-.22.32-.32l.15-.15c.44-.45.9-.91,1.36-1.37l.19-.19c.19-.19.39-.38.58-.57.62-.59,1.22-1.14,1.82-1.68.44-.39.9-.79,1.32-1.14l.28-.24c.18-.16.37-.32.56-.47.49-.41,1.03-.84,1.61-1.3l.17-.13c3.25-2.54,6.71-4.81,10.27-6.75l.69-.38.31-.72c2.86-6.61,7.6-12.23,13.69-16.24,6.11-4.02,13.16-6.15,20.38-6.15.21,0,.42,0,.63,0h.06s.06,0,.06,0c.21,0,.42,0,.63,0,7.23,0,14.27,2.13,20.38,6.15,6.09,4.01,10.83,9.62,13.7,16.24l.31.72.69.38c6.3,3.43,12.11,7.79,17.28,12.95l.84.85c.17.16.35.34.52.53,1.83,1.93,3.6,4,5.25,6.16l.12.16c.49.65.93,1.24,1.33,1.8l.25.36c.31.44.62.88.91,1.31.25.37.5.75.74,1.12l.24.37c.71,1.11,1.32,2.11,1.86,3.04,0,0,.28.49.32.55l.25.44c.17.3.35.61.52.93,3.11,5.71,5.49,11.84,7.04,18.22,1.31,5.61,1.97,11.36,1.97,17.1,0,11.57-2.48,22.59-7.37,32.73l-.15.31c-.02.05-.06.12-.1.18l-.03.06c-.27.53-.56,1.05-.88,1.61l-.02.04-.28.54c-2.05,3.9-3.78,6.76-5.6,9.28-.41.56-.8,1.08-1.2,1.59-1.05,1.34-2.19,2.66-3.41,3.93l-3.7,3.86h5.34c11.51,0,12.99,0,13.16.01,2.97.09,6.06,1.53,8.69,4.07,2.1,2.01,4.22,4.16,6.3,6.39,2.35,2.51,4.65,5.12,6.86,7.74,3.05,3.63,2.95,8.36-.26,12.33-1.72,2.15-5.25,3.27-7.85,3.27s-5.01-1.02-6.68-2.86c-.87-.96-2.04-2.34-3.39-3.95l-.02-.02c-6.22-7.36-10.21-11.67-12.2-13.17l-.56-.42-.69-.04c-.15,0-.33-.02-.54-.03h-.05s-28.08,0-28.08,0l.77,2.87c1.19,4.44,1.82,8.6,1.75,11.74v.05s0,.05,0,.05c.06,2.51-.24,4.5-.93,6.1-.71,1.65-2.26,2.73-4.05,2.83-.08,0-.16,0-.25,0-.77,0-1.54-.19-2.22-.56l-2.7-1.46-.62,3c-.41,1.97-1.02,3.95-1.82,5.87-.72,1.73-2.41,2.85-4.31,2.85-.05,0-.11,0-.17,0-1.14-.04-2.23-.5-3.07-1.3l-1.86-1.77-1.54,2.05c-.81,1.08-1.54,1.87-1.9,2.24-1.8,1.86-3.79,3.28-5.76,4.1-.49.21-2.24.77-3.56.77h-.26Z"/>
      <g>
        <path class="cls-8" d="m239.39,156.41c2.98,2.91,5.52,4.53,6.19,4.2-.03-.07-.05-.14-.07-.21-.14-.4-.26-.79-.39-1.17-.2-.58-.39-1.15-.57-1.7-.16-.49-.32-.96-.48-1.43-.08-.24-.16-.47-.24-.7s-.15-.47-.23-.7c.99,1.35,2.02,2.57,3.15,3.64.12.11.24.22.35.33.03.02.05.04.07.06.29.25.58.5.88.73.14.11.27.21.41.32.92.68,1.89,1.24,2.93,1.68.34.14.69.28,1.04.39,2.14.7,4.54.86,7.32.35-.6-.72-1.2-1.43-1.79-2.13-1.19-1.42-2.36-2.82-3.51-4.2-.7-.84-1.41-1.68-2.1-2.51l-.59-.7c-.13-.15-.26-.32-.39-.47.14.14.28.29.43.43.57.57,1.13,1.12,1.7,1.64.39.35.77.7,1.15,1.03.43.37.86.73,1.28,1.08.43.34.85.67,1.27.99.63.46,1.25.9,1.87,1.3.64.41,1.27.79,1.9,1.12,3.38,1.81,6.5,2.46,9.22,1.88.39-.08.76-.19,1.13-.32.18-.06.37-.14.55-.21.36-.15.72-.34,1.06-.54.34-.21.68-.44,1.01-.7.16-.13.32-.26.48-.41-.76-.5-1.53-1.01-2.3-1.51-3.86-2.55-7.75-5.12-11.63-7.69.11-.1.22-.19.32-.29.64.23,1.28.47,1.91.72,1.27.48,2.54.98,3.81,1.46.63.25,1.27.49,1.9.73.15.06.32.12.47.17,1.28.48,2.55.95,3.84,1.39.17.06.34.12.52.17.31.1.63.21.93.31.64.21,1.29.41,1.94.59.26.08.51.15.76.21.25.06.5.11.75.15.15.03.3.05.46.07.06,0,.13.02.19.03.31.04.63.06.93.07.14,0,.28.01.41.01h.17c.46,0,.92-.05,1.37-.11.23-.03.45-.07.67-.12.31-.07.62-.15.92-.24.08-.02.15-.05.23-.07.26-.09.52-.19.78-.3.19-.08.39-.17.59-.28.48-.24.94-.52,1.39-.84.75-.52,1.44-1.15,2.09-1.86h0c.26-.29.2-.28.44-.59,0-.06-2.18-.92-5.3-2.12-.05-.02-.09-.04-.14-.06-2.24-.86-11.92-4.56-17.28-6.61-2.38-.92-4.2-2.89-4.94-5.34-1.85-6.16-2.45-12.9-1.79-20.16.05-.52.1-1.04.16-1.56.61-9.67,2.5-17.32,5.74-23.14.99-1.77,2.09-3.37,3.33-4.81.77-.19,1.56-.3,2.28-.41,1.64-.24,3.65-.44,5.88-.6.65-.05,1.32-.09,2-.13.39-.03.8-.05,1.21-.06.3-.01.59-.03.88-.05.52-.03,1.05-.05,1.58-.06.2-.01.39-.02.59-.03.6-.03,1.21-.04,1.82-.06.14,0,.26-.01.4-.01.67-.02,1.34-.03,2.02-.05.08,0,.17,0,.25,0,.75-.01,1.5-.03,2.26-.03h.03c.73-.01,1.47-.02,2.2-.02h.1c.71,0,1.42,0,2.13,0h.28v-.04h.28c.71,0,1.42,0,2.13,0h.1c.73,0,1.47.01,2.2.02h.03c.75,0,1.51.02,2.26.04.08,0,.17,0,.25,0,.68.01,1.35.03,2.02.05.14,0,.26,0,.4.01.61.02,1.22.04,1.82.06.2,0,.39.02.59.03.54.02,1.06.04,1.59.06.3.01.59.03.88.05.41.02.81.04,1.21.06.68.04,1.35.08,2,.13,2.22.16,4.23.36,5.88.6.72.11,1.51.23,2.28.41,1.23,1.44,2.34,3.04,3.33,4.81,3.24,5.82,5.12,13.47,5.74,23.14.06.52.12,1.04.16,1.56.66,7.27.06,14.01-1.79,20.16-.73,2.45-2.55,4.42-4.94,5.34-5.36,2.06-15.04,5.76-17.28,6.62-.05.01-.09.03-.14.05-3.13,1.21-5.3,2.06-5.3,2.12.24.31.18.3.44.59t0,0c.64.72,1.34,1.34,2.08,1.87.45.32.91.59,1.39.83.19.1.39.19.59.28.26.11.52.21.78.3.07.03.15.05.23.07.3.1.61.18.92.24.22.05.44.08.67.12.44.07.9.1,1.37.11h.17c.14,0,.28,0,.41-.01.3,0,.62-.03.93-.07.06,0,.13-.02.19-.03.15-.02.3-.04.46-.07.25-.04.5-.09.75-.15.25-.06.5-.12.76-.2.64-.19,1.3-.39,1.94-.6.31-.1.63-.21.93-.31.17-.06.34-.12.52-.17,1.28-.44,2.56-.91,3.84-1.39.15-.06.32-.12.47-.17.63-.24,1.27-.48,1.9-.73,1.27-.49,2.54-.99,3.81-1.47.63-.24,1.27-.48,1.9-.72.11.1.22.19.33.29-3.88,2.57-7.77,5.14-11.63,7.69-.77.51-1.54,1.01-2.3,1.52.16.14-.16-.14,0,0,.33.25,1.15.89,1.49,1.1.34.21.7.39,1.06.54.18.08.37.15.55.21.37.14.75.24,1.13.32,2.73.58,5.85-.07,9.22-1.88.63-.33,1.26-.7,1.9-1.12.61-.4,1.24-.83,1.87-1.3.42-.31.84-.64,1.27-.99.43-.34.86-.7,1.28-1.08.38-.33.77-.68,1.15-1.03.56-.52,1.13-1.07,1.7-1.64.15-.14.29-.29.43-.43-.14.15-.26.32-.39.47l-.59.7c-.7.84-1.4,1.67-2.1,2.51-1.15,1.38-2.32,2.77-3.51,4.2-.59.7-1.19,1.41-1.79,2.13,2.78.52,5.18.35,7.32-.34.35-.12.7-.24,1.04-.39,1.04-.44,2-1,2.93-1.68.14-.1.28-.21.41-.32.3-.23.59-.48.88-.73.03-.03.05-.05.07-.06.12-.11.23-.21.35-.33,1.12-1.06,2.16-2.29,3.15-3.64-.08.23-.15.47-.23.7s-.16.46-.24.7c-.16.47-.32.94-.48,1.43-.19.55-.37,1.12-.57,1.7-.13.38-.26.77-.39,1.17-.02.07-.05.14-.07.21.68.33,3.22-1.3,6.19-4.2.69-.68,1.28-1.25,1.74-1.71,1.87-1.87,4.03-4.2,6.02-7.14.36-.69.73-1.41,1.12-2.17,4.73-9.71,7.19-20.46,7.07-31.6-.03-2.48-.19-4.94-.47-7.38,0-.03,0-.07-.01-.1-.06-.54-.13-1.07-.21-1.61-.01-.09-.02-.17-.04-.26-.07-.48-.14-.96-.22-1.43-.02-.13-.04-.26-.06-.39-.07-.42-.15-.85-.23-1.27-.03-.17-.06-.34-.1-.52-.07-.36-.15-.72-.22-1.07-.05-.23-.1-.46-.15-.69-.05-.24-.11-.47-.17-.7-1.45-6.18-3.72-12.14-6.76-17.7-.16-.3-.33-.59-.49-.88-.08-.14-.16-.28-.24-.42-.56-.97-1.14-1.91-1.74-2.85-.07-.12-.15-.23-.22-.34-.23-.35-.46-.71-.7-1.05-.28-.42-.57-.83-.85-1.24-.08-.11-.15-.22-.23-.33-.41-.57-.82-1.13-1.24-1.69-.04-.05-.08-.1-.11-.15-1.53-2.01-3.17-3.94-4.92-5.78-.24-.26-.5-.5-.75-.75-.18-.18-.36-.36-.53-.54-5.47-5.47-11.68-9.94-18.41-13.3-4.42-12.67-16.46-21.76-30.64-21.76-.23,0-.46,0-.68.01-.23,0-.46-.01-.69-.01-14.17,0-26.22,9.09-30.63,21.76-4.16,2.08-8.12,4.59-11.84,7.49-.05.04-.1.08-.15.12-.51.4-1.02.81-1.53,1.23-.23.19-.46.39-.68.58-.45.38-.89.76-1.33,1.15-.58.52-1.15,1.04-1.71,1.57-.25.24-.49.48-.73.72-.44.43-.87.87-1.3,1.31-.14.14-.28.28-.42.42-.15.16-.3.33-.45.49-.09.1-.18.19-.27.29-.42.46-.84.92-1.25,1.39-.06.07-.12.13-.18.2-.43.5-.85,1-1.27,1.5-.18.22-.36.44-.53.66-.21.26-.42.53-.63.79-.24.31-.48.63-.72.94-.07.09-.13.18-.2.27-1.63,2.19-3.15,4.48-4.52,6.86-.14.24-.27.48-.41.72-.11.19-.22.39-.33.58-4.45,8.15-7.27,17.14-8.25,26.43,0,.06-.01.13-.02.2-.05.49-.1.98-.14,1.47,0,.09-.01.18-.02.28-.03.37-.06.74-.08,1.11,0,.14-.02.27-.03.41-.02.35-.03.69-.05,1.04-.01.26-.02.51-.03.77,0,.29-.01.57-.02.86,0,.18,0,.37,0,.55,0,.01,0,.03,0,.04,0,0,0,.01,0,.02,0,.08,0,.17,0,.25,0,.4,0,.8,0,1.19,0,.16,0,.32,0,.48,0,.06,0,.13,0,.19,0,.05,0,.1,0,.15,0,.34.02.68.03,1.03,0,.2.02.4.02.59,0,.1,0,.2.01.3,0,.03,0,.05,0,.08,0,.09.01.18.02.26,0,.04,0,.08,0,.12.52,9.47,2.9,18.58,6.96,26.93.41.81.81,1.57,1.19,2.3,2.57,3.86,5.36,6.68,7.49,8.76Z"/>
        <path class="cls-8" d="m376.59,182.02c-2.4-2.57-4.51-4.67-6.13-6.22-1.76-1.7-3.8-2.71-5.57-2.76-.24,0-14.01,0-31.8-.01.02-.01.04-.03.06-.04-.21,0-.42,0-.63,0,.08-.06.17-.12.26-.17,2.57-1.73,6.72-5.07,9.56-7.41,2.79-2.3,5.36-4.87,7.59-7.72.37-.47.73-.96,1.09-1.45-1.59,1.9-3.48,3.83-5.86,5.82-.15.12-.31.24-.46.35-.75.53-1.44.84-2.04.84-.31,0-.62.03-.92-.04-.53-.12-1.03-.39-1.41-.8-1.6,1.07-3.46,1.93-5.61,2.38-2.08.44-4.42.5-7.08,0-.02,0-.05,0-.06-.01-.84-.18-1.55-.75-1.89-1.54-3.04,1.21-5.91,1.55-8.55.99-2.01-.43-3.85-1.37-5.45-2.79-.25-.22-.46-.48-.6-.77-2.46,1.91-4.92,3.46-7.18,4.69-.3.16-.59.32-.88.47-.03.01-.05.03-.08.04-.26.14-.52.26-.77.39-.08.04-.15.08-.24.12-.19.1-.39.19-.59.28-.09.05-.17.08-.26.13-.18.08-.36.17-.54.24-.08.04-.16.07-.24.11-.17.08-.35.15-.52.23-.1.04-.19.08-.29.12-.15.06-.3.13-.44.19-.1.05-.2.08-.3.12-.13.05-.26.11-.39.15-.11.05-.21.08-.32.12-.11.05-.23.09-.34.13-.12.05-.23.08-.34.12-.1.03-.19.07-.28.1-.13.05-.24.08-.37.12-.07.03-.14.05-.21.07-.14.04-.26.08-.38.12-.05.02-.1.03-.15.05-.13.04-.26.07-.37.11-.04,0-.08.02-.11.03-.14.04-.27.08-.39.1-.01,0-.03.01-.04.01-.13.03-.25.06-.37.08,0,0-.01,0-.02,0-.12.03-.23.05-.32.06h0c-.1.02-.19.03-.27.04,0,0-.02,0-.03,0-.03,0-.06,0-.1,0v.04s-.06,0-.1,0c-.01,0-.03,0-.03,0-.08,0-.17-.02-.27-.04h0c-.1-.01-.21-.04-.32-.06,0,0-.01,0-.02,0-.12-.03-.24-.05-.37-.08-.01,0-.03,0-.04-.01-.12-.03-.26-.06-.39-.1-.03,0-.07-.02-.11-.03-.12-.04-.24-.07-.37-.11-.05-.02-.1-.04-.15-.05-.12-.04-.24-.08-.38-.12-.06-.03-.14-.05-.21-.07-.12-.04-.24-.08-.37-.12-.09-.03-.19-.07-.28-.1-.11-.04-.22-.08-.34-.12-.11-.04-.23-.08-.34-.13-.11-.04-.21-.08-.32-.12-.13-.05-.26-.1-.39-.15-.1-.05-.2-.08-.3-.12-.15-.06-.3-.12-.44-.19-.1-.05-.19-.08-.29-.12-.17-.08-.35-.15-.52-.23-.08-.04-.16-.07-.24-.11-.17-.08-.35-.17-.53-.25-.09-.04-.17-.08-.26-.12-.19-.09-.39-.19-.59-.28-.08-.04-.16-.08-.25-.12-.25-.13-.51-.26-.77-.4-.03-.01-.05-.02-.07-.04-.29-.15-.59-.3-.88-.46-2.26-1.23-4.72-2.78-7.18-4.69-.14.28-.35.55-.6.77-1.6,1.42-3.44,2.36-5.45,2.79-2.64.56-5.52.22-8.55-.99-.35.79-1.05,1.36-1.89,1.54-.02,0-.05.01-.06.01-2.66.49-5,.43-7.08,0-2.15-.46-4-1.31-5.61-2.38-.38.41-.88.68-1.41.8-.3.06-.61.03-.92.03-.59.01-1.28-.3-2.04-.83-.15-.1-.3-.23-.46-.35-1.68-1.41-3.11-2.79-4.36-4.15,2.18,2.75,4.67,5.24,7.38,7.47,2.84,2.35,6.99,5.68,9.56,7.41h.34c.08.06.17.11.25.17h-.99s.04.03.06.04h-1.77c-.46,0-.84.37-.84.84v2.31c0,.46.37.84.84.84h9.71c1.59.79,3.23,1.48,4.88,2.15-.07.18-.14.37-.21.55,0,0,.01,0,.02,0-2.15,5.6-3.7,12.31-3.57,16.65-.05,1.78.11,3.27.54,4.29,3.6-6.41,7.11-12.68,10.61-18.92l1.53.96s0,0,.01,0c-1.31,5.36-2.7,10.72-2.59,16.31-.07,3.67.48,7.43,2.11,11.34,3.11-9.16,6.08-17.91,9.04-26.58.45.06.9.12,1.35.17-.03.17-.06.34-.1.51,0,0,0,0,.01,0-.14.74-.27,1.48-.41,2.21-.03.16-.06.32-.09.48-.49,2.69-.99,5.37-1.46,8.05,0,.06,0,.12-.02.17-.21,1.2-.38,2.41-.51,3.63h0c-.14,1.22-.28,4.32-.26,4.58,0,.15-.01.3-.02.44-.1,2.77,1.82,6.35,4.38,8.98,1.3,1.34,2.76,2.44,4.21,3.05.29.12,1.36.41,1.74.41h.26c.38,0,1.45-.28,1.74-.41,1.45-.61,2.91-1.71,4.22-3.05,2.55-2.64,4.48-6.21,4.37-8.98,0-.15-.02-.3-.02-.44.01-.25-.13-3.35-.26-4.56h0c-.13-1.23-.3-2.44-.51-3.64-.01-.06-.01-.12-.02-.17-.48-2.68-.97-5.36-1.46-8.05-.03-.16-.06-.32-.09-.48-.14-.75-.28-1.5-.42-2.25,0,0,0,0,0,0-.03-.16-.06-.31-.09-.47.46-.05.91-.11,1.36-.17,2.95,8.67,5.92,17.42,9.03,26.58,1.62-3.92,2.18-7.68,2.11-11.34.11-5.61-1.3-11.01-2.61-16.39,0,0,0,0,0,0l1.56-.88c3.5,6.24,7.01,12.51,10.61,18.92.44-1.02.6-2.51.54-4.29.13-4.36-1.44-11.16-3.61-16.78,0,0,0,0,0,0-.06-.16-.12-.31-.18-.47.19-.07.41-.06.59-.13,1.46-.61,2.89-1.26,4.3-1.97h29.24c1.28.06,2.1.12,2.28.17,4.12,1.18,14.78,14.84,18.53,18.99,2.3,2.55,6.61.79,7.41-.21,1.58-1.96,2.03-4.34.32-6.39-2.38-2.84-4.65-5.37-6.69-7.55Zm-90.29,4.69s-.06-.02-.08-.03c.02,0,.04,0,.08.02h0Zm15.84,0s.06-.01.08-.02c-.02,0-.05.01-.08.03h0Z"/>
      </g>
      <path class="cls-8" d="m284.07,160.11c.35.21.69.41,1.02.59.23.14.45.26.67.37.05.03.09.05.14.08,0,0,0,0,0,0t.01,0s.01,0,.02,0c.32.17.63.34.93.49.32.17.63.32.94.47.66.32,1.28.61,1.86.86.18.08.35.15.53.22.57.24,1.09.44,1.56.61.1.04.21.08.3.11.31.12.59.21.84.29.07.02.14.04.21.06.3.09.54.15.72.2v.03s.03,0,.03,0h0s.05-.01.06-.02c0,0,.02,0,.03,0v-.04h.03s.05,0,.06.01h0s.02,0,.03,0v-.03c.18-.05.42-.11.72-.2.06-.02.14-.05.21-.06.25-.08.53-.17.84-.28.1-.04.2-.07.3-.12.47-.17.99-.37,1.56-.61.17-.07.35-.15.53-.23.57-.24,1.2-.53,1.86-.85.31-.15.62-.31.94-.48.3-.15.61-.32.93-.49,0,0,.01,0,.02,0t.01,0s0,0,0,0c.05-.03.09-.05.14-.08.22-.12.44-.24.67-.37.33-.19.67-.39,1.02-.6.61-.37,1.24-.76,1.88-1.19.18-.12.36-.24.55-.37-.22-.03-.43-.07-.64-.12-1.39-.3-2.71-.81-3.95-1.55-1.79-1.06-3.4-2.57-4.77-4.49-.48-.67-.63-1.54-.38-2.33.25-.8.84-1.43,1.62-1.72,1.1-.41,2.21-.82,3.32-1.22,1.19-.43,2.38-.86,3.54-1.28,4.39-1.57,8.9-3.2,13.29-4.99.84-.34,1.68-.69,2.51-1.04.62-.26,1.17-.81,1.64-1.51.1-.28.21-.58.31-.87,0,0,0-.01,0-.03.1-.29.19-.59.29-.88.09-.3.18-.61.27-.91.08-.26.15-.52.21-.78.02-.07.04-.14.06-.21.07-.28.14-.57.21-.85.08-.31.15-.62.21-.93h0c0-.22.05-.43.12-.64.05-.13.08-.28.1-.43.05-.28.1-.55.15-.83.05-.24.08-.48.12-.73.01-.05.01-.1.02-.15.02-.09.03-.18.05-.27.03-.21.06-.42.08-.63.02-.13.03-.25.05-.38.03-.22.05-.44.07-.66.01-.12.03-.23.04-.34.03-.25.05-.5.06-.75.06-.68.1-1.37.12-2.07.01-.27.02-.55.03-.83,0-.09,0-.19,0-.28,0-.3,0-.59,0-.89,0-.79-.02-1.59-.05-2.4-.06-1.39-.17-2.82-.34-4.26l-.02-.14c-.69-11.09-3.14-18.56-6.72-23.57-3.88-.64-12.04-1.18-23.24-1.18h-.68v.04h-.68c-11.2,0-19.36.53-23.24,1.17-3.58,5.01-6.03,12.49-6.72,23.58l-.02.14c-.17,1.44-.28,2.86-.34,4.26-.03.81-.05,1.61-.05,2.4,0,.3,0,.59,0,.89,0,.09,0,.18,0,.27,0,.28.01.55.02.83.03.7.07,1.39.13,2.07.02.25.04.5.06.75.01.11.03.23.04.34.02.23.05.44.07.66.01.13.03.25.05.37.03.21.05.42.08.63.01.09.03.19.05.28,0,.05,0,.1.02.15.03.24.07.48.12.73.05.28.1.55.15.83.02.15.05.31.1.44.07.21.12.42.12.63h0c.06.32.14.63.21.93.06.28.14.57.21.85.02.06.04.14.06.21.06.26.14.52.21.78.09.3.18.61.27.91.1.3.19.59.29.88,0,.01,0,.02,0,.03.1.29.21.58.31.87.48.7,1.02,1.24,1.64,1.5.83.36,1.67.71,2.51,1.05,4.39,1.79,8.9,3.42,13.29,4.99,1.17.42,2.35.84,3.54,1.28,1.11.41,2.22.81,3.32,1.22.78.29,1.38.93,1.62,1.72.24.8.1,1.66-.38,2.34-1.37,1.91-2.98,3.42-4.77,4.49-1.24.73-2.57,1.26-3.95,1.55-.21.05-.43.08-.64.12.19.12.37.24.55.37.64.43,1.26.82,1.88,1.19Z"/>
      <path class="cls-16" d="m325.01,122.94c0,.3,0,.59,0,.89,0,.09,0,.19,0,.28,0,.28-.01.55-.03.83-.03.7-.06,1.39-.12,2.07-.02.25-.04.5-.06.75-.01.12-.03.23-.04.34-.02.23-.05.44-.07.66-.01.13-.03.25-.05.38-.03.21-.05.41-.08.63-.01.09-.03.18-.05.27,0,.05,0,.1-.02.15-.03.24-.07.48-.12.73-.05.28-.1.55-.15.83-.02.15-.05.3-.1.43-.07.21-.12.42-.12.63h0c-.06.32-.14.63-.21.93-.06.28-.14.57-.21.85-.02.07-.04.14-.06.21-.06.26-.14.52-.21.78-.09.3-.18.61-.27.91-.1.3-.19.59-.29.88,0,.01,0,.02,0,.03-.1.29-.21.59-.31.87-.48.7-1.02,1.24-1.64,1.51-.83.35-1.67.7-2.51,1.04-4.39,1.79-8.9,3.42-13.29,4.99-1.17.42-2.35.84-3.54,1.28-1.11.41-2.22.81-3.32,1.22-.78.29-1.38.92-1.62,1.72-.24.79-.1,1.66.38,2.33,1.37,1.91,2.98,3.42,4.77,4.49,1.24.74,2.57,1.26,3.95,1.55.21.05.43.08.64.12-.19.12-.37.25-.55.37-.64.43-1.26.82-1.88,1.19-.35.21-.69.41-1.02.6-.23.13-.45.25-.67.37-.05.03-.09.05-.14.08,0,0,0,0,0,0t-.01,0s-.01,0-.02,0c-.32.17-.63.34-.93.49-.32.17-.63.32-.94.48-.66.32-1.28.61-1.86.85-.18.08-.35.15-.53.23-.57.24-1.09.44-1.56.61-.1.05-.21.08-.3.12-.31.11-.59.21-.84.28-.07.02-.14.05-.21.06-.3.09-.53.15-.72.2h0s.08-.03.11-.05c.05,0,.08-.02.13-.03.12-.03.24-.07.38-.11.07-.03.14-.05.21-.07.24-.08.53-.17.84-.28.1-.03.2-.07.31-.11.46-.17.99-.37,1.56-.61.17-.07.34-.14.52-.22.58-.25,1.2-.53,1.86-.86.3-.15.62-.3.94-.47.3-.15.61-.32.92-.49,0,0,.01,0,.02-.01,0,0,.01,0,.01,0h.01s.09-.05.14-.08c.22-.12.44-.24.66-.37.34-.19.68-.39,1.02-.59.61-.37,1.24-.77,1.87-1.19.19-.12.37-.24.55-.37-.21-.03-.43-.07-.64-.12-1.39-.3-2.71-.82-3.95-1.55-1.79-1.06-3.4-2.58-4.76-4.49-.48-.68-.63-1.54-.39-2.34.24-.79.84-1.43,1.62-1.72,1.1-.41,2.22-.82,3.33-1.22,1.19-.43,2.38-.86,3.54-1.28,4.39-1.58,8.9-3.2,13.29-4.99.84-.34,1.68-.69,2.51-1.05.61-.26,1.16-.8,1.64-1.5.11-.29.21-.58.31-.87,0-.01,0-.02,0-.03.1-.3.2-.59.29-.88.1-.3.19-.61.27-.91.08-.26.15-.52.22-.79.01-.06.03-.14.05-.2.08-.28.14-.57.21-.85.07-.31.14-.62.21-.93h0c0-.23.05-.43.11-.64.05-.13.08-.29.1-.44.05-.28.1-.55.15-.83.04-.24.08-.48.12-.73,0-.06.01-.1.02-.15.01-.09.03-.18.04-.27.03-.21.06-.41.08-.63.02-.12.03-.24.05-.37.03-.22.05-.44.08-.66.01-.12.03-.23.03-.34.03-.25.05-.5.07-.75.05-.68.1-1.37.12-2.07,0-.28.02-.55.03-.83v-.27c0-.3.01-.59.01-.89,0-.79-.02-1.6-.05-2.4-.06-1.4-.18-2.82-.35-4.27v-.13c-.71-11.09-3.16-18.56-6.74-23.58-3.88-.64-12.03-1.17-23.24-1.17h-.59s.68-.01.68-.01c11.2,0,19.36.53,23.24,1.18,3.58,5.01,6.03,12.48,6.72,23.57l.02.14c.17,1.44.28,2.87.34,4.26.03.81.05,1.61.05,2.4Z"/>
      <path class="cls-16" d="m293.95,91.43h0s-.59.01-.59.01c-11.21,0-19.36.53-23.24,1.17-3.58,5.01-6.03,12.48-6.73,23.58v.13c-.18,1.45-.3,2.87-.36,4.27-.03.81-.05,1.6-.05,2.4,0,.3,0,.6.01.9v.27c0,.28.02.55.03.83.03.7.07,1.38.12,2.07.03.25.05.5.07.75,0,.12.02.23.03.35.02.22.05.44.08.66.01.13.03.25.05.37.03.21.05.42.08.63.01.09.03.17.04.26,0,.06.01.1.02.15.04.24.08.49.12.73.05.28.1.55.15.83.03.15.06.31.1.44.06.21.11.41.11.63h0c.07.32.14.63.21.93.07.29.14.57.21.85.02.07.04.14.05.21.07.26.14.52.22.79.08.3.17.61.27.9.09.3.19.59.28.89,0,0,0,.01.01.03.1.29.2.58.3.87.48.7,1.03,1.24,1.64,1.5.83.35,1.67.71,2.51,1.04,4.39,1.8,8.9,3.42,13.29,5,1.17.42,2.35.84,3.54,1.28,1.11.4,2.22.81,3.33,1.22.78.29,1.38.93,1.62,1.72.24.8.1,1.66-.38,2.34-1.36,1.91-2.97,3.42-4.76,4.49-1.24.73-2.57,1.26-3.95,1.55-.21.05-.43.09-.64.12.18.12.36.24.55.37.63.42,1.26.82,1.87,1.18.35.21.69.41,1.02.6.23.13.44.25.66.37.05.03.09.05.14.08h.01s0,0,.01,0c0,0,.01,0,.02.01.32.17.62.33.92.48.32.17.64.33.94.48.66.32,1.28.61,1.86.86.18.08.35.15.52.22.57.24,1.1.44,1.56.61.11.04.21.08.31.11.31.11.59.21.84.28.08.03.14.05.21.06.14.05.26.08.38.12.05.01.08.02.12.03s.08.02.12.03h0c-.18-.03-.42-.1-.72-.19-.06-.03-.14-.05-.21-.06-.25-.08-.53-.17-.84-.29-.1-.03-.2-.07-.3-.11-.47-.17-.99-.37-1.56-.61-.17-.07-.35-.14-.53-.22-.57-.25-1.2-.53-1.86-.86-.31-.15-.62-.3-.94-.47-.3-.15-.61-.32-.93-.49,0,0-.01,0-.02,0t-.01,0s0,0,0,0c-.05-.03-.09-.05-.14-.08-.22-.12-.44-.24-.67-.37-.33-.19-.67-.39-1.02-.59-.61-.37-1.24-.76-1.88-1.19-.18-.12-.36-.24-.55-.37.22-.03.43-.07.64-.12,1.39-.3,2.71-.82,3.95-1.55,1.79-1.06,3.4-2.58,4.77-4.49.48-.68.63-1.54.38-2.34-.24-.79-.84-1.43-1.62-1.72-1.1-.41-2.21-.81-3.32-1.22-1.19-.43-2.38-.86-3.54-1.28-4.39-1.57-8.9-3.2-13.29-4.99-.84-.34-1.68-.69-2.51-1.05-.62-.26-1.17-.8-1.64-1.5-.1-.29-.21-.58-.31-.87,0,0,0-.01,0-.03-.1-.29-.19-.59-.29-.88-.09-.3-.18-.61-.27-.91-.08-.26-.15-.52-.21-.78-.02-.07-.04-.14-.06-.21-.07-.28-.14-.57-.21-.85-.08-.31-.15-.62-.21-.93h0c0-.22-.05-.43-.12-.64-.05-.13-.08-.29-.1-.44-.05-.27-.1-.55-.15-.83-.05-.24-.08-.48-.12-.73-.01-.05-.02-.1-.02-.15-.02-.09-.03-.19-.05-.28-.03-.21-.06-.41-.08-.63-.02-.12-.03-.24-.05-.37-.03-.22-.05-.44-.07-.66-.01-.12-.03-.23-.04-.34-.03-.25-.05-.5-.06-.75-.06-.68-.1-1.37-.13-2.07,0-.28-.01-.55-.02-.83,0-.09,0-.18,0-.27,0-.3,0-.59,0-.89,0-.79.02-1.6.05-2.4.06-1.4.17-2.82.34-4.26l.02-.14c.69-11.09,3.14-18.56,6.72-23.58,3.88-.64,12.04-1.17,23.24-1.17h.68Z"/>
      <path class="cls-15" d="m385.13,188.08c-2.18-2.59-4.45-5.17-6.77-7.65-2.05-2.2-4.15-4.32-6.21-6.31-2.18-2.1-4.77-3.34-7.12-3.41-.16,0-3.16,0-14.89,0h-10.59c1.64-1.3,3.22-2.59,4.35-3.52,3.01-2.48,5.68-5.2,7.94-8.08.39-.5.77-1,1.14-1.52,1.75-2.42,3.42-5.19,5.42-8.98l.3-.58c.33-.58.63-1.13.92-1.68.03-.05.06-.1.08-.16l.12-.25c4.74-9.83,7.14-20.5,7.14-31.71,0-5.56-.64-11.11-1.9-16.52-1.51-6.19-3.8-12.13-6.82-17.66-.17-.31-.34-.61-.51-.91l-.25-.44-.09-.15-.21-.37c-.52-.9-1.11-1.86-1.8-2.94l-.23-.36c-.24-.37-.48-.73-.72-1.09-.29-.43-.58-.86-.88-1.28l-.24-.35c-.42-.59-.85-1.17-1.28-1.74l-.12-.16c-1.6-2.1-3.31-4.1-5.09-5.97-.16-.17-.32-.33-.48-.49,0,0-.63-.63-.84-.84-5.41-5.4-11.52-9.88-18.18-13.31-5.11-13.45-18.05-22.42-32.51-22.42-.23,0-.46,0-.68.01-.23,0-.46-.01-.69-.01-14.46,0-27.4,8.97-32.5,22.42-3.96,2.05-7.79,4.5-11.4,7.31l-.16.12c-.53.42-1.06.84-1.57,1.27-.18.15-.36.3-.53.45l-.28.23c-.43.37-.86.73-1.27,1.1-.6.53-1.18,1.07-1.76,1.63-.19.18-.37.36-.56.54l-.2.19c-.45.45-.9.9-1.35,1.35l-.16.16c-.09.09-.18.18-.27.28-.1.11-.74.8-.74.8-.44.47-.87.95-1.29,1.44l-.18.2c-.44.51-.88,1.03-1.31,1.55-.14.16-.55.69-.55.69-.22.27-.43.55-.65.82-.25.32-.5.65-.75.97l-.2.28c-.97,1.3-1.93,2.69-2.86,4.14l-.37.57c-.71,1.1-1.28,2.04-1.81,2.95l-.24.43c-.17.3-.34.61-.51.92-3.02,5.53-5.31,11.47-6.83,17.68-1.26,5.39-1.89,10.94-1.89,16.5,0,11.22,2.4,21.89,7.14,31.71l.08.17s.09.17.11.21c.37.72.8,1.48,1.31,2.32l.04.08c2.39,4.54,4.27,7.54,6.49,10.38.06.07.12.14.17.21l.05.05c2.22,2.8,4.82,5.43,7.72,7.82,1.56,1.29,3.98,3.26,6.25,5-.3.48-.48,1.05-.48,1.67v2.31c0,1.74,1.41,3.16,3.16,3.16h9.17c.83.4,1.66.77,2.48,1.12-2.03,5.76-3.25,11.85-3.15,15.91-.06,2.21.18,3.91.73,5.2.35.82,1.12,1.36,2.01,1.41.04,0,.09,0,.13,0,.84,0,1.61-.45,2.02-1.18,1.97-3.51,3.91-6.97,5.84-10.41-.41,2.49-.67,5.03-.63,7.63-.08,4.35.67,8.36,2.3,12.27.36.86,1.21,1.39,2.14,1.39.02,0,.05,0,.07,0,.97-.03,1.81-.66,2.12-1.57,1.04-3.06,2.06-6.08,3.08-9.06-.03.67-.05,1.25-.05,1.54h0c0,.05,0,.11,0,.16v.2c-.16,3.91,2.49,8.08,5.02,10.68,1.57,1.63,3.29,2.86,4.97,3.57.42.18,1.82.59,2.64.59h.26c.83,0,2.23-.41,2.64-.59,1.67-.71,3.4-1.94,4.98-3.57,2.53-2.61,5.18-6.79,5.02-10.7v-.17c-.01-.06-.02-.11-.02-.17h0c0-.28-.02-.86-.05-1.54,1.01,2.98,2.04,6,3.08,9.06.31.92,1.16,1.54,2.12,1.57.03,0,.05,0,.08,0,.93,0,1.77-.54,2.13-1.4,1.63-3.91,2.38-7.92,2.3-12.27.05-2.6-.21-5.14-.63-7.63,1.93,3.44,3.87,6.91,5.84,10.41.41.73,1.19,1.18,2.02,1.18.04,0,.08,0,.12,0,.88-.05,1.66-.59,2.01-1.4.56-1.3.8-3,.73-5.21.11-4.06-1.1-10.13-3.13-15.88.82-.36,1.64-.75,2.46-1.15h28.64c1.15.05,1.62.09,1.79.11,2.64.94,10.57,10.32,13.98,14.36,1.35,1.6,2.52,2.99,3.37,3.93,1.23,1.36,2.93,2.08,4.93,2.08,2.3,0,4.94-1.05,6.01-2.39,2.45-3.04,2.56-6.62.29-9.33Zm-154.42-42.73c-4.07-8.35-6.44-17.46-6.96-26.93,0-.04,0-.08,0-.12,0-.09-.01-.18-.02-.26,0-.03,0-.05,0-.08,0-.1,0-.2-.01-.3,0-.2-.02-.4-.02-.59-.01-.34-.03-.68-.03-1.03,0-.05,0-.1,0-.15,0-.06,0-.13,0-.19,0-.16,0-.32,0-.48,0-.4,0-.79,0-1.19,0-.08,0-.17,0-.25,0,0,0-.01,0-.02,0-.01,0-.03,0-.04,0-.19,0-.37,0-.55,0-.29.01-.57.02-.86,0-.26.02-.51.03-.77.01-.35.03-.69.05-1.04,0-.14.02-.27.03-.41.02-.37.06-.74.08-1.11,0-.09.01-.18.02-.28.04-.49.09-.98.14-1.47,0-.06.01-.13.02-.2.98-9.29,3.8-18.28,8.25-26.43.11-.2.22-.39.33-.58.13-.24.27-.48.41-.72,1.37-2.38,2.89-4.67,4.52-6.86.07-.09.13-.18.2-.27.24-.32.48-.63.72-.94.21-.27.42-.53.63-.79.18-.22.35-.44.53-.66.42-.51.84-1.01,1.27-1.5.06-.07.12-.13.18-.2.41-.47.83-.93,1.25-1.39.09-.1.18-.19.27-.29.15-.16.3-.33.45-.49.13-.14.27-.27.4-.4.32-.33.63-.67.96-.98.37-.35.72-.71,1.09-1.06.56-.53,1.13-1.06,1.71-1.57.44-.39.88-.77,1.33-1.15.23-.19.45-.39.68-.58.5-.42,1.01-.83,1.53-1.23.05-.04.1-.08.15-.12,3.72-2.9,7.67-5.41,11.84-7.49,4.42-12.67,16.46-21.76,30.63-21.76.23,0,.46,0,.69.01.23,0,.46-.01.68-.01,14.18,0,26.22,9.09,30.64,21.76,6.73,3.36,12.94,7.83,18.41,13.3.18.18.36.36.53.54.25.25.5.49.75.75,1.75,1.84,3.39,3.77,4.92,5.78.04.05.08.1.11.15.42.56.84,1.12,1.24,1.69.08.11.16.22.23.33.29.41.57.82.85,1.24.24.35.47.7.7,1.05.07.11.15.23.22.34.6.94,1.19,1.88,1.74,2.85.08.14.16.28.24.42.17.29.33.59.49.88,3.04,5.57,5.31,11.53,6.76,17.7.06.23.11.47.17.7.05.23.1.46.15.69.08.36.15.71.22,1.07.03.17.06.34.1.52.08.42.16.85.23,1.27.02.13.04.26.06.39.08.48.15.95.22,1.43.01.09.02.17.04.26.08.53.14,1.07.21,1.61,0,.03,0,.07.01.1.28,2.44.44,4.9.47,7.38.12,11.14-2.34,21.89-7.07,31.6-.22.42-.43.83-.63,1.23-.36.7-.78,1.37-1.24,2.01h0c-.09.13-.18.24-.26.36-.17.23-.34.45-.5.67-.12.15-.24.3-.36.45-.14.17-.28.35-.41.52-.15.19-.3.36-.46.54-.1.12-.21.25-.31.37-.18.21-.35.4-.53.6-.08.09-.16.18-.23.26-.2.22-.39.43-.59.64-.05.06-.11.12-.16.18-.22.24-.44.46-.66.69-.03.03-.05.05-.08.08-.24.25-.48.49-.71.72,0,0,0,0,0,0-.01.01-.03.03-.04.04.01-.01.03-.03.04-.04-.07.07-.15.14-.22.22-.5.5-1.01.99-1.52,1.49-2.98,2.91-5.52,4.53-6.19,4.2.03-.07.05-.14.07-.21.14-.4.26-.79.39-1.17.2-.58.39-1.15.57-1.7.16-.49.32-.96.48-1.43.08-.24.16-.47.24-.7s.15-.47.23-.7c-.99,1.35-2.02,2.57-3.15,3.64-.12.12-.24.22-.35.33-.03.02-.05.04-.07.06-.29.25-.58.5-.88.73-.14.11-.27.21-.41.32-.92.68-1.89,1.24-2.93,1.68-.34.15-.69.28-1.04.39-2.14.69-4.54.86-7.32.34.6-.72,1.2-1.43,1.79-2.13,1.19-1.42,2.36-2.82,3.51-4.2.7-.84,1.41-1.68,2.1-2.51l.59-.7c.13-.15.26-.32.39-.47-.14.14-.28.29-.43.43-.57.57-1.13,1.12-1.7,1.64-.39.35-.77.7-1.15,1.03-.43.37-.86.73-1.28,1.08-.43.35-.85.68-1.27.99-.63.47-1.26.9-1.87,1.3-.64.41-1.28.79-1.9,1.12-3.38,1.81-6.5,2.46-9.22,1.88-.39-.08-.76-.19-1.13-.32-.18-.06-.37-.14-.55-.21-.36-.15-.72-.34-1.06-.54-.34-.21-.68-.44-1.01-.69l-.48-.4c.59-.39,1.7-1.13,2.3-1.52,3.86-2.55,7.75-5.12,11.63-7.69-.11-.1-.22-.19-.33-.29-.63.23-1.27.47-1.9.72-1.27.48-2.54.98-3.81,1.47-.63.24-1.27.48-1.9.73-.15.06-.32.12-.47.17-1.28.48-2.55.95-3.84,1.39-.17.06-.34.12-.52.17-.31.1-.63.21-.93.31-.64.21-1.3.41-1.94.6-.26.08-.51.14-.76.2-.25.06-.5.11-.75.15-.15.03-.3.05-.46.07-.06,0-.13.02-.19.03-.31.04-.63.06-.93.07-.14,0-.28.01-.41.01h-.17c-.46,0-.92-.04-1.37-.11-.23-.03-.45-.07-.67-.12-.31-.06-.62-.15-.92-.24-.08-.02-.15-.05-.23-.07-.26-.09-.52-.19-.78-.3-.19-.08-.39-.17-.59-.28-.48-.24-.94-.52-1.39-.83-.74-.53-1.44-1.15-2.08-1.87t0,0c-.26-.28-.2-.28-.44-.59,0-.06,2.18-.92,5.3-2.12.05-.02.09-.04.14-.05,2.24-.86,11.92-4.56,17.28-6.62,2.38-.92,4.2-2.89,4.94-5.34,1.85-6.16,2.45-12.89,1.79-20.16-.05-.52-.1-1.04-.16-1.56-.61-9.67-2.5-17.32-5.74-23.14-.99-1.77-2.09-3.37-3.33-4.81-.77-.18-1.56-.3-2.28-.41-1.64-.24-3.65-.44-5.88-.6-.65-.05-1.32-.09-2-.13-.39-.03-.8-.05-1.21-.06-.3-.01-.59-.03-.88-.05-.52-.03-1.05-.05-1.59-.06-.19,0-.39-.02-.59-.03-.6-.02-1.21-.04-1.82-.06-.14,0-.26,0-.4-.01-.67-.02-1.34-.03-2.02-.05-.08,0-.17,0-.25,0-.75-.02-1.5-.03-2.26-.04h-.03c-.73,0-1.47-.01-2.2-.02h-.1c-.71,0-1.42,0-2.13,0h-.28v.04h-.28c-.71,0-1.42,0-2.13,0h-.1c-.73,0-1.47,0-2.2.02h-.03c-.75,0-1.51.02-2.26.03-.08,0-.17,0-.25,0-.68.02-1.35.03-2.02.05-.14,0-.26,0-.4.01-.61.02-1.22.03-1.82.06-.2,0-.39.01-.59.03-.53.02-1.06.04-1.58.06-.3.01-.59.03-.88.05-.41.02-.81.04-1.21.06-.68.04-1.35.08-2,.13-2.22.16-4.23.35-5.88.6-.72.11-1.51.22-2.28.41-1.23,1.44-2.34,3.04-3.33,4.81-3.24,5.82-5.12,13.47-5.74,23.14-.06.52-.12,1.04-.16,1.56-.66,7.26-.06,14.01,1.79,20.16.73,2.45,2.55,4.42,4.94,5.34,5.36,2.06,15.04,5.75,17.28,6.61.05.02.09.04.14.06,3.13,1.2,5.3,2.06,5.3,2.12-.24.31-.18.3-.44.59h0c-.64.72-1.34,1.35-2.09,1.87-.44.32-.9.6-1.39.84-.19.1-.39.19-.59.28-.26.11-.52.21-.78.3-.07.03-.15.05-.23.07-.3.1-.61.17-.92.24-.22.05-.44.08-.67.12-.44.06-.9.1-1.37.11h-.17c-.14,0-.28,0-.41-.01-.3,0-.62-.03-.93-.07-.06,0-.13-.02-.19-.03-.15-.02-.3-.04-.46-.07-.25-.04-.5-.09-.75-.15-.25-.06-.5-.13-.76-.21-.65-.19-1.3-.39-1.94-.59-.31-.1-.63-.21-.93-.31-.17-.06-.34-.12-.52-.17-1.28-.44-2.56-.91-3.84-1.39-.15-.06-.32-.12-.47-.17-.63-.24-1.27-.48-1.9-.73-1.27-.48-2.54-.98-3.81-1.46-.63-.24-1.27-.48-1.91-.72-.1.1-.21.19-.32.29,3.88,2.57,7.77,5.14,11.63,7.69.77.5,1.54,1.01,2.3,1.51-.16.15-.32.28-.48.41-.33.26-.66.49-1.01.7-.34.21-.7.39-1.06.54-.18.08-.37.15-.55.21-.37.13-.75.24-1.13.32-2.73.58-5.85-.07-9.22-1.88-.63-.33-1.26-.7-1.9-1.12-.62-.4-1.24-.83-1.87-1.3-.42-.32-.84-.64-1.27-.99-.43-.34-.86-.7-1.28-1.08-.38-.33-.77-.68-1.15-1.03-.56-.52-1.13-1.07-1.7-1.64-.15-.14-.29-.29-.43-.43.14.15.26.32.39.47l.59.7c.7.83,1.4,1.67,2.1,2.51,1.15,1.38,2.32,2.77,3.51,4.2.59.7,1.19,1.41,1.79,2.13-2.78.51-5.18.35-7.32-.35-.35-.11-.7-.24-1.04-.39-1.04-.44-2-1-2.93-1.68-.14-.1-.28-.21-.41-.32-.3-.23-.59-.48-.88-.73-.03-.03-.05-.05-.07-.06-.12-.11-.23-.22-.35-.33-1.12-1.06-2.16-2.29-3.15-3.64.08.23.15.47.23.7s.16.46.24.7c.16.47.32.94.48,1.43.18.55.37,1.12.57,1.7.13.37.26.77.39,1.17.02.07.05.14.07.21-.68.33-3.22-1.3-6.19-4.2-1.48-1.45-3.27-3.24-5.09-5.49-1.39-1.72-2.58-3.58-3.58-5.55,0,0,0-.02-.01-.02Zm152.25,50.61c-.8,1-5.1,2.75-7.41.21-3.75-4.15-14.41-17.81-18.53-18.99-.17-.05-.99-.11-2.28-.17h-29.24c-1.41.7-2.84,1.36-4.3,1.97-.18.08-.4.06-.59.13.06.15.12.31.18.47,0,0,0,0,0,0,2.17,5.62,3.74,12.42,3.61,16.78.06,1.78-.1,3.27-.54,4.29-3.6-6.41-7.11-12.68-10.61-18.92,0,0-1.56.88-1.56.88,1.31,5.38,2.72,10.78,2.61,16.39.07,3.67-.48,7.43-2.11,11.34-3.11-9.16-6.08-17.91-9.03-26.58-.46.06-.91.12-1.36.17.03.16.06.31.09.47,0,0,0,0,0,0,.14.75.28,1.5.42,2.25.03.16.06.32.09.48.5,2.69.99,5.37,1.46,8.05,0,.06,0,.12.02.17.21,1.2.38,2.41.51,3.63h0c.14,1.22.28,4.32.26,4.58,0,.15.01.3.02.44.11,2.77-1.82,6.35-4.37,8.98-1.3,1.34-2.77,2.44-4.22,3.05-.29.12-1.36.41-1.74.41h-.26c-.38,0-1.45-.28-1.74-.41-1.45-.61-2.91-1.71-4.21-3.05-2.56-2.64-4.48-6.21-4.38-8.98,0-.15.02-.3.02-.44-.01-.25.13-3.35.26-4.56h0c.13-1.23.3-2.44.51-3.64.01-.06.01-.12.02-.17.48-2.68.97-5.36,1.46-8.05.03-.16.06-.32.09-.48.14-.73.28-1.47.41-2.21,0,0,0,0-.01,0,.03-.17.06-.34.1-.51-.45-.05-.9-.11-1.35-.17-2.95,8.67-5.93,17.42-9.04,26.58-1.62-3.92-2.18-7.68-2.11-11.34-.11-5.59,1.29-10.95,2.59-16.31,0,0,0,0-.01,0,.01,0-1.53-.96-1.53-.96-3.5,6.24-7.01,12.51-10.61,18.92-.43-1.02-.59-2.51-.54-4.29-.12-4.34,1.43-11.05,3.57-16.65,0,0-.01,0-.02,0,.07-.18.14-.37.21-.55-1.65-.67-3.29-1.36-4.88-2.15h-9.71c-.46,0-.84-.38-.84-.84v-2.31c0-.46.38-.84.84-.84h1.77s-.04-.03-.06-.04h.99c-.08-.05-.17-.11-.25-.17h-.34c-2.57-1.73-6.72-5.07-9.56-7.41-2.71-2.23-5.2-4.72-7.38-7.47,1.25,1.36,2.67,2.74,4.36,4.15.15.13.31.25.46.35.75.53,1.44.84,2.04.83.31,0,.61.03.92-.03.53-.12,1.03-.39,1.41-.8,1.6,1.07,3.46,1.93,5.61,2.38,2.08.44,4.42.5,7.08,0,.02,0,.05,0,.06-.01.84-.18,1.55-.75,1.89-1.54,3.04,1.21,5.91,1.55,8.55.99,2.01-.43,3.85-1.37,5.45-2.79.25-.22.46-.48.6-.77,2.46,1.91,4.92,3.46,7.18,4.69.29.16.59.32.88.46.03.02.05.03.07.04.26.14.52.27.77.4.08.04.16.08.25.12.19.1.39.19.59.28.09.05.17.08.26.12.18.08.36.17.53.25.08.04.16.07.24.11.17.08.35.15.52.23.1.04.19.08.29.12.15.06.3.13.44.19.1.04.2.08.3.12.13.05.26.1.39.15.11.05.21.08.32.12.11.05.23.09.34.13.12.05.23.08.34.12.1.03.19.07.28.1.13.05.24.08.37.12.07.02.14.05.21.07.14.04.26.08.38.12.05.01.1.03.15.05.13.04.25.07.37.11.04,0,.08.02.11.03.14.04.27.07.39.1.01,0,.03,0,.04.01.13.03.25.06.37.08,0,0,.01,0,.02,0,.12.02.23.05.32.06h0c.1.02.19.03.27.04,0,0,.02,0,.03,0,.03,0,.06,0,.1,0v-.04s.06,0,.1,0c.01,0,.03,0,.03,0,.08,0,.17-.02.27-.04h0c.1-.01.21-.03.32-.06,0,0,.01,0,.02,0,.12-.03.24-.05.37-.08.01,0,.03,0,.04-.01.12-.03.25-.06.39-.1.03,0,.07-.02.11-.03.12-.04.24-.07.37-.11.05-.02.1-.03.15-.05.12-.04.24-.08.38-.12.06-.02.14-.05.21-.07.12-.04.24-.08.37-.12.09-.03.19-.07.28-.1.11-.04.22-.08.34-.12.11-.04.23-.08.34-.13.11-.04.21-.08.32-.12.13-.05.26-.1.39-.15.1-.05.2-.08.3-.12.15-.06.3-.12.44-.19.1-.05.19-.08.29-.12.17-.08.35-.15.52-.23.08-.04.16-.07.24-.11.17-.08.35-.16.54-.24.09-.05.17-.08.26-.13.19-.09.39-.19.59-.28.08-.04.16-.08.24-.12.26-.13.52-.26.77-.39.03-.01.05-.03.08-.04.29-.15.58-.31.88-.47,2.26-1.23,4.72-2.78,7.18-4.69.14.29.35.55.6.77,1.6,1.42,3.44,2.36,5.45,2.79,2.64.56,5.52.22,8.55-.99.35.79,1.05,1.36,1.89,1.54.02,0,.05.01.06.01,2.66.49,5,.43,7.08,0,2.15-.45,4-1.31,5.61-2.38.38.41.88.68,1.41.8.3.06.61.03.92.04.59,0,1.28-.3,2.04-.84.15-.1.3-.23.46-.35,2.38-1.99,4.27-3.92,5.86-5.82-.36.49-.72.98-1.09,1.45-2.23,2.85-4.8,5.42-7.59,7.72-2.84,2.35-6.99,5.68-9.56,7.41-.09.06-.17.12-.26.17.21,0,.42,0,.63,0-.02.01-.04.03-.06.04,17.79,0,31.56,0,31.8.01,1.77.05,3.81,1.06,5.57,2.76,1.62,1.55,3.73,3.65,6.13,6.22,2.04,2.18,4.31,4.72,6.69,7.55,1.71,2.04,1.26,4.43-.32,6.39Z"/>
      <path class="cls-15" d="m379.1,199.84c-1.99,0-3.7-.72-4.93-2.08-.85-.94-2.02-2.32-3.37-3.93-3.41-4.04-11.33-13.41-13.97-14.35-.17-.02-.64-.06-1.8-.11h-101.48c-1.74,0-3.16-1.42-3.16-3.16v-2.31c0-1.74,1.42-3.16,3.16-3.16l111.74.02c2.35.07,4.94,1.31,7.11,3.4,2.08,2,4.17,4.12,6.22,6.31,2.3,2.46,4.58,5.03,6.77,7.65,2.27,2.71,2.16,6.29-.29,9.33-1.08,1.34-3.71,2.38-6.01,2.38Z"/>
      <path class="cls-8" d="m383.3,196c-.8.99-5.11,2.75-7.41.2-3.75-4.15-14.41-17.81-18.53-18.99-.18-.05-.99-.11-2.28-.17h-101.54c-.46,0-.84-.37-.84-.84v-2.31c0-.46.37-.84.84-.84,0,0,111.02,0,111.68.02,1.77.05,3.81,1.06,5.57,2.76,1.62,1.55,3.72,3.65,6.13,6.22,2.04,2.19,4.31,4.72,6.69,7.55,1.71,2.04,1.26,4.42-.32,6.39Z"/>
      <path class="cls-2" d="m324.68,108.83c-.76-3.9-1.85-7.75-3.25-11.47-1.41-3.75-4.28-4.9-8.36-5.12-6.32-.35-12.65-.53-18.98-.55h0s-.1,0-.14,0c-.05,0-.1,0-.14,0h0c-6.33.02-12.66.21-18.98.55-4.08.22-6.94,1.38-8.36,5.12-1.39,3.67-2.24,7.46-2.99,11.32-1.02,5.21-1.47,10.52-1.32,15.83.14,4.76.11,10.33,3.45,14.1,2.41,2.72,6.95,3.98,10.4,5.12,3.9,1.29,7.79,2.58,11.69,3.86,2.03.67,4.48,1.87,3.95,4.25-.11.48-.34.92-.63,1.32-2.17,2.89-6.35,5.37-9.9,6.03,2.11,2.22,7.89,4.62,10.66,5.74,1.3.53,2.76.51,4.07,0,2.85-1.11,9.04-3.51,11.17-5.74-3.54-.67-7.96-3.15-10.13-6.04-.29-.39-.53-.84-.63-1.32-.52-2.37,1.93-3.58,3.95-4.25,3.9-1.29,7.79-2.58,11.69-3.86,3.45-1.14,7.99-2.39,10.4-5.12,3.33-3.77,3.31-9.34,3.44-14.09.15-5.26-.05-10.53-1.06-15.69Z"/>
      <g>
        <path class="cls-11" d="m313.43,115.16s-.01.06-.01.08c-.03.26-.05.53-.14.78-.35.95-1.01,1.48-1.79,1.79-.26.1-.52.18-.79.23-.02,0-.04,0-.07.01.01-.03.02-.05.03-.06.1-.19.16-.41.18-.63.03-.31,0-.61-.12-.9-.05-.12-.12-.24-.19-.35-.13-.17-.32-.3-.52-.36-.28-.09-.56-.11-.84-.06-.34.07-.59.25-.81.52-.24.3-.4.65-.51,1.02-.07.26-.12.52-.12.79v.1h1.66s.01.01.01.01c0,0,0,0,0,0,0,.03.01.06-.03.1-.49.3-.66.84-.31,1.3.37.49.35.4.34.48h-3.46c-.05.27.12.91.43,1.33.28.39.66.66,1.1.86-.01.03-.01.06-.03.08-.17.39-.43.71-.8.93-.19.11-.41.17-.63.17h-.07c-.03.14-.06.28-.09.42-.11.57-.36,1.06-.73,1.5-.07.08-.14.17-.22.26-.28-.31-.53-.63-.71-1-.17-.37-.26-.77-.34-1.18-.07,0-.14,0-.2,0-.2-.03-.39-.1-.56-.21-.33-.21-.57-.51-.73-.86,0-.02-.01-.03-.02-.05,0-.01,0-.03-.01-.05.03-.01.05-.03.08-.04.35-.17.67-.39.92-.7.28-.34.46-.73.52-1.18.01-.09.02-.17.03-.28-.2,0-.39,0-.59,0h-2.87s-.01-.01-.02-.02c-.02-.19-.02-1.79,0-1.87h1.67v-.09c-.03-.54-.16-1.06-.43-1.53-.09-.15-.19-.3-.32-.43-.3-.3-.66-.43-1.07-.41-.15,0-.29.03-.43.07-.34.1-.57.32-.72.64-.09.19-.14.39-.15.61-.03.3,0,.61.13.9.02.05.05.1.08.17-.05-.01-.08-.01-.12-.02-.46-.1-.9-.26-1.31-.51-.86-.53-1.33-1.33-1.37-2.41-.03-.72.15-1.43.55-2.03.46-.71,1.13-1.17,1.97-1.34.33-.06.67-.05.99.06.79.24,1.42.73,1.92,1.38.4.52.69,1.1.9,1.71.19.53.31,1.08.39,1.64.08.5.12,1,.13,1.51,0,.03,0,.05,0,.08h.97s0-.05,0-.08c0-.7-.04-1.4-.12-2.09-.04-.32-.1-.63-.17-.94-.25-1.02-.61-2.02-.97-3.01-.21-.59-.43-1.17-.64-1.75-.1-.3-.23-.79-.27-1.1-.12-.92-.01-1.81.24-2.69.33-1.13.86-2.16,1.57-3.1.32-.43.66-.83,1.02-1.23.01-.01.02-.03.03-.05.03.02.04.03.05.05.43.48.84.97,1.21,1.49.63.9,1.11,1.87,1.4,2.93.16.57.25,1.14.27,1.73.01.73-.13,1.46-.38,2.15-.37.99-.72,1.99-1.08,2.99-.22.62-.41,1.24-.53,1.89-.07.37-.13.75-.17,1.12-.05.53-.06,1.06-.07,1.59v.08s0,.01.01.03h.96s.01-.03.01-.05c.02-.31.03-.63.05-.93.1-1.01.32-1.99.75-2.91.27-.58.62-1.11,1.08-1.55.39-.37.84-.64,1.34-.82.57-.21,1.15-.17,1.7.08.97.44,1.59,1.17,1.84,2.21.05.2.09.41.09.62,0,.03.01.06.01.1v.31Z"/>
        <path class="cls-11" d="m302.34,135.04v.32s-.01.05-.02.08c-.03.26-.05.53-.14.77-.35.96-1,1.48-1.79,1.79-.25.1-.52.17-.79.23-.01,0-.04,0-.06,0,0-.03.02-.05.03-.06.1-.2.15-.42.18-.64.03-.31,0-.61-.12-.9-.05-.12-.12-.24-.19-.34-.13-.17-.32-.3-.52-.37-.28-.09-.56-.11-.84-.05-.34.06-.6.25-.81.51-.24.3-.4.65-.5,1.02-.08.26-.12.52-.12.79v.1h1.65s.01,0,.02.01h0s.02.06-.03.1c-.48.31-.66.84-.31,1.3.37.49.36.4.34.47h-3.46c-.04.27.12.91.43,1.33.29.39.66.66,1.11.86-.01.03-.02.06-.03.08-.17.39-.43.71-.8.93-.19.11-.41.18-.63.17-.02,0-.05,0-.07,0-.03.14-.06.28-.08.41-.12.57-.36,1.06-.73,1.5-.06.08-.14.16-.21.25v.04c-.08-.09-.15-.17-.21-.25-.37-.44-.62-.93-.73-1.5-.03-.14-.06-.28-.09-.41-.03,0-.05,0-.07,0-.22,0-.43-.06-.62-.17-.37-.22-.63-.53-.81-.93,0-.03-.01-.05-.03-.08.44-.2.82-.48,1.11-.86.31-.42.46-1.06.43-1.33h-3.47c-.02-.07-.03.01.34-.48.35-.46.18-.99-.3-1.3-.05-.03-.04-.06-.04-.09,0,0,0,0,0,0t.01-.01h1.66v-.1c0-.27-.05-.53-.12-.79-.11-.37-.26-.72-.51-1.02-.21-.26-.47-.44-.81-.51-.28-.06-.57-.04-.84.05-.21.06-.39.19-.52.36-.08.11-.14.23-.19.35-.12.29-.15.59-.12.9.02.22.08.44.18.63,0,.02.01.04.03.06-.03,0-.05,0-.07-.01-.26-.05-.53-.13-.79-.23-.78-.32-1.42-.84-1.78-1.79-.1-.25-.12-.52-.15-.78,0-.03,0-.05-.01-.08v-.31s.01-.06.01-.1c0-.21.05-.42.09-.62.25-1.04.88-1.77,1.84-2.21.55-.25,1.12-.28,1.7-.08.51.17.95.45,1.34.82.46.44.81.97,1.09,1.55.43.92.64,1.9.74,2.91.03.31.04.63.05.93,0,.02,0,.03.01.05h.97s0-.02,0-.03v-.08c0-.53-.02-1.06-.07-1.59-.04-.37-.09-.75-.17-1.12-.13-.64-.32-1.27-.53-1.89-.35-1-.72-2-1.08-2.99-.25-.69-.4-1.42-.38-2.15.01-.59.1-1.17.26-1.74.3-1.06.77-2.03,1.4-2.93.37-.52.79-1.01,1.21-1.49.01,0,.03-.02.04-.03v-.04l.03.03c.43.48.84.97,1.21,1.5.63.9,1.1,1.86,1.4,2.92.16.57.25,1.15.26,1.74.02.73-.13,1.46-.38,2.15-.36.99-.72,1.99-1.08,2.99-.22.62-.4,1.25-.53,1.89-.08.37-.13.74-.17,1.12-.06.53-.07,1.06-.08,1.59,0,.03,0,.05,0,.08,0,0,0,.02,0,.03h.97s0-.04,0-.06c.02-.31.03-.62.06-.93.1-1.01.31-1.99.74-2.91.27-.58.63-1.11,1.09-1.55.39-.37.83-.65,1.34-.83.57-.2,1.15-.17,1.7.08.96.44,1.59,1.17,1.84,2.21.05.2.09.41.09.62,0,.03.01.06.02.1Z"/>
        <path class="cls-11" d="m289.88,117.56c-.4.25-.85.41-1.31.5-.03,0-.07.01-.12.02.03-.06.06-.11.08-.17.12-.29.16-.59.13-.9-.02-.21-.07-.42-.16-.61-.15-.32-.38-.55-.72-.64-.14-.04-.28-.07-.43-.07-.41-.02-.77.12-1.07.41-.13.13-.23.27-.32.42-.27.47-.41.99-.43,1.53,0,.03,0,.06,0,.09.56,0,1.11,0,1.66,0,.02.08.02,1.68,0,1.87,0,0-.01.01-.02.02-.38,0-.76,0-1.14,0-.19,0-.38,0-.57,0-.19,0-.39,0-.58,0-.19,0-.39,0-.58,0-.19,0-.38,0-.59,0,.01.1.02.19.03.27.06.44.23.84.52,1.18.25.3.57.53.92.7.03.01.05.03.08.04,0,.02-.01.04-.02.05,0,.02-.01.03-.02.05-.16.36-.4.65-.73.87-.17.11-.36.19-.56.21-.06,0-.13,0-.2.01-.08.41-.16.8-.33,1.17-.18.37-.43.69-.71,1-.08-.09-.15-.17-.22-.26-.37-.44-.62-.94-.73-1.5-.03-.14-.06-.27-.09-.41-.03,0-.05,0-.07,0-.22,0-.44-.06-.62-.17-.37-.22-.63-.54-.8-.93-.01-.03-.02-.05-.03-.08.44-.2.82-.48,1.1-.87.31-.42.47-1.05.43-1.33h-3.46c-.02-.07-.04.02.34-.47.35-.46.18-.99-.31-1.3-.05-.03-.04-.06-.03-.09,0,0,0,0,0,0,0,0,0,0,.01-.01.54,0,1.09,0,1.65,0,0-.04,0-.07,0-.1,0-.27-.05-.53-.12-.79-.11-.37-.26-.72-.51-1.02-.21-.26-.47-.45-.81-.51-.29-.06-.57-.04-.85.05-.21.07-.39.19-.52.36-.08.1-.14.22-.19.34-.12.29-.15.59-.12.9.02.22.08.44.18.63,0,.02.02.04.03.06-.03,0-.05,0-.07,0-.27-.06-.53-.13-.79-.23-.78-.31-1.43-.83-1.78-1.79-.09-.25-.11-.51-.14-.77,0-.03-.01-.06-.02-.08,0-.1,0-.21,0-.31,0-.03.02-.07.02-.1,0-.21.04-.42.09-.62.25-1.04.88-1.77,1.84-2.21.55-.25,1.12-.28,1.7-.08.51.18.95.45,1.34.82.47.44.82.97,1.09,1.55.43.92.65,1.9.74,2.92.03.31.04.62.06.94,0,.02,0,.03,0,.05.32,0,.64,0,.96,0,0-.01,0-.02,0-.03,0-.03,0-.05,0-.08,0-.53-.02-1.06-.07-1.59-.04-.38-.09-.75-.17-1.12-.13-.64-.31-1.27-.53-1.89-.35-1-.71-1.99-1.08-2.99-.25-.69-.4-1.42-.38-2.15.01-.59.11-1.17.27-1.74.3-1.06.77-2.02,1.4-2.92.37-.53.78-1.01,1.21-1.49.01-.01.02-.02.05-.04.01.02.02.04.04.05.35.4.7.8,1.02,1.23.7.94,1.24,1.97,1.56,3.1.25.88.35,1.77.24,2.69-.04.31-.17.8-.27,1.09-.21.59-.42,1.17-.64,1.76-.36.99-.72,1.98-.98,3.01-.08.31-.13.62-.17.94-.09.7-.12,1.4-.12,2.1,0,.02,0,.05,0,.08.33,0,.65,0,.97,0,0-.03,0-.06,0-.08.02-.5.05-1.01.13-1.51.08-.56.21-1.11.4-1.64.21-.62.5-1.19.9-1.71.5-.65,1.13-1.13,1.93-1.38.32-.1.66-.12.99-.05.85.17,1.51.63,1.98,1.34.39.6.58,1.31.55,2.03-.04,1.08-.51,1.88-1.37,2.41Z"/>
      </g>
      <path class="cls-8" d="m350.26,154.64s-.01.01-.02.02c-.01.01-.03.03-.04.04.02-.02.04-.04.06-.06Z"/>
      <path class="cls-7" d="m347.49,100.87c.57,4.56.67,15.1.57,19.15-.64-1.89-1.78-4.17-2.33-4.89.57,6.97-.01,16.96-2.96,21.73.25-1.68-.28-4.85-1.14-6.17-.21,9.88-3.41,13.97-7.5,18.82,15.03-8.32,19.65-32.99,13.36-48.65Z"/>
      <path class="cls-7" d="m240.41,100.91c-.57,4.56-.67,15.1-.57,19.15.64-1.89,1.78-4.17,2.33-4.89-.57,6.97.01,16.96,2.96,21.73-.25-1.68.28-4.85,1.14-6.17.21,9.88,3.41,13.97,7.5,18.82-15.03-8.32-19.65-32.99-13.36-48.65Z"/>
      <path class="cls-16" d="m286.3,186.71h0s-.06-.02-.08-.03c.02,0,.04.01.08.03Z"/>
      <path class="cls-16" d="m302.14,186.7h0s.06-.01.08-.02c-.02,0-.05,0-.08.02Z"/>
      <g>
        <g>
          <path class="cls-16" d="m309.66,182.74c-.44,0-.86-.13-1.23-.37l-1.41-.93.96-1.46c1.19-1.81,2.09-4.9,2.09-7.19,0-.86-.13-1.25-.18-1.37l-1.31-.87.96-1.46c.18-.28.36-.52.52-.72l.08-.09c.82-.98,1.68-1.48,2.57-1.48.35,0,1.35.11,2.06,1.25.71-.88,1.47-1.34,2.25-1.34.32,0,1.24.1,1.88,1.19.59-.71,1.23-1.07,1.88-1.07,1.11,0,2.29,1.04,2.29,3.96,0,2.76-1.01,6.23-2.36,8.07-.31.43-.64.76-.97.99-.38.26-.77.39-1.16.39-.37,0-.71-.12-1.03-.34l-.45-.32c-.1.15-.2.3-.3.43-.35.47-.72.83-1.1,1.08-.42.28-.86.42-1.29.42-.41,0-.78-.12-1.13-.37l-.63-.44c-.11.16-.22.31-.34.45-.4.5-.82.89-1.25,1.15-.47.29-.95.44-1.42.44Z"/>
          <g>
            <path class="cls-16" d="m320.78,167.5c-.54,0-1.08.36-1.61,1.05l-.05.06c-.11.15-.23.33-.36.55h0c-.41-1.64-1.38-1.79-1.74-1.79-.62,0-1.25.4-1.86,1.18l-.06.07c-.13.17-.27.37-.42.62l-.03.05c-.48-1.66-1.55-1.82-1.94-1.82-.72,0-1.44.43-2.15,1.28l-.07.08c-.15.19-.31.41-.48.67l-.56.85.83.55c.08.05.38.53.38,1.9,0,2.42-.95,5.68-2.21,7.6l-.56.85.83.54c.28.19.6.28.93.28.37,0,.76-.12,1.14-.36.37-.23.74-.57,1.1-1.02,1.69-2.09,3.01-6.21,3.01-9.37,0-.24,0-.46-.02-.66l.05.04c.07.07.29.51.29,1.62,0,2.17-.8,5.09-1.86,6.81l-.55.88.8.56c.25.17.52.26.82.26.32,0,.66-.11.99-.33.32-.21.64-.53.95-.94,1.45-1.92,2.59-5.69,2.59-8.58,0-.12,0-.24,0-.35l.05.03c.05.06.2.42.2,1.3,0,1.87-.67,4.39-1.55,5.88l-.55.92.78.57c.22.16.46.24.71.24.28,0,.57-.1.85-.3.28-.19.55-.47.82-.84,1.24-1.7,2.22-5.06,2.22-7.63,0-2.42-.87-3.28-1.69-3.28Z"/>
            <g>
              <g>
                <path class="cls-9" d="m311.05,172.85c0-1.41-.31-2.12-.59-2.31l-.42-.28.28-.42c.15-.23.3-.44.46-.63l.06-.06c.63-.75,1.26-1.14,1.86-1.14.53,0,1.78.33,1.78,3.37,0,3.06-1.28,7.04-2.9,9.05-.33.41-.66.72-.99.92-.32.2-.63.3-.94.3-.26,0-.51-.07-.73-.22l-.42-.28.28-.42c1.31-1.99,2.3-5.38,2.3-7.88Z"/>
                <path class="cls-14" d="m313.15,172.11c0-2.35-.81-3.35-1.94-2.64-.02.02-.03.04-.05.06-.15.18-.29.38-.43.59.51.33.82,1.27.82,2.73,0,2.65-1.03,6.12-2.38,8.16.31.2.69.18,1.12-.09.02-.03.04-.05.07-.08,1.54-1.91,2.79-5.82,2.79-8.74Z"/>
                <path class="cls-6" d="m311.21,169.47c1.13-.7,1.94.29,1.94,2.64,0,2.91-1.25,6.82-2.79,8.74-.02.03-.04.05-.07.08.27-.17.56-.44.87-.81,1.54-1.91,2.79-5.82,2.79-8.74,0-2.88-1.22-3.72-2.74-1.91Z"/>
              </g>
              <g>
                <path class="cls-9" d="m315.6,172.37c0-1.24-.25-1.86-.48-2.02l-.42-.3.29-.47c.13-.21.26-.4.39-.58l.05-.06c.54-.68,1.06-1.03,1.56-1.03.35,0,1.51.22,1.51,3.12,0,2.8-1.09,6.43-2.49,8.28-.28.37-.57.65-.85.84-.27.18-.53.27-.78.27-.21,0-.42-.06-.6-.19l-.42-.3.29-.47c1.11-1.79,1.94-4.83,1.94-7.08Z"/>
                <path class="cls-14" d="m317.4,171.7c0-2.13-.69-3.03-1.65-2.4-.01.02-.03.03-.04.05-.12.16-.24.34-.36.54.43.3.7,1.15.7,2.47,0,2.4-.88,5.55-2.03,7.4.26.19.59.16.96-.08.02-.02.04-.04.06-.07,1.31-1.73,2.38-5.28,2.38-7.92Z"/>
                <path class="cls-6" d="m315.75,169.31c.96-.64,1.65.26,1.65,2.4,0,2.64-1.06,6.19-2.38,7.92-.02.02-.04.04-.06.07.23-.15.48-.4.74-.74,1.31-1.73,2.38-5.28,2.38-7.92s-1.04-3.37-2.33-1.73Z"/>
              </g>
              <g>
                <path class="cls-9" d="m319.58,172.02c0-.88-.14-1.52-.39-1.69l-.42-.31.31-.52c.11-.18.22-.36.34-.51l.04-.05c.45-.6.89-.9,1.3-.9.62,0,1.28.74,1.28,2.81,0,2.48-.93,5.7-2.12,7.33-.24.33-.48.57-.72.74-.22.15-.44.23-.64.23-.17,0-.34-.06-.49-.16l-.42-.31.31-.52c.93-1.55,1.62-4.19,1.62-6.14Z"/>
                <path class="cls-6" d="m319.7,169.37c.81-.56,1.4.23,1.4,2.1,0,2.32-.9,5.43-2.01,6.95-.02.02-.03.04-.05.06.2-.14.41-.35.62-.65,1.11-1.52,2.01-4.63,2.01-6.95,0-2.29-.88-2.96-1.97-1.52Z"/>
                <path class="cls-14" d="m321.09,171.45c0-1.87-.59-2.66-1.4-2.1-.01.02-.02.03-.04.05-.1.14-.21.3-.31.47.36.27.59,1.01.59,2.17,0,2.11-.74,4.86-1.71,6.49.22.16.5.14.81-.07.02-.02.03-.04.05-.06,1.11-1.52,2.01-4.63,2.01-6.95Z"/>
              </g>
            </g>
          </g>
        </g>
        <g>
          <path class="cls-16" d="m278.44,182.74c.44,0,.86-.13,1.23-.37l1.41-.93-.96-1.46c-1.19-1.81-2.09-4.9-2.09-7.19,0-.86.13-1.25.18-1.37l1.31-.87-.96-1.46c-.18-.28-.36-.52-.52-.72l-.08-.09c-.82-.98-1.68-1.48-2.57-1.48-.35,0-1.35.11-2.06,1.25-.71-.88-1.47-1.34-2.25-1.34-.32,0-1.24.1-1.88,1.19-.59-.71-1.23-1.07-1.88-1.07-1.11,0-2.29,1.04-2.29,3.96,0,2.76,1.01,6.23,2.36,8.07.31.43.64.76.97.99.38.26.77.39,1.16.39.37,0,.71-.12,1.03-.34l.45-.32c.1.15.2.3.3.43.35.47.72.83,1.1,1.08.42.28.86.42,1.29.42.41,0,.78-.12,1.13-.37l.63-.44c.11.16.22.31.34.45.4.5.82.89,1.25,1.15.47.29.95.44,1.42.44Z"/>
          <g>
            <g>
              <path class="cls-9" d="m277.05,172.85c0-1.41.31-2.12.59-2.31l.42-.28-.28-.42c-.15-.23-.3-.44-.46-.63l-.06-.06c-.63-.75-1.26-1.14-1.86-1.14-.53,0-1.78.33-1.78,3.37s1.28,7.04,2.9,9.05c.33.41.66.72.99.92.32.2.63.3.94.3.26,0,.51-.07.73-.22l.42-.28-.28-.42c-1.31-1.99-2.3-5.38-2.3-7.88Z"/>
              <path class="cls-14" d="m274.94,172.11c0-2.35.81-3.35,1.94-2.64.02.02.03.04.05.06.15.18.29.38.43.59-.51.33-.82,1.27-.82,2.73,0,2.65,1.03,6.12,2.38,8.16-.31.2-.69.18-1.12-.09-.02-.03-.04-.05-.07-.08-1.54-1.91-2.79-5.82-2.79-8.74Z"/>
              <path class="cls-6" d="m276.89,169.47c-1.13-.7-1.94.29-1.94,2.64,0,2.91,1.25,6.82,2.79,8.74.02.03.04.05.07.08-.27-.17-.56-.44-.87-.81-1.54-1.91-2.79-5.82-2.79-8.74,0-2.88,1.22-3.72,2.74-1.91Z"/>
            </g>
            <g>
              <path class="cls-9" d="m272.49,172.37c0-1.24.25-1.86.48-2.02l.42-.3-.29-.47c-.13-.21-.26-.4-.39-.58l-.05-.06c-.54-.68-1.06-1.03-1.56-1.03-.35,0-1.51.22-1.51,3.12,0,2.8,1.09,6.43,2.49,8.28.28.37.57.65.85.84.27.18.53.27.78.27.21,0,.42-.06.6-.19l.42-.3-.29-.47c-1.11-1.79-1.94-4.83-1.94-7.08Z"/>
              <path class="cls-14" d="m270.7,171.7c0-2.13.69-3.03,1.65-2.4.01.02.03.03.04.05.12.16.24.34.36.54-.43.3-.7,1.15-.7,2.47,0,2.4.88,5.55,2.03,7.4-.26.19-.59.16-.96-.08-.02-.02-.04-.04-.06-.07-1.31-1.73-2.38-5.28-2.38-7.92Z"/>
              <path class="cls-6" d="m272.35,169.31c-.96-.64-1.65.26-1.65,2.4,0,2.64,1.06,6.19,2.38,7.92.02.02.04.04.06.07-.23-.15-.48-.4-.74-.74-1.31-1.73-2.38-5.28-2.38-7.92,0-2.61,1.04-3.37,2.33-1.73Z"/>
            </g>
            <g>
              <path class="cls-9" d="m268.52,172.02c0-.88.14-1.52.39-1.69l.42-.31-.31-.52c-.11-.18-.22-.36-.34-.51l-.04-.05c-.45-.6-.89-.9-1.3-.9-.62,0-1.28.74-1.28,2.81,0,2.48.93,5.7,2.12,7.33.24.33.48.57.72.74.22.15.44.23.64.23.17,0,.34-.06.49-.16l.42-.31-.31-.52c-.93-1.55-1.62-4.19-1.62-6.14Z"/>
              <path class="cls-6" d="m268.4,169.37c-.81-.56-1.4.23-1.4,2.1,0,2.32.9,5.43,2.01,6.95.02.02.03.04.05.06-.2-.14-.41-.35-.62-.65-1.11-1.52-2.01-4.63-2.01-6.95,0-2.29.88-2.96,1.97-1.52Z"/>
              <path class="cls-14" d="m267.01,171.45c0-1.87.59-2.66,1.4-2.1.01.02.02.03.04.05.1.14.21.3.31.47-.36.27-.59,1.01-.59,2.17,0,2.11.74,4.86,1.71,6.49-.22.16-.5.14-.81-.07-.02-.02-.03-.04-.05-.06-1.11-1.52-2.01-4.63-2.01-6.95Z"/>
            </g>
          </g>
        </g>
      </g>
      <g>
        <path class="cls-7" d="m242.55,93.12c1.62-4.25,3.31-7.18,5.44-10.23,1.03,1.8,2.3,3.1,3.6,3.69-.88-3.59-.75-6.59.6-10.62.54,1.99,1.41,3.29,1.81,3.69.33-2,1.67-5.06,5.02-7.28-.44-1.38-.73-2.62-.99-4.05-8.16,4.69-14.85,18.3-15.47,24.81Z"/>
        <path class="cls-7" d="m345.34,93.34c-1.62-4.25-3.31-7.18-5.44-10.23-1.03,1.8-2.3,3.1-3.6,3.69.88-3.59.75-6.59-.6-10.62-.54,1.99-1.41,3.29-1.81,3.69-.33-2-1.09-5.27-4.44-7.49.44-1.38.79-2.62,1.06-4.05,8.16,4.69,14.2,18.51,14.82,25.02Z"/>
      </g>
      <path class="cls-5" d="m308.07,88.59c.4.02.81.04,1.21.06-.39-.02-.8-.04-1.21-.06Z"/>
      <path class="cls-5" d="m305.6,88.48c.53.02,1.06.04,1.58.07-.52-.02-1.05-.04-1.58-.07Z"/>
      <path class="cls-5" d="m300.77,88.33c.68.01,1.35.03,2.02.05-.67-.02-1.34-.03-2.02-.05Z"/>
      <path class="cls-5" d="m298.26,88.29c.75,0,1.51.02,2.26.04-.75-.01-1.5-.03-2.26-.04Z"/>
      <path class="cls-5" d="m303.18,88.39c.61.02,1.23.04,1.83.06-.6-.02-1.21-.04-1.83-.06Z"/>
      <path class="cls-5" d="m282.05,88.45c.6-.02,1.21-.04,1.83-.06-.61.02-1.23.04-1.83.06Z"/>
      <path class="cls-5" d="m284.28,88.38c.67-.02,1.34-.03,2.02-.05-.68.01-1.35.03-2.02.05Z"/>
      <path class="cls-5" d="m296.03,88.27c.73,0,1.47.01,2.21.02-.74,0-1.47-.02-2.21-.02Z"/>
      <path class="cls-5" d="m279.88,88.54c.52-.02,1.05-.04,1.58-.07-.53.02-1.06.04-1.58.07Z"/>
      <path class="cls-5" d="m277.79,88.65c.39-.02.8-.04,1.21-.06-.4.02-.81.04-1.21.06Z"/>
      <path class="cls-5" d="m291.13,88.27c.71,0,1.42,0,2.13,0-.71,0-1.42,0-2.13,0Z"/>
      <path class="cls-5" d="m293.81,88.27c.71,0,1.42,0,2.13,0-.71,0-1.42,0-2.13,0Z"/>
      <path class="cls-5" d="m288.83,88.29c.74,0,1.47-.02,2.21-.02-.73,0-1.47.01-2.21.02Z"/>
      <path class="cls-5" d="m286.54,88.33c.75-.01,1.5-.03,2.26-.04-.75,0-1.51.02-2.26.04Z"/>
      <path class="cls-16" d="m286.29,88.33c.08,0,.17,0,.25,0-.08,0-.17,0-.25,0Z"/>
      <path class="cls-16" d="m281.46,88.48c.2,0,.39-.02.59-.02-.2,0-.39.02-.59.02Z"/>
      <path class="cls-16" d="m279,88.59c.3-.02.58-.03.88-.05-.3.01-.59.03-.88.05Z"/>
      <path class="cls-16" d="m305.01,88.45c.2,0,.39.02.59.02-.2,0-.39-.02-.59-.02Z"/>
      <path class="cls-16" d="m275.79,88.78c.65-.05,1.32-.09,2-.13-.68.04-1.35.08-2,.13Z"/>
      <path class="cls-16" d="m283.88,88.39c.13,0,.26,0,.4-.01-.13,0-.26,0-.4.01Z"/>
      <path class="cls-16" d="m309.27,88.65c.68.04,1.35.08,2,.13-.65-.05-1.32-.09-2-.13Z"/>
      <path class="cls-16" d="m298.24,88.29s.02,0,.03,0c0,0-.02,0-.03,0Z"/>
      <path class="cls-16" d="m300.52,88.33c.08,0,.17,0,.25,0-.08,0-.17,0-.25,0Z"/>
      <path class="cls-16" d="m307.18,88.54c.3.01.59.03.88.05-.3-.02-.58-.03-.88-.05Z"/>
      <path class="cls-16" d="m302.79,88.38c.13,0,.26,0,.4.01-.13,0-.26,0-.4-.01Z"/>
      <path class="cls-16" d="m293.66,88.27h0s-.02,0-.03,0c-.03,0-.06,0-.1,0,.09,0,.19,0,.28,0-.05,0-.1,0-.15,0Z"/>
      <path class="cls-16" d="m291.03,88.27s.06,0,.09,0c-.03,0-.06,0-.09,0Z"/>
      <path class="cls-16" d="m293.44,88.27s-.02,0-.03,0h0s-.1,0-.15,0c.09,0,.19,0,.28,0-.03,0-.06,0-.1,0Z"/>
      <path class="cls-16" d="m288.8,88.29s.02,0,.03,0c0,0-.02,0-.03,0Z"/>
      <path class="cls-16" d="m295.94,88.27s.06,0,.09,0c-.03,0-.06,0-.09,0Z"/>
      <path class="cls-10" d="m326.28,46.8c-2.47-4.86-6.09-9.17-10.45-12.46-.15-.12-.31-.23-.46-.34l-.17-.13c-.14-.1-.29-.2-.43-.31l-.18-.12c-.16-.11-.31-.21-.46-.31l-.14-.09c-.51-.34-1.04-.67-1.56-.98l-.18-.11c-.15-.09-.3-.17-.45-.26-.07-.04-.15-.09-.23-.13-.14-.08-.29-.16-.44-.24l-.24-.13c-.16-.08-.31-.16-.46-.24l-.18-.09c-.31-.15-.62-.3-.93-.45l-.22-.1c-.14-.06-.28-.12-.41-.18,0,0-.22-.1-.32-.14-.14-.06-.28-.12-.42-.18-.11-.04-.22-.09-.32-.13-.14-.05-.27-.11-.41-.16-.1-.04-.21-.08-.31-.12l-.12-.04c-.1-.04-.21-.08-.31-.12-.23-.08-.46-.17-.7-.25-.1-.03-.19-.06-.28-.09l-.09-.03c-.14-.05-.28-.09-.41-.13-.12-.04-.24-.07-.36-.11-.15-.04-.28-.09-.42-.12-.13-.04-.25-.07-.37-.11-.15-.04-.29-.08-.44-.12,0,0-.26-.07-.34-.09-.2-.05-.41-.1-.61-.15-.11-.03-.21-.05-.32-.07-.21-.05-.42-.09-.64-.14-.08-.02-.32-.06-.32-.06-.17-.03-.33-.07-.5-.1-.11-.02-.22-.04-.33-.06-.17-.03-.34-.06-.51-.08,0,0-.23-.04-.32-.05-.2-.03-.39-.06-.59-.08l-.24-.03c-.27-.03-.55-.07-.82-.09l-.22-.02c-.21-.02-.41-.04-.62-.06l-.3-.02c-.19-.01-.37-.03-.56-.04-.1,0-.2-.01-.31-.02-.2,0-.39-.02-.59-.02h-.27c-.29-.02-.57-.02-.86-.02-.02,0-.04,0-.06,0-.02,0-.04,0-.06,0-.29,0-.57,0-.86.01h-.27c-.2.01-.39.02-.59.03-.1,0-.21.01-.31.02-.19.01-.37.02-.56.04l-.3.02c-.21.02-.41.04-.62.06l-.22.02c-.28.03-.55.06-.82.09l-.24.03c-.2.03-.4.05-.59.08-.08.01-.32.05-.32.05-.17.03-.34.06-.51.08-.11.02-.22.04-.33.06-.17.03-.34.06-.5.1,0,0-.24.05-.32.06-.21.04-.42.09-.64.14-.11.02-.22.05-.32.07-.21.05-.41.1-.61.15-.09.02-.34.09-.34.09-.15.04-.29.08-.44.12-.12.03-.25.07-.37.11-.14.04-.27.08-.42.12-.12.04-.24.07-.36.11-.14.04-.27.09-.41.13l-.09.03c-.09.03-.18.06-.28.09-.23.08-.47.16-.7.25-.11.04-.21.08-.31.12l-.12.04c-.11.04-.21.08-.31.12-.14.05-.28.11-.41.16-.11.04-.22.09-.32.13-.14.06-.28.12-.42.18-.1.04-.32.14-.32.14-.14.06-.27.12-.41.18l-.22.1c-.31.15-.62.3-.93.45l-.18.09c-.15.08-.3.16-.46.24l-.24.13c-.15.08-.3.16-.44.24-.08.04-.16.09-.23.13-.15.09-.3.17-.45.26l-.18.11c-.53.31-1.05.64-1.56.98l-.14.09c-.15.1-.3.21-.46.31l-.18.12c-.15.1-.3.21-.43.31l-.17.13c-.15.11-.31.23-.46.34-4.36,3.29-7.98,7.6-10.45,12.46-2.6,5.1-3.91,10.6-3.91,16.36,0,7.6,2.33,14.85,6.74,21,.09.15.18.29.29.42l.14.19c1.89,2.44,3.21,4.07,4.05,4.96.71.76,1.45,1.49,2.21,2.18.14.13.4.35.88.77.45.39,1.35,1.17,1.67,1.47.68.76,1.67,1.22,2.71,1.21.3,0,.61-.04.92-.12.39-.1.75-.26,1.07-.48.38.41.76.81,1.12,1.2.94.98,1.74,1.75,2.45,2.37.68.59,1.53.89,2.38.89.68,0,1.36-.19,1.96-.57.29-.19.55-.41.77-.66.23.14.46.29.69.44,1.5.93,2.84,1.7,3.61,2.14.15.12.3.23.47.33.57.34,1.21.51,1.84.51.05,0,.09,0,.14,0,0,0,0,0,0,0s0,0,0,0c.05,0,.09,0,.14,0,.64,0,1.28-.17,1.84-.51.17-.1.32-.21.47-.33.77-.44,2.11-1.21,3.61-2.14.24-.15.47-.29.69-.44.22.25.48.47.77.66.6.38,1.28.57,1.96.57.86,0,1.71-.3,2.38-.89.71-.62,1.51-1.39,2.45-2.37.37-.39.75-.79,1.12-1.2.32.21.68.37,1.07.48.31.08.62.12.92.12,1.04,0,2.03-.45,2.71-1.21.32-.3,1.22-1.08,1.67-1.47.48-.42.74-.64.88-.77.75-.69,1.5-1.43,2.21-2.18.84-.89,2.16-2.52,4.05-4.96l.14-.19c.11-.14.21-.28.29-.42,4.41-6.15,6.74-13.4,6.74-21,0-5.76-1.32-11.26-3.91-16.36Z"/>
      <path class="cls-8" d="m326.5,63.18c0-17.92-14.53-32.45-32.45-32.45s-32.45,14.53-32.45,32.45c0,7.16,2.32,13.78,6.25,19.15,0,0,2.69,3.55,3.99,4.93.65.69,1.32,1.35,2.02,1.99.35.32,2.79,2.4,2.82,2.5-.12-.46-.26-.94-.42-1.44-.67-2.09-1.62-4.45-2.11-6.36.23.18,4.65,5.76,8.26,9.53.79.83,1.55,1.57,2.21,2.14-.15-.51-.3-1.02-.44-1.52-.38-1.3-.76-2.6-1.14-3.9,1.55,1.67,4.47,3.65,6.92,5.18,1.92,1.2,3.56,2.11,4.02,2.36l.06.04.07-.04c.46-.25,2.09-1.16,4.02-2.36,2.46-1.52,5.38-3.51,6.93-5.18-.38,1.3-.76,2.6-1.14,3.9-.15.51-.3,1.02-.45,1.52.66-.58,1.42-1.32,2.22-2.15,3.62-3.77,8.04-9.33,8.27-9.52-.49,1.91-1.44,4.27-2.11,6.36-.16.5-.31.99-.42,1.45.03-.11,2.47-2.18,2.82-2.5.7-.64,1.37-1.3,2.02-1.99,1.3-1.38,3.99-4.93,3.99-4.94,3.93-5.37,6.26-11.99,6.26-19.16Z"/>
      <path class="cls-7" d="m311.48,58.85s-7.92,1.8-9.36,3.6c-2.01,2.51-4.68,5.04-4.68,5.04-.09,0-2.91-.95-3-.95-.08,0-.16,0-.24.01-.08,0-.16,0-.24-.01-.09,0-2.91.95-3,.95,0,0-2.67-2.53-4.68-5.04-1.44-1.8-9.33-3.59-9.36-3.6-5.04-1.08-6.12,6.84-2.59,15.55.54.95,1.98.34,1.65-.71-.03-.08-.05-.16-.07-.24-.21-.68.45-1.32,1.11-1.07,2.14.79,4.5.18,7.73.15.1,0-.26.36-.26.72,0,.81,2.66,4.94,3.24,4.32.48-.51.84,2.51,1.07,3.67.82,4.23,5.25,12.38,5.41,12.38s4.49-8.17,5.41-12.38c.3-1.39.59-4.17,1.07-3.67.58.62,3.24-3.51,3.24-4.32,0-.36-.36-.72-.26-.72,3.22.02,5.58.64,7.73-.15.66-.25,1.31.39,1.11,1.07-.02.08-.05.16-.07.24-.33,1.05,1.11,1.66,1.65.71,3.53-8.71,2.45-16.63-2.59-15.55Z"/>
      <path class="cls-15" d="m313.72,65.34c.03,1.32-.41,2.65-1.22,3.7-1.34,1.7-3.59,2.42-5.76,2.57-4.55.33-8.02-1.13-7.39-2.33,1.79-3.37,5.35-5.96,8.62-7.11.72-.26,1.47-.46,2.23-.54.8-.09,1.69-.2,2.28.35.08.06.16.15.23.25.12.18.24.37.34.56h0c.39.73.62,1.54.67,2.36,0,.06.01.12.01.18Z"/>
      <path class="cls-1" d="m312.53,65.2c0,.2-.01.41-.04.61-.02.08-.03.17-.05.25-.09.39-.21.76-.39,1.12h0s-.04.1-.07.15c-.1.18-.21.36-.33.53-.2.28-.43.54-.68.78-.15.14-.31.27-.48.39-.02.01-.03.03-.05.04-.02.02-.03.03-.05.04-.02.02-.03.03-.05.04-.02.02-.05.03-.07.05-.06.04-.12.08-.18.11-.08.05-.16.1-.25.15-.04.02-.08.04-.11.06-.08.04-.15.08-.23.11-.09.04-.18.08-.27.12-.06.03-.12.05-.19.07-.05.02-.1.04-.15.06-.06.02-.12.04-.18.05-.69.21-1.42.32-2.15.32-.28,0-.55-.01-.83-.04-.09-.01-.18-.02-.27-.04-.19-.03-.39-.06-.59-.11-.23-.05-.46-.11-.68-.19-.49-.17-.96-.4-1.36-.72-.03-.02-.06-.05-.09-.08-.04-.04-.09-.07-.13-.11-.08-.08-.16-.17-.23-.26-.03-.03-.05-.07-.06-.1-.01-.02-.02-.03-.02-.04-.01-.02-.02-.04-.03-.06,0-.02-.02-.03-.02-.05-.02-.04-.03-.07-.04-.11-.02-.07-.03-.15-.03-.21,0-.08.01-.16.03-.23s.05-.15.09-.22c.01-.03.03-.06.05-.09.02-.03.04-.06.06-.09.11-.16.25-.32.39-.46.02-.02.04-.04.06-.06.04-.04.07-.08.11-.11l.05-.04s.08-.08.11-.11c.02.1.05.18.09.27.11.27.28.51.49.72.3.28.67.49,1.06.59.89.22,1.84-.03,2.62-.5.01,0,.02-.02.03-.02.02-.01.03-.02.04-.03.27-.17.53-.38.7-.66.01-.02.03-.03.04-.05.3-.53.18-1.22-.2-1.71-.25-.3-.57-.52-.93-.67-.21-.09-.44-.15-.67-.19-.11-.02-.21-.03-.32-.04.2-.12.4-.24.61-.35.2-.12.41-.23.62-.33.92-.45,1.9-.76,2.92-.84.16-.01.32-.02.47-.01.04,0,.08,0,.12,0,.05,0,.11.01.16.02.02,0,.04,0,.05.01.04,0,.08.01.11.02.05.02.1.03.16.04.05.02.1.03.15.05.07.03.13.06.19.09.04.03.09.05.13.09h0s.08.06.12.1l.03.02s.02.01.02.02c.03.04.06.08.1.11,0,0,0,.01,0,.01.04.05.08.1.11.16.02.03.04.06.06.1l.03.06s.02.03.02.04c.01.03.02.05.03.08l.03.09s0,.02.01.02c0,.01,0,.02,0,.03.02.04.03.08.04.12.02.06.03.13.05.19l.04.19s.01.09.02.13c.02.18.03.35.03.53Z"/>
      <path class="cls-15" d="m281.22,71.61c-2.16-.16-4.41-.87-5.75-2.57-.82-1.04-1.26-2.37-1.22-3.7,0-.06,0-.12,0-.18.05-.81.28-1.61.66-2.33,0-.01,0-.02.01-.03,0-.02.01-.04.02-.06,0-.03.02-.06.03-.09,0,0,0-.01,0-.02.02-.04.04-.09.06-.12.01-.03.03-.06.04-.08,0-.02.02-.04.03-.06.04-.07.09-.13.15-.2.01-.01.02-.03.03-.04.05-.04.1-.09.15-.13,0,0,.02,0,.02-.01.6-.56,1.5-.45,2.3-.37.76.08,1.5.28,2.23.54,3.26,1.15,6.82,3.74,8.61,7.11.63,1.19-2.83,2.66-7.39,2.33Z"/>
      <path class="cls-1" d="m285.74,67.89c-.02-.08-.05-.15-.09-.22h0s-.03-.06-.05-.09-.04-.06-.06-.09c-.11-.16-.25-.32-.4-.46-.02-.02-.04-.04-.06-.06-.04-.04-.07-.08-.11-.11l-.05-.05s-.08-.07-.12-.11c-.02.09-.05.18-.08.28-.11.27-.28.51-.49.72h0c-.29.28-.67.49-1.06.59-.89.22-1.84-.03-2.62-.51-.01,0-.02-.01-.04-.02h0s-.03-.02-.04-.02c-.27-.18-.53-.39-.7-.66h0s-.02-.03-.03-.05c-.3-.53-.18-1.23.2-1.7.24-.3.57-.52.93-.67.21-.09.44-.15.67-.2.1-.02.21-.03.32-.04-.2-.12-.4-.24-.6-.36-.2-.12-.41-.22-.62-.32-.92-.45-1.89-.76-2.92-.84-.15-.01-.31-.02-.47,0-.04,0-.08,0-.12,0-.06,0-.11.01-.16.02-.02,0-.04,0-.06,0-.04,0-.07.01-.1.02-.06.01-.1.02-.16.04-.05.02-.1.03-.15.05-.07.03-.13.06-.19.09-.04.03-.09.05-.13.08h0s-.08.07-.12.1l-.02.02s-.01.01-.02.02c-.04.04-.07.07-.1.11,0,0,0,0-.01.01l-.09.13s-.02.03-.03.05h0s-.02.04-.03.06c0,0-.01.02-.01.03-.01.02-.02.04-.04.06h0s-.01.02-.02.04c-.01.02-.02.05-.03.08l-.03.08s0,.02-.01.02v.02s-.04.08-.05.12c-.02.06-.04.13-.05.19l-.04.19s-.01.09-.02.13h0c-.02.18-.03.35-.03.53,0,.2.01.41.04.61.01.09.03.17.05.25.08.39.21.76.39,1.12.02.05.05.1.07.14.1.18.21.36.33.53.2.28.43.55.68.78.15.14.31.27.48.4.02.01.04.02.06.04.02.01.04.02.05.04.02.02.03.03.05.04.02.02.04.03.07.05.06.04.12.08.18.11.08.05.16.1.25.14.04.02.08.04.12.06.07.04.15.07.23.11.09.04.18.08.27.12.06.02.12.05.19.07.05.02.1.04.15.06.06.02.12.04.17.06.69.21,1.42.32,2.15.32.28,0,.55-.01.83-.04.09-.01.18-.02.27-.04.2-.03.39-.06.58-.11.23-.05.46-.12.68-.19.49-.17.95-.4,1.36-.72.03-.02.06-.05.09-.07.04-.04.09-.07.13-.12.08-.08.16-.17.23-.26.02-.03.05-.07.07-.1,0-.01.01-.03.02-.04,0-.02.02-.04.03-.06,0-.02.02-.04.02-.06.02-.04.03-.07.04-.11.02-.07.03-.14.03-.21,0-.08-.01-.15-.03-.23Z"/>
      <path class="cls-15" d="m293.96,90.64c-.18-.41-4.42-9.93-4.56-13.66-.82-.06-1.39-.61-1.69-1.63-.01-.04-.02-.07-.03-.1l-1.16-1.59,2-.53c3.33-.87,3.76-1.82,4.12-2.58.1-.21.2-.42.31-.61v-.02s1.25-1.39,1.25-1.39l1.2,1.33v.02c.13.19.21.32.28.47.4.73,1,1.84,4.55,2.78l2,.53-1.23,1.67h0s-.01.05-.01.05c-.22.47-.73,1.57-2.02,1.6-.18,4.29-4.36,13.27-4.54,13.66l-.23.51-.24-.52Z"/>
      <path class="cls-1" d="m294.26,70.7s-.04.03-.05.05c-.02-.02-.04-.03-.05-.05-.55.9-.59,2.58-5.27,3.81.35.48.1,1.86,1.79.48.19-.16.44.21.36.45-.91,2.37,2.46,11.87,3.18,12.13.72-.26,4.09-9.75,3.19-12.13-.09-.23.16-.61.36-.45,1.69,1.38,1.79,0,2.14-.48-4.68-1.23-5.07-2.91-5.62-3.81Zm.81,13.8c-.12.24-.49-1.49-.49-1.49-.08-.14-.23-.21-.37-.22-.14,0-.29.08-.37.22,0,0-.61,1.66-.71,1.41-.72-1.8-2.35-6.53-1.6-8.54.09-.24.41-.3.57-.1.89,1.04,1.73,2.44,2.11,3.42.39-.98,1.23-2.38,2.11-3.42.17-.2.48-.14.57.1.75,2.01-1.02,6.94-1.82,8.63Z"/>
      <g>
        <path class="cls-7" d="m311.53,55.73h0c1.16-1.53,1.49-3.3,1.56-5.16.03-.49.06-.98.09-1.47-1.13,3.12-3.07,5.59-5.57,7.67-1.4,1.17-2.94,2.12-4.55,2.97h0,0c-.12.04-.25.09-.37.13,0,.24.14.14.26.12.52-.05,1.03-.14,1.52-.29h0c.15-.02.3-.02.44-.05,2.29-.54,4.43-1.45,6.42-2.71.79-.5,1.57-1.03,2.32-1.73-.8.03-1.4.52-2.11.52Zm-7.19,3.73h0s0,0,.01,0c0,0,0,0,0,0h-.01s0,0,0,0Z"/>
        <path class="cls-7" d="m274.5,54.74c.75.7,1.53,1.23,2.32,1.73,1.99,1.26,4.12,2.17,6.42,2.71.14.03.29.04.44.05h0c.5.16,1.01.24,1.52.29.11.02.27.12.26-.12-.12-.04-.25-.09-.37-.13h0c-1.61-.85-3.15-1.8-4.55-2.97-2.5-2.08-4.43-4.56-5.57-7.67.03.49.06.98.09,1.47.06,1.86.39,3.63,1.56,5.16h0c-.71,0-1.31-.49-2.11-.52Zm9.3,4.25h-.01s0,0,0,0c0,0,0,0,.01,0h0s0,0,0,0Z"/>
      </g>
      <g>
        <path class="cls-3" d="m283.78,92.74c-1.3-.59-2.57-1.22-3.81-1.92.85.98,3.51,3.87,4.65,4.81-.08-.28-.83-2.84-.84-2.89Z"/>
        <path class="cls-3" d="m275.43,87.92c-4.86-3.49-8.81-7.71-11.32-12.19.99,2.33,2.2,4.52,3.68,6.53,0,0,2.72,3.58,4.02,4.97.65.69,1.33,1.36,2.03,2.01.35.32,2.82,2.41,2.84,2.52-.15-.71-1.25-3.84-1.25-3.84Z"/>
        <path class="cls-3" d="m289.03,94.79c.3.19.61.38.9.57,1.94,1.21,3.59,2.13,4.05,2.38l.06.04.07-.04c.46-.25,2.11-1.17,4.05-2.38.21-.13.43-.27.65-.41-1.57.48-3.17.86-4.76,1.14-1.69-.33-3.37-.77-5.02-1.3Z"/>
        <path class="cls-3" d="m323.99,75.73c-2.51,4.46-6.49,8.75-11.35,12.27,0,.02-.02.04-.02.06-.27.77-.84,2.48-.87,2.59-.12.39-.23.77-.33,1.13.03-.11,2.49-2.2,2.84-2.52.7-.64,1.38-1.32,2.03-2.01,1.31-1.39,4.03-4.97,4.02-4.98,1.48-2.02,2.69-4.21,3.68-6.54Z"/>
        <path class="cls-3" d="m304.48,92.7s-.06.05-.08.07c-.02.01-.05.02-.07.03,0,.01-.06.02-.06.03-.12.4-.73,2.52-.81,2.79.67-.58,1.49-1.39,2.29-2.22.74-.77,1.52-1.62,2.28-2.48-1.16.65-2.36,1.26-3.57,1.82,0-.01,0-.03.01-.04Z"/>
      </g>
      <path class="cls-15" d="m332.95,184.06v.6h-1.16v3.03h-.72v-3.03h-1.16v-.6h3.04Zm3.92,3.63l-.13-2.13c-.01-.28-.01-.63-.03-1.01h-.04c-.09.32-.2.75-.31,1.08l-.65,2.01h-.75l-.65-2.07c-.07-.28-.17-.71-.25-1.03h-.04c0,.33-.01.68-.03,1.01l-.13,2.13h-.69l.27-3.63h1.08l.63,1.77c.08.28.15.55.24.92h.01c.09-.33.17-.64.25-.91l.63-1.79h1.04l.28,3.63h-.72Z"/>
      <path class="cls-7" d="m298.04,47.51h3.38c-2.09-1.8-3.62-3.81-4.84-6.22h2.81c-3.08-2.71-4.55-6.11-5.35-9.88-.79,3.79-2.29,7.18-5.36,9.91h2.81c-1.2,2.39-2.75,4.4-4.63,6.25h3.18c-1.37,2.49-3.01,4.62-4.96,6.54.5-.5,1.88-.72,2.55-.91.93-.26,1.87-.45,2.82-.59,2.08-.29,4.33-.31,6.41-.09,1.09.11,2.17.3,3.22.58.76.2,2.35.44,2.92,1.01-1.94-1.94-3.61-4.05-4.97-6.6Z"/>
      <path class="cls-7" d="m361.18,103.21c-1.28-1.44-2.8-2.68-4.17-3.3,3.21,4.64,7.84,15.4,5.84,27.21-.62-3.04-1.04-7.82-3.18-11.97,2.7,14.93-5.01,32.62-10.41,40.44.07-.07.14-.13.21-.2.05-.05.1-.1.15-.15.14-.14.28-.28.42-.42.05-.05.09-.09.14-.14.18-.18.36-.37.55-.56.04-.04.07-.08.11-.11.15-.16.31-.32.46-.48.06-.06.11-.12.17-.18.17-.18.34-.36.51-.55.03-.03.05-.06.08-.09.19-.21.39-.43.59-.66.05-.06.11-.12.16-.18.16-.18.31-.36.47-.54.05-.06.11-.13.16-.19.2-.24.4-.48.61-.73.02-.03.04-.05.06-.08,1.17-1.46,2.21-3.03,3.1-4.67.06-.11.11-.22.17-.34,4.73-9.71,7.19-20.46,7.07-31.6-.03-2.48-.19-4.94-.47-7.38,0-.03,0-.07-.01-.1-.06-.54-.13-1.07-.21-1.61-.01-.09-.02-.17-.04-.26-.07-.48-.14-.96-.22-1.43-.02-.13-.04-.26-.06-.39-.07-.42-.15-.85-.23-1.27-.03-.17-.06-.34-.1-.52-.07-.36-.15-.72-.22-1.07-.05-.23-.1-.46-.15-.69-.05-.24-.11-.47-.17-.7-1.45-6.18-3.72-12.14-6.76-17.71-.16-.3-.33-.59-.49-.88-.08-.14-.16-.28-.24-.42-.56-.97-1.14-1.91-1.74-2.85-.07-.12-.15-.23-.22-.34-.11-.17-.23-.34-.34-.52,3.74,9.18,8.9,23.96,8.4,27.62Z"/>
      <path class="cls-7" d="m226.91,103.44c1.28-1.44,2.8-2.68,4.17-3.3-3.21,4.64-7.84,15.4-5.84,27.21.62-3.04,1.04-7.82,3.18-11.97-2.7,14.93,5.01,32.62,10.41,40.44-.07-.07-.14-.13-.21-.2-.05-.05-.1-.1-.15-.15-.14-.14-.28-.28-.42-.42-.05-.05-.09-.09-.14-.14-.18-.18-.36-.37-.55-.56-.04-.04-.07-.08-.11-.11-.15-.16-.31-.32-.46-.48-.06-.06-.11-.12-.17-.18-.17-.18-.34-.36-.51-.55-.03-.03-.05-.06-.08-.09-.19-.21-.39-.43-.59-.66-.05-.06-.11-.12-.16-.18-.16-.18-.31-.36-.47-.54-.05-.06-.11-.13-.16-.19-.2-.24-.4-.48-.61-.73-.02-.03-.04-.05-.06-.08-1.17-1.46-2.21-3.03-3.1-4.67-.06-.11-.11-.22-.17-.34-4.73-9.71-7.19-20.46-7.07-31.6.03-2.48.19-4.94.47-7.38,0-.03,0-.07.01-.1.06-.54.13-1.07.21-1.61.01-.09.02-.17.04-.26.07-.48.14-.96.22-1.43.02-.13.04-.26.06-.39.07-.42.15-.85.23-1.27.03-.17.06-.34.1-.52.07-.36.15-.72.22-1.07.05-.23.1-.46.15-.69.05-.24.11-.47.17-.7,1.45-6.18,3.72-12.14,6.76-17.71.16-.3.33-.59.49-.88.08-.14.16-.28.24-.42.56-.97,1.14-1.91,1.74-2.85.07-.12.15-.23.22-.34.11-.17.23-.34.34-.52-3.74,9.18-8.9,23.96-8.4,27.62Z"/>
      <g>
        <path class="cls-12" d="m373.33,178.32c-.95-.95-1.81-1.8-2.56-2.52-.3-.29-.6-.55-.91-.79l-.11.15-5.64,7.55c.53.55,1.07,1.13,1.61,1.72l7.45-5.96.17-.13Z"/>
        <path class="cls-12" d="m379.19,184.52c-.79-.88-1.56-1.71-2.3-2.5-.04-.04-.08-.08-.12-.13l-.18.12-6.16,4.2,5.6-4.79.17-.14c-.9-.96-1.76-1.84-2.56-2.65l-.15.15-6.89,6.61c1.38,1.54,2.75,3.13,4.04,4.64l8.37-5.39.19-.12Z"/>
        <path class="cls-12" d="m381.83,187.51c-.83-.96-1.63-1.87-2.42-2.75l-.17.15-7.41,6.55c.82.98,1.59,1.89,2.27,2.69.03.04.07.08.11.12l7.44-6.61.17-.15Z"/>
        <path class="cls-12" d="m383.58,189.57c-.29-.34-.57-.68-.85-1.01l-.19.13-8.31,5.59c.73.84,1.38,1.57,1.91,2.16.46.42.98.69,1.53.85,1.53-1.01,4.59-3.08,6.65-4.47.12-.08.24-.16.35-.24.04-1.02-.29-2.05-1.08-3Z"/>
        <path class="cls-12" d="m369.69,174.87c-.98-.75-2.01-1.29-3-1.58l-.04.06-2.02,2.82,1.66-2.93.02-.04c-.29-.07-.58-.11-.86-.14-.09,0-.18-.01-.26-.02-.05,0-.66,0-1.76,0l-2.26,6.77c.65.59,1.34,1.26,2.05,1.98l6.34-6.78.12-.13Z"/>
      </g>
      <path class="cls-7" d="m300.34,206.36c-1.3,1.34-2.77,2.44-4.22,3.05-.29.12-1.36.41-1.74.41h-.26c-.38,0-1.45-.28-1.74-.41-1.45-.61-2.91-1.71-4.21-3.05-2-2.06-3.6-4.7-4.16-7.07-.12,1.36-.24,4.01-.23,4.24,0,.15-.01.3-.02.44-.1,2.77,1.82,6.35,4.38,8.98,1.3,1.34,2.76,2.44,4.21,3.05.29.12,1.36.41,1.74.41h.26c.38,0,1.45-.28,1.74-.41,1.27-.54,2.55-1.44,3.72-2.56.16-.15.31-.3.46-.46.58-.6,1.13-1.25,1.63-1.93.4-.55.77-1.11,1.11-1.66.94-1.62,1.56-3.3,1.66-4.8,0-.04,0-.09,0-.13,0-.15,0-.56,0-.71,0-.07,0-.15,0-.22,0-.19-.07-2.05-.17-3.45,0-.02,0-.04,0-.06-.7,2.15-2.37,4.51-4.14,6.34Z"/>
      <path class="cls-7" d="m314.1,202.84s-.02.01-.05.02c-1.17.51-2.48.63-3.72.33-.11-.03-.2-.05-.25-.07-.11-.05-.3-.14-.41-.19,0,0,0,.02,0,.03.82,2.42,1.65,4.85,2.48,7.32,0,.01,0,.02.01.03.56-1.35.99-2.67,1.31-3.98.27-1.11.46-2.23.61-3.41,0-.03,0-.05,0-.08,0,0-.01,0-.02,0Z"/>
      <path class="cls-7" d="m324.09,199.96c.02-.06.03-.12.05-.18.03-.13.06-.25.08-.39.01-.07.02-.14.03-.2,0-.04.01-.08.02-.12.01-.08.02-.17.03-.26.06-.58.09-1.27.09-2.16,0-.09,0-.17,0-.26,0-.17,0-.35,0-.53-.01-.75-.05-1.31-.1-2.03,0,0,0-.02,0-.03-.07.04-.41.16-.8.29-.78.26-1.61.29-2.41.11-.42-.1-.84-.2-.97-.23,1.24,2.21,2.48,4.42,3.73,6.65.07-.18.14-.36.2-.54.01-.03.02-.07.03-.1Z"/>
      <path class="cls-7" d="m278.34,203.23s-.14.05-.25.07c-1.24.3-2.55.18-3.72-.33-.03-.01-.04-.02-.06-.03.01.13.03.26.05.39.07.49.14.98.23,1.45.02.1.04.21.06.31.02.11.04.22.07.34.34,1.62.83,3.25,1.52,4.92.84-2.46,1.66-4.89,2.48-7.3-.11.05-.27.13-.37.17Z"/>
      <path class="cls-7" d="m267.33,194.19c-.8.19-1.63.15-2.41-.11-.39-.13-.72-.25-.79-.29,0,.06,0,.12-.01.18-.04.57-.07,1.06-.08,1.64,0,.26,0,.51,0,.75,0,.14,0,.28,0,.42,0,.64.02,1.17.06,1.64.08.87.23,1.62.48,2.21,1.26-2.25,2.51-4.47,3.75-6.69-.06.02-.52.13-1,.24Z"/>
    </g>
    <g class="cls-18">
      <path class="cls-4" d="m608,0H243.43c-11.19,110.15-81.4,202.84-178.49,246h543.06V0Z"/>
      <path class="cls-13" d="m243.43,0H0v246h64.94C162.04,202.84,232.24,110.15,243.43,0Z"/>
      <path class="cls-4" d="m243.43,0H0v246h64.94C162.04,202.84,232.24,110.15,243.43,0Z"/>
    </g>
  </g>
</svg>