<?xml version="1.0" encoding="UTF-8"?>
<svg id="Layer_2" data-name="Layer 2" xmlns="http://www.w3.org/2000/svg" viewBox="0 0 1739.55 1524">
  <defs>
    <style>
      .cls-1 {
        fill: #fff;
        stroke-width: 0px;
      }
    </style>
  </defs>
  <g id="Layer_1-2" data-name="Layer 1">
    <g>
      <path class="cls-1" d="m667.06,626.87c-8.46-9.18-15.21-17.1-22.59-24.38-48.08-47.37-96.29-94.6-144.49-141.85-21.6-21.18-43.12-42.47-65.05-63.3-4.62-4.39-9.12-11.2-18.72-7.32-.85,2.3-2.95,5.32-2.95,8.33-.12,160.57-.09,321.13.13,481.7.01,1.79,2.47,3.57,6.61,9.15,8.23-7.44,15.47-13.16,21.75-19.8,71.21-75.19,142.31-150.49,213.28-225.9,4.49-4.75,7.77-10.66,12.04-16.63Z"/>
      <path class="cls-1" d="m1110.46,759.54c-28.39-28.62-54.24-59.88-86.42-86.61-9,8.38-16.73,15.25-24.12,22.47-35.79,35.04-71.41,70.25-107.26,105.21-21.96,21.42-25.03,21.25-48.06-.63-3.38-3.21-6.66-6.51-9.97-9.78-32.31-31.93-64.54-63.94-96.96-95.75-8.11-7.95-16.86-15.24-27-24.34-10.48,10.59-19.55,19.41-28.23,28.61-39.12,41.55-78.03,83.29-117.2,124.79-27.97,29.65-56.49,58.79-84.21,88.68-6.76,7.28-17.11,13.01-16.11,27.07,3.73,1.26,7.81,3.58,12.01,3.85,11.62.75,23.27.81,34.92.81,204.99.02,409.98,0,614.97-.03,43.09-.01,86.18-.06,129.27-.25,6.62-.03,14.32,1.53,17.82-9.92-24.02-31.08-53.74-58.79-81.29-88.39-26.97-28.99-54.28-57.68-82.16-85.78Z"/>
      <path class="cls-1" d="m870.12,737.91c9.56-8.47,18.44-15.71,26.6-23.67,99.15-96.69,198.24-193.42,297.21-290.29,23.28-22.79,46.22-45.94,68.78-69.44,3.1-3.24,3.05-9.52,5.37-17.52h-44.81c-236.25.01-472.51.02-708.77.05-10.48,0-20.96-.12-31.42.44-4.06.22-8.03,2.15-13.01,3.57,1.84,5.29,2.17,8.94,4.09,11.28,23.15,28.22,370.66,367.21,395.96,385.57Z"/>
      <path class="cls-1" d="m1325.95,860.27c.25-146.58.21-293.17.2-439.76,0-6.97.12-14.01-.78-20.9-.51-4.01-2.92-7.78-4.25-11.09-4.49.51-7.56-.1-8.83,1.14-80.74,78.68-161.34,157.5-244.36,238.67,7.45,8.62,11.78,14,16.47,19.01,30.27,32.21,60.52,64.46,90.97,96.49,39.27,41.31,78.6,82.58,118.21,123.56,7.64,7.9,14.18,18.07,25.56,20.39,9.92-8.87,6.79-18.77,6.8-27.51Z"/>
    </g>
    <path class="cls-1" d="m528.98,1524c-15.84,0-31.31-3.85-45.05-11.47-24.3-13.49-41.38-37.85-46.86-66.83-2.93-15.36-3.2-30.42-3.45-43.7-.08-4.08-.15-7.93-.29-11.68-1.57-42.08-2.99-83.62-4.51-127.6l-.43-12.57c-14.95-7.49-27.74-13.9-40.53-20.35-96.81-48.84-179.78-113.01-246.61-190.73C34.19,914.57-12.39,771.41,2.81,613.57c7.31-76.02,32.52-150.3,74.93-220.78,72.85-121.17,178.57-215.52,314.21-280.4C542.58,40.35,697.1,2.59,851.22.13c152.89-2.45,308.53,29.83,462.64,95.89,118.58,50.81,219.34,127.4,299.45,227.63,165.3,206.77,168.52,476.09,8.18,686.11h0c-38.78,50.79-84.78,96.76-136.73,136.63-48.45,37.19-103.72,70.31-164.28,98.47-128.45,59.68-265.08,91.35-406.1,94.13-33.27.65-61,8.98-89.9,27.01-52.01,32.4-105.64,63.48-157.5,93.55-20.56,11.92-41.81,24.24-62.61,36.44-2.58,1.51-5.23,3.16-8.04,4.9-8.65,5.37-18.45,11.46-30.14,16.01-12.2,4.74-24.82,7.1-37.21,7.1ZM867.74,80.42c-148.65,0-296.09,34.71-441.26,104.14-121.27,58-215.53,141.93-280.18,249.46-36.22,60.18-57.7,123.16-63.86,187.21-13.03,135.31,27.16,258.34,119.47,365.68,59.94,69.7,134.62,127.39,221.98,171.46,13.06,6.58,26.12,13.13,41.5,20.84l41.32,20.72,2.07,60.04c1.51,43.92,2.94,85.4,4.5,127.37.17,4.5.25,8.91.33,13.18.21,11.07.4,21.53,2.06,30.27.76,4.04,2.6,9.3,7.08,11.78,3.67,2.04,8.8,1.96,14.43-.23,4.76-1.85,10.66-5.52,16.91-9.4,3.14-1.95,6.39-3.97,9.86-6,20.91-12.26,42.25-24.64,62.9-36.6,51.32-29.75,104.39-60.52,155.31-92.23,41.26-25.74,82.78-38.17,130.64-39.1,129.84-2.56,255.66-31.73,373.96-86.69,114.71-53.33,203.4-122.37,271.14-211.09,137.29-179.84,134.51-410.49-7.08-587.61-71.8-89.83-162.13-158.49-268.48-204.05-138.61-59.42-277.13-89.13-414.61-89.13Z"/>
  </g>
</svg>