<?xml version="1.0" encoding="UTF-8"?>
<svg id="Layer_2" data-name="Layer 2" xmlns="http://www.w3.org/2000/svg" viewBox="0 0 302.95 302.96">
  <defs>
    <style>
      .cls-1 {
        fill: #fff;
        stroke-width: 0px;
      }
    </style>
  </defs>
  <g id="Layer_1-2" data-name="Layer 1">
    <g>
      <path class="cls-1" d="m208.32,0h-113.5C42.59,0,0,42.58,0,94.77v113.43c0,52.19,42.59,94.76,94.82,94.76h113.5c52.23,0,94.63-42.57,94.63-94.76v-113.43C302.95,42.58,260.55,0,208.32,0Zm66.29,208.2c0,36.48-29.79,65.44-66.29,65.44h-113.5c-36.51,0-66.48-28.96-66.48-65.44v-113.43c0-36.48,29.97-67.41,66.48-67.41h113.5c36.51,0,66.29,30.93,66.29,67.41v113.43Z"/>
      <path class="cls-1" d="m232.91,60.12c-5.57,0-10.08,4.51-10.08,10.08s4.51,10.08,10.08,10.08,10.08-4.51,10.08-10.08c0-5.56-4.52-10.08-10.08-10.08Z"/>
      <path class="cls-1" d="m151.57,75.87c-41.79,0-75.67,33.86-75.67,75.62s33.88,75.61,75.67,75.61,75.67-33.86,75.67-75.61c0-41.76-33.88-75.62-75.67-75.62Zm0,122.88c-26.07,0-47.29-21.21-47.29-47.26s21.22-47.26,47.29-47.26,47.29,21.19,47.29,47.26-21.22,47.26-47.29,47.26Z"/>
    </g>
  </g>
</svg>