<?xml version="1.0" encoding="UTF-8"?>
<svg id="Layer_2" data-name="Layer 2" xmlns="http://www.w3.org/2000/svg" viewBox="0 0 340.88 305">
  <defs>
    <style>
      .cls-1, .cls-2, .cls-3, .cls-4 {
        stroke-width: 0px;
      }

      .cls-2 {
        isolation: isolate;
        opacity: .5;
      }

      .cls-3 {
        fill: #fff;
      }

      .cls-4 {
        fill: #bab995;
      }
    </style>
  </defs>
  <g id="Layer_1-2" data-name="Layer 1">
    <g id="Layer_1-2" data-name="Layer 1-2">
      <polygon class="cls-3" points="35.49 35 35.49 70.65 35.49 197.94 109.68 116.47 149.89 160.03 209.92 95.54 304.49 197.94 304.49 105.72 304.49 35 35.49 35"/>
      <path class="cls-4" d="m229.49,273.93c2.93,2.89,4.04,6.38,3.97,10.47-.14,7.6-6.53,13.6-14.13,13.6h-98.15c-3.97,0-7.37-1.68-10.2-3.92-2.84-2.24-3.97-6.16-3.97-10.08,0-7.84,6.24-14,14.17-14h1.73c14.69,0,26.59-11.9,26.59-26.59v-1.41h42v1.41c0,14.69,11.9,26.59,26.59,26.59h1.77c3.4,0,7.37,1.12,9.64,3.92h0Z"/>
      <path class="cls-3" d="m304.23,198H7.49v20.16c0,11.76,9.61,21.84,22.04,21.84h280.91c11.87,0,22.05-9.52,22.05-21.84v-20.16h-28.26.01Z"/>
      <path class="cls-4" d="m332.49,28v170h-28V35H35.49v163H7.49V28c0-11.84,9.61-22,22.04-22h281.47c11.31,0,21.48,9.59,21.48,22h0Z"/>
      <path class="cls-3" d="m145.25,62.93c9.69,0,17.54,7.85,17.54,17.54s-7.85,17.54-17.54,17.54-17.54-7.85-17.54-17.54,7.85-17.54,17.54-17.54h0Z"/>
      <polygon class="cls-4" points="210.32 95.6 304.8 198 116.4 198 150.35 160.09 210.32 95.6"/>
      <polygon class="cls-4" points="110.18 116.53 150.35 160.09 116.4 198 36.06 198 110.18 116.53"/>
      <path class="cls-2" d="m304.76,211.16c3.57,0,6.47,2.89,6.47,6.47s-2.89,6.46-6.47,6.46-6.46-2.89-6.46-6.46,2.89-6.47,6.46-6.47Z"/>
      <path class="cls-2" d="m285.87,211.16c3.57,0,6.47,2.89,6.47,6.47s-2.89,6.46-6.47,6.46-6.46-2.89-6.46-6.46,2.89-6.47,6.46-6.47Z"/>
      <path class="cls-2" d="m267.48,211.16c3.57,0,6.47,2.89,6.47,6.47s-2.89,6.46-6.47,6.46-6.47-2.89-6.47-6.46,2.89-6.47,6.47-6.47Z"/>
      <path class="cls-1" d="m219.49,305h-97.93c-5.66,0-10.75-2.26-15.28-6.22-3.96-3.96-6.22-9.62-6.22-15.28,0-11.88,9.62-21.5,21.5-21.5h1.13c10.89,0,19.8-8.91,19.8-19.8v-4.76c0-.37.11-.75.33-1.05,5.85-8.18,14.67-3.22,14.67,3.23v28.57c0,4.29-3.51,7.81-7.81,7.81h-32.36c-.71,0-1.46.56-1.66,1.24-1.14,3.79-2.98,7.65.85,11.45,1.15,1.15,2.89,2.31,5.19,2.31h103.38c.72,0,1.49-.56,1.72-1.24,1.29-3.91,2.99-7.66-.78-11.45-1.15-1.15-2.89-2.3-5.19-2.3h-28.25c-4.45,0-8.09-3.64-8.09-8.09v-30.47c0-.39.12-.78.35-1.1,5.92-8.06,14.65-3.11,14.65,3.31v2.55c0,10.89,8.91,19.8,19.8,19.8h1.31c5.56,0,10.55,2.26,15,6.22,3.89,3.96,6.11,9.62,6.11,15.28-1.67,11.88-11.1,21.5-22.22,21.5h0Z"/>
      <path class="cls-2" d="m333.37,205h-28.61c-2.7,0-5.29-1.34-6.65-3.67-3.16-5.39,1.13-11.33,6.42-11.33h28.85c4.04,0,7.51,3.46,7.51,7.51s-4.04,7.49-7.51,7.49Z"/>
      <path class="cls-2" d="m36.34,205H7.74c-2.7,0-5.29-1.34-6.66-3.67-3.18-5.39,1.14-11.33,6.41-11.33h28.85c4.04,0,7.49,3.46,7.49,7.51s-4.04,7.49-7.49,7.49Z"/>
      <path class="cls-1" d="m310.67,247H29.34c-15.87,0-28.85-12.98-28.85-28.85V28.83C.49,13,13.48,0,29.3,0h281.37c15.82,0,28.82,13,28.82,28.83v189.35c0,15.85-12.97,28.82-28.82,28.82h0ZM14.49,28.71v189.58c0,8.09,6.62,14.71,14.71,14.71h281.58c8.09,0,14.71-6.62,14.71-14.71V28.71c0-8.09-6.62-14.71-14.71-14.71H29.2c-8.09,0-14.71,6.62-14.71,14.71Z"/>
      <path class="cls-1" d="m304.8,204.37c-3.96,0-7.35-3.39-7.32-7.35V42H42.49v155.58c.37,3.96-3.29,6.21-7.25,6.21s-6.52-2.82-6.75-6.21V34.64c.23-3.96,7.58-7.64,7.58-7.64h268.74s7.36,3.68,7.68,7.64v162.94c-.89,3.4-4.28,6.79-7.68,6.79Z"/>
      <path class="cls-1" d="m116.2,204H36.59c-2.8,0-5.04-1.68-6.17-3.92-1.12-2.8-.55-5.61,1.12-7.29l73.99-80.16c1.12-1.68,3.36-2.24,5.04-2.24h0c1.68,0,3.92.56,5.04,2.24l39.8,43.17c2.8,2.79.05,5.2-2.75,8.01s-5.09,4.33-7.9,1.53l-34.76-37.55-57.73,62.22h63.54c3.84,0,7.26,2.8,7.62,6.62.4,4.27-3.11,7.39-7.25,7.39h0Z"/>
      <path class="cls-1" d="m304.8,204H116.4c-2.83,0-5.09-1.7-6.22-3.96-1.13-2.83-.57-5.66,1.13-7.36l34.51-37.34,59.97-65.06c1.13-1.7,3.4-2.26,5.09-2.26s3.96.57,5.09,2.26l93.91,101.84c1.13,1.13,2.26,2.83,2.26,5.09-.57,3.4-3.96,6.79-7.36,6.79h.02Zm-172.56-14h156.15l-78.08-84.87-78.07,84.87Z"/>
      <path class="cls-1" d="m150.25,153.36c-13.58,0-24.89-11.32-24.89-24.89s11.32-24.9,24.89-24.9,24.89,11.32,24.89,24.9-11.32,24.89-24.89,24.89Zm0-35.07c-5.66,0-10.75,4.52-10.75,10.75s4.53,10.75,10.75,10.75,10.75-4.53,10.75-10.75-4.53-10.75-10.75-10.75Z"/>
      <path class="cls-1" d="m234.08,169.29c-1.7,0-3.39-.56-5.09-2.26l-21.5-21.5c-2.83-2.83-2.83-7.36,0-10.19,2.83-2.82,7.35-2.82,10.18,0l21.5,21.5c2.83,2.83,2.83,7.36,0,10.19-1.7,1.13-3.39,2.26-5.09,2.26Z"/>
    </g>
  </g>
</svg>