<?xml version="1.0" encoding="UTF-8"?>
<svg id="Layer_2" data-name="Layer 2" xmlns="http://www.w3.org/2000/svg" viewBox="0 0 313 298.21">
  <defs>
    <style>
      .cls-1, .cls-2, .cls-3 {
        stroke-width: 0px;
      }

      .cls-2 {
        fill: #fff;
      }

      .cls-3 {
        fill: #bab995;
      }
    </style>
  </defs>
  <g id="Layer_1-2" data-name="Layer 1">
    <g id="Layer_1-2" data-name="Layer 1-2">
      <polygon class="cls-2" points="305 219.77 305 248.05 206 290.48 206 262.19 305 219.77"/>
      <polygon class="cls-2" points="305 35.89 305 219.76 206 262.18 206 78.33 305 35.89"/>
      <polygon class="cls-2" points="305 7.61 305 35.88 206 78.32 206 50.03 305 7.61"/>
      <polygon class="cls-3" points="206 262.19 206 290.48 107 248.05 107 219.77 206 262.19"/>
      <polygon class="cls-3" points="107 35.89 107 219.76 206 262.18 206 78.33 107 35.89"/>
      <polygon class="cls-3" points="206 50.03 206 78.32 107 35.88 107 7.61 206 50.03"/>
      <polygon class="cls-2" points="185 99.8 185 135.13 128 106.64 128 71.29 185 99.8"/>
      <polygon class="cls-2" points="185 177.8 185 213.13 128 184.64 128 149.29 185 177.8"/>
      <polygon class="cls-2" points="107 219.77 107 248.05 8 290.48 8 262.19 107 219.77"/>
      <polygon class="cls-2" points="107 35.89 107 219.76 8 262.18 8 78.33 107 35.89"/>
      <polygon class="cls-2" points="107 7.61 107 35.88 8 78.32 8 50.03 107 7.61"/>
      <path class="cls-1" d="m203.88,57.21c-2.89,0-5.19-1.7-6.36-4.52-1.73-3.4,0-7.92,4.04-9.05L302.6,1.2c2.31-1.13,4.61-.56,6.93.57,2.31,1.13,3.47,3.4,3.47,5.66v27.88c0,2.93-1.58,5.7-4.21,6.98-5.22,2.55-10.79-1.55-10.79-6.58v-17.53l-91.21,38.47c-1.15,0-2.31.56-2.89.56h-.02Z"/>
      <path class="cls-1" d="m205.98,298.21c-2.83-.37-5.09-2.07-6.23-4.9-1.7-3.4,0-7.92,3.96-9.05l94.29-40.73v-23.76c.19-3.96,3.59-7.36,7.54-7.36s6.22,3.4,6.46,7.36v28.29c-.24,2.83-1.94,5.66-4.77,6.22l-99.01,42.43c-.57.57-1.7,1.13-2.26,1.5h.02Z"/>
      <path class="cls-1" d="m204.93,298.21c-1.15,0-1.73,0-2.89-.57l-101.03-42.43c-3.47-1.7-5.19-5.66-4.04-9.05,1.73-3.4,5.78-5.09,9.23-3.96l91.8,37.9v-17.16c0-2.94,1.6-5.71,4.25-6.98,5.24-2.5,10.75,1.6,10.75,6.6v28.29c0,2.26-1.15,4.53-3.47,5.66-1.73,1.13-2.89,1.7-4.62,1.7h.02Z"/>
      <path class="cls-1" d="m206.28,85.21c-3.92,0-7.28-3.39-7.28-7.35v-23.76L105.38,13.36c-3.36-1.7-5.04-5.66-3.92-9.05,1.68-3.4,5.61-5.09,8.97-3.96l98.1,42.43c2.8,1.13,4.48,3.39,4.48,6.22v28.29c0,4.53-3.36,7.92-6.73,7.92h0Z"/>
      <path class="cls-1" d="m7.42,298.03c-1.14,0-2.85-.57-3.99-1.14C1.15,295.76,0,293.48,0,291.19v-28.1c0-2.69,1.33-5.27,3.64-6.66,5.38-3.22,11.36,1.1,11.36,6.4v17.49l85-36.27v-24.18c0-4.09,3.51-7.59,7.58-7.59s6.42,3.51,6.42,7.59v27.98c0,2.85-1.71,5.7-4.55,6.27l-99.77,42.76c-.57.57-1.71,1.14-2.28,1.14h.02Z"/>
      <path class="cls-1" d="m7.8,85.9C3.6,85.9,0,82.3,0,78.1v-28.01C0,47.26,1.7,44.42,4.54,43.86L103.78,1.32c2.27-1.13,4.54-.56,6.81.57,2.27,1.13,3.41,3.41,3.41,5.67v28.25c0,4.04-3.47,7.51-7.5,7.51s-7.5-3.46-7.5-7.51v-17.27L15,54.38v23.72c0,4.2-3.61,7.8-7.2,7.8Z"/>
      <path class="cls-1" d="m204.04,269.55c-2.88,0-5.19-1.7-6.35-4.53-1.73-3.4,0-7.92,4.04-9.05l96.28-40.73V46.63l-91.09,38.48c-3.45,1.7-8.07,0-9.22-3.96-1.73-3.39,0-7.92,4.04-9.05l100.89-42.44c2.3-1.13,4.61-.56,6.92.57,2.3,1.13,3.46,3.39,3.46,5.66v183.88c0,2.83-1.73,5.66-4.61,6.22l-100.89,42.43c-1.73.57-2.88,1.13-3.46,1.13h0Z"/>
      <path class="cls-1" d="m205.72,268.36c-1.12,0-1.68,0-2.8-.56l-98.03-42.01c-3.37-1.68-5.04-5.6-3.92-8.96,1.68-3.36,5.6-5.04,8.96-3.92l89.07,37.52V83.51l-93.54-40.33c-3.36-1.68-5.04-5.6-3.92-8.96,1.68-3.37,5.6-5.04,8.96-3.92l98.03,42.01c2.8,1.12,4.48,3.36,4.48,6.16v182.05c0,2.24-1.12,4.49-3.36,5.6-1.12,1.68-2.24,2.24-3.92,2.24h0Z"/>
      <path class="cls-1" d="m7.38,269.84c-1.13,0-2.84-.57-3.97-1.13C1.14,267.57,0,265.31,0,263.03V78.16C0,75.32,1.7,72.48,4.54,71.92L103.79,29.38c2.27-1.13,4.54-.56,6.81.57s3.41,3.4,3.41,5.67v184.32c0,2.84-1.7,5.67-4.54,6.23l-99.25,42.53c-1.13.57-2.27,1.13-2.84,1.13Zm7.62-187.1v168.87l85-36.27V46.46S15,82.74,15,82.74Z"/>
      <path class="cls-1" d="m184,142.27c-1.13,0-2.26,0-3.4-.57l-56.63-28.32c-2.26-1.13-3.96-3.39-3.96-6.23v-35.66c0-2.27,1.13-4.55,3.4-6.24,2.27-1.13,4.55-1.13,6.82-.57l56.8,28.4c2.27,1.13,3.98,3.4,3.98,6.24v35.45c0,2.33-1.17,4.68-3.5,6.42-.59.59-2.33,1.17-3.5,1.17v-.09Zm-49-40.18l42,21.28v-19.6l-42-21.28v19.6Z"/>
      <path class="cls-1" d="m184,226.27c-1.13,0-2.26,0-3.4-.57l-56.63-28.32c-2.26-1.13-3.96-3.39-3.96-6.23v-35.66c0-2.27,1.13-4.55,3.4-6.24,2.27-1.13,4.55-1.13,6.82-.57l56.8,28.4c2.27,1.13,3.98,3.4,3.98,6.24v35.45c0,2.33-1.17,4.68-3.5,6.42-.59.59-2.33,1.17-3.5,1.17v-.09Zm-49-40.18l42,21.28v-19.6l-42-21.28v19.6Z"/>
      <path class="cls-1" d="m234.7,223.21c-2.14,0-4.29-1.29-5.14-3.43-.86-2.57.43-6,3-6.86l42.87-16.29c2.57-.86,6,.43,6.86,3s-.43,6-3,6.86l-42.87,16.29c-.43.43-1.29.43-1.71.43h0Z"/>
      <path class="cls-1" d="m234.7,207.21c-2.14,0-4.29-1.29-5.14-3.43-.86-2.58.43-6,3-6.86l42.87-16.29c2.57-.86,6,.43,6.86,3,.86,2.58-.43,6-3,6.86l-42.87,16.29c-.43,0-1.29.43-1.71.43h0Z"/>
      <path class="cls-1" d="m234.7,190.21c-2.14,0-4.29-1.29-5.14-3.43-.86-2.58.43-6,3-6.86l42.87-16.29c2.57-.86,6,.43,6.86,3s-.43,6-3,6.86l-42.87,16.29c-.43.43-1.29.43-1.71.43h0Z"/>
      <path class="cls-1" d="m240,139.89c-.78,2.13-2.85,3.79-5.29,3.84-2.87-.1-5.8-2.63-5.71-5.49l-.39-45.76c.09-2.66,2.44-5.38,5.1-5.29,2.66.09,5.38,2.45,5.29,5.11v45.76l1,1.91v-.07Z"/>
      <path class="cls-1" d="m43,229.89c-.78,2.13-2.85,3.79-5.29,3.84-2.87-.1-5.8-2.63-5.71-5.49l-.39-45.76c.09-2.66,2.44-5.38,5.1-5.29s5.38,2.45,5.29,5.11v45.76l1,1.91v-.07Z"/>
      <path class="cls-1" d="m34.4,156.21c-2.27,0-4.55-1.36-5.46-3.64-.91-2.73.45-6.36,3.18-7.27l45.46-17.28c2.73-.91,6.37.45,7.28,3.18.91,2.73-.45,6.36-3.18,7.28l-45.47,16.82c-.45.46-1.36.91-1.82.91h.01Z"/>
      <path class="cls-1" d="m34.4,139.21c-2.27,0-4.55-1.36-5.46-3.64-.91-2.73.45-6.36,3.18-7.27l45.46-17.28c2.73-.91,6.37.45,7.28,3.18.91,2.73-.45,6.36-3.18,7.28l-45.47,17.28c-.45.45-1.36.45-1.82.45h.01Z"/>
      <path class="cls-1" d="m34.4,122.21c-2.27,0-4.55-1.36-5.46-3.64-.91-2.73.45-6.36,3.18-7.28l45.46-17.28c2.73-.91,6.37.46,7.28,3.19.91,2.73-.45,6.36-3.18,7.27l-45.47,17.28c-.45,0-1.36.46-1.82.46h.01Z"/>
    </g>
  </g>
</svg>