<?xml version="1.0" encoding="UTF-8"?>
<svg id="Layer_2" data-name="Layer 2" xmlns="http://www.w3.org/2000/svg" viewBox="0 0 1513.74 1513.55">
  <defs>
    <style>
      .cls-1, .cls-2 {
        stroke-width: 0px;
      }

      .cls-2 {
        fill: #ccc;
      }
    </style>
  </defs>
  <g id="_1" data-name="1">
    <g>
      <g>
        <path class="cls-1" d="m1513.74,758.38c0-58.53-6.5-117.08-19.81-174.09-12.77-54.72-31.64-108.02-56.23-158.54-24.06-49.45-53.57-96.24-87.79-139.29-33.98-42.76-72.56-81.86-114.88-116.4-42.43-34.63-88.57-64.66-137.47-89.33-50.17-25.32-103.19-44.97-157.73-58.49-28.36-7.03-57.12-12.4-86.1-16.11-14.49-1.86-29.03-3.3-43.61-4.32-7.29-.52-14.58-.92-21.88-1.23-6.7-.28-13.8-1.11-20.45,0-11.89,1.97-20.66,12.86-20,24.92.65,11.76,9.64,21.26,21.27,22.71,6.87.86,13.94.62,20.85.95,7.35.35,14.7.81,22.04,1.38,14.58,1.14,29.14,2.67,43.63,4.66,56.6,7.78,112.23,22.7,165.24,43.99,51.48,20.67,100.48,47.44,145.69,79.57,44.6,31.69,85.5,68.55,121.73,109.55,36.48,41.29,68.14,86.81,94.09,135.42,26.5,49.66,46.98,102.5,60.91,157.04,14.4,56.43,21.79,114.64,22.05,172.88.26,58.2-6.59,116.43-20.48,172.95-13.3,54.12-32.87,106.77-58.51,156.25-25.15,48.54-56.19,94-91.87,135.41-35.51,41.22-75.61,78.56-119.5,110.72-44.59,32.68-93.09,60.06-144.09,81.4-26.61,11.14-53.91,20.64-81.68,28.45-6.61,1.86-13.32,3.27-19.94,5.09-5.66,1.56-10.8,3.89-14.71,8.41-7.12,8.26-7.9,20.44-1.74,29.46,2.91,4.25,7.15,7.56,12.01,9.28,6.73,2.37,13.44.76,20.11-.94,13.99-3.57,27.87-7.55,41.64-11.92,27.19-8.63,53.89-18.8,79.94-30.46,50.92-22.79,99.28-51.25,143.92-84.71,44.19-33.12,84.66-71.09,120.6-113.01,35.83-41.79,67.27-87.29,93.26-135.83,26.42-49.35,47.33-101.66,62.25-155.62,15.48-55.99,24.45-113.79,26.69-171.83.37-9.45.55-18.9.55-28.36Z"/>
        <path class="cls-1" d="m362.95,163.17c6.31,0,11.74-3.05,16.94-6.3,6.16-3.85,12.35-7.65,18.62-11.33,4.99-2.93,10.02-5.95,13.13-11.02,3.27-5.33,4.34-11.94,2.92-18.03-2.46-10.59-12.27-18.79-23.24-18.76-5.91.02-11.46,2.43-16.51,5.31-5.47,3.12-10.74,6.63-16.1,9.94-5.91,3.66-12.49,7-16.28,13.07-3.36,5.37-4.55,12.02-3.12,18.21,2.5,10.8,12.53,18.91,23.64,18.91Z"/>
        <path class="cls-1" d="m502.02,93.9c6.72,0,12.91-3.13,19.08-5.37,6.76-2.46,13.61-4.69,20.46-6.87,14.06-4.48,28.26-8.51,42.57-12.1,14.27-3.58,28.65-6.59,43.09-9.38,5.93-1.15,11.56-3.07,15.83-7.54,4.03-4.21,6.49-9.85,6.73-15.69.46-11.31-7.25-21.8-18.25-24.58-6.73-1.7-13.79,0-20.41,1.42-7.13,1.53-14.27,3.03-21.38,4.63-28.42,6.41-56.48,14.47-83.97,24.13-7.1,2.49-14.99,4.29-20.56,9.67-4.92,4.75-7.71,11.52-7.39,18.36.58,12.66,11.47,23.3,24.19,23.3Z"/>
        <path class="cls-1" d="m741.88,1465.05c-58.09-1.25-116.03-9.49-172.1-24.76-26.98-7.35-53.52-16.3-79.44-26.81-12.96-5.25-25.76-10.89-38.38-16.91-12.45-5.94-24.44-12.6-36.63-19.01-25.56-13.45-49.95-29.41-73.3-46.36-22.99-16.68-44.87-34.65-65.73-53.92-39.86-36.84-75.51-78.24-106.01-123.14-30.91-45.51-56.49-94.61-76.02-146.04-20.23-53.27-33.87-109.02-40.69-165.59-7.03-58.26-6.82-117.32.53-175.54,7.16-56.7,21-112.53,41.58-165.85,20.01-51.84,46.23-101.24,77.91-146.89,15.6-22.47,32.5-44.04,50.57-64.57,9.31-10.57,18.92-20.86,28.83-30.87,9.01-9.11,21.62-17.75,20.85-32.04-.61-11.38-9.45-20.9-20.68-22.62-13.5-2.06-22.2,8.18-30.84,16.8-19.41,19.35-37.78,39.75-55,61.07-34.52,42.74-64.32,89.24-88.73,138.47-24.96,50.34-44.16,103.48-57.39,158.08C7.53,635.06.46,693.08.02,751.22c-.44,58.42,5.73,116.89,18.65,173.87,12.49,55.04,31.28,108.6,55.76,159.46,23.91,49.68,53.22,96.69,87.36,139.98,33.77,42.81,72.08,82.06,114.14,116.76,42.35,34.93,88.5,65.2,137.42,90.12,50.14,25.54,103.13,45.4,157.69,59.16,27.74,7,55.87,12.43,84.22,16.25,14.42,1.94,28.89,3.47,43.4,4.58,7.32.56,14.65,1.02,21.98,1.37,7.01.33,14.2,1.01,21.21.69,11.61-.54,21.41-8.69,23.38-20.29,1.8-10.61-3.96-21.25-13.65-25.83-5.41-2.56-11.15-2.32-17-2.45-5.55-.12-11.1-.24-16.65-.36-6.39-.14-12.79-.27-19.18-.41-1.42-.03-2.86-.02-4.28-.1,14.13.76,28.36.6,42.51.91,1.72.04,3.44.06,5.16.11-.01,0-.19,0-.25,0-54.18-1.16,6.46.12,0,0Z"/>
      </g>
      <circle class="cls-2" cx="756.87" cy="756.78" r="626.68"/>
      <g>
        <path class="cls-1" d="m911.09,1031.16h-.04c-92.11-.06-197.74-51.46-289.8-141.04-.16-.15-.31-.31-.46-.46-89.57-92.07-140.98-197.69-141.04-289.8,0-33.91,17.37-69.58,48.91-100.45,21.7-21.24,53.74-42.67,76.4-42.67,34.92,0,44.21,16.51,58.27,41.51,3.43,6.09,7.31,12.99,12.33,21.34,2.78,4.61,6.62,10.45,10.68,16.63,25.79,39.3,42.04,66.77,33.17,89.75-6.95,17.89-25.33,32.56-43.11,46.75-6.58,5.25-16.01,12.78-20.19,17.34,3.23,17.94,26.74,55.92,67.72,96.91,40.94,40.94,78.88,64.44,96.86,67.71,4.53-4.18,12.01-13.55,17.23-20.08,14.25-17.85,28.98-36.3,46.92-43.21,4.14-1.6,8.67-2.41,13.47-2.41,20.48,0,44.53,14.75,76.28,35.58,6.18,4.06,12.02,7.89,16.66,10.7,8.32,5.01,15.22,8.89,21.31,12.32,24.99,14.06,41.5,23.35,41.5,58.27,0,22.65-21.44,54.69-42.69,76.39-30.87,31.52-66.52,48.9-100.39,48.93Zm-256.09-175.25c81.9,79.59,177.6,127.13,256.06,127.19,47.44-.06,92.57-61.59,95.05-77.68-.02-3.29-.21-5.01-.35-5.83-2.45-2.13-9.97-6.36-16.67-10.13-6.06-3.41-13.61-7.65-22.56-13.04-5.45-3.29-11.65-7.36-18.22-11.67-12.45-8.17-37.48-24.6-48.14-27.35-6.57,4.6-18.1,19.04-24.6,27.18-16.49,20.65-30.72,38.49-50.8,38.55-48.91-.05-115.56-62.91-134.83-82.18-19.27-19.27-82.13-85.92-82.18-134.72,0-20.21,17.91-34.5,38.65-51.06,8.1-6.47,22.45-17.92,27.08-24.47-2.77-10.67-19.17-35.67-27.34-48.11-4.32-6.57-8.39-12.78-11.66-18.19-5.41-8.98-9.65-16.53-13.06-22.59-3.77-6.69-8-14.22-10.13-16.67-.82-.14-2.55-.33-5.84-.35-16.1,2.47-77.68,47.59-77.68,95.04.05,78.45,47.6,174.17,127.19,256.07Z"/>
        <path class="cls-1" d="m293.03,1250.66c-6.06,0-12.03-2.29-16.59-6.65-6.94-6.62-9.27-16.73-5.95-25.72l79.25-214.22c-58.04-90.84-85.22-198.88-76.65-305.64,9.03-112.53,57.59-218.08,136.73-297.23,89.19-89.19,208.6-138.31,336.25-138.31s257.2,52.13,351.86,146.8c92.95,92.95,145.07,215.66,146.76,345.51,1.69,130.09-47.41,251.76-138.26,342.61-89.18,89.17-208.59,138.29-336.22,138.29h0c-92.51,0-182.61-25.86-261.4-74.9l-206.4,87.54c-3.03,1.28-6.21,1.91-9.38,1.91Zm218.06-140.55c4.63,0,9.24,1.34,13.22,3.96,73.47,48.4,158.5,73.98,245.9,73.98,114.8,0,222.14-44.11,302.24-124.22,81.61-81.6,125.71-190.99,124.19-308-1.52-117.25-48.65-228.11-132.69-312.15-85.59-85.59-198.48-132.73-317.88-132.73s-222.16,44.12-302.27,124.23c-145.39,145.39-165.32,377.71-47.4,552.4,4.33,6.42,5.3,14.52,2.62,21.78l-64.16,173.41,166.84-70.76c3.01-1.28,6.2-1.91,9.38-1.91Z"/>
      </g>
    </g>
  </g>
</svg>