<?xml version="1.0" encoding="UTF-8"?>
<svg id="Layer_2" data-name="Layer 2" xmlns="http://www.w3.org/2000/svg" viewBox="0 0 303.72 245.72">
  <defs>
    <style>
      .cls-1 {
        fill: #998675;
      }

      .cls-1, .cls-2 {
        stroke-width: 0px;
      }

      .cls-2 {
        fill: #fff;
      }
    </style>
  </defs>
  <g id="Layer_1-2" data-name="Layer 1">
    <path class="cls-1" d="m302.27,245.72c1.93,0,1.93-3,0-3s-1.93,3,0,3h0Z"/>
    <rect class="cls-2" x="193.5" y="8.79" width="81.11" height="22.48"/>
    <path class="cls-2" d="m124.88,85.8c6.28-3.16,11.03-6.7,14.28-10.5,5.78-6.84,8.65-15.96,8.65-27.21s-2.86-20.4-8.57-28.25C129.7,7.08,113.56.98,90.75,0H0v184.7h84.64c9.5,0,18.29-.79,26.43-2.46,8.14-1.68,15.17-4.74,21.13-9.24,5.3-3.91,9.72-8.77,13.25-14.5,5.56-8.65,8.34-18.47,8.34-29.4s-2.44-19.61-7.28-27.02c-4.9-7.41-12.09-12.85-21.62-16.29ZM38.11,32.25h40.25c8.95,0,16.33,1.07,22.12,2.98,6.7,2.78,10.05,8.53,10.05,17.16,0,7.73-2.55,13.19-7.61,16.23-5.09,3.04-11.69,4.68-19.79,4.68h-45.01v-41.04Zm63.91,117.6c-4.5,2.18-10.84,3.59-18.96,3.59h-44.96v-50.82h45.58c8.02.98,14.26,1.61,18.73,3.59,7.94,3.59,11.9,10.58,11.9,20.2,0,11.34-4.09,19.39-12.29,23.44Z"/>
    <path class="cls-2" d="m301.77,99.28c-1.67-10.68-5.34-19.8-11.05-27.91-6.26-9.19-14.21-15.92-23.88-20.17-9.63-4.28-20.46-6.41-32.54-6.4-20.26,0-36.71,6.33-49.45,18.9-12.69,12.61-19.05,30.73-19.05,54.35,0,25.2,7.02,43.39,21.13,54.56,14.05,11.19,30.29,16.73,48.71,16.73,22.3,0,39.65-6.7,52.04-19.93,7.93-8.36,12.41-15.99,13.39-24.78h-36.92c-2.14,3.91-4.62,7.17-7.45,9.44-5.14,4.16-11.84,6.3-20.05,6.3s-14.43-1.86-19.96-5.28c-9.11-5.48-13.88-15.34-14.49-29.02h100.77c.15-11.73-.23-20.55-1.21-26.79Zm-98.65,3.34c1.32-8.79,4.54-15.72,9.65-20.92,5.11-5.18,12.33-7.61,21.58-7.63,8.54,0,15.67,2.32,21.48,7.22,5.73,4.93,8.96,12.53,9.63,21.33h-62.33Z"/>
  </g>
</svg>