<?xml version="1.0" encoding="UTF-8"?>
<svg id="Layer_2" data-name="Layer 2" xmlns="http://www.w3.org/2000/svg" viewBox="0 0 332.68 195.99">
  <defs>
    <style>
      .cls-1, .cls-2 {
        stroke-width: 0px;
      }

      .cls-2 {
        fill: #bab995;
      }
    </style>
  </defs>
  <g id="Layer_1-2" data-name="Layer 1">
    <g id="Layer_1-2" data-name="Layer 1-2">
      <g>
        <circle class="cls-1" cx="113.7" cy="170.66" r="14.14"/>
        <path class="cls-1" d="m230.27,99.93c9.69,0,17.54,7.85,17.54,17.54s-7.85,17.54-17.54,17.54-17.54-7.85-17.54-17.54,7.85-17.54,17.54-17.54h0Z"/>
        <path class="cls-2" d="m300.99,156.51c7.81,0,14.14,6.33,14.14,14.14s-6.33,14.14-14.14,14.14-14.14-6.33-14.14-14.14,6.33-14.14,14.14-14.14Z"/>
        <path class="cls-2" d="m311.74,7.71c7.81,0,14.15,6.33,14.15,14.14s-6.33,14.15-14.15,14.15-14.14-6.33-14.14-14.15,6.33-14.14,14.14-14.14Z"/>
        <path class="cls-2" d="m21.5,7.71c7.81,0,14.14,6.33,14.14,14.14s-6.33,14.15-14.14,14.15-14.14-6.33-14.14-14.15,6.33-14.14,14.14-14.14Z"/>
        <path class="cls-2" d="m179.86,22.42c-.56,7.29-6.72,13.45-14,13.45s-13.45-5.6-14-13.45v-.05c0-8.38,7.13-15.27,15.47-14.44,7.13.71,12.53,6.58,12.53,13.93,0,0,0,.56,0,.56Z"/>
        <path class="cls-2" d="m32.25,156.51c7.81,0,14.14,6.33,14.14,14.14s-6.33,14.14-14.14,14.14-14.14-6.33-14.14-14.14,6.33-14.14,14.14-14.14Z"/>
        <polygon class="cls-2" points="178.1 79.27 165.57 85.28 153.25 78.86 166.03 57.2 178.1 79.27"/>
        <polygon class="cls-2" points="164.53 165.99 151.86 165.79 153.3 78.81 165.86 85.23 164.53 165.99"/>
        <polygon class="cls-2" points="176.43 165.99 163.86 165.79 165.19 85.03 177.86 79.02 176.43 165.99"/>
        <polygon class="cls-2" points="176.71 174.99 151.86 174.6 151.86 164.99 164.26 165.99 176.86 166.18 176.71 174.99"/>
        <path class="cls-2" d="m168.62,193.99l-8.69-.14c-4.47-.07-8.13-3.88-8.06-8.37l.17-10.49,24.83.4-.17,10.49c-.07,4.49-3.61,8.18-8.07,8.11h0Z"/>
        <path class="cls-1" d="m300.99,163.29c-3.96,0-7.35-3.39-7.35-7.35,0-65.63-49.22-119.94-113.72-126.73-3.96-.57-6.79-3.96-6.22-7.92.56-3.96,3.96-6.79,7.92-6.23,34.51,3.4,66.76,19.8,89.96,45.83,23.76,26.03,36.77,59.97,36.77,95.05-.57,3.96-3.39,7.35-7.36,7.35Z"/>
        <path class="cls-1" d="m32.35,162.99c-4.05,0-7.35-3.32-7.35-7.37,0-35.02,13-68.89,36.72-94.87,23.16-25.99,55.35-41.8,89.82-45.76h.56c2.56,0,4.56,2.09,4.41,4.64-.3,5.31.84,9.49-3.28,9.49-64.96,6.78-113.54,61.01-113.54,126.53-.57,3.95-3.38,7.34-7.35,7.34h0Z"/>
        <path class="cls-1" d="m166.79,42.99c-11.32,0-20.37-9.05-20.93-20.36v-.65c0-11.21,8.39-20.92,19.56-21.9,12.75-1.11,23.44,8.9,23.44,21.42v1.13c-1.13,11.31-10.75,20.36-22.06,20.36h-.01Zm-.58-27.93c-3.96,0-7.35,3.4-7.35,7.36v.57c0,3.96,3.39,6.79,6.79,6.79,3.96,0,7.29-5.91,7.29-6.48,1.13-4.53-2.76-8.23-6.72-8.23h0Z"/>
        <path class="cls-1" d="m311.74,43.35c-11.88,0-21.5-9.61-21.5-21.5S299.86.35,311.74.35s20.94,9.62,20.94,21.5-9.62,21.5-20.94,21.5Zm0-28.29c-3.96,0-7.35,3.4-7.35,7.36s3.4,7.36,7.35,7.36,7.36-3.4,7.36-7.36c-.57-4.53-3.96-7.36-7.36-7.36Z"/>
        <path class="cls-1" d="m300.99,191.58c-11.88,0-21.5-9.62-21.5-21.5s9.62-21.5,21.5-21.5,21.5,9.62,21.5,21.5-10.18,21.5-21.5,21.5Zm0-28.29c-3.96,0-7.35,3.4-7.35,7.36s3.39,7.36,7.35,7.36,7.36-3.4,7.36-7.36-3.39-7.36-7.36-7.36Z"/>
        <path class="cls-1" d="m32.25,191.58c-11.88,0-21.5-9.62-21.5-21.5s9.62-21.5,21.5-21.5,21.5,9.62,21.5,21.5-10.18,21.5-21.5,21.5Zm0-28.29c-3.96,0-7.35,3.4-7.35,7.36s3.39,7.36,7.35,7.36,7.36-3.4,7.36-7.36-3.39-7.36-7.36-7.36Z"/>
        <path class="cls-1" d="m21.5,43.35C9.62,43.35,0,33.73,0,21.85S9.62.35,21.5.35s21.5,9.62,21.5,21.5-9.62,21.5-21.5,21.5Zm0-28.29c-3.96,0-7.35,3.4-7.35,7.36s3.39,7.36,7.35,7.36,7.36-3.4,7.36-7.36c0-4.53-3.39-7.36-7.36-7.36Z"/>
        <path class="cls-1" d="m180.86,30.11V13.99l116.17,1h-.77c3.92,0,6.72,3.36,6.72,6.72,0,3.92-3.36,7.28-6.72,7.28,0,0-115.4,1.12-115.4,1.12Z"/>
        <path class="cls-1" d="m35.6,29.99c-3.92,0-6.72-3.36-6.72-6.72,0-3.92,3.35-7.28,6.72-7.28l116.59-1h-.05c4.3,0,5.63,3.93,5.43,8.3-.17,3.77-3.36,6.7-7.13,6.7,0,0-114.84,0-114.84,0Z"/>
        <path class="cls-1" d="m148.86,184.48l1.74-106.85c0-.5.26-.99.52-1.48l12.76-21.67c.51-.99,1.51-1.47,2.76-1.45s2.23.53,2.71,1.54l12.05,22.07c.24.5.48,1,.47,1.5l-1.74,106.85c-.1,6.21-5.14,11.1-11.35,11l-8.93-.15c-6.21.15-11.08-5.15-10.98-11.36h0Zm7-105.4l-1.75,105.86c-.04,2.73,2.2,5.01,4.99,5.05l8.62.14c2.78.04,5.11-2.16,5.15-4.89l1.75-105.86-9.11-16.55-9.65,16.25h0Z"/>
        <path class="cls-1" d="m148.38,175.23c.03-1.78,1.57-3.28,3.35-3.24l25.36.41c1.78.03,3.28,1.57,3.24,3.35s-1.57,3.28-3.35,3.24l-25.36-.41c-1.78-.03-3.27-1.57-3.24-3.35Z"/>
        <path class="cls-1" d="m148.53,166.23c.03-1.78,1.57-3.28,3.35-3.24l25.36.41c1.78.03,3.28,1.57,3.24,3.35s-1.57,3.28-3.35,3.24l-25.36-.41c-1.77-.29-3.27-1.83-3.24-3.35Z"/>
        <path class="cls-1" d="m150.27,78.57c0-.5.02-.99.27-1.49.77-1.48,2.77-2.19,4.25-1.42l10.84,5.64,11.02-5.29c1.5-.72,3.48-.19,4.2,1.56.72,1.5.19,3.48-1.56,4.2l-12.53,6.01c-1,.48-2,.46-2.73-.04l-12.32-6.42c-.74-.51-1.47-1.52-1.45-2.76h0Z"/>
        <path class="cls-1" d="m160.86,167.13l1.36-83.04c.03-1.79,1.58-3.3,3.37-3.27s3.3,1.58,3.27,3.37l-1.36,83.04c-.03,1.79-1.58,3.3-3.37,3.27-1.78-.29-3.29-1.84-3.27-3.37h0Z"/>
      </g>
    </g>
  </g>
</svg>