<?xml version="1.0" encoding="UTF-8"?>
<svg id="Layer_2" data-name="Layer 2" xmlns="http://www.w3.org/2000/svg" viewBox="0 0 3788.49 2752.87">
  <defs>
    <style>
      .cls-1 {
        fill: #fff;
        stroke-width: 0px;
      }
    </style>
  </defs>
  <g id="Layer_1-2" data-name="Layer 1">
    <g>
      <path class="cls-1" d="m225.59,1775.14c65.13,51.52,135.32,88.53,210.48,111.01,75.17,22.48,145.93,33.77,212.23,33.77h832.98v-461.79h-829.41c-62.72,0-110.09-16.01-142.04-47.95-32.02-31.94-47.95-78.15-47.95-138.55V0H0v1271.62c0,119.64,21.33,220.6,64.05,302.83,42.56,82.3,96.49,149.17,161.54,200.69Z"/>
      <path class="cls-1" d="m3758.36,1266.25c-20.17-62.74-46.87-118.06-79.95-166.03-33.13-47.96-71.61-88.77-115.52-122.52-43.81-33.81-89.65-61.24-137.56-82.55-47.91-21.36-96.24-37.02-144.77-47.13-48.53-10.06-94.73-15.14-138.55-15.14h-832.98v461.84h832.98c54.44,0,98.88,16.33,133.26,48.84,34.33,32.61,51.54,77.83,51.54,135.9v625.16c0,55.64-16.39,100.64-48.89,134.97-32.61,34.32-77.88,51.54-135.9,51.54h-832.98c-53.15,0-97.64-16.96-133.15-50.61-18.91-18.01-32.62-39.39-41.43-63.93v-.84h-.32c-3.27-9.26-5.9-18.93-7.77-29.09-.46,9.83-1.13,19.5-1.91,29.09h-.32c.92-10.84,1.72-21.77,2.23-32.93-2.38-13.38-3.73-27.48-3.73-42.41V0h-456.65v2100.43c0,16.59-1.4,31.89-3.63,46.3.5,9.82,1.21,19.47,2.03,29.04h-.28c-.68-8.33-1.27-16.73-1.7-25.25-6.17,38.32-20.17,69.38-42.57,92.61-30.8,31.99-77,47.96-138.54,47.96h-832.99L.06,2521.98l648.24,230.89h832.99c43.76,0,90.01-5.08,138.54-15.09,48.53-10.06,96.81-25.72,144.77-47.08,45.37-20.22,88.82-46.2,130.56-77.47q.05,0,.05.05c0-.05.05-.05.05-.05,41.64,31.32,85.09,57.3,130.56,77.47,47.91,21.31,96.13,36.97,144.77,47.03,48.43,10.06,94.63,15.09,138.44,15.09h832.98c79.33,0,150.42-10.01,213.16-30.13,62.69-20.12,118.06-47.13,166.03-80.78,48.01-33.75,88.82-72.59,122.57-116.4,33.7-43.81,61.24-89.7,82.6-137.56,21.31-48.07,36.92-96.24,47.08-144.77,10.06-48.64,15.04-94.73,15.04-138.55v-625.16c0-79.38-10.06-150.42-30.13-213.21Z"/>
    </g>
  </g>
</svg>