<?xml version="1.0" encoding="UTF-8"?>
<svg id="Layer_2" data-name="Layer 2" xmlns="http://www.w3.org/2000/svg" viewBox="0 0 1311.79 1081.1">
  <defs>
    <style>
      .cls-1 {
        font-family: MyriadPro-Regular, 'Myriad Pro';
        font-size: 12px;
      }

      .cls-2, .cls-3 {
        fill: #fff;
        stroke-width: 0px;
      }

      .cls-3 {
        opacity: .25;
      }
    </style>
  </defs>
  <g id="Layer_1-2" data-name="Layer 1">
    <path class="cls-3" d="m1300.2,712.27c-10.21-1.94-20.54,6.18-27.84,12.67-8.73,7.76-18.23,17.56-31.04,15.98-11.1-1.37-16.82-11.16-20.76-20.6-4.08-9.76-6.02-20.44-10.75-29.92-6.89-13.82-22.98-20.99-36.59-11.57-12.81,8.88-13.03,26.01-23.34,36.59-3.11,3.2-7.51,6.02-12.12,4.34-8.19-2.99-7.39-14.86-7.12-21.67.55-14.17.51-35.08-18.17-37.39s-26.82,18.07-33.73,30.81c-6.95,12.8-19.41,28.81-34.73,16.61-13.07-10.41-11.6-29.29-15.43-43.94-3.55-13.59-12.06-23.9-24.91-29.6-12.28-5.45-27.59-3.06-39.11-9.81-14.87-8.71-5.36-24.45,3.79-33.23,13.1-12.56,25.29-24.37,35.6-39.53,22.86-33.6,41.53-70.16,59.41-106.58,18.62-37.93,36.68-76.16,52.49-115.36,15.4-38.19,30.54-77.74,36.08-118.76,9.19-68.05-17.84-138.1-74.36-178.51-64.64-46.21-147.14-35.79-219.2-15.9-80.44,22.2-159.06,51.67-236.58,82.38-159.45,63.16-315.7,136.21-464.26,222.09-33.49,19.36-67.23,38.87-96.9,63.89-46.66,39.35-106.84,147.19-4.82,162.73,39.87,6.07,81.57-6.21,121.3-9.48,42.58-3.51,85.5-2.77,127.83-9.12,18.73-2.81,41.16-11.11,59.96-5.52,8.18,2.43,12.61,8.16,11.64,16.76-1.88,16.65-18.19,26.58-29.88,36.37-31.16,26.1-59.49,57.39-87.17,87.12-23.73,25.48-52.18,56.04-58.55,91.69-6.35,35.52,19.81,59.47,52.19,67.07,35.37,8.3,74.61,5.27,110.53,3.09,42.07-2.55,83.93-8.16,125.36-15.83,41.18-7.62,81.63-18.14,122.48-27.25,20-4.46,40.46-7.24,60.19-12.81,12.64-3.57,32.11-8.44,38.19-21.63,5.12-11.11-1.09-21-12.63-23.01-14.55-2.53-29.89,3.54-42.91,9.18-37.45,16.21-74.79,29.19-114.89,37.35-41.64,8.47-83.88,12.53-126.19,15.83-39.1,3.06-78.36,6.08-117.58,6.96-18.3.41-44.04,1.28-58.63-11.97-22.4-20.34,8.03-55.56,21.33-71.21,25.73-30.27,55.45-56.59,84.33-83.75,25.49-23.97,58.23-51.46,68.75-86.16,10.66-35.13-25.94-47.93-54.15-49.28-35.92-1.72-72.68,5.02-108.4,7.84-44.85,3.54-89.88,3.28-134.71,6.76-29.95,2.32-63.03,9.16-92.92,2.31-8.87-2.03-19.02-6.28-20.56-16.43-2.29-15.11,12.95-28.64,22.92-37.42,29.15-25.65,59.87-49.77,91.17-72.73,67.67-49.65,140.9-90.19,216.66-126.05,78.05-36.94,157.76-70.38,237.37-103.76,77-32.28,153.6-67.28,233.06-93.17,65.7-21.4,141.33-40.78,210.42-24.6,30.75,7.2,59.12,22.76,79.02,47.65,20.3,25.39,29.33,57.54,31.08,89.6,3.92,71.74-23.1,143.3-54.97,206.22-37.24,73.53-86.08,140.08-126.96,211.48-17.81,31.11-40.01,56.43-78.63,54.02-18.48-1.15-36.47-6.76-55.05-6.73s-36.21,5.84-51.52,15.84c-24.7,16.14-51.82,48.16-42.37,79.93,6.55,22.03,33.75,30.04,40.45,51.73,9.42,30.5-35.83,52.57-55.26,65.71-32.18,21.77-61.46,47.77-90.62,73.35-29.5,25.87-59,51.9-91.11,74.54-15.57,10.98-31.69,21.23-48.33,30.51-8.76,4.89-17.68,9.52-26.92,13.44-8.43,3.57-17.46,6.23-25.22,11.2-10.62,6.8-21.79,23.42-3.09,26.82,17.77,3.23,37.28-5.32,52.97-12.78,35.52-16.88,65.71-42.21,96.51-66.22,33.92-26.44,68.53-52,101.18-80.03,30.37-26.07,56.91-56.3,87.75-81.82,14.51-12,30.13-22.59,47.3-30.44,19.27-8.81,40.46-12.5,59.59-21.63,14.35-6.85,26.48-18.53,41.93-23.08,17.75-5.22,31.99,3.64,48.05,9.6,17.51,6.5,33.19,3.19,49.47-4.95,18.02-9.01,36.21-15.3,55.06-22.25,8.29-3.06,16.78-6.32,23.36-12.42,6.63-6.14,9.98-14.9,16.59-21.03,15.5-14.39,21.56,4.93,20.43,18.5-1.09,13.07-4.68,32.78,11.05,39.06,16.68,6.66,27.73-14.36,32.89-26.41,5.25-12.27,12.41-29.61,29.06-26.41,17.01,3.27,20.65,23.27,28.3,35.72,19.81,32.23,64.67,12.21,85.85-8.66,7.03-6.93,18.3-22.22,6.57-30.15-2.14-1.45-4.32-2.32-6.5-2.74Zm-910.79-180.5s-.07-.05-.19-.23c1.66-.34.08,1.62.19.23Zm-3.52-6.59c-.12-.26-.18-.42-.15-.41-1.42-.48,2.76-1.88.15.41Zm393.6,235.73c-2.27-.66-4.5-1.55-6.62-2.44-5.63-2.37-11.09-5.15-16.31-8.32-4.79-2.91-9.46-6.36-12.21-11.37-8.35-15.23,3.48-32.06,12.89-43.58,6.49-7.95,14.08-15.06,22.8-20.5,4.46-2.78,9.21-5.14,14.28-6.55,5.35-1.49,10.93-1.95,16.46-2.14,11.03-.38,22.25.51,32.76,4.07,4.47,1.51,8.97,3.58,12.11,7.23,2.93,3.41,4.98,8.53,2.63,12.79-1.12,2.04-3.06,3.48-4.68,5.09-2.05,2.05-3.85,4.32-5.73,6.52-3.63,4.24-7.44,8.32-11.2,12.45-7.83,8.59-15.58,17.27-23.38,25.89-3.95,4.36-7.92,8.7-11.89,13.04-3.1,3.39-6.4,7.05-10.99,8.32-3.64,1.01-7.35.54-10.93-.5Zm105.47-40.96c-.67,3.9-1.72,7.71-3.14,11.4-1.82,3.95-4.03,7.69-6.58,11.21-3.28,4.01-6.96,7.66-10.97,10.93-4.87,3.58-10.11,6.63-15.61,9.11-5.89,2.32-11.99,3.98-18.23,4.98-.97.11-1.93.21-2.9.29,19.46-20.35,38.41-41.19,56.79-62.52.24,1.04.45,2.09.63,3.15.37,3.81.38,7.64,0,11.45Zm117.54,10.17c-3.01,3.7-6.39,7.07-10.09,10.08-3.59,2.57-7.41,4.8-11.42,6.64-3.96,1.52-8.05,2.65-12.24,3.37-3.89.38-7.79.39-11.68.02-3.74-.64-7.4-1.64-10.96-2.97-3.85-1.75-7.52-3.87-10.96-6.34-2.67-2.23-5.12-4.7-7.35-7.37-2.48-3.45-4.59-7.13-6.34-10.99-1.67-4.41-2.89-8.98-3.66-13.64-.53-5.08-.54-10.19-.01-15.27.73-4.35,1.86-8.62,3.42-12.74,1.66-3.64,3.67-7.1,6.01-10.35.12-.15.25-.29.38-.43,2.11-.22,4.11-.87,5.99-1.96,1.01-.78,2.02-1.56,3.04-2.35,1.39-1.4,2.46-2.99,3.21-4.77,1.97.04,3.82-.38,5.54-1.29,1.86-.6,3.47-1.64,4.83-3.1.84-.78,1.52-1.66,2.08-2.6,1.04-.67,2.11-1.3,3.22-1.85,1.5-.53,3.03-.95,4.59-1.27.56-.04,1.11-.06,1.67-.07.25,11.04,3.92,22.03,8.66,31.92,3.17,6.6,7.12,12.81,11.55,18.63,5.27,6.93,10.88,13.51,17.32,19.38,1.94,1.76,3.93,3.48,5.97,5.14-.87,1.42-1.78,2.81-2.75,4.17Z"/>
    <g>
      <g>
        <path class="cls-2" d="m466.6,397.42v42.07h-8.44v-17.9h-18.02v17.9h-8.44v-42.07h8.44v17.3h18.02v-17.3h8.44Z"/>
        <path class="cls-2" d="m505.72,425.33h-24.41c.2,2.41,1.04,4.3,2.53,5.67,1.49,1.37,3.32,2.05,5.49,2.05,3.13,0,5.36-1.35,6.69-4.04h9.1c-.96,3.22-2.81,5.86-5.55,7.93-2.73,2.07-6.09,3.1-10.07,3.1-3.22,0-6.1-.71-8.65-2.14s-4.54-3.45-5.97-6.06c-1.43-2.61-2.14-5.63-2.14-9.04s.7-6.49,2.11-9.1c1.41-2.61,3.38-4.62,5.91-6.03,2.53-1.41,5.44-2.11,8.74-2.11s6.02.68,8.53,2.05c2.51,1.37,4.46,3.31,5.85,5.82,1.39,2.51,2.08,5.39,2.08,8.65,0,1.21-.08,2.29-.24,3.26Zm-8.5-5.67c-.04-2.17-.82-3.91-2.35-5.21-1.53-1.31-3.4-1.96-5.61-1.96-2.09,0-3.85.63-5.27,1.9s-2.3,3.02-2.62,5.27h15.85Z"/>
        <path class="cls-2" d="m520.55,394.89v44.6h-8.44v-44.6h8.44Z"/>
        <path class="cls-2" d="m537.3,394.89v44.6h-8.44v-44.6h8.44Z"/>
        <path class="cls-2" d="m551.77,437.9c-2.57-1.43-4.59-3.45-6.06-6.06-1.47-2.61-2.2-5.63-2.2-9.04s.75-6.43,2.26-9.04c1.51-2.61,3.57-4.63,6.18-6.06,2.61-1.43,5.52-2.14,8.74-2.14s6.13.71,8.74,2.14c2.61,1.43,4.67,3.45,6.18,6.06,1.51,2.61,2.26,5.63,2.26,9.04s-.77,6.43-2.32,9.04c-1.55,2.61-3.64,4.63-6.27,6.06-2.63,1.43-5.58,2.14-8.83,2.14s-6.11-.71-8.68-2.14Zm12.99-6.33c1.35-.74,2.42-1.86,3.22-3.35.8-1.49,1.2-3.29,1.2-5.43,0-3.17-.83-5.61-2.5-7.32-1.67-1.71-3.71-2.56-6.12-2.56s-4.43.85-6.06,2.56c-1.63,1.71-2.44,4.15-2.44,7.32s.79,5.62,2.38,7.32c1.59,1.71,3.59,2.56,6,2.56,1.53,0,2.96-.37,4.31-1.11Z"/>
        <path class="cls-2" d="m586.88,438.5c-.98-.94-1.48-2.12-1.48-3.53s.49-2.58,1.48-3.53c.98-.94,2.24-1.42,3.77-1.42s2.71.47,3.68,1.42c.96.94,1.45,2.12,1.45,3.53s-.48,2.58-1.45,3.53c-.96.94-2.19,1.42-3.68,1.42s-2.78-.47-3.77-1.42Zm8.11-41.8l-.96,29.11h-7.11l-1.02-29.11h9.1Z"/>
        <path class="cls-2" d="m628.2,397.42v42.07h-8.44v-42.07h8.44Z"/>
        <path class="cls-2" d="m638.2,397.42h8.86l-6.51,15.19h-5.79l3.44-15.19Z"/>
        <path class="cls-2" d="m704.48,409.38c2.51,2.51,3.77,6.02,3.77,10.52v19.59h-8.44v-18.44c0-2.61-.66-4.61-1.99-6s-3.13-2.08-5.43-2.08-4.11.69-5.45,2.08c-1.35,1.39-2.02,3.39-2.02,6v18.44h-8.44v-18.44c0-2.61-.66-4.61-1.99-6-1.33-1.39-3.13-2.08-5.43-2.08s-4.17.69-5.52,2.08c-1.35,1.39-2.02,3.39-2.02,6v18.44h-8.44v-33.39h8.44v4.04c1.09-1.41,2.48-2.51,4.19-3.32s3.59-1.21,5.64-1.21c2.61,0,4.94.55,6.99,1.66,2.05,1.11,3.64,2.68,4.76,4.73,1.09-1.93,2.66-3.47,4.73-4.64,2.07-1.16,4.31-1.75,6.72-1.75,4.1,0,7.4,1.26,9.92,3.77Z"/>
        <path class="cls-2" d="m764.06,397.42l-14.23,27.43v14.65h-8.44v-14.65l-14.29-27.43h9.52l9.04,19.23,8.98-19.23h9.4Z"/>
        <path class="cls-2" d="m775.09,437.9c-2.57-1.43-4.59-3.45-6.06-6.06-1.47-2.61-2.2-5.63-2.2-9.04s.75-6.43,2.26-9.04c1.51-2.61,3.57-4.63,6.18-6.06,2.61-1.43,5.52-2.14,8.74-2.14s6.13.71,8.74,2.14c2.61,1.43,4.67,3.45,6.18,6.06,1.51,2.61,2.26,5.63,2.26,9.04s-.77,6.43-2.32,9.04c-1.55,2.61-3.64,4.63-6.27,6.06-2.63,1.43-5.58,2.14-8.83,2.14s-6.11-.71-8.68-2.14Zm12.99-6.33c1.35-.74,2.42-1.86,3.22-3.35.8-1.49,1.2-3.29,1.2-5.43,0-3.17-.83-5.61-2.5-7.32-1.67-1.71-3.71-2.56-6.12-2.56s-4.43.85-6.06,2.56c-1.63,1.71-2.44,4.15-2.44,7.32s.79,5.62,2.38,7.32c1.59,1.71,3.59,2.56,6,2.56,1.53,0,2.96-.37,4.31-1.11Z"/>
        <path class="cls-2" d="m807.25,413.69c1.35-2.61,3.17-4.62,5.49-6.03,2.31-1.41,4.89-2.11,7.75-2.11,2.49,0,4.67.5,6.54,1.51,1.87,1.01,3.37,2.27,4.49,3.8v-4.76h8.5v33.39h-8.5v-4.88c-1.09,1.57-2.58,2.86-4.49,3.89-1.91,1.03-4.11,1.54-6.6,1.54-2.81,0-5.37-.72-7.68-2.17-2.31-1.45-4.14-3.49-5.49-6.12-1.35-2.63-2.02-5.66-2.02-9.07s.67-6.37,2.02-8.98Zm23.06,3.83c-.8-1.47-1.89-2.59-3.26-3.38-1.37-.78-2.83-1.18-4.4-1.18s-3.01.38-4.34,1.15-2.4,1.88-3.22,3.35c-.82,1.47-1.24,3.21-1.24,5.21s.41,3.77,1.24,5.27c.82,1.51,1.91,2.66,3.26,3.47,1.35.8,2.78,1.21,4.31,1.21s3.03-.39,4.4-1.18c1.37-.78,2.45-1.91,3.26-3.38.8-1.47,1.2-3.22,1.2-5.27s-.4-3.81-1.2-5.27Z"/>
        <path class="cls-2" d="m876.41,409.38c2.45,2.51,3.68,6.02,3.68,10.52v19.59h-8.44v-18.44c0-2.65-.66-4.69-1.99-6.12-1.33-1.43-3.13-2.14-5.43-2.14s-4.17.71-5.52,2.14c-1.35,1.43-2.02,3.47-2.02,6.12v18.44h-8.44v-33.39h8.44v4.16c1.12-1.45,2.56-2.58,4.31-3.41,1.75-.82,3.67-1.24,5.76-1.24,3.98,0,7.19,1.26,9.64,3.77Z"/>
      </g>
      <g>
        <path class="cls-2" d="m489.99,497.43c-1.79-3.29-4.26-5.79-7.4-7.51-3.14-1.72-6.8-2.58-10.99-2.58-4.63,0-8.74,1.05-12.33,3.14-3.59,2.09-6.39,5.08-8.41,8.97-2.02,3.89-3.03,8.37-3.03,13.45s1.03,9.79,3.08,13.68c2.05,3.89,4.91,6.88,8.58,8.97,3.66,2.09,7.92,3.14,12.78,3.14,5.98,0,10.87-1.59,14.68-4.76,3.81-3.17,6.31-7.6,7.51-13.28h-26.9v-11.99h42.37v13.68c-1.05,5.46-3.29,10.5-6.73,15.13-3.44,4.64-7.87,8.35-13.28,11.16-5.42,2.8-11.49,4.2-18.22,4.2-7.55,0-14.37-1.7-20.46-5.1-6.09-3.4-10.87-8.13-14.35-14.18-3.47-6.05-5.21-12.93-5.21-20.63s1.74-14.59,5.21-20.68c3.48-6.09,8.26-10.83,14.35-14.24,6.09-3.4,12.87-5.1,20.35-5.1,8.82,0,16.48,2.15,22.98,6.45,6.5,4.3,10.99,10.33,13.45,18.1h-18.05Z"/>
        <path class="cls-2" d="m545.2,491.94c3.25-1.87,6.97-2.8,11.16-2.8v16.48h-4.15c-4.93,0-8.65,1.16-11.15,3.48-2.51,2.32-3.75,6.35-3.75,12.11v30.94h-15.69v-62.1h15.69v9.64c2.02-3.29,4.65-5.87,7.9-7.73Z"/>
        <path class="cls-2" d="m566.61,504.16c2.5-4.86,5.9-8.59,10.2-11.21,4.3-2.62,9.1-3.92,14.4-3.92,4.63,0,8.69.94,12.16,2.8,3.48,1.87,6.26,4.22,8.35,7.06v-8.86h15.81v62.1h-15.81v-9.08c-2.02,2.92-4.8,5.33-8.35,7.23-3.55,1.91-7.64,2.86-12.28,2.86-5.23,0-9.99-1.34-14.29-4.04-4.3-2.69-7.7-6.48-10.2-11.38-2.51-4.89-3.75-10.52-3.75-16.87s1.25-11.84,3.75-16.7Zm42.88,7.12c-1.5-2.73-3.51-4.82-6.05-6.28-2.54-1.46-5.27-2.19-8.18-2.19s-5.6.71-8.07,2.13-4.47,3.49-6,6.22c-1.53,2.73-2.3,5.96-2.3,9.7s.77,7.01,2.3,9.81c1.53,2.8,3.55,4.95,6.05,6.45,2.5,1.5,5.17,2.24,8.02,2.24s5.64-.73,8.18-2.19c2.54-1.46,4.56-3.55,6.05-6.28,1.49-2.73,2.24-6,2.24-9.81s-.75-7.08-2.24-9.81Z"/>
        <path class="cls-2" d="m666.93,491.88c3.55-1.9,7.6-2.86,12.16-2.86,5.31,0,10.11,1.31,14.41,3.92,4.29,2.62,7.7,6.33,10.2,11.15,2.5,4.82,3.75,10.41,3.75,16.76s-1.25,11.98-3.75,16.87c-2.51,4.9-5.91,8.69-10.2,11.38-4.3,2.69-9.1,4.04-14.41,4.04-4.56,0-8.58-.94-12.05-2.8-3.48-1.87-6.3-4.22-8.46-7.06v38.45h-15.69v-91.7h15.69v8.97c2.02-2.84,4.8-5.21,8.35-7.12Zm22.2,19.28c-1.53-2.73-3.55-4.8-6.05-6.22-2.51-1.42-5.21-2.13-8.13-2.13s-5.51.73-8.02,2.19c-2.51,1.46-4.52,3.57-6.05,6.33-1.53,2.77-2.3,6.02-2.3,9.75s.76,6.99,2.3,9.75c1.53,2.77,3.55,4.88,6.05,6.33,2.5,1.46,5.17,2.19,8.02,2.19s5.62-.75,8.13-2.24c2.5-1.49,4.52-3.62,6.05-6.39,1.53-2.76,2.3-6.05,2.3-9.87s-.77-6.97-2.3-9.7Z"/>
        <path class="cls-2" d="m766.42,492.22c3.66,2.06,6.52,5.08,8.58,9.08,2.05,4,3.08,8.8,3.08,14.4v36.43h-15.69v-34.3c0-4.93-1.23-8.72-3.7-11.38-2.47-2.65-5.83-3.98-10.09-3.98s-7.75,1.33-10.26,3.98c-2.51,2.65-3.75,6.45-3.75,11.38v34.3h-15.69v-82.95h15.69v28.59c2.02-2.69,4.71-4.8,8.07-6.33,3.36-1.53,7.1-2.3,11.21-2.3,4.71,0,8.89,1.03,12.55,3.08Z"/>
        <path class="cls-2" d="m794.05,480c-1.83-1.76-2.75-3.94-2.75-6.56s.91-4.8,2.75-6.56c1.83-1.76,4.13-2.63,6.89-2.63s5.06.88,6.89,2.63c1.83,1.76,2.75,3.94,2.75,6.56s-.92,4.8-2.75,6.56c-1.83,1.76-4.13,2.63-6.89,2.63s-5.06-.88-6.89-2.63Zm14.63,10.03v62.1h-15.69v-62.1h15.69Z"/>
        <path class="cls-2" d="m824.04,504.21c2.61-4.82,6.24-8.56,10.87-11.21,4.63-2.65,9.94-3.98,15.92-3.98,7.7,0,14.07,1.92,19.11,5.77,5.04,3.85,8.42,9.25,10.14,16.2h-16.93c-.9-2.69-2.41-4.8-4.54-6.33-2.13-1.53-4.76-2.3-7.9-2.3-4.48,0-8.04,1.63-10.65,4.88-2.62,3.25-3.92,7.87-3.92,13.84s1.31,10.48,3.92,13.73c2.61,3.25,6.17,4.88,10.65,4.88,6.35,0,10.5-2.84,12.44-8.52h16.93c-1.72,6.73-5.12,12.07-10.2,16.03-5.08,3.96-11.43,5.94-19.06,5.94-5.98,0-11.28-1.33-15.92-3.98-4.64-2.65-8.26-6.39-10.87-11.21-2.62-4.82-3.92-10.44-3.92-16.87s1.31-12.05,3.92-16.87Z"/>
      </g>
      <g>
        <path class="cls-2" d="m475.97,592.3c5.63,2.9,9.98,7.03,13.05,12.4,3.07,5.36,4.61,11.59,4.61,18.67s-1.54,13.27-4.61,18.57c-3.07,5.3-7.42,9.39-13.05,12.29-5.63,2.9-12.16,4.35-19.58,4.35h-24.69v-70.63h24.69c7.42,0,13.95,1.45,19.58,4.35Zm-2.88,48.17c4.05-4.05,6.07-9.75,6.07-17.1s-2.02-13.11-6.07-17.25c-4.05-4.15-9.78-6.22-17.2-6.22h-10.02v46.65h10.02c7.42,0,13.15-2.02,17.2-6.07Z"/>
        <path class="cls-2" d="m555.96,634.8h-40.98c.34,4.05,1.75,7.22,4.25,9.51,2.5,2.29,5.57,3.44,9.21,3.44,5.26,0,9.01-2.26,11.23-6.78h15.28c-1.62,5.4-4.72,9.83-9.31,13.31-4.59,3.48-10.22,5.21-16.9,5.21-5.4,0-10.24-1.2-14.52-3.59s-7.62-5.78-10.02-10.17c-2.4-4.38-3.59-9.44-3.59-15.18s1.18-10.89,3.54-15.28c2.36-4.38,5.67-7.76,9.92-10.12,4.25-2.36,9.14-3.54,14.67-3.54s10.1,1.15,14.32,3.44c4.21,2.29,7.49,5.55,9.81,9.77,2.33,4.22,3.49,9.06,3.49,14.52,0,2.02-.14,3.85-.41,5.46Zm-14.27-9.51c-.07-3.64-1.38-6.56-3.95-8.75-2.56-2.19-5.7-3.29-9.41-3.29-3.51,0-6.46,1.06-8.85,3.19s-3.86,5.08-4.4,8.85h26.61Z"/>
        <path class="cls-2" d="m575.8,657.01c-3.64-1.65-6.53-3.9-8.65-6.73s-3.29-5.97-3.49-9.41h14.27c.27,2.16,1.33,3.95,3.19,5.36,1.85,1.42,4.16,2.13,6.93,2.13s4.81-.54,6.32-1.62c1.52-1.08,2.28-2.46,2.28-4.15,0-1.82-.93-3.19-2.78-4.1-1.86-.91-4.81-1.91-8.85-2.98-4.18-1.01-7.61-2.06-10.27-3.14-2.67-1.08-4.96-2.73-6.88-4.96-1.92-2.23-2.88-5.23-2.88-9.01,0-3.1.89-5.94,2.68-8.5,1.79-2.56,4.35-4.59,7.69-6.07,3.34-1.48,7.27-2.23,11.79-2.23,6.68,0,12.01,1.67,15.99,5.01,3.98,3.34,6.17,7.84,6.58,13.51h-13.56c-.2-2.23-1.13-4-2.78-5.31-1.65-1.32-3.86-1.97-6.63-1.97-2.56,0-4.54.47-5.92,1.42-1.38.95-2.07,2.26-2.07,3.95,0,1.89.94,3.32,2.83,4.3,1.89.98,4.82,1.97,8.8,2.98,4.05,1.01,7.39,2.06,10.02,3.14,2.63,1.08,4.91,2.75,6.83,5.01,1.92,2.26,2.92,5.25,2.99,8.95,0,3.24-.9,6.14-2.68,8.7-1.79,2.56-4.35,4.57-7.69,6.02-3.34,1.45-7.24,2.18-11.69,2.18s-8.7-.83-12.35-2.48Z"/>
        <path class="cls-2" d="m622.8,593.46c-1.65-1.58-2.48-3.56-2.48-5.92s.83-4.33,2.48-5.92c1.65-1.58,3.73-2.38,6.22-2.38s4.57.79,6.22,2.38c1.65,1.59,2.48,3.56,2.48,5.92s-.83,4.33-2.48,5.92c-1.65,1.59-3.73,2.38-6.22,2.38s-4.57-.79-6.22-2.38Zm13.21,9.06v56.06h-14.17v-56.06h14.17Z"/>
        <path class="cls-2" d="m682.96,604.09c3.17,1.65,5.67,3.79,7.49,6.42v-7.99h14.27v56.47c0,5.19-1.05,9.83-3.14,13.91-2.09,4.08-5.23,7.32-9.41,9.71-4.18,2.39-9.24,3.59-15.18,3.59-7.96,0-14.49-1.86-19.58-5.57-5.09-3.71-7.98-8.77-8.65-15.18h14.07c.74,2.56,2.34,4.6,4.81,6.12,2.46,1.52,5.45,2.28,8.95,2.28,4.11,0,7.45-1.23,10.02-3.69,2.56-2.46,3.84-6.19,3.84-11.18v-8.7c-1.82,2.63-4.33,4.82-7.54,6.58-3.21,1.75-6.86,2.63-10.98,2.63-4.72,0-9.04-1.21-12.95-3.64-3.91-2.43-7-5.85-9.26-10.27-2.26-4.42-3.39-9.49-3.39-15.23s1.13-10.69,3.39-15.08c2.26-4.38,5.33-7.76,9.21-10.12,3.88-2.36,8.21-3.54,13-3.54,4.18,0,7.86.83,11.03,2.48Zm5.46,17.61c-1.35-2.46-3.17-4.35-5.46-5.67-2.29-1.31-4.76-1.97-7.39-1.97s-5.06.64-7.29,1.92-4.03,3.15-5.41,5.62c-1.38,2.46-2.08,5.38-2.08,8.75s.69,6.32,2.08,8.85c1.38,2.53,3.2,4.47,5.46,5.82,2.26,1.35,4.67,2.02,7.24,2.02s5.09-.66,7.39-1.97c2.29-1.32,4.11-3.2,5.46-5.67,1.35-2.46,2.02-5.41,2.02-8.85s-.68-6.39-2.02-8.85Z"/>
        <path class="cls-2" d="m765.83,608.04c4.11,4.22,6.17,10.1,6.17,17.66v32.89h-14.17v-30.97c0-4.45-1.11-7.87-3.34-10.27-2.23-2.39-5.26-3.59-9.11-3.59s-7,1.2-9.26,3.59c-2.26,2.4-3.39,5.82-3.39,10.27v30.97h-14.17v-56.06h14.17v6.98c1.89-2.43,4.3-4.33,7.24-5.72,2.93-1.38,6.15-2.07,9.66-2.07,6.68,0,12.08,2.11,16.19,6.32Z"/>
        <path class="cls-2" d="m837.17,634.8h-40.98c.34,4.05,1.75,7.22,4.25,9.51,2.5,2.29,5.57,3.44,9.21,3.44,5.26,0,9.01-2.26,11.23-6.78h15.28c-1.62,5.4-4.72,9.83-9.31,13.31-4.59,3.48-10.22,5.21-16.9,5.21-5.4,0-10.24-1.2-14.52-3.59s-7.62-5.78-10.02-10.17c-2.4-4.38-3.59-9.44-3.59-15.18s1.18-10.89,3.54-15.28c2.36-4.38,5.67-7.76,9.92-10.12,4.25-2.36,9.14-3.54,14.67-3.54s10.1,1.15,14.32,3.44c4.21,2.29,7.49,5.55,9.81,9.77,2.33,4.22,3.49,9.06,3.49,14.52,0,2.02-.14,3.85-.41,5.46Zm-14.27-9.51c-.07-3.64-1.38-6.56-3.95-8.75-2.56-2.19-5.7-3.29-9.41-3.29-3.51,0-6.46,1.06-8.85,3.19s-3.86,5.08-4.4,8.85h26.61Z"/>
        <path class="cls-2" d="m869.2,604.24c2.93-1.69,6.29-2.53,10.07-2.53v14.87h-3.75c-4.45,0-7.81,1.05-10.07,3.14-2.26,2.09-3.39,5.73-3.39,10.93v27.93h-14.17v-56.06h14.17v8.7c1.82-2.97,4.2-5.3,7.13-6.98Z"/>
      </g>
    </g>
    <text class="cls-1" transform="translate(649.89 544.07)"><tspan x="0" y="0">é</tspan></text>
    <text class="cls-1" transform="translate(649.89 544.07)"><tspan x="0" y="0">é</tspan></text>
  </g>
</svg>