<?xml version="1.0" encoding="UTF-8"?>
<svg id="Layer_2" data-name="Layer 2" xmlns="http://www.w3.org/2000/svg" viewBox="0 0 886.51 450.55">
  <defs>
    <style>
      .cls-1 {
        fill: #fff;
      }

      .cls-1, .cls-2, .cls-3 {
        stroke-width: 0px;
      }

      .cls-2 {
        fill: #c44260;
      }

      .cls-3 {
        fill: #bb274a;
      }
    </style>
  </defs>
  <g id="Layer_1-2" data-name="Layer 1">
    <g>
      <g>
        <path class="cls-2" d="m383.54,446.31c-95.81.46-285.65,1.78-381.43,2.17,0,0-.01-2.62-.01-2.62l-.99-220.59C1.03,158.3-.06,66.07,0,0c0,0,4.7,0,4.7,0,92.93-.02,191.07.91,284.13,2.31,31.57.52,63.14,1.13,94.71,1.93,0,0,0,.9,0,.9-15.78.43-31.57.74-47.35,1.05-76.37,1.55-160.27,2.42-236.77,2.89-31.57.22-63.14.29-94.71.29,0,0,4.69-4.69,4.69-4.69-.35,63.74-.59,155.9-1.09,220.59,0,0-.99,220.59-.99,220.59l-2.61-2.61c93.82,1.38,286.85-.15,378.83,3.06h0Z"/>
        <path class="cls-2" d="m502.97,4.24c95.81-.46,285.65-1.78,381.43-2.17,0,0,.01,2.62.01,2.62l.99,220.59c.07,66.97,1.17,159.21,1.1,225.27,0,0-4.7,0-4.7,0-92.93.02-191.07-.91-284.13-2.31-31.57-.52-63.14-1.13-94.71-1.93,0,0,0-.9,0-.9,15.78-.43,31.57-.74,47.35-1.05,76.37-1.55,160.27-2.42,236.77-2.89,31.57-.22,63.14-.29,94.71-.29,0,0-4.69,4.69-4.69,4.69.35-63.74.59-155.9,1.09-220.59,0,0,.99-220.59.99-220.59,0,0,2.61,2.61,2.61,2.61-93.82-1.38-286.85.16-378.83-3.06h0Z"/>
      </g>
      <g>
        <g>
          <path class="cls-1" d="m247.68,103.43c1.33,1.68,2,3.58,2,5.7,0,1.81-.47,3.45-1.41,4.9-.94,1.46-2.3,2.6-4.08,3.44-1.78.84-3.85,1.26-6.21,1.26h-14.27v-35.67h13.6c2.43,0,4.52.41,6.26,1.23,1.75.82,3.06,1.92,3.95,3.31.89,1.39,1.33,2.93,1.33,4.64,0,2.05-.55,3.76-1.64,5.13-1.1,1.37-2.57,2.38-4.41,3.03,1.92.34,3.54,1.35,4.88,3.03Zm-18.12-5.39h7.24c1.92,0,3.41-.44,4.49-1.31,1.08-.87,1.62-2.13,1.62-3.77s-.54-2.87-1.62-3.77c-1.08-.91-2.58-1.36-4.49-1.36h-7.24v10.21Zm12.57,14.47c1.13-.96,1.69-2.29,1.69-4s-.6-3.13-1.8-4.16c-1.2-1.03-2.79-1.54-4.77-1.54h-7.7v11.14h7.9c1.98,0,3.54-.48,4.67-1.44Z"/>
          <path class="cls-1" d="m261.08,117.36c-2.16-1.21-3.85-2.93-5.08-5.13-1.23-2.21-1.85-4.76-1.85-7.67s.63-5.42,1.9-7.65c1.27-2.22,2.99-3.93,5.18-5.13,2.19-1.2,4.64-1.8,7.34-1.8s5.15.6,7.34,1.8c2.19,1.2,3.92,2.91,5.18,5.13,1.27,2.22,1.9,4.77,1.9,7.65s-.65,5.42-1.95,7.65c-1.3,2.22-3.07,3.94-5.31,5.16-2.24,1.21-4.71,1.82-7.42,1.82s-5.08-.61-7.24-1.82Zm11.47-4.34c1.32-.72,2.39-1.8,3.21-3.23.82-1.44,1.23-3.18,1.23-5.23s-.39-3.79-1.18-5.21c-.79-1.42-1.83-2.49-3.13-3.21-1.3-.72-2.7-1.08-4.21-1.08s-2.9.36-4.18,1.08c-1.28.72-2.3,1.79-3.05,3.21-.75,1.42-1.13,3.16-1.13,5.21,0,3.05.78,5.4,2.34,7.06,1.56,1.66,3.52,2.49,5.88,2.49,1.51,0,2.92-.36,4.23-1.08Z"/>
          <path class="cls-1" d="m309.04,91.36c1.76.92,3.14,2.29,4.13,4.11.99,1.81,1.49,4,1.49,6.57v16.68h-5.8v-15.81c0-2.53-.63-4.47-1.9-5.83-1.27-1.35-2.99-2.03-5.18-2.03s-3.93.68-5.21,2.03-1.92,3.29-1.92,5.83v15.81h-5.85v-28.28h5.85v3.23c.96-1.16,2.18-2.07,3.67-2.72,1.49-.65,3.07-.98,4.75-.98,2.22,0,4.22.46,5.98,1.39Z"/>
          <path class="cls-1" d="m327.95,124.26c0,2.77-.69,4.78-2.08,6.03-1.39,1.25-3.4,1.87-6.03,1.87h-3.03v-4.93h2c1.2,0,2.04-.23,2.54-.69.5-.46.74-1.22.74-2.28v-33.82h5.85v33.82Zm-5.54-38.65c-.72-.72-1.08-1.61-1.08-2.67s.36-1.95,1.08-2.67c.72-.72,1.61-1.08,2.67-1.08s1.9.36,2.62,1.08c.72.72,1.08,1.61,1.08,2.67s-.36,1.95-1.08,2.67c-.72.72-1.59,1.08-2.62,1.08s-1.95-.36-2.67-1.08Z"/>
          <path class="cls-1" d="m340.68,117.36c-2.16-1.21-3.85-2.93-5.08-5.13-1.23-2.21-1.85-4.76-1.85-7.67s.63-5.42,1.9-7.65c1.27-2.22,2.99-3.93,5.18-5.13,2.19-1.2,4.64-1.8,7.34-1.8s5.15.6,7.34,1.8c2.19,1.2,3.92,2.91,5.18,5.13,1.27,2.22,1.9,4.77,1.9,7.65s-.65,5.42-1.95,7.65c-1.3,2.22-3.07,3.94-5.31,5.16-2.24,1.21-4.71,1.82-7.42,1.82s-5.08-.61-7.24-1.82Zm11.47-4.34c1.32-.72,2.39-1.8,3.21-3.23.82-1.44,1.23-3.18,1.23-5.23s-.39-3.79-1.18-5.21c-.79-1.42-1.83-2.49-3.13-3.21-1.3-.72-2.7-1.08-4.21-1.08s-2.9.36-4.18,1.08c-1.28.72-2.3,1.79-3.05,3.21-.75,1.42-1.13,3.16-1.13,5.21,0,3.05.78,5.4,2.34,7.06,1.56,1.66,3.52,2.49,5.88,2.49,1.51,0,2.92-.36,4.23-1.08Z"/>
          <path class="cls-1" d="m394.01,90.44v28.28h-5.85v-3.34c-.92,1.16-2.13,2.08-3.62,2.75-1.49.67-3.07,1-4.75,1-2.22,0-4.22-.46-5.98-1.39-1.76-.92-3.15-2.29-4.16-4.11-1.01-1.81-1.51-4-1.51-6.57v-16.63h5.8v15.76c0,2.53.63,4.47,1.9,5.83,1.27,1.35,2.99,2.03,5.18,2.03s3.93-.67,5.21-2.03c1.28-1.35,1.92-3.29,1.92-5.83v-15.76h5.85Z"/>
          <path class="cls-1" d="m410.97,91.18c1.42-.8,3.11-1.21,5.06-1.21v6.06h-1.49c-2.29,0-4.03.58-5.21,1.75-1.18,1.16-1.77,3.18-1.77,6.06v14.88h-5.85v-28.28h5.85v4.11c.86-1.44,1.99-2.56,3.41-3.36Z"/>
          <path class="cls-1" d="m423.16,118c-.72-.72-1.08-1.61-1.08-2.67s.36-1.95,1.08-2.67c.72-.72,1.61-1.08,2.67-1.08s1.9.36,2.62,1.08c.72.72,1.08,1.61,1.08,2.67s-.36,1.95-1.08,2.67c-.72.72-1.59,1.08-2.62,1.08s-1.95-.36-2.67-1.08Zm5.59-34.95l-.67,24.89h-4.88l-.67-24.89h6.21Z"/>
          <path class="cls-1" d="m243.16,144.64v25.71c0,3.18-.97,5.7-2.9,7.54-1.93,1.85-4.47,2.77-7.62,2.77s-5.69-.92-7.62-2.77c-1.93-1.85-2.9-4.36-2.9-7.54h5.9c.03,1.57.44,2.82,1.21,3.75.77.92,1.91,1.39,3.41,1.39s2.65-.47,3.44-1.41c.79-.94,1.18-2.18,1.18-3.72v-25.71h5.9Z"/>
          <path class="cls-1" d="m278.37,168.35h-21.61c.17,2.26,1.01,4.07,2.51,5.44,1.51,1.37,3.35,2.05,5.54,2.05,3.15,0,5.37-1.32,6.67-3.95h6.31c-.86,2.6-2.4,4.73-4.64,6.39-2.24,1.66-5.02,2.49-8.34,2.49-2.7,0-5.12-.61-7.26-1.82-2.14-1.21-3.82-2.93-5.03-5.13-1.21-2.21-1.82-4.76-1.82-7.67s.59-5.47,1.77-7.67,2.84-3.91,4.98-5.11c2.14-1.2,4.59-1.8,7.37-1.8s5.05.58,7.13,1.75c2.09,1.16,3.71,2.8,4.88,4.9,1.16,2.1,1.75,4.53,1.75,7.26,0,1.06-.07,2.02-.21,2.87Zm-5.9-4.72c-.03-2.16-.8-3.88-2.31-5.18-1.51-1.3-3.37-1.95-5.59-1.95-2.02,0-3.75.64-5.18,1.92s-2.29,3.02-2.57,5.21h15.65Z"/>
          <path class="cls-1" d="m337.88,152.95c1.76.92,3.15,2.29,4.16,4.11,1.01,1.81,1.51,4,1.51,6.57v16.68h-5.8v-15.81c0-2.53-.63-4.47-1.9-5.83-1.27-1.35-2.99-2.03-5.18-2.03s-3.93.68-5.21,2.03-1.92,3.29-1.92,5.83v15.81h-5.8v-15.81c0-2.53-.63-4.47-1.9-5.83-1.27-1.35-2.99-2.03-5.18-2.03s-3.93.68-5.21,2.03-1.92,3.29-1.92,5.83v15.81h-5.85v-28.28h5.85v3.23c.96-1.16,2.17-2.07,3.64-2.72,1.47-.65,3.05-.98,4.72-.98,2.26,0,4.28.48,6.06,1.44,1.78.96,3.15,2.34,4.11,4.16.85-1.71,2.19-3.07,4-4.08,1.81-1.01,3.76-1.51,5.85-1.51,2.22,0,4.22.46,5.98,1.39Z"/>
          <path class="cls-1" d="m351.92,144.64h6.36l-5.39,12.22h-4.11l3.13-12.22Z"/>
          <path class="cls-1" d="m363.24,158.5c1.18-2.19,2.79-3.89,4.82-5.11,2.04-1.21,4.29-1.82,6.75-1.82,2.22,0,4.17.44,5.83,1.31,1.66.87,2.99,1.96,3.98,3.26v-4.11h5.9v28.28h-5.9v-4.21c-.99,1.33-2.34,2.45-4.05,3.34-1.71.89-3.66,1.33-5.85,1.33-2.43,0-4.65-.62-6.67-1.87-2.02-1.25-3.62-2.99-4.8-5.24-1.18-2.24-1.77-4.78-1.77-7.62s.59-5.35,1.77-7.55Zm20.17,2.57c-.8-1.44-1.86-2.53-3.16-3.28-1.3-.75-2.7-1.13-4.21-1.13s-2.91.37-4.21,1.1c-1.3.74-2.35,1.81-3.16,3.23-.8,1.42-1.21,3.1-1.21,5.06s.4,3.66,1.21,5.13c.8,1.47,1.86,2.59,3.18,3.36,1.32.77,2.71,1.16,4.18,1.16s2.91-.38,4.21-1.13c1.3-.75,2.35-1.86,3.16-3.31.8-1.45,1.21-3.16,1.21-5.11s-.4-3.64-1.21-5.08Z"/>
          <path class="cls-1" d="m408.12,152.9c1.71-.89,3.64-1.33,5.8-1.33,2.46,0,4.71.61,6.75,1.82,2.04,1.22,3.64,2.92,4.8,5.11,1.16,2.19,1.75,4.7,1.75,7.55s-.58,5.38-1.75,7.62c-1.16,2.24-2.76,3.99-4.8,5.24-2.04,1.25-4.29,1.87-6.75,1.87-2.16,0-4.07-.44-5.75-1.31-1.68-.87-3.05-1.96-4.11-3.26v17.55h-5.85v-41.73h5.85v4.16c.99-1.3,2.34-2.39,4.05-3.28Zm11.93,8.08c-.8-1.42-1.87-2.5-3.18-3.23-1.32-.74-2.73-1.1-4.23-1.1s-2.87.38-4.18,1.13c-1.32.75-2.38,1.85-3.18,3.28-.8,1.44-1.21,3.13-1.21,5.08s.4,3.65,1.21,5.11c.8,1.45,1.86,2.56,3.18,3.31,1.32.75,2.71,1.13,4.18,1.13s2.92-.39,4.23-1.16c1.32-.77,2.38-1.89,3.18-3.36.8-1.47,1.21-3.18,1.21-5.13s-.4-3.64-1.21-5.06Z"/>
          <path class="cls-1" d="m442.92,152.9c1.71-.89,3.64-1.33,5.8-1.33,2.46,0,4.71.61,6.75,1.82,2.04,1.22,3.64,2.92,4.8,5.11,1.16,2.19,1.75,4.7,1.75,7.55s-.58,5.38-1.75,7.62c-1.16,2.24-2.76,3.99-4.8,5.24-2.04,1.25-4.29,1.87-6.75,1.87-2.16,0-4.07-.44-5.75-1.31-1.68-.87-3.05-1.96-4.11-3.26v17.55h-5.85v-41.73h5.85v4.16c.99-1.3,2.34-2.39,4.05-3.28Zm11.93,8.08c-.8-1.42-1.87-2.5-3.18-3.23-1.32-.74-2.73-1.1-4.23-1.1s-2.87.38-4.18,1.13c-1.32.75-2.38,1.85-3.18,3.28-.8,1.44-1.21,3.13-1.21,5.08s.4,3.65,1.21,5.11c.8,1.45,1.86,2.56,3.18,3.31,1.32.75,2.71,1.13,4.18,1.13s2.92-.39,4.23-1.16c1.32-.77,2.38-1.89,3.18-3.36.8-1.47,1.21-3.18,1.21-5.13s-.4-3.64-1.21-5.06Z"/>
          <path class="cls-1" d="m473.66,142.33v37.98h-5.85v-37.98h5.85Z"/>
          <path class="cls-1" d="m487.21,142.33v37.98h-5.85v-37.98h5.85Z"/>
          <path class="cls-1" d="m520.63,168.35h-21.61c.17,2.26,1.01,4.07,2.52,5.44,1.51,1.37,3.35,2.05,5.54,2.05,3.15,0,5.37-1.32,6.67-3.95h6.31c-.86,2.6-2.4,4.73-4.64,6.39-2.24,1.66-5.02,2.49-8.34,2.49-2.7,0-5.12-.61-7.26-1.82-2.14-1.21-3.82-2.93-5.03-5.13-1.22-2.21-1.82-4.76-1.82-7.67s.59-5.47,1.77-7.67c1.18-2.21,2.84-3.91,4.98-5.11,2.14-1.2,4.59-1.8,7.37-1.8s5.05.58,7.13,1.75c2.09,1.16,3.71,2.8,4.88,4.9,1.16,2.1,1.75,4.53,1.75,7.26,0,1.06-.07,2.02-.21,2.87Zm-5.9-4.72c-.03-2.16-.8-3.88-2.31-5.18-1.51-1.3-3.37-1.95-5.59-1.95-2.02,0-3.75.64-5.18,1.92-1.44,1.28-2.29,3.02-2.57,5.21h15.65Z"/>
          <path class="cls-1" d="m566.35,144.64l-11.8,22.74v12.93h-5.85v-12.93l-11.86-22.74h6.52l8.26,17.5,8.26-17.5h6.47Z"/>
          <path class="cls-1" d="m576,178.95c-2.16-1.21-3.85-2.93-5.08-5.13s-1.85-4.76-1.85-7.67.63-5.42,1.9-7.65c1.27-2.22,2.99-3.93,5.18-5.13,2.19-1.2,4.64-1.8,7.34-1.8s5.15.6,7.34,1.8c2.19,1.2,3.92,2.91,5.18,5.13,1.27,2.22,1.9,4.77,1.9,7.65s-.65,5.42-1.95,7.65c-1.3,2.22-3.07,3.94-5.31,5.16-2.24,1.21-4.71,1.82-7.42,1.82s-5.08-.61-7.24-1.82Zm11.47-4.34c1.32-.72,2.39-1.8,3.21-3.23.82-1.44,1.23-3.18,1.23-5.23s-.39-3.79-1.18-5.21c-.79-1.42-1.83-2.49-3.13-3.21-1.3-.72-2.7-1.08-4.21-1.08s-2.9.36-4.18,1.08c-1.28.72-2.3,1.79-3.05,3.21-.75,1.42-1.13,3.16-1.13,5.21,0,3.05.78,5.4,2.34,7.06,1.56,1.66,3.52,2.49,5.88,2.49,1.51,0,2.92-.36,4.23-1.08Z"/>
          <path class="cls-1" d="m603.54,158.5c1.18-2.19,2.79-3.89,4.82-5.11,2.04-1.21,4.29-1.82,6.75-1.82,2.22,0,4.17.44,5.83,1.31,1.66.87,2.98,1.96,3.98,3.26v-4.11h5.9v28.28h-5.9v-4.21c-.99,1.33-2.34,2.45-4.05,3.34-1.71.89-3.66,1.33-5.85,1.33-2.43,0-4.65-.62-6.67-1.87-2.02-1.25-3.62-2.99-4.8-5.24-1.18-2.24-1.77-4.78-1.77-7.62s.59-5.35,1.77-7.55Zm20.17,2.57c-.8-1.44-1.86-2.53-3.16-3.28-1.3-.75-2.7-1.13-4.21-1.13s-2.91.37-4.21,1.1c-1.3.74-2.35,1.81-3.16,3.23-.8,1.42-1.21,3.1-1.21,5.06s.4,3.66,1.21,5.13c.8,1.47,1.86,2.59,3.18,3.36,1.32.77,2.71,1.16,4.18,1.16s2.91-.38,4.21-1.13c1.3-.75,2.35-1.86,3.16-3.31.8-1.45,1.21-3.16,1.21-5.11s-.4-3.64-1.21-5.08Z"/>
          <path class="cls-1" d="m658.76,152.95c1.76.92,3.14,2.29,4.13,4.11.99,1.81,1.49,4,1.49,6.57v16.68h-5.8v-15.81c0-2.53-.63-4.47-1.9-5.83-1.27-1.35-2.99-2.03-5.18-2.03s-3.93.68-5.21,2.03-1.92,3.29-1.92,5.83v15.81h-5.85v-28.28h5.85v3.23c.96-1.16,2.18-2.07,3.67-2.72,1.49-.65,3.07-.98,4.75-.98,2.22,0,4.22.46,5.98,1.39Z"/>
        </g>
        <g>
          <path class="cls-3" d="m262.06,212.57c5.45,5.25,8.17,12.57,8.17,21.94s-2.73,16.66-8.17,21.85c-5.45,5.2-13.2,7.79-23.25,7.79h-16.69v-59.47h16.69c10.05,0,17.8,2.63,23.25,7.88Zm-2.75,41.38c4.69-4.66,7.03-11.14,7.03-19.44s-2.34-14.88-7.03-19.57c-4.69-4.69-11.52-7.03-20.5-7.03h-12.88v53.03h12.88c8.98,0,15.81-2.33,20.5-6.99Z"/>
          <path class="cls-3" d="m285.57,207.92v24.82h23.72v3.22h-23.72v24.99h26.26v3.22h-30.07v-59.47h30.07v3.22h-26.26Z"/>
          <path class="cls-3" d="m330.46,262.72c-2.88-1.35-5.12-3.19-6.73-5.51-1.61-2.32-2.53-4.88-2.75-7.71h3.98c.45,3.11,1.91,5.87,4.36,8.3,2.46,2.43,6.2,3.64,11.22,3.64,2.94,0,5.49-.54,7.67-1.61,2.17-1.07,3.85-2.54,5.04-4.4,1.19-1.86,1.78-3.92,1.78-6.18,0-2.88-.69-5.17-2.08-6.86-1.38-1.69-3.11-2.97-5.17-3.81-2.06-.85-4.84-1.75-8.34-2.71-3.84-1.02-6.93-2.03-9.28-3.05-2.34-1.02-4.32-2.58-5.93-4.7s-2.41-5.01-2.41-8.68c0-2.82.75-5.41,2.25-7.75,1.5-2.34,3.63-4.19,6.4-5.55,2.77-1.35,5.96-2.03,9.57-2.03,5.25,0,9.49,1.3,12.71,3.9,3.22,2.6,5.14,5.79,5.76,9.57h-4.07c-.34-1.52-1.09-3.08-2.25-4.66-1.16-1.58-2.8-2.89-4.91-3.94-2.12-1.04-4.65-1.57-7.58-1.57-3.95,0-7.29,1.09-10,3.26-2.71,2.17-4.07,5.07-4.07,8.68,0,2.88.71,5.18,2.12,6.9,1.41,1.72,3.15,3.02,5.21,3.9,2.06.88,4.84,1.77,8.34,2.67,3.9,1.07,6.99,2.1,9.28,3.09,2.29.99,4.24,2.54,5.84,4.66,1.61,2.12,2.41,4.98,2.41,8.6,0,2.65-.71,5.17-2.12,7.54-1.41,2.37-3.49,4.31-6.23,5.8-2.74,1.5-6.06,2.24-9.95,2.24s-7.2-.68-10.08-2.03Z"/>
          <path class="cls-3" d="m374.09,204.7v59.47h-3.81v-59.47h3.81Z"/>
          <path class="cls-3" d="m436.94,222.23c-1.69-4.46-4.5-8.02-8.43-10.67-3.93-2.65-8.57-3.98-13.93-3.98-4.69,0-8.92,1.1-12.71,3.3-3.78,2.2-6.78,5.34-8.98,9.4-2.2,4.07-3.3,8.81-3.3,14.23s1.1,10.16,3.3,14.23c2.2,4.07,5.2,7.19,8.98,9.36,3.78,2.17,8.02,3.26,12.71,3.26s8.61-1.02,12.28-3.05c3.67-2.03,6.61-4.93,8.81-8.68,2.2-3.76,3.42-8.15,3.64-13.17h-26.51v-3.22h30.41v2.54c-.17,5.54-1.5,10.5-3.98,14.91-2.49,4.4-5.87,7.85-10.17,10.33-4.29,2.49-9.12,3.73-14.49,3.73s-10.42-1.28-14.82-3.85c-4.4-2.57-7.85-6.15-10.33-10.76-2.49-4.6-3.73-9.81-3.73-15.63s1.24-11.11,3.73-15.71c2.48-4.6,5.93-8.19,10.33-10.76,4.41-2.57,9.35-3.85,14.82-3.85,6.38,0,11.9,1.6,16.56,4.79,4.66,3.19,8.06,7.61,10.21,13.26h-4.41Z"/>
          <path class="cls-3" d="m497.25,264.16h-3.81l-34.9-53.2v53.2h-3.81v-59.38h3.81l34.9,53.03v-53.03h3.81v59.38Z"/>
          <path class="cls-3" d="m515.04,207.92v24.82h23.72v3.22h-23.72v24.99h26.26v3.22h-30.07v-59.47h30.07v3.22h-26.26Z"/>
          <path class="cls-3" d="m584.93,264.16l-15.25-25.33h-13.05v25.33h-3.81v-59.47h16.35c6.61,0,11.56,1.55,14.87,4.66,3.3,3.11,4.96,7.23,4.96,12.37,0,4.57-1.29,8.34-3.85,11.31-2.57,2.97-6.31,4.79-11.22,5.46l15.59,25.67h-4.57Zm-28.29-28.55h12.71c5.25,0,9.18-1.27,11.77-3.81,2.6-2.54,3.9-5.9,3.9-10.08,0-9.09-5.28-13.64-15.84-13.64h-12.54v27.53Z"/>
        </g>
        <g>
          <path class="cls-3" d="m273.37,317.31c-1.69-4.46-4.5-8.02-8.43-10.67-3.93-2.65-8.57-3.98-13.93-3.98-4.69,0-8.92,1.1-12.71,3.3-3.78,2.2-6.78,5.34-8.98,9.4-2.2,4.07-3.3,8.81-3.3,14.23s1.1,10.16,3.3,14.23c2.2,4.07,5.2,7.19,8.98,9.36,3.78,2.17,8.02,3.26,12.71,3.26s8.61-1.02,12.28-3.05c3.67-2.03,6.61-4.93,8.81-8.68s3.42-8.15,3.64-13.17h-26.51v-3.22h30.41v2.54c-.17,5.54-1.5,10.5-3.98,14.91-2.49,4.4-5.87,7.85-10.17,10.33-4.29,2.49-9.12,3.73-14.49,3.73s-10.42-1.28-14.82-3.85c-4.4-2.57-7.85-6.15-10.33-10.76-2.49-4.6-3.73-9.81-3.73-15.63s1.24-11.11,3.73-15.71c2.48-4.6,5.93-8.19,10.33-10.76,4.41-2.57,9.35-3.85,14.82-3.85,6.38,0,11.9,1.6,16.56,4.79,4.66,3.19,8.06,7.61,10.21,13.26h-4.41Z"/>
          <path class="cls-3" d="m323.26,359.24l-15.25-25.33h-13.05v25.33h-3.81v-59.47h16.35c6.61,0,11.56,1.55,14.87,4.66,3.3,3.11,4.96,7.23,4.96,12.37,0,4.57-1.29,8.34-3.85,11.31-2.57,2.97-6.31,4.79-11.22,5.46l15.59,25.67h-4.57Zm-28.29-28.55h12.71c5.25,0,9.18-1.27,11.77-3.81,2.6-2.54,3.9-5.9,3.9-10.08,0-9.09-5.28-13.64-15.84-13.64h-12.54v27.53Z"/>
          <path class="cls-3" d="m372.39,343.99h-28.21l-5.68,15.25h-4.15l21.85-58.11h4.24l21.77,58.11h-4.15l-5.68-15.25Zm-1.19-3.22l-12.88-34.65-12.96,34.65h25.84Z"/>
          <path class="cls-3" d="m422.88,328.78c-3.28,2.91-8.13,4.36-14.57,4.36h-12.71v26.09h-3.81v-59.47h16.52c6.55,0,11.44,1.51,14.65,4.53,3.22,3.02,4.83,7.1,4.83,12.24s-1.64,9.33-4.91,12.24Zm1.1-12.24c0-4.35-1.24-7.67-3.73-9.95-2.49-2.29-6.47-3.43-11.94-3.43h-12.71v26.6h12.71c10.45,0,15.67-4.4,15.67-13.21Z"/>
          <path class="cls-3" d="m480.4,299.77v59.47h-3.81v-28.8h-34.73v28.8h-3.81v-59.47h3.81v27.45h34.73v-27.45h3.81Z"/>
          <path class="cls-3" d="m498.18,299.77v59.47h-3.81v-59.47h3.81Z"/>
          <path class="cls-3" d="m563.07,371.35l-15.08-12.88c-2.99.96-6.1,1.44-9.32,1.44-5.48,0-10.42-1.28-14.82-3.85-4.4-2.57-7.85-6.17-10.33-10.8-2.49-4.63-3.73-9.85-3.73-15.67s1.24-11.11,3.73-15.71c2.48-4.6,5.93-8.19,10.33-10.76,4.41-2.57,9.35-3.85,14.82-3.85s10.42,1.28,14.82,3.85c4.41,2.57,7.85,6.16,10.33,10.76,2.48,4.6,3.73,9.84,3.73,15.71,0,6.27-1.43,11.8-4.28,16.6-2.85,4.8-6.71,8.42-11.56,10.84l16.77,14.32h-5.42Zm-46.08-27.53c2.2,4.07,5.2,7.2,8.98,9.4,3.78,2.2,8.02,3.3,12.71,3.3s8.92-1.1,12.71-3.3c3.78-2.2,6.76-5.34,8.94-9.4,2.17-4.07,3.26-8.81,3.26-14.23s-1.09-10.25-3.26-14.32c-2.17-4.07-5.15-7.2-8.94-9.4-3.78-2.2-8.02-3.3-12.71-3.3s-8.92,1.1-12.71,3.3c-3.78,2.2-6.78,5.34-8.98,9.4-2.2,4.07-3.3,8.84-3.3,14.32s1.1,10.16,3.3,14.23Z"/>
          <path class="cls-3" d="m582.64,299.77v37.19c0,6.72,1.52,11.65,4.57,14.78,3.05,3.13,7.2,4.7,12.45,4.7s9.29-1.55,12.28-4.66c2.99-3.1,4.49-8.05,4.49-14.82v-37.19h3.81v37.1c0,7.74-1.86,13.5-5.59,17.28-3.73,3.78-8.72,5.68-14.99,5.68s-11.31-1.91-15.12-5.72c-3.81-3.81-5.72-9.56-5.72-17.24v-37.1h3.81Z"/>
          <path class="cls-3" d="m637.61,302.99v24.82h23.72v3.22h-23.72v24.99h26.26v3.22h-30.07v-59.47h30.07v3.22h-26.26Z"/>
        </g>
      </g>
    </g>
  </g>
</svg>