<?xml version="1.0" encoding="UTF-8"?>
<svg id="Layer_2" data-name="Layer 2" xmlns="http://www.w3.org/2000/svg" viewBox="0 0 2001.86 2530.48">
  <defs>
    <style>
      .cls-1 {
        stroke: #fff;
        stroke-miterlimit: 10;
        stroke-width: 7px;
      }

      .cls-1, .cls-2 {
        fill: none;
      }

      .cls-2, .cls-3, .cls-4 {
        stroke-width: 0px;
      }

      .cls-3 {
        fill: #fff;
      }

      .cls-4 {
        fill: #bb2649;
      }

      .cls-5 {
        opacity: .25;
      }
    </style>
  </defs>
  <g id="Layer_1-2" data-name="Layer 1">
    <g class="cls-5">
      <path class="cls-2" d="m1736.15,1095.99c.69-.09,1.39-.15,2.08-.2.63-.13,1.27-.24,1.91-.34l-3.99.54Z"/>
      <path class="cls-2" d="m831.85,884.74c-.11,1.39,1.47-.57-.19-.23.11.18.18.27.19.23Z"/>
      <path class="cls-2" d="m828.18,877.74s.03.15.15.41c2.61-2.3-1.57-.89-.15-.41Z"/>
      <path class="cls-2" d="m1732.32,1097.61c.67-.28,1.35-.54,2.04-.77.51-.26,1.02-.51,1.54-.74-1.19.5-2.39,1.01-3.58,1.51Z"/>
      <path class="cls-2" d="m1728.6,1100.48c.55-.42,1.11-.83,1.68-1.22.45-.38.89-.76,1.36-1.12-1.01.78-2.02,1.56-3.04,2.35Z"/>
      <path class="cls-2" d="m1449.49,1038.17c1.06,1.33,2.14,2.64,3.25,3.92-.48-1.64-1.03-3.26-1.64-4.85-2.27-4.94-5.14-9.58-8.37-13.96-1.73-2.14-3.55-4.2-5.47-6.16.17.46.34.91.51,1.37,3.13,6.99,7.14,13.54,11.71,19.68Z"/>
      <path class="cls-2" d="m1324.26,1084.32c1.41-3.69,2.47-7.51,3.14-11.4.37-3.81.36-7.64,0-11.45-.18-1.06-.4-2.1-.63-3.15-18.38,21.34-37.33,42.17-56.79,62.52.97-.08,1.94-.18,2.9-.29,6.25-1,12.35-2.66,18.23-4.98,5.51-2.49,10.75-5.53,15.61-9.11,4.01-3.27,7.69-6.92,10.97-10.93,2.55-3.52,4.76-7.27,6.58-11.21Z"/>
      <path class="cls-2" d="m1424.39,1054.4c-4.43-5.82-8.38-12.03-11.55-18.63-4.74-9.89-8.41-20.88-8.66-31.92-.56.01-1.11.03-1.67.07-1.56.31-3.09.74-4.59,1.27-1.11.55-2.18,1.18-3.22,1.85-.56.95-1.24,1.82-2.08,2.6-1.36,1.46-2.97,2.5-4.83,3.1-1.72.9-3.56,1.32-5.54,1.29-.75,1.78-1.82,3.37-3.21,4.77-1.01.78-2.02,1.56-3.04,2.35-1.88,1.09-3.87,1.74-5.99,1.96-.12.14-.25.28-.38.43-2.35,3.24-4.35,6.71-6.01,10.35-1.56,4.13-2.69,8.39-3.42,12.74-.53,5.08-.52,10.19.01,15.27.77,4.66,1.99,9.22,3.66,13.64,1.75,3.87,3.87,7.55,6.34,10.99,2.23,2.68,4.68,5.14,7.35,7.37,3.44,2.47,7.11,4.58,10.96,6.34,3.56,1.33,7.22,2.33,10.96,2.97,3.89.37,7.79.36,11.68-.02,4.18-.71,8.27-1.85,12.24-3.37,4.02-1.84,7.83-4.07,11.42-6.64,3.7-3.01,7.07-6.38,10.09-10.08.97-1.36,1.89-2.75,2.75-4.17-2.04-1.66-4.04-3.38-5.97-5.14-6.45-5.87-12.05-12.45-17.32-19.38Z"/>
      <path class="cls-2" d="m1232.13,1116.93c23.95-24.34,47.17-49.4,69.53-75.18-1.87.09-3.74.1-5.61,0-18.54-1.02-36.68-8.68-49.56-22.22-.39-.41-.75-.84-1.09-1.28-4.35,1.04-8.62,2.4-12.78,4.06-6.23,2.82-12.13,6.31-17.64,10.38-5.48,4.42-10.48,9.41-14.91,14.9-4.03,5.46-7.48,11.33-10.25,17.53-1.83,4.65-3.27,9.46-4.11,14.38-.25,2.69-.3,5.39-.09,8.08.3,1.54.7,3.05,1.21,4.53.51,1,1.07,1.98,1.7,2.91,1.15,1.3,2.39,2.51,3.71,3.65,3.49,2.5,7.23,4.63,11.03,6.64,3.96,2.09,7.99,4.02,12.09,5.82,5.48,2.24,11.08,4.2,16.78,5.81Z"/>
      <path class="cls-3" d="m1742.54,1065.7c-6.11-.18-12.53.64-18.2,2.98-6.26,2.59-11.39,5.83-16.47,10.38-6.15,5.5-11.02,12.36-17.31,17.7-.75.51-1.52.98-2.32,1.41-.27.08-.55.16-.83.24-.05,0-.1,0-.15,0-.24-.06-.47-.13-.7-.2-.72-.39-1.41-.81-2.09-1.26-2.44-2.09-4.63-4.46-6.65-6.96-11.29-15.26-18.37-33.24-29.83-48.37-4.01-5.3-7.89-9.74-13.41-13.53-4.48-3.08-10.6-2.38-15.14,0-10.01,5.24-16.72,15.63-22.43,24.99-2.48,4.07-4.84,8.23-7.44,12.23-2.34,3.6-4.96,7-7.35,10.57-.79,1.18-1.57,2.36-2.36,3.53-.35-6.97-.39-13.96-.78-20.92-.72-12.77-2.7-25.11-8.43-36.65-2.17-4.37-8.07-7.81-12.95-7.43-5.97.47-11.53,1.84-16.72,4.95-3.91,2.35-7.55,5.45-10.52,8.94-5.93,6.97-10.36,14.8-15.01,22.63-2.01,3.38-4.1,6.72-6.41,9.9-1.64,1.98-3.41,3.84-5.35,5.51-.99.66-2.01,1.26-3.07,1.8-1.04.35-2.09.63-3.16.85-1.65.1-3.3.08-4.95-.05-2.98-.56-5.89-1.42-8.72-2.49,1.26-8.44.98-17.09-.5-25.53-2.17-12.41-8.07-24.17-15.67-34.13-4.52-5.92-9.25-11.59-15.1-16.26-6.22-4.97-13.13-9.6-21.09-11.19-2.96-.59-5.53-.82-8.13-.79-1.53-1.22-3.28-2.15-5.27-2.77-7.91-2.46-16.49-2.52-24.56-.52,39.87-53.39,76.12-109.44,107.34-168.35,18.7-35.28,35.52-71.53,50.48-108.55,15.52-38.38,30.13-77.9,38.71-118.47,8.93-42.27,10.51-86.95-6.84-127.33-15.88-36.96-45.94-64.81-82.63-80.61-36.85-15.87-78.02-20.79-117.84-17.57-51.4,4.15-100.06,21.4-148.66,37.51-189.37,62.79-374.21,140.29-550.68,233.55-78.04,41.24-150.84,89.03-216.36,148.34-18.82,17.04-40.04,35.48-50.78,58.99-5.42,11.86-7.46,25.57-.21,37.22,9.38,15.05,28.88,19.38,45.24,20.91,23.32,2.19,47.54.68,70.97.99,25.74.34,51.53.39,77.26-.55,53.05-1.93,105.89-7.99,158.99-8.75,18.07-.26,37.89-1.38,55.96.85-1.02,1.84-1.99,3.73-2.89,4.93-4.44,5.87-9.48,11.38-14.25,16.98-33.15,38.86-67.76,76.44-100.91,115.3-12.02,14.09-24.15,28.19-35.67,42.68-10.87,13.67-21.54,28.32-26.59,45.28-4.82,16.17-2.48,33.71,9.24,46.38,15.48,16.73,39.85,16.87,60.97,18.31,97.81,6.64,196.73-1.72,292.19-23.99,46.5-10.85,92.11-25.17,136.53-42.65,17.76-6.99,10.03-36.01-7.98-28.93-88.8,34.93-182.55,57.12-277.71,64.69-47.57,3.79-95.42,4.1-143.04.87-12.58-.85-40.87,1.01-42.8-16.91-1.41-13.14,9.97-27.88,17.22-37.68,23.94-32.38,51.96-62.31,78.62-92.44,16.48-18.62,33.03-37.17,49.31-55.96,13.53-15.6,33.17-32.89,39.84-52.97,12.76-38.41-43.61-34.33-65.36-34.73-51.04-.92-101.89,4.33-152.78,7.32-49.55,2.91-98.88.56-148.43,1.39-10.49.18-21.28.83-31.69-.8-4.02-.63-8.59-1.53-12.3-3.25-2.01-.94-4.06-2.53-4.26-2.75.05.05-.73-1.73-.45-.19-.57-3.2-.23-1.66.18-3.57,1.17-5.38,4.01-9.65,7.35-14.59,13.7-20.3,34.1-36.55,52.2-52.8,33.07-29.71,69.06-55.9,106.58-79.69,74.91-47.5,155.35-85.32,235.31-123.35,89.18-42.41,179.82-81.02,272.48-115.22,47.8-17.65,95.97-34.29,144.4-50.12,46.46-15.19,93.08-30.96,142.49-31.51,35.98-.4,73.15,6.32,104.29,25.09,33.55,20.22,54.74,54.65,59.19,93.5,4.69,40.98-6.04,82.22-18.65,120.87-12.04,36.91-26.23,73.14-42.36,108.46-32.02,70.09-71.28,136.77-115.83,199.61-18.75,26.45-38.45,52.19-58.96,77.27-4.28-3.7-8.98-6.98-13.9-9.62-7.13-3.83-14.96-6.82-22.98-8.08-4.77-.75-9.55-1.34-14.39-1.22-4.92.12-9.88.77-14.69,1.79-2.87.61-5.69,1.43-8.45,2.44-1.07-1.34-2.36-2.5-3.91-3.32-1.19-.5-2.39-1.01-3.58-1.51-2.66-.71-5.32-.71-7.98,0-8.65,1.79-16.98,4.93-24.92,8.78-7.97,3.86-15.2,8.92-22.03,14.52-6.84,5.6-12.58,12.11-17.93,19.12-4.65,6.08-8.59,12.7-11.63,19.73-2.03,4.71-3.98,9.43-5.34,14.38-1.42,5.19-2.27,10.61-2.61,15.98-.33,5.33.22,10.86,1.48,16.03,1.25,5.09,3.47,10.21,6.63,14.41,2,2.67,4.01,5.25,6.49,7.49,2.41,2.18,5.03,4.16,7.7,6.01,3.63,2.52,7.52,4.63,11.43,6.66,6.21,3.22,12.62,6.15,19.15,8.71-47.37,46.34-97.32,90.06-148.93,131.35-122.68,98.12-256.1,182.81-394.78,256.4-158.95,84.34-325.61,153.05-496.79,208.3-51.85,16.73-104.13,32.42-156.74,47.04v30.81c14.32-3.9,28.63-7.88,42.9-11.95,186.51-53.15,369.08-120.72,543.27-206.19,144.57-70.94,283.8-153.53,413.32-249.33,81.43-60.24,159.38-125.74,231.13-197.37,2.36.36,4.74.68,7.12.94,10.42,1.16,20.67.63,31.02-.9,8.92-1.32,17.26-4.19,25.5-7.8,8.1-3.55,15.33-8.4,22.2-13.94,6.7-5.41,12.41-11.96,17.23-19.08.76-1.13,1.48-2.28,2.17-3.45.88,1.13,1.78,2.24,2.72,3.32,9.05,10.48,21.93,18.09,35.16,21.94,25.89,7.54,53.49-.57,73.36-18.1,5.94-5.24,10.89-11.36,14.92-18.06,3.15,1.27,6.37,2.33,9.63,3.06,7.99,1.8,16.35,2.18,24.31-.03,7.84-2.18,14.95-6.77,20.56-12.61,8.83-9.19,14.06-20.74,20.98-31.22.79,9.14.68,18.33,1.22,27.49.76,12.79,2.78,25.27,8.77,36.74,1.62,3.1,5.56,6.12,8.96,6.89,4.01.91,7.9.47,11.56-1.51,10.9-5.93,18.46-16.79,25.24-26.82,5.39-7.98,10.98-15.79,15.92-24.06,1.93-3.24,3.89-6.47,5.98-9.61,8.32,12.49,14.57,26.37,23.01,38.78,5.66,8.32,12.09,16.47,20.77,21.83,4.83,2.97,10.11,4.51,15.72,4.95,5.75.45,11.22-1.27,16.35-3.67,11.67-5.47,18.48-17.29,28.07-25.41-.57.39-1.13.8-1.68,1.22,1.01-.78,2.02-1.56,3.04-2.35-.46.36-.91.74-1.36,1.12,1.3-.9,2.66-1.7,4.07-2.42-.69.23-1.37.49-2.04.77,1.19-.5,2.39-1.01,3.58-1.51-.52.23-1.03.48-1.54.74,1.27-.43,2.56-.78,3.87-1.05-.69.05-1.39.11-2.08.2l3.99-.54c-.64.09-1.28.21-1.91.34,1.43-.1,2.87-.13,4.31-.09,7.85.23,15.36-7.06,15-15-.37-8.32-6.59-14.76-15-15Zm-910.69-180.96s-.07-.05-.19-.23c1.66-.34.08,1.62.19.23Zm-3.52-6.59c-.12-.26-.18-.42-.15-.41-1.42-.48,2.76-1.88.15.41Zm614.41,145.13c3.23,4.37,6.09,9.01,8.37,13.96.61,1.6,1.15,3.22,1.64,4.85-1.11-1.28-2.19-2.59-3.25-3.92-4.57-6.14-8.58-12.7-11.71-19.68-.18-.45-.35-.91-.51-1.37,1.93,1.96,3.75,4.02,5.47,6.16Zm-239.47,82.02c-3.8-2-7.54-4.13-11.03-6.64-1.32-1.13-2.56-2.34-3.71-3.65-.62-.94-1.18-1.91-1.7-2.91-.51-1.48-.91-2.99-1.21-4.53-.21-2.69-.16-5.39.09-8.08.85-4.93,2.29-9.73,4.11-14.38,2.77-6.2,6.22-12.07,10.25-17.53,4.42-5.48,9.42-10.47,14.91-14.9,5.5-4.07,11.41-7.55,17.64-10.38,4.16-1.66,8.42-3.02,12.78-4.06.34.44.7.87,1.09,1.28,12.89,13.54,31.02,21.2,49.56,22.22,1.88.1,3.75.09,5.61,0-22.36,25.78-45.58,50.83-69.53,75.18-5.7-1.61-11.3-3.57-16.78-5.81-4.1-1.79-8.13-3.73-12.09-5.82Zm103.45,1.17c-4.87,3.58-10.11,6.63-15.61,9.11-5.89,2.32-11.99,3.98-18.23,4.98-.97.11-1.93.21-2.9.29,19.46-20.35,38.41-41.19,56.79-62.52.24,1.04.45,2.09.63,3.15.37,3.81.38,7.64,0,11.45-.67,3.9-1.72,7.71-3.14,11.4-1.82,3.95-4.03,7.69-6.58,11.21-3.28,4.01-6.96,7.66-10.97,10.93Zm138.22-23.37c-3.01,3.7-6.39,7.07-10.09,10.08-3.59,2.57-7.41,4.8-11.42,6.64-3.96,1.52-8.05,2.65-12.24,3.37-3.89.38-7.79.39-11.68.02-3.74-.64-7.4-1.64-10.96-2.97-3.85-1.75-7.52-3.87-10.96-6.34-2.67-2.23-5.12-4.7-7.35-7.37-2.48-3.45-4.59-7.13-6.34-10.99-1.67-4.41-2.89-8.98-3.66-13.64-.53-5.08-.54-10.19-.01-15.27.73-4.35,1.86-8.62,3.42-12.74,1.66-3.64,3.67-7.1,6.01-10.35.12-.15.25-.29.38-.43,2.11-.22,4.11-.87,5.99-1.96,1.01-.78,2.02-1.56,3.04-2.35,1.39-1.4,2.46-2.99,3.21-4.77,1.97.04,3.82-.38,5.54-1.29,1.86-.6,3.47-1.64,4.83-3.1.84-.78,1.52-1.66,2.08-2.6,1.04-.67,2.11-1.3,3.22-1.85,1.5-.53,3.03-.95,4.59-1.27.56-.04,1.11-.06,1.67-.07.25,11.04,3.92,22.03,8.66,31.92,3.17,6.6,7.12,12.81,11.55,18.63,5.27,6.93,10.88,13.51,17.32,19.38,1.94,1.76,3.93,3.48,5.97,5.14-.87,1.42-1.78,2.81-2.75,4.17Z"/>
    </g>
    <g>
      <g>
        <path class="cls-3" d="m622.83,357.38v100.71h-2.86v-50.5h-62.8v50.5h-2.86v-100.71h2.86v47.64h62.8v-47.64h2.86Z"/>
        <path class="cls-3" d="m702.8,449.94c5.91-4.39,9.49-10.39,10.73-18.03h2.86c-1.34,8.11-5.13,14.66-11.37,19.67-6.25,5.01-14.28,7.51-24.1,7.51-7.15,0-13.54-1.57-19.17-4.72-5.63-3.15-10.04-7.73-13.23-13.73-3.2-6.01-4.79-13.06-4.79-21.17s1.6-15.16,4.79-21.17c3.19-6.01,7.6-10.59,13.23-13.73,5.63-3.15,12.02-4.72,19.17-4.72,7.53,0,13.97,1.6,19.31,4.79,5.34,3.2,9.37,7.32,12.09,12.37,2.72,5.06,4.08,10.4,4.08,16.02,0,3.43-.05,6.01-.14,7.72h-69.67c.09,7.92,1.74,14.54,4.94,19.88,3.19,5.34,7.37,9.32,12.52,11.95,5.15,2.62,10.78,3.93,16.88,3.93,8.68,0,15.97-2.19,21.89-6.58Zm-38.77-63.59c-5.15,2.62-9.32,6.61-12.52,11.95-3.2,5.34-4.84,11.97-4.94,19.88h67.24c.48-7.91-.79-14.54-3.79-19.88-3-5.34-7.11-9.32-12.3-11.95-5.2-2.62-10.8-3.93-16.81-3.93s-11.73,1.31-16.88,3.93Z"/>
        <path class="cls-3" d="m739.99,352.23v105.86h-2.86v-105.86h2.86Z"/>
        <path class="cls-3" d="m767.17,352.23v105.86h-2.86v-105.86h2.86Z"/>
        <path class="cls-3" d="m806.36,454.3c-5.72-3.19-10.23-7.77-13.52-13.73-3.29-5.96-4.94-12.99-4.94-21.1s1.65-15.14,4.94-21.1c3.29-5.96,7.8-10.54,13.52-13.73,5.72-3.19,12.16-4.79,19.31-4.79s13.59,1.6,19.31,4.79c5.72,3.2,10.2,7.77,13.45,13.73,3.24,5.96,4.86,13,4.86,21.1s-1.62,15.14-4.86,21.1c-3.24,5.96-7.72,10.54-13.45,13.73-5.72,3.2-12.16,4.79-19.31,4.79s-13.59-1.6-19.31-4.79Zm36.48-1.86c5.24-2.72,9.49-6.84,12.73-12.37,3.24-5.53,4.86-12.4,4.86-20.6s-1.62-15.07-4.86-20.6c-3.24-5.53-7.49-9.66-12.73-12.37-5.25-2.72-10.97-4.08-17.17-4.08s-11.95,1.36-17.24,4.08c-5.29,2.72-9.56,6.87-12.8,12.45-3.24,5.58-4.86,12.42-4.86,20.53s1.62,14.95,4.86,20.53c3.24,5.58,7.51,9.73,12.8,12.45,5.29,2.72,11.04,4.08,17.24,4.08s11.92-1.36,17.17-4.08Z"/>
        <path class="cls-3" d="m885.4,457.31c-.72-.71-1.07-1.64-1.07-2.79s.36-2.07,1.07-2.79c.71-.72,1.6-1.07,2.65-1.07s1.93.36,2.65,1.07c.72.72,1.07,1.65,1.07,2.79s-.36,2.07-1.07,2.79c-.71.72-1.6,1.07-2.65,1.07s-1.93-.36-2.65-1.07Zm4.08-99.92l-.43,78.25h-2.58l-.43-78.25h3.43Z"/>
      </g>
      <g>
        <path class="cls-3" d="m557.03,510.4v60.72h-1.73v-60.72h1.73Z"/>
        <path class="cls-3" d="m571.61,510.4h2.76l-5.87,16.56h-1.55l4.66-16.56Z"/>
        <path class="cls-3" d="m651.56,528.6c3.33,3.39,5,8.51,5,15.35v27.17h-1.64v-27.34c0-6.09-1.44-10.74-4.31-13.93-2.88-3.19-6.81-4.79-11.82-4.79s-9.46,1.85-12.68,5.56c-3.22,3.71-4.83,9.1-4.83,16.17v24.32h-1.64v-27.34c0-6.09-1.44-10.74-4.31-13.93-2.88-3.19-6.81-4.79-11.82-4.79-5.29,0-9.53,1.85-12.72,5.56-3.19,3.71-4.79,9.1-4.79,16.17v24.32h-1.73v-46.58h1.73v12.33c1.15-4.49,3.29-7.83,6.43-10.05,3.13-2.21,6.83-3.32,11.08-3.32s8.12,1.22,11.26,3.67c3.13,2.44,5.13,6.14,5.99,11.08,1.03-4.94,3.18-8.64,6.43-11.08,3.25-2.44,7.12-3.67,11.6-3.67,5.18,0,9.43,1.7,12.77,5.09Z"/>
        <path class="cls-3" d="m730.57,510.4l-18.8,35.28v25.44h-1.73v-25.44l-18.98-35.28h2.07l17.68,33.38,17.68-33.38h2.07Z"/>
        <path class="cls-3" d="m749.46,568.83c-3.45-1.93-6.17-4.69-8.15-8.28-1.98-3.59-2.98-7.83-2.98-12.72s.99-9.13,2.98-12.72c1.98-3.59,4.7-6.35,8.15-8.28,3.45-1.93,7.33-2.89,11.64-2.89s8.19.96,11.64,2.89c3.45,1.93,6.15,4.69,8.11,8.28,1.95,3.59,2.93,7.84,2.93,12.72s-.98,9.13-2.93,12.72c-1.96,3.59-4.66,6.35-8.11,8.28-3.45,1.93-7.33,2.89-11.64,2.89s-8.19-.96-11.64-2.89Zm21.99-1.12c3.16-1.64,5.72-4.13,7.68-7.46,1.95-3.33,2.93-7.47,2.93-12.42s-.98-9.08-2.93-12.42c-1.96-3.33-4.51-5.82-7.68-7.46-3.16-1.64-6.61-2.46-10.35-2.46s-7.2.82-10.39,2.46c-3.19,1.64-5.77,4.14-7.72,7.5-1.96,3.36-2.93,7.49-2.93,12.38s.98,9.01,2.93,12.38c1.95,3.36,4.53,5.87,7.72,7.5,3.19,1.64,6.65,2.46,10.39,2.46s7.19-.82,10.35-2.46Z"/>
        <path class="cls-3" d="m796.98,535.11c1.9-3.59,4.57-6.35,8.02-8.28,3.45-1.93,7.39-2.89,11.82-2.89,5.35,0,9.88,1.39,13.58,4.18,3.71,2.79,6.2,6.34,7.46,10.65v-14.23h1.64v46.58h-1.64v-14.23c-1.27,4.31-3.75,7.86-7.46,10.65-3.71,2.79-8.24,4.18-13.58,4.18-4.43,0-8.37-.96-11.82-2.89-3.45-1.93-6.12-4.69-8.02-8.28-1.9-3.59-2.85-7.83-2.85-12.72s.95-9.13,2.85-12.72Zm38.17,1.03c-1.81-3.36-4.31-5.98-7.5-7.85-3.19-1.87-6.8-2.8-10.82-2.8-4.26,0-7.95.89-11.08,2.67-3.13,1.78-5.56,4.36-7.29,7.72s-2.59,7.35-2.59,11.95.86,8.58,2.59,11.95,4.15,5.94,7.29,7.72c3.13,1.78,6.83,2.67,11.08,2.67,4.02,0,7.63-.93,10.82-2.8,3.19-1.87,5.69-4.49,7.5-7.85,1.81-3.36,2.72-7.26,2.72-11.69s-.91-8.32-2.72-11.69Z"/>
        <path class="cls-3" d="m887.64,528.6c3.51,3.39,5.26,8.51,5.26,15.35v27.17h-1.64v-27.34c0-6.09-1.52-10.74-4.57-13.93-3.05-3.19-7.22-4.79-12.51-4.79s-9.95,1.8-13.28,5.39c-3.34,3.59-5,8.9-5,15.91v24.75h-1.73v-46.58h1.73v12.25c1.09-4.31,3.28-7.6,6.55-9.88,3.28-2.27,7.19-3.41,11.73-3.41,5.46,0,9.95,1.7,13.46,5.09Z"/>
      </g>
      <g>
        <line class="cls-1" x1="560.43" y1="628.98" x2="1444.43" y2="628.98"/>
        <line class="cls-1" x1="558.43" y1="1083.98" x2="1442.43" y2="1083.98"/>
        <g>
          <g>
            <path class="cls-4" d="m633.48,747.81h55.33v74.51c-7.78,2.57-15.82,4.57-24.11,5.99-8.29,1.42-17.65,2.13-28.07,2.13-15.09,0-27.85-2.99-38.27-8.98-10.42-5.99-18.34-14.67-23.76-26.04-5.42-11.37-8.12-25.14-8.12-41.32s3.01-28.95,9.04-40.35c6.02-11.4,14.79-20.24,26.29-26.5,11.5-6.26,25.45-9.39,41.83-9.39,8.05,0,15.85.81,23.4,2.44,7.55,1.62,14.47,3.79,20.76,6.5l-8.63,20.1c-5.01-2.3-10.61-4.26-16.8-5.89-6.19-1.62-12.64-2.44-19.34-2.44-10.63,0-19.78,2.3-27.46,6.9-7.68,4.6-13.59,11.07-17.71,19.39-4.13,8.32-6.19,18.17-6.19,29.54s1.66,20.71,4.97,29.03c3.32,8.33,8.51,14.81,15.58,19.44,7.07,4.64,16.23,6.95,27.46,6.95,5.55,0,10.3-.3,14.26-.91,3.96-.61,7.6-1.28,10.91-2.03v-38.17h-31.37v-20.91Z"/>
            <path class="cls-4" d="m766.16,679.99c12.79,0,23.37,1.57,31.72,4.72,8.36,3.15,14.58,7.9,18.68,14.26,4.09,6.36,6.14,14.42,6.14,24.16,0,7.31-1.35,13.55-4.06,18.73-2.71,5.18-6.26,9.46-10.66,12.84-4.4,3.39-9.1,6.06-14.11,8.02l42.13,65.68h-27.51l-35.94-59.39h-23.76v59.39h-24.36v-148.42h41.72Zm-1.62,20.41h-15.74v48.42h16.85c11.23,0,19.41-2.1,24.52-6.29,5.11-4.2,7.66-10.39,7.66-18.58s-2.73-14.58-8.17-18.17c-5.45-3.59-13.82-5.38-25.13-5.38Z"/>
            <path class="cls-4" d="m949.2,828.41l-14.52-41.22h-56.75l-14.52,41.22h-25.68l55.23-149.03h27l55.12,149.03h-25.89Zm-20.81-62.03l-14.11-40.71c-.54-1.76-1.32-4.23-2.33-7.41-1.02-3.18-2.03-6.46-3.05-9.85-1.01-3.38-1.86-6.23-2.54-8.53-.68,2.78-1.51,5.87-2.49,9.29-.98,3.42-1.93,6.63-2.84,9.64-.91,3.01-1.61,5.3-2.08,6.85l-14.21,40.71h43.65Z"/>
            <path class="cls-4" d="m1037.82,679.99c19.15,0,33.13,3.93,41.93,11.78,8.8,7.85,13.2,18.88,13.2,33.1,0,6.36-1,12.44-2.99,18.22-2,5.79-5.26,10.91-9.8,15.38-4.54,4.47-10.51,7.99-17.92,10.56-7.41,2.57-16.53,3.86-27.36,3.86h-15.84v55.53h-24.36v-148.42h43.15Zm-1.62,20.3h-17.16v52.18h13.3c7.65,0,14.13-.9,19.44-2.69,5.31-1.79,9.36-4.65,12.13-8.58,2.77-3.92,4.16-9.07,4.16-15.43,0-8.59-2.59-14.99-7.77-19.19-5.18-4.2-13.21-6.29-24.11-6.29Z"/>
            <path class="cls-4" d="m1239.54,828.41h-24.36v-67h-68.32v67h-24.36v-148.42h24.36v60.71h68.32v-60.71h24.36v148.42Z"/>
            <path class="cls-4" d="m1278.73,828.41v-148.42h24.36v148.42h-24.36Z"/>
            <path class="cls-4" d="m1405.43,698.57c-7.11,0-13.45,1.29-19.03,3.86-5.58,2.57-10.3,6.29-14.16,11.17s-6.8,10.75-8.83,17.61c-2.03,6.87-3.04,14.6-3.04,23.2,0,11.44,1.62,21.3,4.87,29.59,3.25,8.29,8.19,14.65,14.82,19.09,6.63,4.43,14.99,6.65,25.08,6.65,6.36,0,12.52-.61,18.48-1.83,5.95-1.22,12.11-2.88,18.48-4.97v20.71c-6.02,2.37-12.12,4.1-18.27,5.18-6.16,1.08-13.27,1.62-21.32,1.62-15.23,0-27.83-3.15-37.82-9.44-9.98-6.29-17.41-15.16-22.28-26.6-4.87-11.44-7.31-24.84-7.31-40.2,0-11.23,1.54-21.5,4.62-30.81,3.08-9.3,7.61-17.36,13.6-24.16,5.99-6.8,13.35-12.06,22.08-15.79,8.73-3.72,18.78-5.58,30.15-5.58,7.44,0,14.75.85,21.93,2.54,7.17,1.69,13.87,4.03,20.1,7.01l-8.53,20.1c-5.14-2.37-10.54-4.45-16.19-6.24-5.65-1.79-11.46-2.69-17.41-2.69Z"/>
          </g>
          <g>
            <path class="cls-4" d="m679.5,965.2c0,14.81-2.76,27.17-8.27,37.09-5.52,9.92-13.52,17.38-24.01,22.39-10.49,5.01-23.14,7.51-37.95,7.51h-36.51v-131.46h40.46c13.61,0,25.36,2.44,35.25,7.33,9.89,4.89,17.53,12.11,22.93,21.67,5.4,9.56,8.09,21.39,8.09,35.47Zm-22.57.63c0-10.73-1.69-19.59-5.08-26.57-3.39-6.98-8.36-12.15-14.93-15.51-6.56-3.36-14.61-5.04-24.14-5.04h-18.43v95.4h15.29c15.83,0,27.66-4.05,35.52-12.14,7.85-8.09,11.78-20.14,11.78-36.15Z"/>
            <path class="cls-4" d="m782.19,1032.19h-74.45v-131.46h74.45v18.16h-52.87v35.7h49.55v18.07h-49.55v41.27h52.87v18.25Z"/>
            <path class="cls-4" d="m886.4,996.4c0,7.79-1.9,14.51-5.71,20.14-3.81,5.64-9.26,9.95-16.37,12.95-7.1,3-15.57,4.5-25.4,4.5-4.8,0-9.38-.27-13.76-.81-4.38-.54-8.5-1.33-12.36-2.38-3.87-1.05-7.42-2.32-10.66-3.82v-20.32c5.4,2.34,11.39,4.45,17.98,6.34,6.59,1.89,13.31,2.83,20.14,2.83,5.57,0,10.19-.73,13.85-2.2,3.66-1.47,6.4-3.57,8.23-6.29,1.83-2.73,2.74-5.92,2.74-9.58,0-3.9-1.05-7.18-3.15-9.85-2.1-2.67-5.26-5.14-9.49-7.42-4.23-2.28-9.55-4.7-15.96-7.28-4.32-1.68-8.42-3.63-12.32-5.84-3.9-2.22-7.37-4.82-10.43-7.82-3.06-3-5.48-6.56-7.28-10.7-1.8-4.14-2.7-8.96-2.7-14.48,0-7.43,1.8-13.8,5.4-19.11,3.6-5.31,8.65-9.37,15.15-12.18,6.5-2.82,14.1-4.23,22.79-4.23,6.89,0,13.38.74,19.47,2.2,6.08,1.47,12.06,3.49,17.94,6.07l-6.83,17.44c-5.46-2.22-10.7-4-15.74-5.35-5.04-1.35-10.19-2.02-15.47-2.02-4.56,0-8.42.69-11.6,2.07-3.18,1.38-5.59,3.33-7.24,5.84-1.65,2.52-2.47,5.46-2.47,8.81,0,3.9.94,7.13,2.83,9.71,1.89,2.58,4.82,4.95,8.81,7.1,3.99,2.16,9.13,4.56,15.42,7.19,7.25,3,13.41,6.15,18.48,9.44,5.06,3.3,8.95,7.24,11.64,11.82,2.7,4.59,4.05,10.33,4.05,17.22Z"/>
            <path class="cls-4" d="m911.76,1032.19v-131.46h21.58v131.46h-21.58Z"/>
            <path class="cls-4" d="m1021.01,960.8h49.01v66c-6.89,2.28-14.01,4.05-21.36,5.31-7.34,1.26-15.63,1.89-24.86,1.89-13.37,0-24.67-2.65-33.9-7.96-9.23-5.31-16.25-12.99-21.04-23.06-4.8-10.07-7.19-22.27-7.19-36.6s2.67-25.64,8-35.74c5.33-10.1,13.1-17.92,23.29-23.47,10.19-5.54,22.54-8.32,37.05-8.32,7.13,0,14.04.72,20.73,2.16,6.68,1.44,12.81,3.36,18.39,5.75l-7.64,17.8c-4.44-2.04-9.4-3.78-14.88-5.22-5.48-1.44-11.19-2.16-17.13-2.16-9.41,0-17.52,2.04-24.32,6.11-6.8,4.08-12.03,9.8-15.69,17.17-3.66,7.37-5.49,16.1-5.49,26.17s1.47,18.34,4.41,25.72c2.94,7.37,7.54,13.11,13.8,17.22,6.26,4.11,14.37,6.16,24.32,6.16,4.91,0,9.13-.27,12.63-.81,3.51-.54,6.73-1.14,9.67-1.8v-33.81h-27.78v-18.52Z"/>
            <path class="cls-4" d="m1211.28,1032.19h-26.53l-64.38-104.93h-.81c.24,3.54.46,7.3.67,11.28.21,3.99.39,8.08.54,12.27.15,4.2.28,8.42.4,12.68v68.7h-19.6v-131.46h26.35l64.29,104.21h.63c-.12-3.06-.27-6.56-.45-10.52s-.35-8.05-.49-12.27c-.15-4.23-.26-8.32-.31-12.27v-69.15h19.69v131.46Z"/>
            <path class="cls-4" d="m1320.26,1032.19h-74.45v-131.46h74.45v18.16h-52.87v35.7h49.55v18.07h-49.55v41.27h52.87v18.25Z"/>
            <path class="cls-4" d="m1385.54,900.73c11.33,0,20.7,1.39,28.1,4.18,7.4,2.79,12.92,7,16.54,12.63,3.63,5.64,5.44,12.77,5.44,21.4,0,6.47-1.2,12-3.6,16.59-2.4,4.59-5.55,8.38-9.44,11.37-3.9,3-8.06,5.37-12.5,7.1l37.32,58.18h-24.37l-31.83-52.6h-21.04v52.6h-21.58v-131.46h36.96Zm-1.44,18.07h-13.94v42.89h14.93c9.95,0,17.19-1.86,21.72-5.57,4.53-3.72,6.79-9.2,6.79-16.45s-2.41-12.92-7.24-16.1c-4.83-3.18-12.24-4.77-22.25-4.77Z"/>
          </g>
          <g>
            <path class="cls-3" d="m621.31,748.91h55.33v74.51c-7.78,2.57-15.82,4.57-24.11,5.99-8.29,1.42-17.65,2.13-28.07,2.13-15.09,0-27.85-2.99-38.27-8.98-10.42-5.99-18.34-14.67-23.76-26.04-5.42-11.37-8.12-25.14-8.12-41.32s3.01-28.95,9.04-40.35c6.02-11.4,14.79-20.24,26.29-26.5,11.5-6.26,25.45-9.39,41.83-9.39,8.05,0,15.85.81,23.4,2.44,7.55,1.62,14.47,3.79,20.76,6.5l-8.63,20.1c-5.01-2.3-10.61-4.26-16.8-5.89-6.19-1.62-12.64-2.44-19.34-2.44-10.63,0-19.78,2.3-27.46,6.9-7.68,4.6-13.59,11.07-17.71,19.39-4.13,8.32-6.19,18.17-6.19,29.54s1.66,20.71,4.97,29.03c3.32,8.33,8.51,14.81,15.58,19.44,7.07,4.64,16.23,6.95,27.46,6.95,5.55,0,10.3-.3,14.26-.91,3.96-.61,7.6-1.28,10.91-2.03v-38.17h-31.37v-20.91Z"/>
            <path class="cls-3" d="m753.99,681.1c12.79,0,23.37,1.57,31.72,4.72,8.36,3.15,14.58,7.9,18.68,14.26,4.09,6.36,6.14,14.42,6.14,24.16,0,7.31-1.35,13.55-4.06,18.73-2.71,5.18-6.26,9.46-10.66,12.84-4.4,3.39-9.1,6.06-14.11,8.02l42.13,65.68h-27.51l-35.94-59.39h-23.76v59.39h-24.36v-148.42h41.72Zm-1.62,20.41h-15.74v48.42h16.85c11.23,0,19.41-2.1,24.52-6.29,5.11-4.2,7.66-10.39,7.66-18.58s-2.73-14.58-8.17-18.17c-5.45-3.59-13.82-5.38-25.13-5.38Z"/>
            <path class="cls-3" d="m937.03,829.52l-14.52-41.22h-56.75l-14.52,41.22h-25.68l55.23-149.03h27l55.12,149.03h-25.89Zm-20.81-62.03l-14.11-40.71c-.54-1.76-1.32-4.23-2.33-7.41-1.02-3.18-2.03-6.46-3.05-9.85-1.01-3.38-1.86-6.23-2.54-8.53-.68,2.78-1.51,5.87-2.49,9.29-.98,3.42-1.93,6.63-2.84,9.64-.91,3.01-1.61,5.3-2.08,6.85l-14.21,40.71h43.65Z"/>
            <path class="cls-3" d="m1025.66,681.1c19.15,0,33.13,3.93,41.93,11.78,8.8,7.85,13.2,18.88,13.2,33.1,0,6.36-1,12.44-2.99,18.22-2,5.79-5.26,10.91-9.8,15.38-4.54,4.47-10.51,7.99-17.92,10.56-7.41,2.57-16.53,3.86-27.36,3.86h-15.84v55.53h-24.36v-148.42h43.15Zm-1.62,20.3h-17.16v52.18h13.3c7.65,0,14.13-.9,19.44-2.69,5.31-1.79,9.36-4.65,12.13-8.58,2.77-3.92,4.16-9.07,4.16-15.43,0-8.59-2.59-14.99-7.77-19.19-5.18-4.2-13.21-6.29-24.11-6.29Z"/>
            <path class="cls-3" d="m1227.38,829.52h-24.36v-67h-68.32v67h-24.36v-148.42h24.36v60.71h68.32v-60.71h24.36v148.42Z"/>
            <path class="cls-3" d="m1266.56,829.52v-148.42h24.36v148.42h-24.36Z"/>
            <path class="cls-3" d="m1393.26,699.68c-7.11,0-13.45,1.29-19.03,3.86-5.58,2.57-10.3,6.29-14.16,11.17s-6.8,10.75-8.83,17.61c-2.03,6.87-3.04,14.6-3.04,23.2,0,11.44,1.62,21.3,4.87,29.59,3.25,8.29,8.19,14.65,14.82,19.09,6.63,4.43,14.99,6.65,25.08,6.65,6.36,0,12.52-.61,18.48-1.83,5.95-1.22,12.11-2.88,18.48-4.97v20.71c-6.02,2.37-12.12,4.1-18.27,5.18-6.16,1.08-13.27,1.62-21.32,1.62-15.23,0-27.83-3.15-37.82-9.44-9.98-6.29-17.41-15.16-22.28-26.6-4.87-11.44-7.31-24.84-7.31-40.2,0-11.23,1.54-21.5,4.62-30.81,3.08-9.3,7.61-17.36,13.6-24.16,5.99-6.8,13.35-12.06,22.08-15.79,8.73-3.72,18.78-5.58,30.15-5.58,7.44,0,14.75.85,21.93,2.54,7.17,1.69,13.87,4.03,20.1,7.01l-8.53,20.1c-5.14-2.37-10.54-4.45-16.19-6.24-5.65-1.79-11.46-2.69-17.41-2.69Z"/>
          </g>
          <g>
            <path class="cls-3" d="m667.33,966.31c0,14.81-2.76,27.17-8.27,37.09-5.52,9.92-13.52,17.38-24.01,22.39-10.49,5.01-23.14,7.51-37.95,7.51h-36.51v-131.46h40.46c13.61,0,25.36,2.44,35.25,7.33,9.89,4.89,17.53,12.11,22.93,21.67,5.4,9.56,8.09,21.39,8.09,35.47Zm-22.57.63c0-10.73-1.69-19.59-5.08-26.57-3.39-6.98-8.36-12.15-14.93-15.51-6.56-3.36-14.61-5.04-24.14-5.04h-18.43v95.4h15.29c15.83,0,27.66-4.05,35.52-12.14,7.85-8.09,11.78-20.14,11.78-36.15Z"/>
            <path class="cls-3" d="m770.02,1033.3h-74.45v-131.46h74.45v18.16h-52.87v35.7h49.55v18.07h-49.55v41.27h52.87v18.25Z"/>
            <path class="cls-3" d="m874.24,997.51c0,7.79-1.9,14.51-5.71,20.14-3.81,5.64-9.26,9.95-16.37,12.95-7.1,3-15.57,4.5-25.4,4.5-4.8,0-9.38-.27-13.76-.81-4.38-.54-8.5-1.33-12.36-2.38-3.87-1.05-7.42-2.32-10.66-3.82v-20.32c5.4,2.34,11.39,4.45,17.98,6.34,6.59,1.89,13.31,2.83,20.14,2.83,5.57,0,10.19-.73,13.85-2.2,3.66-1.47,6.4-3.57,8.23-6.29,1.83-2.73,2.74-5.92,2.74-9.58,0-3.9-1.05-7.18-3.15-9.85-2.1-2.67-5.26-5.14-9.49-7.42-4.23-2.28-9.55-4.7-15.96-7.28-4.32-1.68-8.42-3.63-12.32-5.84-3.9-2.22-7.37-4.82-10.43-7.82-3.06-3-5.48-6.56-7.28-10.7-1.8-4.14-2.7-8.96-2.7-14.48,0-7.43,1.8-13.8,5.4-19.11,3.6-5.31,8.65-9.37,15.15-12.18,6.5-2.82,14.1-4.23,22.79-4.23,6.89,0,13.38.74,19.47,2.2,6.08,1.47,12.06,3.49,17.94,6.07l-6.83,17.44c-5.46-2.22-10.7-4-15.74-5.35-5.04-1.35-10.19-2.02-15.47-2.02-4.56,0-8.42.69-11.6,2.07-3.18,1.38-5.59,3.33-7.24,5.84-1.65,2.52-2.47,5.46-2.47,8.81,0,3.9.94,7.13,2.83,9.71,1.89,2.58,4.82,4.95,8.81,7.1,3.99,2.16,9.13,4.56,15.42,7.19,7.25,3,13.41,6.15,18.48,9.44,5.06,3.3,8.95,7.24,11.64,11.82,2.7,4.59,4.05,10.33,4.05,17.22Z"/>
            <path class="cls-3" d="m899.59,1033.3v-131.46h21.58v131.46h-21.58Z"/>
            <path class="cls-3" d="m1008.84,961.9h49.01v66c-6.89,2.28-14.01,4.05-21.36,5.31-7.34,1.26-15.63,1.89-24.86,1.89-13.37,0-24.67-2.65-33.9-7.96-9.23-5.31-16.25-12.99-21.04-23.06-4.8-10.07-7.19-22.27-7.19-36.6s2.67-25.64,8-35.74c5.33-10.1,13.1-17.92,23.29-23.47,10.19-5.54,22.54-8.32,37.05-8.32,7.13,0,14.04.72,20.73,2.16,6.68,1.44,12.81,3.36,18.39,5.75l-7.64,17.8c-4.44-2.04-9.4-3.78-14.88-5.22-5.48-1.44-11.19-2.16-17.13-2.16-9.41,0-17.52,2.04-24.32,6.11-6.8,4.08-12.03,9.8-15.69,17.17-3.66,7.37-5.49,16.1-5.49,26.17s1.47,18.34,4.41,25.72c2.94,7.37,7.54,13.11,13.8,17.22,6.26,4.11,14.37,6.16,24.32,6.16,4.91,0,9.13-.27,12.63-.81,3.51-.54,6.73-1.14,9.67-1.8v-33.81h-27.78v-18.52Z"/>
            <path class="cls-3" d="m1199.11,1033.3h-26.53l-64.38-104.93h-.81c.24,3.54.46,7.3.67,11.28.21,3.99.39,8.08.54,12.27.15,4.2.28,8.42.4,12.68v68.7h-19.6v-131.46h26.35l64.29,104.21h.63c-.12-3.06-.27-6.56-.45-10.52s-.35-8.05-.49-12.27c-.15-4.23-.26-8.32-.31-12.27v-69.15h19.69v131.46Z"/>
            <path class="cls-3" d="m1308.09,1033.3h-74.45v-131.46h74.45v18.16h-52.87v35.7h49.55v18.07h-49.55v41.27h52.87v18.25Z"/>
            <path class="cls-3" d="m1373.37,901.84c11.33,0,20.7,1.39,28.1,4.18,7.4,2.79,12.92,7,16.54,12.63,3.63,5.64,5.44,12.77,5.44,21.4,0,6.47-1.2,12-3.6,16.59-2.4,4.59-5.55,8.38-9.44,11.37-3.9,3-8.06,5.37-12.5,7.1l37.32,58.18h-24.37l-31.83-52.6h-21.04v52.6h-21.58v-131.46h36.96Zm-1.44,18.07h-13.94v42.89h14.93c9.95,0,17.19-1.86,21.72-5.57,4.53-3.72,6.79-9.2,6.79-16.45s-2.41-12.92-7.24-16.1c-4.83-3.18-12.24-4.77-22.25-4.77Z"/>
          </g>
        </g>
      </g>
    </g>
  </g>
</svg>