<?xml version="1.0" encoding="UTF-8"?>
<svg id="Layer_2" data-name="Layer 2" xmlns="http://www.w3.org/2000/svg" viewBox="0 0 886.51 450.55">
  <defs>
    <style>
      .cls-1 {
        fill: #fff;
      }

      .cls-1, .cls-2, .cls-3 {
        stroke-width: 0px;
      }

      .cls-2 {
        fill: #c44260;
      }

      .cls-3 {
        fill: #bb274a;
      }
    </style>
  </defs>
  <g id="Layer_1-2" data-name="Layer 1">
    <g>
      <g>
        <g>
          <path class="cls-1" d="m285.41,86.79v35.67h-5.85v-15.6h-16.78v15.6h-5.85v-35.67h5.85v15.29h16.78v-15.29h5.85Z"/>
          <path class="cls-1" d="m318.83,110.51h-21.61c.17,2.26,1.01,4.07,2.52,5.44,1.51,1.37,3.35,2.05,5.54,2.05,3.15,0,5.37-1.32,6.67-3.95h6.31c-.86,2.6-2.4,4.73-4.65,6.39-2.24,1.66-5.02,2.49-8.34,2.49-2.7,0-5.12-.61-7.26-1.82-2.14-1.21-3.82-2.93-5.03-5.13-1.22-2.21-1.82-4.76-1.82-7.67s.59-5.47,1.77-7.67c1.18-2.21,2.84-3.91,4.98-5.11,2.14-1.2,4.59-1.8,7.37-1.8s5.05.58,7.13,1.75c2.09,1.16,3.71,2.8,4.88,4.9,1.16,2.1,1.74,4.53,1.74,7.26,0,1.06-.07,2.02-.21,2.87Zm-5.9-4.72c-.03-2.16-.8-3.88-2.31-5.18-1.51-1.3-3.37-1.95-5.59-1.95-2.02,0-3.75.64-5.18,1.92-1.44,1.28-2.29,3.02-2.57,5.21h15.65Z"/>
          <path class="cls-1" d="m330.63,84.48v37.98h-5.85v-37.98h5.85Z"/>
          <path class="cls-1" d="m344.18,84.48v37.98h-5.85v-37.98h5.85Z"/>
          <path class="cls-1" d="m356.91,121.1c-2.16-1.21-3.85-2.93-5.08-5.13-1.23-2.21-1.85-4.76-1.85-7.67s.63-5.42,1.9-7.65c1.27-2.22,2.99-3.93,5.18-5.13,2.19-1.2,4.64-1.8,7.34-1.8s5.15.6,7.34,1.8c2.19,1.2,3.92,2.91,5.18,5.13,1.27,2.22,1.9,4.77,1.9,7.65s-.65,5.42-1.95,7.65c-1.3,2.22-3.07,3.94-5.31,5.16-2.24,1.21-4.71,1.82-7.42,1.82s-5.08-.61-7.24-1.82Zm11.47-4.34c1.32-.72,2.39-1.8,3.21-3.23.82-1.44,1.23-3.18,1.23-5.23s-.39-3.79-1.18-5.21c-.79-1.42-1.83-2.49-3.13-3.21-1.3-.72-2.7-1.08-4.21-1.08s-2.9.36-4.18,1.08c-1.28.72-2.3,1.79-3.05,3.21-.75,1.42-1.13,3.16-1.13,5.21,0,3.05.78,5.4,2.34,7.06,1.56,1.66,3.52,2.49,5.88,2.49,1.51,0,2.92-.36,4.23-1.08Z"/>
          <path class="cls-1" d="m386.37,121.75c-.72-.72-1.08-1.61-1.08-2.67s.36-1.95,1.08-2.67c.72-.72,1.61-1.08,2.67-1.08s1.9.36,2.62,1.08,1.08,1.61,1.08,2.67-.36,1.95-1.08,2.67-1.59,1.08-2.62,1.08-1.95-.36-2.67-1.08Zm5.59-34.95l-.67,24.89h-4.88l-.67-24.89h6.21Z"/>
          <path class="cls-1" d="m262.78,148.38v35.67h-5.85v-35.67h5.85Z"/>
          <path class="cls-1" d="m271.4,148.38h6.36l-5.39,12.22h-4.11l3.13-12.22Z"/>
          <path class="cls-1" d="m323.11,156.7c1.76.92,3.15,2.29,4.16,4.11,1.01,1.81,1.51,4,1.51,6.57v16.68h-5.8v-15.81c0-2.53-.63-4.47-1.9-5.83-1.27-1.35-2.99-2.03-5.18-2.03s-3.93.68-5.21,2.03-1.92,3.29-1.92,5.83v15.81h-5.8v-15.81c0-2.53-.63-4.47-1.9-5.83s-2.99-2.03-5.18-2.03-3.93.68-5.21,2.03-1.92,3.29-1.92,5.83v15.81h-5.85v-28.28h5.85v3.23c.96-1.16,2.17-2.07,3.64-2.72,1.47-.65,3.05-.98,4.72-.98,2.26,0,4.28.48,6.06,1.44,1.78.96,3.15,2.34,4.11,4.16.85-1.71,2.19-3.07,4-4.08,1.81-1.01,3.76-1.51,5.85-1.51,2.22,0,4.22.46,5.98,1.39Z"/>
          <path class="cls-1" d="m376,148.38l-11.8,22.74v12.93h-5.85v-12.93l-11.86-22.74h6.52l8.26,17.5,8.26-17.5h6.47Z"/>
          <path class="cls-1" d="m385.65,182.69c-2.16-1.21-3.85-2.93-5.08-5.13s-1.85-4.76-1.85-7.67.63-5.42,1.9-7.65c1.27-2.22,2.99-3.93,5.18-5.13,2.19-1.2,4.64-1.8,7.34-1.8s5.15.6,7.34,1.8c2.19,1.2,3.92,2.91,5.18,5.13,1.27,2.22,1.9,4.77,1.9,7.65s-.65,5.42-1.95,7.65c-1.3,2.22-3.07,3.94-5.31,5.16-2.24,1.21-4.71,1.82-7.42,1.82s-5.08-.61-7.24-1.82Zm11.47-4.34c1.32-.72,2.39-1.8,3.21-3.23.82-1.44,1.23-3.18,1.23-5.23s-.39-3.79-1.18-5.21c-.79-1.42-1.83-2.49-3.13-3.21-1.3-.72-2.7-1.08-4.21-1.08s-2.9.36-4.18,1.08c-1.28.72-2.3,1.79-3.05,3.21-.75,1.42-1.13,3.16-1.13,5.21,0,3.05.78,5.4,2.34,7.06,1.56,1.66,3.52,2.49,5.88,2.49,1.51,0,2.92-.36,4.23-1.08Z"/>
          <path class="cls-1" d="m413.19,162.24c1.18-2.19,2.79-3.89,4.82-5.11,2.04-1.21,4.29-1.82,6.75-1.82,2.22,0,4.17.44,5.83,1.31,1.66.87,2.99,1.96,3.98,3.26v-4.11h5.9v28.28h-5.9v-4.21c-.99,1.33-2.34,2.45-4.05,3.34-1.71.89-3.66,1.33-5.85,1.33-2.43,0-4.65-.62-6.67-1.87-2.02-1.25-3.62-2.99-4.8-5.24-1.18-2.24-1.77-4.78-1.77-7.62s.59-5.35,1.77-7.55Zm20.17,2.57c-.8-1.44-1.86-2.53-3.16-3.28-1.3-.75-2.7-1.13-4.21-1.13s-2.91.37-4.21,1.1c-1.3.74-2.35,1.81-3.16,3.23-.8,1.42-1.21,3.1-1.21,5.06s.4,3.66,1.21,5.13c.8,1.47,1.86,2.59,3.18,3.36,1.32.77,2.71,1.16,4.18,1.16s2.91-.38,4.21-1.13c1.3-.75,2.35-1.86,3.16-3.31.8-1.45,1.21-3.16,1.21-5.11s-.4-3.64-1.21-5.08Z"/>
          <path class="cls-1" d="m468.41,156.7c1.76.92,3.14,2.29,4.13,4.11.99,1.81,1.49,4,1.49,6.57v16.68h-5.8v-15.81c0-2.53-.63-4.47-1.9-5.83s-2.99-2.03-5.18-2.03-3.93.68-5.21,2.03-1.92,3.29-1.92,5.83v15.81h-5.85v-28.28h5.85v3.23c.96-1.16,2.18-2.07,3.67-2.72,1.49-.65,3.07-.98,4.75-.98,2.22,0,4.22.46,5.98,1.39Z"/>
        </g>
        <g>
          <g>
            <path class="cls-3" d="m308.91,227.77c-1.72-4.52-4.57-8.13-8.55-10.83-3.98-2.69-8.69-4.04-14.13-4.04-4.76,0-9.05,1.12-12.89,3.35-3.84,2.23-6.87,5.41-9.11,9.54s-3.35,8.94-3.35,14.44,1.12,10.31,3.35,14.44,5.27,7.29,9.11,9.49c3.84,2.2,8.13,3.31,12.89,3.31s8.74-1.03,12.46-3.09c3.72-2.06,6.7-5,8.94-8.81s3.46-8.26,3.69-13.36h-26.89v-3.27h30.85v2.58c-.17,5.61-1.52,10.65-4.04,15.12-2.52,4.47-5.96,7.96-10.31,10.48-4.35,2.52-9.25,3.78-14.69,3.78s-10.57-1.3-15.04-3.91c-4.47-2.61-7.96-6.24-10.48-10.91-2.52-4.67-3.78-9.95-3.78-15.85s1.26-11.27,3.78-15.94c2.52-4.67,6.02-8.31,10.48-10.91,4.47-2.61,9.48-3.91,15.04-3.91,6.47,0,12.07,1.62,16.8,4.85,4.73,3.24,8.18,7.72,10.35,13.45h-4.47Z"/>
            <path class="cls-3" d="m359.52,270.31l-15.47-25.69h-13.23v25.69h-3.87v-60.32h16.58c6.7,0,11.73,1.58,15.08,4.73,3.35,3.15,5.03,7.33,5.03,12.55,0,4.64-1.3,8.46-3.91,11.47-2.61,3.01-6.4,4.85-11.38,5.54l15.81,26.03h-4.64Zm-28.7-28.96h12.89c5.33,0,9.31-1.29,11.94-3.87s3.95-5.99,3.95-10.22c0-9.22-5.36-13.83-16.07-13.83h-12.72v27.93Z"/>
            <path class="cls-3" d="m409.36,254.84h-28.61l-5.76,15.47h-4.21l22.17-58.94h4.3l22.08,58.94h-4.21l-5.76-15.47Zm-1.2-3.27l-13.06-35.14-13.15,35.14h26.21Z"/>
            <path class="cls-3" d="m460.57,239.42c-3.32,2.95-8.25,4.43-14.78,4.43h-12.89v26.46h-3.87v-60.32h16.75c6.64,0,11.6,1.53,14.87,4.6,3.27,3.07,4.9,7.2,4.9,12.42s-1.66,9.47-4.98,12.42Zm1.12-12.42c0-4.41-1.26-7.78-3.78-10.1-2.52-2.32-6.56-3.48-12.12-3.48h-12.89v26.98h12.89c10.6,0,15.9-4.47,15.9-13.4Z"/>
            <path class="cls-3" d="m518.91,209.99v60.32h-3.87v-29.21h-35.23v29.21h-3.87v-60.32h3.87v27.84h35.23v-27.84h3.87Z"/>
            <path class="cls-3" d="m536.95,209.99v60.32h-3.87v-60.32h3.87Z"/>
            <path class="cls-3" d="m552.46,224.29c2.49-4.67,5.93-8.32,10.31-10.95,4.38-2.63,9.29-3.95,14.74-3.95,6.87,0,12.66,1.6,17.36,4.81,4.7,3.21,8.13,7.7,10.31,13.49h-4.47c-1.72-4.58-4.57-8.21-8.55-10.87-3.98-2.66-8.87-4-14.65-4-4.64,0-8.85,1.1-12.63,3.31-3.78,2.21-6.76,5.39-8.94,9.54-2.18,4.15-3.27,9.01-3.27,14.56s1.09,10.3,3.27,14.39c2.18,4.1,5.16,7.26,8.94,9.49,3.78,2.23,7.99,3.35,12.63,3.35,5.79,0,10.67-1.33,14.65-4,3.98-2.66,6.83-6.29,8.55-10.87h4.47c-2.18,5.79-5.61,10.28-10.31,13.49-4.7,3.21-10.48,4.81-17.36,4.81-5.44,0-10.35-1.3-14.74-3.91-4.38-2.61-7.82-6.24-10.31-10.91-2.49-4.67-3.74-9.95-3.74-15.85s1.25-11.27,3.74-15.94Z"/>
          </g>
          <g>
            <path class="cls-3" d="m297.44,313.14c5.53,5.33,8.29,12.75,8.29,22.25s-2.76,16.9-8.29,22.17c-5.53,5.27-13.39,7.91-23.59,7.91h-16.93v-60.32h16.93c10.2,0,18.06,2.66,23.59,7.99Zm-2.79,41.97c4.75-4.73,7.13-11.3,7.13-19.72s-2.38-15.09-7.13-19.85c-4.75-4.75-11.69-7.13-20.79-7.13h-13.06v53.79h13.06c9.11,0,16.04-2.36,20.79-7.09Z"/>
            <path class="cls-3" d="m321.29,308.41v25.18h24.06v3.27h-24.06v25.35h26.64v3.27h-30.5v-60.32h30.5v3.27h-26.64Z"/>
            <path class="cls-3" d="m366.83,364c-2.92-1.37-5.2-3.24-6.83-5.58-1.63-2.35-2.56-4.95-2.79-7.82h4.04c.46,3.15,1.93,5.96,4.43,8.42,2.49,2.46,6.29,3.69,11.38,3.69,2.98,0,5.57-.54,7.78-1.63,2.2-1.09,3.91-2.58,5.11-4.47,1.2-1.89,1.8-3.98,1.8-6.27,0-2.92-.7-5.24-2.11-6.96-1.4-1.72-3.15-3.01-5.24-3.87-2.09-.86-4.91-1.78-8.46-2.75-3.9-1.03-7.03-2.06-9.41-3.09-2.38-1.03-4.38-2.62-6.01-4.77s-2.45-5.08-2.45-8.81c0-2.86.76-5.48,2.28-7.86,1.52-2.38,3.68-4.25,6.49-5.63,2.81-1.37,6.04-2.06,9.71-2.06,5.33,0,9.62,1.32,12.89,3.95,3.27,2.64,5.21,5.87,5.84,9.71h-4.12c-.34-1.55-1.1-3.12-2.28-4.73-1.17-1.6-2.84-2.93-4.98-4-2.15-1.06-4.71-1.59-7.69-1.59-4.01,0-7.39,1.1-10.14,3.31-2.75,2.21-4.12,5.14-4.12,8.81,0,2.92.72,5.26,2.15,7,1.43,1.75,3.19,3.07,5.28,3.95,2.09.89,4.91,1.79,8.46,2.71,3.95,1.09,7.09,2.13,9.41,3.14,2.32,1,4.3,2.58,5.93,4.73s2.45,5.06,2.45,8.72c0,2.69-.72,5.24-2.15,7.65-1.43,2.41-3.54,4.37-6.31,5.89-2.78,1.52-6.14,2.28-10.1,2.28s-7.3-.69-10.22-2.06Z"/>
            <path class="cls-3" d="m411.07,305.15v60.32h-3.87v-60.32h3.87Z"/>
            <path class="cls-3" d="m474.83,322.93c-1.72-4.52-4.57-8.13-8.55-10.83-3.98-2.69-8.69-4.04-14.13-4.04-4.76,0-9.05,1.12-12.89,3.35-3.84,2.23-6.87,5.41-9.11,9.54s-3.35,8.94-3.35,14.44,1.12,10.31,3.35,14.44,5.27,7.29,9.11,9.49c3.84,2.2,8.13,3.31,12.89,3.31s8.74-1.03,12.46-3.09c3.72-2.06,6.7-5,8.94-8.81s3.46-8.26,3.69-13.36h-26.89v-3.27h30.85v2.58c-.17,5.61-1.52,10.65-4.04,15.12-2.52,4.47-5.96,7.96-10.31,10.48-4.35,2.52-9.25,3.78-14.69,3.78s-10.57-1.3-15.04-3.91c-4.47-2.61-7.96-6.24-10.48-10.91-2.52-4.67-3.78-9.95-3.78-15.85s1.26-11.27,3.78-15.94c2.52-4.67,6.02-8.31,10.48-10.91,4.47-2.61,9.48-3.91,15.04-3.91,6.47,0,12.07,1.62,16.8,4.85,4.73,3.24,8.18,7.72,10.35,13.45h-4.47Z"/>
            <path class="cls-3" d="m536.01,365.47h-3.87l-35.4-53.96v53.96h-3.87v-60.23h3.87l35.4,53.79v-53.79h3.87v60.23Z"/>
            <path class="cls-3" d="m554.05,308.41v25.18h24.06v3.27h-24.06v25.35h26.64v3.27h-30.5v-60.32h30.5v3.27h-26.64Z"/>
            <path class="cls-3" d="m624.94,365.47l-15.47-25.69h-13.23v25.69h-3.87v-60.32h16.58c6.7,0,11.73,1.58,15.08,4.73,3.35,3.15,5.03,7.33,5.03,12.55,0,4.64-1.3,8.46-3.91,11.47-2.61,3.01-6.4,4.85-11.38,5.54l15.81,26.03h-4.64Zm-28.7-28.96h12.89c5.33,0,9.31-1.29,11.94-3.87,2.63-2.58,3.95-5.99,3.95-10.22,0-9.22-5.36-13.83-16.07-13.83h-12.72v27.93Z"/>
          </g>
        </g>
      </g>
      <g>
        <path class="cls-2" d="m383.54,446.31c-95.81.46-285.65,1.78-381.43,2.17,0,0-.01-2.62-.01-2.62,0,0-.99-220.59-.99-220.59C1.03,158.3-.06,66.07,0,0c0,0,4.7,0,4.7,0,92.93-.02,191.07.91,284.13,2.31,31.57.52,63.14,1.13,94.71,1.93,0,0,0,.9,0,.9-15.78.43-31.57.74-47.35,1.05-76.37,1.55-160.27,2.42-236.77,2.89-31.57.22-63.14.29-94.71.29,0,0,4.69-4.69,4.69-4.69-.35,63.74-.59,155.9-1.09,220.59,0,0-.99,220.59-.99,220.59,0,0-2.61-2.61-2.61-2.61,93.82,1.38,286.85-.15,378.83,3.06h0Z"/>
        <path class="cls-2" d="m502.97,4.24c95.81-.46,285.65-1.78,381.43-2.17,0,0,.01,2.62.01,2.62,0,0,.99,220.59.99,220.59.07,66.97,1.17,159.21,1.1,225.28,0,0-4.7,0-4.7,0-92.93.02-191.07-.91-284.13-2.31-31.57-.52-63.14-1.13-94.71-1.93,0,0,0-.9,0-.9,15.78-.43,31.57-.74,47.35-1.05,76.37-1.55,160.27-2.42,236.77-2.89,31.57-.22,63.14-.29,94.71-.29,0,0-4.69,4.69-4.69,4.69.35-63.74.59-155.9,1.09-220.59,0,0,.99-220.59.99-220.59,0,0,2.61,2.61,2.61,2.61-93.82-1.38-286.85.16-378.83-3.06h0Z"/>
      </g>
    </g>
  </g>
</svg>