<?xml version="1.0" encoding="UTF-8"?>
<svg id="Layer_2" data-name="Layer 2" xmlns="http://www.w3.org/2000/svg" viewBox="0 0 1311.83 1081.13">
  <defs>
    <style>
      .cls-1 {
        isolation: isolate;
        opacity: .25;
      }

      .cls-1, .cls-2 {
        fill: #fff;
        stroke-width: 0px;
      }
    </style>
  </defs>
  <g id="Layer_1-2" data-name="Layer 1">
    <g id="Layer_1-2" data-name="Layer 1-2">
      <path class="cls-1" d="m1300.21,712.25c-10.21-1.94-20.54,6.18-27.84,12.67-8.73,7.76-18.23,17.56-31.04,15.98-11.1-1.37-16.82-11.16-20.76-20.6-4.08-9.76-6.02-20.44-10.75-29.92-6.89-13.82-22.98-20.99-36.59-11.57-12.81,8.88-13.03,26.01-23.34,36.59-3.11,3.2-7.51,6.02-12.12,4.34-8.19-2.99-7.39-14.86-7.12-21.67.55-14.17.51-35.08-18.17-37.39s-26.82,18.07-33.73,30.81c-6.95,12.8-19.41,28.81-34.73,16.61-13.07-10.41-11.6-29.29-15.43-43.94-3.55-13.59-12.06-23.9-24.91-29.6-12.28-5.45-27.59-3.06-39.11-9.81-14.87-8.71-5.36-24.45,3.79-33.23,13.1-12.56,25.29-24.37,35.6-39.53,22.86-33.6,41.53-70.16,59.41-106.58,18.62-37.93,36.68-76.16,52.49-115.36,15.4-38.19,30.54-77.74,36.08-118.76,9.19-68.05-17.84-138.1-74.36-178.51-64.64-46.21-147.14-35.79-219.2-15.9-80.44,22.2-159.06,51.67-236.58,82.38-159.45,63.16-315.7,136.21-464.26,222.09-33.49,19.36-67.23,38.87-96.9,63.89-46.66,39.35-106.84,147.19-4.82,162.73,39.87,6.07,81.57-6.21,121.3-9.48,42.58-3.51,85.5-2.77,127.83-9.12,18.73-2.81,41.16-11.11,59.96-5.52,8.18,2.43,12.61,8.16,11.64,16.76-1.88,16.65-18.19,26.58-29.88,36.37-31.16,26.1-59.49,57.39-87.17,87.12-23.73,25.48-52.18,56.04-58.55,91.69-6.35,35.52,19.81,59.47,52.19,67.07,35.37,8.3,74.61,5.27,110.53,3.09,42.07-2.55,83.93-8.16,125.36-15.83,41.18-7.62,81.63-18.14,122.48-27.25,20-4.46,40.46-7.24,60.19-12.81,12.64-3.57,32.11-8.44,38.19-21.63,5.12-11.11-1.09-21-12.63-23.01-14.55-2.53-29.89,3.54-42.91,9.18-37.45,16.21-74.79,29.19-114.89,37.35-41.64,8.47-83.88,12.53-126.19,15.83-39.1,3.06-78.36,6.08-117.58,6.96-18.3.41-44.04,1.28-58.63-11.97-22.4-20.34,8.03-55.56,21.33-71.21,25.73-30.27,55.45-56.59,84.33-83.75,25.49-23.97,58.23-51.46,68.75-86.16,10.66-35.13-25.94-47.93-54.15-49.28-35.92-1.72-72.68,5.02-108.4,7.84-44.85,3.54-89.88,3.28-134.71,6.76-29.95,2.32-63.03,9.16-92.92,2.31-8.87-2.03-19.02-6.28-20.56-16.43-2.29-15.11,12.95-28.64,22.92-37.42,29.15-25.65,59.87-49.77,91.17-72.73,67.67-49.65,140.9-90.19,216.66-126.05,78.05-36.94,157.76-70.38,237.37-103.76,77-32.28,153.6-67.28,233.06-93.17,65.7-21.4,141.33-40.78,210.42-24.6,30.75,7.2,59.12,22.76,79.02,47.65,20.3,25.39,29.33,57.54,31.08,89.6,3.92,71.74-23.1,143.3-54.97,206.22-37.24,73.53-86.08,140.08-126.96,211.48-17.81,31.11-40.01,56.43-78.63,54.02-18.48-1.15-36.47-6.76-55.05-6.73s-36.21,5.84-51.52,15.84c-24.7,16.14-51.82,48.16-42.37,79.93,6.55,22.03,33.75,30.04,40.45,51.73,9.42,30.5-35.83,52.57-55.26,65.71-32.18,21.77-61.46,47.77-90.62,73.35-29.5,25.87-59,51.9-91.11,74.54-15.57,10.98-31.69,21.23-48.33,30.51-8.76,4.89-17.68,9.52-26.92,13.44-8.43,3.57-17.46,6.23-25.22,11.2-10.62,6.8-21.79,23.42-3.09,26.82,17.77,3.23,37.28-5.32,52.97-12.78,35.52-16.88,65.71-42.21,96.51-66.22,33.92-26.44,68.53-52,101.18-80.03,30.37-26.07,56.91-56.3,87.75-81.82,14.51-12,30.13-22.59,47.3-30.44,19.27-8.81,40.46-12.5,59.59-21.63,14.35-6.85,26.48-18.53,41.93-23.08,17.75-5.22,31.99,3.64,48.05,9.6,17.51,6.5,33.19,3.19,49.47-4.95,18.02-9.01,36.21-15.3,55.06-22.25,8.29-3.06,16.78-6.32,23.36-12.42,6.63-6.14,9.98-14.9,16.59-21.03,15.5-14.39,21.56,4.93,20.43,18.5-1.09,13.07-4.68,32.78,11.05,39.06,16.68,6.66,27.73-14.36,32.89-26.41,5.25-12.27,12.41-29.61,29.06-26.41,17.01,3.27,20.65,23.27,28.3,35.72,19.81,32.23,64.67,12.21,85.85-8.66,7.03-6.93,18.3-22.22,6.57-30.15-2.14-1.45-4.32-2.32-6.5-2.74l-.03-.04Zm-910.79-180.5s-.07-.05-.19-.23c1.66-.34.08,1.62.19.23Zm-3.52-6.59c-.12-.26-.18-.42-.15-.41-1.42-.48,2.76-1.88.15.41Zm393.6,236.01c-2.27-.66-4.5-1.55-6.62-2.44-5.63-2.37-11.09-5.15-16.31-8.32-4.79-2.91-9.46-6.36-12.21-11.37-8.35-15.23,3.48-32.06,12.89-43.58,6.49-7.95,14.08-15.06,22.8-20.5,4.46-2.78,9.21-5.14,14.28-6.55,5.35-1.49,10.93-1.95,16.46-2.14,11.03-.38,22.25.51,32.76,4.07,4.47,1.51,8.97,3.58,12.11,7.23,2.93,3.41,4.98,8.53,2.63,12.79-1.12,2.04-3.06,3.48-4.68,5.09-2.05,2.05-3.85,4.32-5.73,6.52-3.63,4.24-7.44,8.32-11.2,12.45-7.83,8.59-15.58,17.27-23.38,25.89-3.95,4.36-7.92,8.7-11.89,13.04-3.1,3.39-6.4,7.05-10.99,8.32-3.64,1.01-7.35.54-10.93-.5h0Zm105.47-41c-.67,3.9-1.72,7.71-3.14,11.4-1.82,3.95-4.03,7.69-6.58,11.21-3.28,4.01-6.96,7.66-10.97,10.93-4.87,3.58-10.11,6.63-15.61,9.11-5.89,2.32-11.99,3.98-18.23,4.98-.97.11-1.93.21-2.9.29,19.46-20.35,38.41-41.19,56.79-62.52.24,1.04.45,2.09.63,3.15.37,3.81.38,7.64,0,11.45h.01Zm117.54,9.93c-3.01,3.7-6.39,7.07-10.09,10.08-3.59,2.57-7.41,4.8-11.42,6.64-3.96,1.52-8.05,2.65-12.24,3.37-3.89.38-7.79.39-11.68.02-3.74-.64-7.4-1.64-10.96-2.97-3.85-1.75-7.52-3.87-10.96-6.34-2.67-2.23-5.12-4.7-7.35-7.37-2.48-3.45-4.59-7.13-6.34-10.99-1.67-4.41-2.89-8.98-3.66-13.64-.53-5.08-.54-10.19-.01-15.27.73-4.35,1.86-8.62,3.42-12.74,1.66-3.64,3.67-7.1,6.01-10.35.12-.15.25-.29.38-.43,2.11-.22,4.11-.87,5.99-1.96,1.01-.78,2.02-1.56,3.04-2.35,1.39-1.4,2.46-2.99,3.21-4.77,1.97.04,3.82-.38,5.54-1.29,1.86-.6,3.47-1.64,4.83-3.1.84-.78,1.52-1.66,2.08-2.6,1.04-.67,2.11-1.3,3.22-1.85,1.5-.53,3.03-.95,4.59-1.27.56-.04,1.11-.06,1.67-.07.25,11.04,3.92,22.03,8.66,31.92,3.17,6.6,7.12,12.81,11.55,18.63,5.27,6.93,10.88,13.51,17.32,19.38,1.94,1.76,3.93,3.48,5.97,5.14-.87,1.42-1.78,2.81-2.75,4.17h-.02Z"/>
      <g>
        <g>
          <path class="cls-2" d="m466.32,397.17v42h-8v-18h-18v18h-8v-42h8v17h18v-17h8Z"/>
          <path class="cls-2" d="m505.32,425.17h-26.53c.22,2.62,1.13,4.67,2.75,6.16,1.62,1.49,3.61,2.23,5.97,2.23,3.4,0,5.83-1.47,7.27-4.39h9.89c-1.04,3.5-3.05,6.37-6.03,8.62-2.97,2.25-6.62,3.37-10.95,3.37-3.5,0-6.63-.77-9.4-2.33s-4.93-3.75-6.49-6.59-2.33-6.12-2.33-9.83.76-7.05,2.29-9.89c1.53-2.84,3.67-5.02,6.42-6.55s5.91-2.29,9.5-2.29c4.13,0,7.42.98,10.49,2.95,1.14.74,2.19,1.63,3.08,2.66,2.89,3.35,4.32,7.45,4.32,12.35,0,1.32-.09,2.49-.26,3.54h0Zm-8.09-6c-.04-2.17-.82-3.91-2.35-5.21-1.53-1.31-3.4-1.96-5.61-1.96-2.09,0-3.85.63-5.27,1.9s-2.3,3.02-2.62,5.27h15.85,0Z"/>
          <path class="cls-2" d="m520.32,395.17v45h-8v-45h8Z"/>
          <path class="cls-2" d="m537.32,395.17v45h-8v-45h8Z"/>
          <path class="cls-2" d="m551.78,437.88c-2.57-1.43-4.59-3.45-6.06-6.06s-2.2-5.63-2.2-9.04.75-6.43,2.26-9.04c1.51-2.61,3.57-4.63,6.18-6.06s5.52-2.14,8.74-2.14,6.13.71,8.74,2.14c2.61,1.43,4.67,3.45,6.18,6.06s2.26,5.63,2.26,9.04-.77,6.43-2.32,9.04c-1.55,2.61-3.64,4.63-6.27,6.06s-5.58,2.14-8.83,2.14-6.11-.71-8.68-2.14h0Zm12.99-6.33c1.35-.74,2.42-1.86,3.22-3.35.8-1.49,1.2-3.29,1.2-5.43,0-3.17-.83-5.61-2.5-7.32-1.67-1.71-3.71-2.56-6.12-2.56s-4.43.85-6.06,2.56-2.44,4.15-2.44,7.32.79,5.62,2.38,7.32c1.59,1.71,3.59,2.56,6,2.56,1.53,0,2.96-.37,4.31-1.11h.01Z"/>
          <path class="cls-2" d="m586.89,438.48c-.98-.94-1.48-2.12-1.48-3.53s.49-2.58,1.48-3.53c.98-.94,2.24-1.42,3.77-1.42s2.71.47,3.68,1.42c.96.94,1.45,2.12,1.45,3.53s-.48,2.58-1.45,3.53c-.96.94-2.19,1.42-3.68,1.42s-2.78-.47-3.77-1.42Zm8.09-41.31l-.96,29h-7.08l-1.02-29h9.07,0Z"/>
          <path class="cls-2" d="m628.32,397.17v42h-8v-42h8Z"/>
          <path class="cls-2" d="m638.24,397.17h8.75l-6.43,15h-5.72l3.4-15Z"/>
          <path class="cls-2" d="m704.53,409.17c2.52,2.5,3.79,6,3.79,10.48v19.52h-8v-18.44c0-2.61-.66-4.61-2-6s-3.15-2.08-5.47-2.08-4.14.69-5.49,2.08c-1.36,1.39-2.03,3.39-2.03,6v18.44h-9v-18.44c0-2.61-.66-4.61-2-6s-3.14-2.08-5.44-2.08-4.18.69-5.53,2.08c-1.35,1.39-2.03,3.39-2.03,6v18.44h-8v-33h8v3.76c1.1-1.4,2.49-2.5,4.21-3.31s3.61-1.21,5.67-1.21c2.63,0,4.97.55,7.03,1.65,2.06,1.11,3.66,2.67,4.79,4.71,1.1-1.92,2.68-3.46,4.76-4.62,2.08-1.16,4.33-1.74,6.76-1.74,4.12,0,7.44,1.26,9.98,3.76h.01Z"/>
          <path class="cls-2" d="m762.81,397.17l-13.49,27.38v14.62h-8v-14.62l-13.54-27.38h9.02l8.57,19.19,8.51-19.19h8.93Z"/>
          <path class="cls-2" d="m775.1,437.88c-2.57-1.43-4.59-3.45-6.06-6.06s-2.2-5.63-2.2-9.04.75-6.43,2.26-9.04c1.51-2.61,3.57-4.63,6.18-6.06s5.52-2.14,8.74-2.14,6.13.71,8.74,2.14c2.61,1.43,4.67,3.45,6.18,6.06s2.26,5.63,2.26,9.04-.77,6.43-2.32,9.04c-1.55,2.61-3.64,4.63-6.27,6.06s-5.58,2.14-8.83,2.14-6.11-.71-8.68-2.14h0Zm12.99-6.33c1.35-.74,2.42-1.86,3.22-3.35.8-1.49,1.2-3.29,1.2-5.43,0-3.17-.83-5.61-2.5-7.32-1.67-1.71-3.71-2.56-6.12-2.56s-4.43.85-6.06,2.56-2.44,4.15-2.44,7.32.79,5.62,2.38,7.32c1.59,1.71,3.59,2.56,6,2.56,1.53,0,2.96-.37,4.31-1.11h.01Z"/>
          <path class="cls-2" d="m805.62,413.67c1.43-2.58,3.36-4.57,5.81-5.96,2.45-1.39,5.18-2.09,8.21-2.09,2.64,0,4.94.49,6.92,1.49s3.57,2.24,4.75,3.76v-4.7h9v33h-9v-4.82c-1.15,1.55-2.73,2.83-4.75,3.84-2.02,1.02-4.35,1.52-6.99,1.52-2.98,0-5.69-.71-8.13-2.14s-4.38-3.45-5.81-6.05-2.14-5.59-2.14-8.96.71-6.3,2.14-8.88h-.01Zm24.69,3.5c-.8-1.47-1.89-2.59-3.26-3.38-1.37-.78-2.83-1.18-4.4-1.18s-3.01.38-4.34,1.15-2.4,1.88-3.22,3.35c-.82,1.47-1.24,3.21-1.24,5.21s.41,3.77,1.24,5.27c.82,1.51,1.91,2.66,3.26,3.47,1.35.8,2.78,1.21,4.31,1.21s3.03-.39,4.4-1.18c1.37-.78,2.45-1.91,3.26-3.38.8-1.47,1.2-3.22,1.2-5.27s-.4-3.81-1.2-5.27h-.01Z"/>
          <path class="cls-2" d="m876.7,409.17c2.41,2.5,3.62,6,3.62,10.48v19.52h-9v-18.44c0-2.65-.66-4.69-2-6.12s-3.14-2.14-5.44-2.14-4.18.71-5.53,2.14c-1.35,1.43-2.03,3.47-2.03,6.12l1,18.44h-9v-33h9v3.88c1.1-1.44,2.52-2.57,4.24-3.4,1.72-.82,3.61-1.24,5.66-1.24,3.91,0,7.07,1.26,9.48,3.76h0Z"/>
        </g>
        <g>
          <path class="cls-2" d="m489.55,497.15c-1.77-3.26-4.22-5.74-7.34-7.45-3.11-1.71-6.74-2.56-10.9-2.56-4.59,0-8.66,1.04-12.22,3.11-3.56,2.07-6.33,5.04-8.34,8.89s-3,8.3-3,13.33,1.02,9.71,3.05,13.56,4.87,6.82,8.51,8.89c3.63,2.07,7.85,3.11,12.67,3.11,5.93,0,10.78-1.58,14.55-4.72s6.26-7.53,7.45-13.17h-26.66v-12h42v13.68c-1.04,5.41-3.26,10.41-6.67,15-3.41,4.6-7.8,8.28-13.17,11.06-5.37,2.78-11.39,4.16-18.06,4.16-7.48,0-14.25-1.69-20.28-5.06-6.04-3.37-10.78-8.06-14.23-14.06-3.44-6-5.17-12.82-5.17-20.45s1.72-14.46,5.17-20.5c3.45-6.04,8.19-10.74,14.23-14.12,6.04-3.37,12.76-5.06,20.17-5.06,8.74,0,16.34,2.13,22.78,6.39,6.44,4.26,10.9,10.24,13.33,17.94h-17.89l.02-.02Z"/>
          <path class="cls-2" d="m545.19,492.11c3.24-1.92,6.95-2.88,11.13-2.88v16.94h-4.14c-4.92,0-8.63,1.19-11.12,3.58-2.5,2.38-3.74,6.53-3.74,12.44v29.98h-16v-62h16v9.91c2.01-3.38,4.64-6.03,7.88-7.94v-.02Z"/>
          <path class="cls-2" d="m565.67,504.28c2.53-4.85,5.97-8.58,10.32-11.19s9.21-3.91,14.57-3.91c4.69,0,8.79.94,12.31,2.8,3.52,1.87,6.34,4.21,8.45,7.05v-8.85h16v62h-16v-9.07c-2.04,2.92-4.86,5.32-8.45,7.22-3.59,1.91-7.73,2.86-12.43,2.86-5.29,0-10.11-1.34-14.46-4.03-4.35-2.69-7.79-6.47-10.32-11.36-2.54-4.88-3.8-10.5-3.8-16.84s1.27-11.82,3.8-16.67h.01Zm43.65,6.98c-1.5-2.73-3.51-4.82-6.05-6.28s-5.27-2.19-8.18-2.19-5.6.71-8.07,2.13-4.47,3.49-6,6.22-2.3,5.96-2.3,9.7.77,7.01,2.3,9.81c1.53,2.8,3.55,4.95,6.05,6.45s5.17,2.24,8.02,2.24,5.64-.73,8.18-2.19,4.56-3.55,6.05-6.28c1.49-2.73,2.24-6,2.24-9.81s-.75-7.08-2.24-9.81h0Z"/>
          <path class="cls-2" d="m666.83,492.03c3.62-1.91,7.75-2.87,12.4-2.87,5.41,0,10.31,1.31,14.69,3.93,4.37,2.63,7.85,6.35,10.4,11.19s3.82,10.44,3.82,16.81-1.27,12.02-3.82,16.93c-2.56,4.92-6.03,8.72-10.4,11.42-4.38,2.7-9.28,4.05-14.69,4.05-4.65,0-8.75-.94-12.29-2.81-3.55-1.88-6.42-4.23-8.63-7.08v38.58h-16v-92h16v9c2.06-2.85,4.89-5.23,8.51-7.14h0Zm22.48,19.11c-1.53-2.73-3.55-4.8-6.05-6.22-2.51-1.42-5.21-2.13-8.13-2.13s-5.51.73-8.02,2.19-4.52,3.57-6.05,6.33c-1.53,2.77-2.3,6.02-2.3,9.75s.76,6.99,2.3,9.75c1.53,2.77,3.55,4.88,6.05,6.33,2.5,1.46,5.17,2.19,8.02,2.19s5.62-.75,8.13-2.24c2.5-1.49,4.52-3.62,6.05-6.39,1.53-2.76,2.3-6.05,2.3-9.87s-.77-6.97-2.3-9.7h0Z"/>
          <path class="cls-2" d="m766.79,492.22c3.62,2.06,6.45,5.08,8.48,9.09,2.03,4,3.05,8.81,3.05,14.41v36.45h-16v-34.3c0-4.93-1.24-8.72-3.73-11.38-2.49-2.65-5.87-3.98-10.16-3.98s-7.81,1.33-10.33,3.98c-2.53,2.65-3.78,6.45-3.78,11.38v34.3h-16v-83h17v28.61c2-2.69,4.66-4.8,7.98-6.33s7.02-2.3,11.08-2.3c4.66,0,8.79,1.03,12.41,3.08Z"/>
          <path class="cls-2" d="m794.06,479.98c-1.83-1.76-2.75-3.94-2.75-6.56s.91-4.8,2.75-6.56c1.83-1.76,4.13-2.63,6.89-2.63s5.06.88,6.89,2.63c1.83,1.76,2.75,3.94,2.75,6.56s-.92,4.8-2.75,6.56-4.13,2.63-6.89,2.63-5.06-.88-6.89-2.63Zm15.26,10.19v62h-16v-62h16Z"/>
          <path class="cls-2" d="m823.14,504.17c2.69-4.98,6.44-8.84,11.22-11.57s10.26-4.11,16.44-4.11c7.95,0,14.53,1.98,19.73,5.96,5.2,3.97,8.69,9.55,10.47,16.73h-17.96c-.89-2.67-2.39-4.76-4.5-6.27s-4.72-2.28-7.83-2.28c-4.44,0-7.97,1.62-10.56,4.84-2.6,3.22-3.89,7.8-3.89,13.72s1.3,10.39,3.89,13.61,6.11,4.84,10.56,4.84c6.29,0,10.41-2.81,12.33-8.44h17.09c-1.72,6.74-5.13,12.09-10.22,16.05s-11.45,5.95-19.09,5.95c-5.99,0-11.3-1.33-15.94-3.99-4.65-2.65-8.27-6.4-10.89-11.23-2.62-4.83-3.93-10.46-3.93-16.9s1.31-12.07,3.93-16.9h-.86Z"/>
        </g>
        <g>
          <path class="cls-2" d="m475.82,592.54c5.66,2.92,10.03,7.07,13.12,12.46,3.09,5.39,4.63,11.65,4.63,18.77s-1.55,13.34-4.63,18.67c-3.09,5.33-7.46,9.44-13.12,12.35-5.66,2.92-12.22,4.37-19.68,4.37h-24.82v-71h24.82c7.46,0,14.02,1.46,19.68,4.37h0Zm-2.5,48.5c4.02-4.08,6.02-9.82,6.02-17.23s-2-13.21-6.02-17.38c-4.02-4.18-9.7-6.27-17.06-6.27h-9.94v47h9.94c7.36,0,13.04-2.04,17.06-6.12h0Z"/>
          <path class="cls-2" d="m555.21,635.17h-39.85c.33,3.94,1.7,7.02,4.13,9.25,2.43,2.23,5.42,3.35,8.96,3.35,5.12,0,8.76-2.2,10.92-6.59h14.86c-1.58,5.25-4.59,9.56-9.05,12.94-4.46,3.38-9.94,5.07-16.43,5.07-5.25,0-9.96-1.17-14.12-3.49s-7.41-5.62-9.74-9.89c-2.33-4.26-3.49-9.18-3.49-14.76s1.15-10.59,3.44-14.86c2.29-4.26,5.51-7.55,9.65-9.84s8.89-3.44,14.27-3.44,9.82,1.12,13.93,3.35c4.09,2.23,7.28,5.4,9.54,9.5,2.27,4.1,3.39,8.81,3.39,14.12,0,1.96-.14,3.74-.4,5.31h0Zm-13.51-10c-.07-3.64-1.38-6.56-3.95-8.75-2.56-2.19-5.7-3.29-9.41-3.29-3.51,0-6.46,1.06-8.85,3.19s-3.86,5.08-4.4,8.85h26.61Z"/>
          <path class="cls-2" d="m575.75,657.17c-3.61-1.64-6.47-3.87-8.57-6.67s-3.26-5.92-3.46-9.33h14.1c.27,2.19,1.35,4,3.23,5.42,1.87,1.44,4.21,2.16,7.01,2.16s4.87-.55,6.4-1.64c1.54-1.09,2.31-2.49,2.31-4.2,0-1.84-.94-3.23-2.81-4.15-1.88-.92-4.87-1.93-8.96-3.02-4.23-1.02-7.7-2.08-10.39-3.18-2.7-1.09-5.02-2.76-6.96-5.02-1.94-2.26-2.91-5.29-2.91-9.12,0-3.14.9-6.01,2.71-8.6s4.4-4.65,7.78-6.14,7.36-2.26,11.93-2.26c6.76,0,12.15,1.69,16.18,5.07s6.24,7.93,6.66,13.67h-13.82c-.2-2.24-1.13-4.01-2.79-5.33-1.65-1.32-3.87-1.98-6.65-1.98-2.57,0-4.55.47-5.94,1.42s-2.08,2.27-2.08,3.96c0,1.9.94,3.33,2.84,4.31s4.83,1.98,8.83,2.99c4.06,1.01,7.41,2.07,10.05,3.15s4.92,2.76,6.85,5.02c1.93,2.27,2.93,5.27,3,8.98,0,3.25-.9,6.16-2.69,8.73-1.8,2.57-4.36,4.58-7.71,6.04s-7.26,2.19-11.72,2.19-8.73-.83-12.39-2.49h-.02Z"/>
          <path class="cls-2" d="m622.81,593.44c-1.65-1.58-2.48-3.56-2.48-5.92s.83-4.33,2.48-5.92c1.65-1.58,3.73-2.38,6.22-2.38s4.57.79,6.22,2.38c1.65,1.59,2.48,3.56,2.48,5.92s-.83,4.33-2.48,5.92c-1.65,1.59-3.73,2.38-6.22,2.38s-4.57-.79-6.22-2.38Zm13.51,8.73v56h-14v-56h14Z"/>
          <path class="cls-2" d="m682.97,603.74c3.11,1.65,5.56,3.79,7.35,6.43v-8h14v56.53c0,5.2-1.03,9.84-3.08,13.93-2.05,4.08-5.13,7.33-9.23,9.72s-9.07,3.59-14.89,3.59c-7.81,0-14.22-1.86-19.21-5.58s-7.83-8.78-8.49-15.2h13.8c.73,2.56,2.3,4.61,4.72,6.13,2.41,1.52,5.35,2.28,8.78,2.28,4.03,0,7.31-1.23,9.83-3.69,2.51-2.46,3.77-6.2,3.77-11.19v-8.71c-1.79,2.63-4.25,4.83-7.4,6.59-3.15,1.75-6.73,2.63-10.77,2.63-4.63,0-8.87-1.21-12.7-3.64-3.84-2.43-6.87-5.86-9.08-10.28-2.22-4.42-3.33-9.5-3.33-15.25s1.11-10.7,3.33-15.1c2.22-4.38,5.23-7.77,9.04-10.13s8.05-3.54,12.75-3.54c4.1,0,7.71.83,10.82,2.48h0Zm5.45,17.94c-1.35-2.46-3.17-4.35-5.46-5.67-2.29-1.31-4.76-1.97-7.39-1.97s-5.06.64-7.29,1.92-4.03,3.15-5.41,5.62c-1.38,2.46-2.08,5.38-2.08,8.75s.69,6.32,2.08,8.85c1.38,2.53,3.2,4.47,5.46,5.82,2.26,1.35,4.67,2.02,7.24,2.02s5.09-.66,7.39-1.97c2.29-1.32,4.11-3.2,5.46-5.67,1.35-2.46,2.02-5.41,2.02-8.85s-.68-6.39-2.02-8.85h0Z"/>
          <path class="cls-2" d="m766.19,608.17c4.08,4.26,6.13,10.19,6.13,17.82v33.18h-15v-30.97c0-4.45-1.11-7.87-3.33-10.27-2.22-2.39-5.24-3.59-9.07-3.59s-6.97,1.2-9.22,3.59c-2.25,2.4-3.38,5.82-3.38,10.27l1,29.97h-15v-56h15v7.48c1.88-2.45,4.27-4.37,7.19-5.77,2.91-1.39,6.11-2.09,9.59-2.09,6.63,0,12,2.13,16.08,6.38h.01Z"/>
          <path class="cls-2" d="m836.42,635.17h-39.85c.33,3.94,1.7,7.02,4.13,9.25,2.43,2.23,5.42,3.35,8.96,3.35,5.12,0,8.76-2.2,10.92-6.59h14.86c-1.58,5.25-4.59,9.56-9.05,12.94s-9.94,5.07-16.43,5.07c-5.25,0-9.96-1.17-14.12-3.49s-7.41-5.62-9.74-9.89c-2.33-4.26-3.49-9.18-3.49-14.76s1.15-10.59,3.44-14.86c2.29-4.26,5.51-7.55,9.65-9.84s8.89-3.44,14.27-3.44,9.82,1.12,13.93,3.35c4.09,2.23,7.28,5.4,9.54,9.5,2.27,4.1,3.39,8.81,3.39,14.12,0,1.96-.14,3.74-.4,5.31h0Zm-13.51-10c-.07-3.64-1.38-6.56-3.95-8.75-2.56-2.19-5.7-3.29-9.41-3.29-3.51,0-6.46,1.06-8.85,3.19s-3.86,5.08-4.4,8.85h26.61Z"/>
          <path class="cls-2" d="m869.37,604.17c2.89-1.64,6.21-2.46,9.95-2.46v14.46h-3.7c-4.4,0-7.71,1.02-9.95,3.05s-3.35,5.57-3.35,10.63v28.32h-14v-56h14v8.79c1.8-2.89,4.15-5.15,7.04-6.79h0Z"/>
        </g>
      </g>
    </g>
  </g>
</svg>