<?xml version="1.0" encoding="UTF-8"?>
<svg id="Layer_2" data-name="Layer 2" xmlns="http://www.w3.org/2000/svg" viewBox="0 0 1547.41 782.99">
  <defs>
    <style>
      .cls-1 {
        fill: #fff;
      }

      .cls-1, .cls-2, .cls-3 {
        stroke-width: 0px;
      }

      .cls-2 {
        fill: #c44260;
      }

      .cls-3 {
        fill: #bb274a;
      }
    </style>
  </defs>
  <g id="Layer_1-2" data-name="Layer 1">
    <g>
      <path class="cls-2" d="m669,778.75l-664.3,2.16s-2.6,0-2.6,0C1.03,780.61.78,5.79.01,4.69.01,4.69,0,0,0,0c56.92,0,113.85.07,170.77.29,104.06.36,228.09,1.07,332.15,2.02,48.38.95,118.23.87,166.07,1.93,0,0,0,.9,0,.9-27.68.43-55.36.74-83.04,1.05-74.01.9-175.11,1.65-249.11,2.12-107.64.72-224.89,1.02-332.15,1.07,0,0,4.69-4.69,4.69-4.69,0,0-2.08,773.61-2.08,773.61,0,0-2.61-2.61-2.61-2.61.27.29,665.91.91,664.3,3.06h0Z"/>
      <path class="cls-2" d="m878.42,4.24s664.3-2.16,664.3-2.16c0,0,2.6,0,2.6,0,1.07.3,1.32,775.12,2.09,776.22,0,0,.01,4.69.01,4.69-56.92,0-113.85-.07-170.77-.29-104.06-.36-228.09-1.07-332.15-2.02-48.38-.95-118.23-.87-166.07-1.93,0,0,0-.9,0-.9,27.68-.43,55.36-.74,83.04-1.05,74.01-.9,175.11-1.65,249.11-2.12,107.64-.72,224.89-1.02,332.15-1.07,0,0-4.69,4.69-4.69,4.69l2.08-773.61s2.61,2.61,2.61,2.61c-.27-.29-665.91-.91-664.3-3.06h0Z"/>
    </g>
    <g>
      <g>
        <path class="cls-1" d="m430.77,177.83c2.34,2.94,3.51,6.27,3.51,9.99,0,3.18-.83,6.05-2.48,8.59-1.65,2.55-4.04,4.56-7.15,6.03-3.12,1.47-6.75,2.21-10.89,2.21h-25.02v-62.55h23.85c4.26,0,7.92.72,10.98,2.16,3.06,1.44,5.37,3.38,6.93,5.8,1.56,2.43,2.34,5.15,2.34,8.14,0,3.6-.96,6.6-2.88,9-1.92,2.4-4.5,4.17-7.74,5.31,3.36.6,6.21,2.37,8.55,5.31Zm-31.77-9.45h12.69c3.36,0,5.98-.77,7.88-2.3,1.89-1.53,2.83-3.73,2.83-6.61s-.95-5.02-2.83-6.62c-1.89-1.59-4.52-2.38-7.88-2.38h-12.69v17.91Zm22.05,25.38c1.98-1.68,2.97-4.02,2.97-7.02s-1.05-5.49-3.15-7.29c-2.1-1.8-4.89-2.7-8.37-2.7h-13.5v19.53h13.86c3.48,0,6.21-.84,8.19-2.52Z"/>
        <path class="cls-1" d="m454.26,202.26c-3.78-2.13-6.75-5.13-8.91-9-2.16-3.87-3.24-8.35-3.24-13.46s1.11-9.51,3.33-13.41c2.22-3.9,5.25-6.9,9.09-9,3.84-2.1,8.13-3.15,12.87-3.15s9.03,1.05,12.87,3.15c3.84,2.1,6.87,5.1,9.09,9,2.22,3.9,3.33,8.37,3.33,13.41s-1.14,9.51-3.42,13.41c-2.28,3.9-5.39,6.92-9.31,9.04-3.93,2.13-8.27,3.19-13.01,3.19s-8.91-1.06-12.69-3.19Zm20.12-7.61c2.31-1.26,4.19-3.15,5.62-5.67,1.44-2.52,2.16-5.58,2.16-9.18s-.69-6.64-2.07-9.13c-1.38-2.49-3.21-4.37-5.49-5.62-2.28-1.26-4.74-1.89-7.38-1.89s-5.08.63-7.33,1.89c-2.25,1.26-4.04,3.14-5.35,5.62-1.32,2.49-1.98,5.53-1.98,9.13,0,5.34,1.36,9.46,4.1,12.38,2.73,2.91,6.17,4.37,10.3,4.37,2.64,0,5.11-.63,7.43-1.89Z"/>
        <path class="cls-1" d="m538.36,156.68c3.09,1.62,5.5,4.02,7.25,7.2,1.74,3.18,2.61,7.02,2.61,11.52v29.25h-10.17v-27.72c0-4.44-1.11-7.84-3.33-10.21-2.22-2.37-5.25-3.56-9.09-3.56s-6.89,1.19-9.14,3.56-3.38,5.78-3.38,10.21v27.72h-10.26v-49.59h10.26v5.67c1.68-2.04,3.83-3.63,6.44-4.77,2.61-1.14,5.38-1.71,8.33-1.71,3.9,0,7.39.81,10.48,2.43Z"/>
        <path class="cls-1" d="m571.52,214.37c0,4.86-1.21,8.38-3.64,10.58-2.43,2.19-5.96,3.29-10.58,3.29h-5.31v-8.64h3.51c2.1,0,3.58-.41,4.45-1.22.87-.81,1.31-2.15,1.31-4v-59.31h10.26v59.31Zm-9.72-67.77c-1.26-1.26-1.89-2.82-1.89-4.68s.63-3.42,1.89-4.68c1.26-1.26,2.82-1.89,4.68-1.89s3.33.63,4.59,1.89c1.26,1.26,1.89,2.82,1.89,4.68s-.63,3.42-1.89,4.68c-1.26,1.26-2.79,1.89-4.59,1.89s-3.42-.63-4.68-1.89Z"/>
        <path class="cls-1" d="m593.84,202.26c-3.78-2.13-6.75-5.13-8.91-9-2.16-3.87-3.24-8.35-3.24-13.46s1.11-9.51,3.33-13.41c2.22-3.9,5.25-6.9,9.09-9,3.84-2.1,8.13-3.15,12.87-3.15s9.03,1.05,12.87,3.15c3.84,2.1,6.87,5.1,9.09,9,2.22,3.9,3.33,8.37,3.33,13.41s-1.14,9.51-3.42,13.41c-2.28,3.9-5.39,6.92-9.31,9.04-3.93,2.13-8.27,3.19-13.01,3.19s-8.91-1.06-12.69-3.19Zm20.12-7.61c2.31-1.26,4.19-3.15,5.62-5.67,1.44-2.52,2.16-5.58,2.16-9.18s-.69-6.64-2.07-9.13c-1.38-2.49-3.21-4.37-5.49-5.62-2.28-1.26-4.74-1.89-7.38-1.89s-5.08.63-7.33,1.89c-2.25,1.26-4.04,3.14-5.35,5.62-1.32,2.49-1.98,5.53-1.98,9.13,0,5.34,1.36,9.46,4.1,12.38,2.73,2.91,6.17,4.37,10.3,4.37,2.64,0,5.11-.63,7.43-1.89Z"/>
        <path class="cls-1" d="m687.35,155.06v49.59h-10.26v-5.85c-1.62,2.04-3.73,3.64-6.34,4.81-2.61,1.17-5.39,1.75-8.33,1.75-3.9,0-7.4-.81-10.48-2.43-3.09-1.62-5.52-4.02-7.29-7.2-1.77-3.18-2.66-7.02-2.66-11.52v-29.16h10.17v27.63c0,4.44,1.11,7.85,3.33,10.21,2.22,2.37,5.25,3.55,9.09,3.55s6.88-1.18,9.13-3.55c2.25-2.37,3.38-5.77,3.38-10.21v-27.63h10.26Z"/>
        <path class="cls-1" d="m717.09,156.36c2.49-1.41,5.44-2.12,8.86-2.12v10.62h-2.61c-4.02,0-7.06,1.02-9.13,3.06-2.07,2.04-3.11,5.58-3.11,10.62v26.1h-10.26v-49.59h10.26v7.2c1.5-2.52,3.49-4.49,5.99-5.9Z"/>
        <path class="cls-1" d="m738.47,203.39c-1.26-1.26-1.89-2.82-1.89-4.68s.63-3.42,1.89-4.68c1.26-1.26,2.82-1.89,4.68-1.89s3.33.63,4.59,1.89c1.26,1.26,1.89,2.82,1.89,4.68s-.63,3.42-1.89,4.68c-1.26,1.26-2.79,1.89-4.59,1.89s-3.42-.63-4.68-1.89Zm9.81-61.29l-1.17,43.65h-8.55l-1.17-43.65h10.89Z"/>
        <path class="cls-1" d="m422.85,250.1v45.09c0,5.58-1.7,9.99-5.08,13.23-3.39,3.24-7.85,4.86-13.36,4.86s-9.98-1.62-13.37-4.86c-3.39-3.24-5.08-7.65-5.08-13.23h10.35c.06,2.76.77,4.95,2.11,6.57,1.35,1.62,3.34,2.43,5.99,2.43s4.65-.82,6.03-2.47c1.38-1.65,2.07-3.83,2.07-6.53v-45.09h10.35Z"/>
        <path class="cls-1" d="m484.59,291.68h-37.89c.3,3.96,1.77,7.14,4.41,9.54,2.64,2.4,5.88,3.6,9.72,3.6,5.52,0,9.42-2.31,11.7-6.93h11.07c-1.5,4.56-4.22,8.29-8.15,11.21-3.93,2.91-8.81,4.36-14.62,4.36-4.74,0-8.99-1.06-12.73-3.19-3.75-2.13-6.69-5.13-8.82-9-2.13-3.87-3.19-8.35-3.19-13.46s1.04-9.58,3.1-13.46,4.98-6.85,8.73-8.96c3.75-2.1,8.06-3.15,12.92-3.15s8.85,1.02,12.51,3.06c3.66,2.04,6.51,4.91,8.55,8.59,2.04,3.69,3.06,7.94,3.06,12.74,0,1.86-.12,3.54-.36,5.04Zm-10.35-8.28c-.06-3.78-1.41-6.81-4.05-9.09-2.64-2.28-5.91-3.42-9.81-3.42-3.54,0-6.57,1.12-9.09,3.38s-4.02,5.3-4.5,9.13h27.45Z"/>
        <path class="cls-1" d="m588.94,264.68c3.09,1.62,5.52,4.02,7.29,7.2,1.77,3.18,2.65,7.02,2.65,11.52v29.25h-10.17v-27.72c0-4.44-1.11-7.84-3.33-10.21-2.22-2.37-5.25-3.56-9.09-3.56s-6.89,1.19-9.14,3.56-3.38,5.78-3.38,10.21v27.72h-10.17v-27.72c0-4.44-1.11-7.84-3.33-10.21-2.22-2.37-5.25-3.56-9.09-3.56s-6.89,1.19-9.14,3.56-3.38,5.78-3.38,10.21v27.72h-10.26v-49.59h10.26v5.67c1.68-2.04,3.81-3.63,6.39-4.77,2.58-1.14,5.34-1.71,8.28-1.71,3.96,0,7.5.84,10.62,2.52,3.12,1.68,5.52,4.11,7.2,7.29,1.5-3,3.84-5.38,7.02-7.16,3.18-1.77,6.6-2.66,10.26-2.66,3.9,0,7.39.81,10.49,2.43Z"/>
        <path class="cls-1" d="m613.55,250.1h11.16l-9.45,21.42h-7.2l5.49-21.42Z"/>
        <path class="cls-1" d="m633.4,274.4c2.07-3.84,4.89-6.82,8.46-8.96,3.57-2.13,7.52-3.2,11.83-3.2,3.9,0,7.3.77,10.21,2.29,2.91,1.53,5.23,3.44,6.98,5.72v-7.2h10.35v49.59h-10.35v-7.38c-1.74,2.34-4.11,4.29-7.11,5.85-3,1.56-6.42,2.34-10.26,2.34-4.26,0-8.16-1.09-11.7-3.28-3.54-2.19-6.35-5.25-8.42-9.18-2.07-3.93-3.1-8.38-3.1-13.36s1.04-9.39,3.1-13.23Zm35.37,4.5c-1.41-2.52-3.26-4.44-5.54-5.76-2.28-1.32-4.74-1.98-7.38-1.98s-5.1.65-7.38,1.94c-2.28,1.29-4.13,3.18-5.53,5.67-1.41,2.49-2.12,5.44-2.12,8.87s.7,6.42,2.12,9c1.41,2.58,3.27,4.54,5.58,5.89,2.31,1.35,4.75,2.03,7.33,2.03s5.1-.66,7.38-1.98c2.28-1.32,4.12-3.25,5.54-5.8,1.41-2.55,2.11-5.54,2.11-8.96s-.71-6.39-2.11-8.91Z"/>
        <path class="cls-1" d="m712.1,264.59c3-1.56,6.39-2.34,10.17-2.34,4.32,0,8.26,1.07,11.83,3.2,3.57,2.13,6.37,5.12,8.42,8.96,2.04,3.84,3.06,8.25,3.06,13.23s-1.02,9.44-3.06,13.36c-2.04,3.93-4.85,6.99-8.42,9.18-3.57,2.19-7.52,3.28-11.83,3.28-3.78,0-7.14-.76-10.08-2.29-2.94-1.53-5.34-3.43-7.2-5.71v30.78h-10.26v-73.17h10.26v7.29c1.74-2.28,4.11-4.2,7.11-5.76Zm20.92,14.17c-1.41-2.49-3.27-4.38-5.58-5.67-2.31-1.29-4.79-1.94-7.42-1.94s-5.03.66-7.33,1.98c-2.31,1.32-4.17,3.24-5.58,5.76-1.41,2.52-2.12,5.49-2.12,8.91s.7,6.41,2.12,8.96c1.41,2.55,3.27,4.49,5.58,5.8,2.31,1.32,4.75,1.98,7.33,1.98s5.11-.68,7.42-2.03c2.31-1.35,4.17-3.31,5.58-5.89,1.41-2.58,2.12-5.58,2.12-9s-.71-6.38-2.12-8.87Z"/>
        <path class="cls-1" d="m773.12,264.59c3-1.56,6.39-2.34,10.17-2.34,4.32,0,8.26,1.07,11.83,3.2,3.57,2.13,6.38,5.12,8.42,8.96,2.04,3.84,3.06,8.25,3.06,13.23s-1.02,9.44-3.06,13.36c-2.04,3.93-4.85,6.99-8.42,9.18-3.57,2.19-7.51,3.28-11.83,3.28-3.78,0-7.14-.76-10.08-2.29-2.94-1.53-5.34-3.43-7.2-5.71v30.78h-10.26v-73.17h10.26v7.29c1.74-2.28,4.11-4.2,7.11-5.76Zm20.92,14.17c-1.41-2.49-3.27-4.38-5.58-5.67-2.31-1.29-4.79-1.94-7.42-1.94s-5.03.66-7.33,1.98c-2.31,1.32-4.17,3.24-5.58,5.76-1.41,2.52-2.12,5.49-2.12,8.91s.7,6.41,2.12,8.96c1.41,2.55,3.27,4.49,5.58,5.8,2.31,1.32,4.75,1.98,7.33,1.98s5.11-.68,7.42-2.03c2.31-1.35,4.17-3.31,5.58-5.89,1.41-2.58,2.12-5.58,2.12-9s-.71-6.38-2.12-8.87Z"/>
        <path class="cls-1" d="m827.03,246.05v66.6h-10.26v-66.6h10.26Z"/>
        <path class="cls-1" d="m850.79,246.05v66.6h-10.26v-66.6h10.26Z"/>
        <path class="cls-1" d="m909.38,291.68h-37.89c.3,3.96,1.77,7.14,4.41,9.54,2.64,2.4,5.88,3.6,9.72,3.6,5.52,0,9.42-2.31,11.7-6.93h11.07c-1.5,4.56-4.22,8.29-8.14,11.21-3.93,2.91-8.81,4.36-14.62,4.36-4.74,0-8.99-1.06-12.74-3.19-3.75-2.13-6.69-5.13-8.82-9-2.13-3.87-3.2-8.35-3.2-13.46s1.04-9.58,3.1-13.46c2.07-3.87,4.98-6.85,8.73-8.96,3.75-2.1,8.05-3.15,12.92-3.15s8.85,1.02,12.51,3.06c3.66,2.04,6.51,4.91,8.55,8.59,2.04,3.69,3.06,7.94,3.06,12.74,0,1.86-.12,3.54-.36,5.04Zm-10.35-8.28c-.06-3.78-1.41-6.81-4.05-9.09-2.64-2.28-5.91-3.42-9.81-3.42-3.54,0-6.57,1.12-9.09,3.38-2.52,2.25-4.02,5.3-4.5,9.13h27.45Z"/>
        <path class="cls-1" d="m989.57,250.1l-20.7,39.87v22.68h-10.26v-22.68l-20.79-39.87h11.43l14.49,30.69,14.49-30.69h11.34Z"/>
        <path class="cls-1" d="m1006.49,310.26c-3.78-2.13-6.75-5.13-8.91-9s-3.24-8.35-3.24-13.46,1.11-9.51,3.33-13.41c2.22-3.9,5.25-6.9,9.09-9,3.84-2.1,8.13-3.15,12.87-3.15s9.03,1.05,12.87,3.15c3.84,2.1,6.87,5.1,9.09,9,2.22,3.9,3.33,8.37,3.33,13.41s-1.14,9.51-3.42,13.41c-2.28,3.9-5.39,6.92-9.32,9.04-3.93,2.13-8.27,3.19-13,3.19s-8.91-1.06-12.69-3.19Zm20.11-7.61c2.31-1.26,4.19-3.15,5.62-5.67,1.44-2.52,2.16-5.58,2.16-9.18s-.69-6.64-2.07-9.13c-1.38-2.49-3.21-4.37-5.49-5.62-2.28-1.26-4.74-1.89-7.38-1.89s-5.08.63-7.33,1.89c-2.25,1.26-4.04,3.14-5.36,5.62-1.32,2.49-1.98,5.53-1.98,9.13,0,5.34,1.36,9.46,4.09,12.38,2.73,2.91,6.17,4.37,10.3,4.37,2.64,0,5.12-.63,7.42-1.89Z"/>
        <path class="cls-1" d="m1054.77,274.4c2.07-3.84,4.89-6.82,8.46-8.96,3.57-2.13,7.52-3.2,11.84-3.2,3.9,0,7.3.77,10.21,2.29,2.91,1.53,5.23,3.44,6.97,5.72v-7.2h10.35v49.59h-10.35v-7.38c-1.74,2.34-4.11,4.29-7.11,5.85-3,1.56-6.42,2.34-10.26,2.34-4.26,0-8.16-1.09-11.7-3.28-3.54-2.19-6.34-5.25-8.42-9.18-2.07-3.93-3.1-8.38-3.1-13.36s1.04-9.39,3.1-13.23Zm35.37,4.5c-1.41-2.52-3.25-4.44-5.54-5.76-2.28-1.32-4.74-1.98-7.38-1.98s-5.1.65-7.38,1.94c-2.28,1.29-4.13,3.18-5.54,5.67-1.41,2.49-2.11,5.44-2.11,8.87s.7,6.42,2.11,9c1.41,2.58,3.27,4.54,5.58,5.89,2.31,1.35,4.75,2.03,7.33,2.03s5.1-.66,7.38-1.98c2.28-1.32,4.12-3.25,5.54-5.8,1.41-2.55,2.12-5.54,2.12-8.96s-.71-6.39-2.12-8.91Z"/>
        <path class="cls-1" d="m1151.61,264.68c3.09,1.62,5.5,4.02,7.25,7.2,1.74,3.18,2.61,7.02,2.61,11.52v29.25h-10.17v-27.72c0-4.44-1.11-7.84-3.33-10.21-2.22-2.37-5.25-3.56-9.09-3.56s-6.88,1.19-9.13,3.56-3.38,5.78-3.38,10.21v27.72h-10.26v-49.59h10.26v5.67c1.68-2.04,3.83-3.63,6.44-4.77,2.61-1.14,5.38-1.71,8.32-1.71,3.9,0,7.39.81,10.49,2.43Z"/>
      </g>
      <g>
        <path class="cls-3" d="m455.98,369.22c9.56,9.21,14.33,22.03,14.33,38.47s-4.78,29.21-14.33,38.32c-9.56,9.11-23.15,13.67-40.77,13.67h-29.26v-104.27h29.26c17.63,0,31.22,4.6,40.77,13.81Zm-4.83,72.56c8.22-8.17,12.33-19.53,12.33-34.09s-4.11-26.09-12.33-34.31c-8.22-8.22-20.2-12.33-35.95-12.33h-22.58v92.99h22.58c15.75,0,27.73-4.08,35.95-12.25Z"/>
        <path class="cls-3" d="m497.2,361.05v43.52h41.59v5.64h-41.59v43.82h46.05v5.64h-52.73v-104.27h52.73v5.64h-46.05Z"/>
        <path class="cls-3" d="m575.93,457.16c-5.05-2.38-8.99-5.59-11.81-9.65-2.82-4.06-4.43-8.56-4.83-13.52h6.98c.79,5.45,3.34,10.3,7.65,14.56,4.31,4.26,10.87,6.39,19.68,6.39,5.15,0,9.63-.94,13.44-2.82,3.81-1.88,6.76-4.46,8.84-7.72,2.08-3.27,3.12-6.88,3.12-10.84,0-5.05-1.21-9.06-3.64-12.03-2.43-2.97-5.45-5.2-9.06-6.68-3.62-1.49-8.49-3.07-14.63-4.75-6.74-1.78-12.16-3.57-16.27-5.35-4.11-1.78-7.58-4.53-10.4-8.24s-4.23-8.79-4.23-15.22c0-4.95,1.31-9.48,3.94-13.59,2.62-4.11,6.36-7.35,11.21-9.73,4.85-2.38,10.45-3.56,16.78-3.56,9.21,0,16.64,2.28,22.28,6.83,5.64,4.56,9.01,10.15,10.1,16.78h-7.13c-.59-2.67-1.91-5.4-3.94-8.17-2.03-2.77-4.9-5.07-8.61-6.91-3.71-1.83-8.15-2.75-13.29-2.75-6.93,0-12.77,1.91-17.53,5.72-4.75,3.81-7.13,8.89-7.13,15.22,0,5.05,1.24,9.09,3.71,12.11,2.47,3.02,5.52,5.3,9.14,6.83,3.61,1.54,8.49,3.1,14.63,4.68,6.83,1.88,12.25,3.69,16.27,5.42,4.01,1.73,7.43,4.45,10.25,8.17,2.82,3.71,4.23,8.74,4.23,15.08,0,4.65-1.24,9.06-3.71,13.22-2.48,4.16-6.11,7.55-10.92,10.17-4.8,2.63-10.62,3.94-17.45,3.94s-12.63-1.19-17.68-3.57Z"/>
        <path class="cls-3" d="m652.42,355.41v104.27h-6.68v-104.27h6.68Z"/>
        <path class="cls-3" d="m762.64,386.16c-2.97-7.82-7.9-14.06-14.78-18.72-6.88-4.65-15.03-6.98-24.43-6.98-8.22,0-15.65,1.93-22.28,5.79-6.64,3.86-11.88,9.36-15.75,16.49-3.86,7.13-5.79,15.45-5.79,24.95s1.93,17.82,5.79,24.95c3.86,7.13,9.11,12.6,15.75,16.41,6.63,3.81,14.06,5.72,22.28,5.72s15.1-1.78,21.54-5.35c6.44-3.57,11.59-8.64,15.45-15.22,3.86-6.59,5.99-14.28,6.39-23.1h-46.49v-5.64h53.33v4.45c-.3,9.71-2.63,18.42-6.98,26.14-4.36,7.72-10.3,13.76-17.83,18.12-7.53,4.36-15.99,6.54-25.4,6.54s-18.27-2.25-25.99-6.76c-7.72-4.5-13.77-10.79-18.12-18.86-4.36-8.07-6.54-17.21-6.54-27.41s2.18-19.48,6.54-27.55c4.36-8.07,10.4-14.36,18.12-18.86,7.72-4.5,16.39-6.76,25.99-6.76,11.19,0,20.87,2.8,29.04,8.39,8.17,5.6,14.13,13.35,17.9,23.25h-7.72Z"/>
        <path class="cls-3" d="m868.4,459.68h-6.68l-61.2-93.28v93.28h-6.68v-104.13h6.68l61.2,92.99v-92.99h6.68v104.13Z"/>
        <path class="cls-3" d="m899.59,361.05v43.52h41.59v5.64h-41.59v43.82h46.05v5.64h-52.73v-104.27h52.73v5.64h-46.05Z"/>
        <path class="cls-3" d="m1022.13,459.68l-26.74-44.41h-22.87v44.41h-6.68v-104.27h28.67c11.59,0,20.28,2.72,26.07,8.17,5.79,5.45,8.69,12.68,8.69,21.69,0,8.02-2.25,14.63-6.76,19.83-4.51,5.2-11.07,8.39-19.68,9.58l27.33,45.01h-8.02Zm-49.61-50.06h22.28c9.21,0,16.09-2.23,20.65-6.68,4.55-4.46,6.83-10.35,6.83-17.68,0-15.94-9.26-23.92-27.78-23.92h-21.98v48.28Z"/>
      </g>
      <g>
        <path class="cls-3" d="m475.81,552.87c-2.97-7.82-7.9-14.06-14.78-18.72-6.88-4.65-15.03-6.98-24.43-6.98-8.22,0-15.65,1.93-22.28,5.79-6.64,3.86-11.88,9.36-15.75,16.49-3.86,7.13-5.79,15.45-5.79,24.95s1.93,17.82,5.79,24.95c3.86,7.13,9.11,12.6,15.75,16.41,6.63,3.81,14.06,5.72,22.28,5.72s15.1-1.78,21.54-5.35c6.44-3.57,11.59-8.64,15.45-15.22,3.86-6.59,5.99-14.28,6.39-23.1h-46.49v-5.64h53.33v4.45c-.3,9.71-2.63,18.42-6.98,26.14-4.36,7.72-10.3,13.76-17.83,18.12-7.53,4.36-15.99,6.54-25.4,6.54s-18.27-2.25-25.99-6.76c-7.72-4.5-13.77-10.79-18.12-18.86-4.36-8.07-6.54-17.21-6.54-27.41s2.18-19.48,6.54-27.55c4.36-8.07,10.4-14.36,18.12-18.86,7.72-4.5,16.39-6.76,25.99-6.76,11.19,0,20.87,2.8,29.04,8.39,8.17,5.6,14.13,13.35,17.9,23.25h-7.72Z"/>
        <path class="cls-3" d="m563.3,626.4l-26.74-44.41h-22.87v44.41h-6.68v-104.27h28.67c11.59,0,20.28,2.72,26.07,8.17,5.79,5.45,8.69,12.68,8.69,21.69,0,8.02-2.25,14.63-6.76,19.83-4.51,5.2-11.07,8.39-19.68,9.58l27.33,45.01h-8.02Zm-49.61-50.06h22.28c9.21,0,16.09-2.23,20.65-6.68,4.55-4.46,6.83-10.35,6.83-17.68,0-15.94-9.26-23.92-27.78-23.92h-21.98v48.28Z"/>
        <path class="cls-3" d="m649.45,599.66h-49.46l-9.95,26.74h-7.28l38.32-101.9h7.43l38.18,101.9h-7.28l-9.95-26.74Zm-2.08-5.64l-22.58-60.75-22.73,60.75h45.3Z"/>
        <path class="cls-3" d="m737.98,573c-5.74,5.1-14.26,7.65-25.55,7.65h-22.28v45.75h-6.68v-104.27h28.97c11.49,0,20.05,2.65,25.7,7.95,5.64,5.3,8.47,12.45,8.47,21.46s-2.87,16.37-8.61,21.46Zm1.93-21.46c0-7.62-2.18-13.44-6.54-17.45-4.36-4.01-11.34-6.02-20.94-6.02h-22.28v46.64h22.28c18.32,0,27.48-7.72,27.48-23.17Z"/>
        <path class="cls-3" d="m838.84,522.12v104.27h-6.68v-50.5h-60.9v50.5h-6.68v-104.27h6.68v48.13h60.9v-48.13h6.68Z"/>
        <path class="cls-3" d="m870.03,522.12v104.27h-6.68v-104.27h6.68Z"/>
        <path class="cls-3" d="m983.81,647.64l-26.44-22.58c-5.25,1.68-10.69,2.52-16.34,2.52-9.61,0-18.27-2.25-25.99-6.76-7.72-4.5-13.77-10.82-18.12-18.94-4.36-8.12-6.54-17.28-6.54-27.48s2.18-19.48,6.54-27.55c4.36-8.07,10.4-14.36,18.12-18.86,7.72-4.5,16.39-6.76,25.99-6.76s18.27,2.25,25.99,6.76c7.72,4.51,13.76,10.79,18.12,18.86,4.36,8.07,6.54,17.26,6.54,27.55,0,10.99-2.5,20.7-7.5,29.11-5,8.42-11.76,14.76-20.28,19.01l29.41,25.1h-9.51Zm-80.81-48.28c3.86,7.13,9.11,12.62,15.75,16.49,6.63,3.86,14.06,5.79,22.28,5.79s15.65-1.93,22.28-5.79c6.63-3.86,11.86-9.36,15.67-16.49,3.81-7.13,5.72-15.45,5.72-24.95s-1.91-17.97-5.72-25.1c-3.81-7.13-9.04-12.63-15.67-16.49-6.64-3.86-14.06-5.79-22.28-5.79s-15.65,1.93-22.28,5.79c-6.64,3.86-11.88,9.36-15.75,16.49-3.86,7.13-5.79,15.5-5.79,25.1s1.93,17.82,5.79,24.95Z"/>
        <path class="cls-3" d="m1018.12,522.12v65.21c0,11.79,2.67,20.42,8.02,25.92,5.35,5.5,12.62,8.24,21.83,8.24s16.29-2.72,21.54-8.17c5.25-5.44,7.87-14.11,7.87-25.99v-65.21h6.68v65.06c0,13.57-3.27,23.67-9.8,30.3-6.54,6.64-15.3,9.95-26.29,9.95s-19.83-3.34-26.51-10.03c-6.69-6.68-10.03-16.76-10.03-30.23v-65.06h6.68Z"/>
        <path class="cls-3" d="m1114.52,527.77v43.52h41.59v5.64h-41.59v43.82h46.05v5.64h-52.73v-104.27h52.73v5.64h-46.05Z"/>
      </g>
    </g>
  </g>
</svg>