<?xml version="1.0" encoding="UTF-8"?>
<svg id="Layer_2" data-name="Layer 2" xmlns="http://www.w3.org/2000/svg" viewBox="0 0 1547.41 782.99">
  <defs>
    <style>
      .cls-1 {
        fill: #fff;
      }

      .cls-1, .cls-2, .cls-3 {
        stroke-width: 0px;
      }

      .cls-2 {
        fill: #c44260;
      }

      .cls-3 {
        fill: #bb274a;
      }
    </style>
  </defs>
  <g id="Layer_1-2" data-name="Layer 1">
    <g>
      <g>
        <path class="cls-1" d="m496.93,148.66v62.55h-10.26v-27.36h-29.43v27.36h-10.26v-62.55h10.26v26.82h29.43v-26.82h10.26Z"/>
        <path class="cls-1" d="m555.52,190.24h-37.89c.3,3.96,1.77,7.14,4.41,9.54,2.64,2.4,5.88,3.6,9.72,3.6,5.52,0,9.42-2.31,11.7-6.93h11.07c-1.5,4.56-4.22,8.29-8.15,11.21-3.93,2.91-8.81,4.36-14.62,4.36-4.74,0-8.99-1.06-12.73-3.19-3.75-2.13-6.69-5.13-8.82-9-2.13-3.87-3.2-8.35-3.2-13.46s1.04-9.58,3.11-13.46c2.07-3.87,4.98-6.85,8.73-8.96,3.75-2.1,8.06-3.15,12.92-3.15s8.85,1.02,12.51,3.06c3.66,2.04,6.51,4.91,8.55,8.59,2.04,3.69,3.06,7.94,3.06,12.74,0,1.86-.12,3.54-.36,5.04Zm-10.35-8.28c-.06-3.78-1.41-6.81-4.05-9.09-2.64-2.28-5.91-3.42-9.81-3.42-3.54,0-6.57,1.12-9.09,3.38-2.52,2.25-4.02,5.3-4.5,9.13h27.45Z"/>
        <path class="cls-1" d="m576.22,144.61v66.6h-10.26v-66.6h10.26Z"/>
        <path class="cls-1" d="m599.98,144.61v66.6h-10.26v-66.6h10.26Z"/>
        <path class="cls-1" d="m622.3,208.83c-3.78-2.13-6.75-5.13-8.91-9-2.16-3.87-3.24-8.35-3.24-13.46s1.11-9.51,3.33-13.41c2.22-3.9,5.25-6.9,9.09-9,3.84-2.1,8.13-3.15,12.87-3.15s9.03,1.05,12.87,3.15c3.84,2.1,6.87,5.1,9.09,9,2.22,3.9,3.33,8.37,3.33,13.41s-1.14,9.51-3.42,13.41c-2.28,3.9-5.39,6.92-9.32,9.04-3.93,2.13-8.27,3.19-13,3.19s-8.91-1.06-12.69-3.19Zm20.12-7.61c2.31-1.26,4.19-3.15,5.62-5.67,1.44-2.52,2.16-5.58,2.16-9.18s-.69-6.64-2.07-9.13c-1.38-2.49-3.21-4.37-5.49-5.62-2.28-1.26-4.74-1.89-7.38-1.89s-5.08.63-7.33,1.89c-2.25,1.26-4.04,3.14-5.35,5.62-1.32,2.49-1.98,5.53-1.98,9.13,0,5.34,1.36,9.46,4.1,12.38,2.73,2.91,6.17,4.37,10.3,4.37,2.64,0,5.11-.63,7.42-1.89Z"/>
        <path class="cls-1" d="m673.96,209.95c-1.26-1.26-1.89-2.82-1.89-4.68s.63-3.42,1.89-4.68c1.26-1.26,2.82-1.89,4.68-1.89s3.33.63,4.59,1.89,1.89,2.82,1.89,4.68-.63,3.42-1.89,4.68-2.79,1.89-4.59,1.89-3.42-.63-4.68-1.89Zm9.81-61.29l-1.17,43.65h-8.55l-1.17-43.65h10.89Z"/>
        <path class="cls-1" d="m457.24,256.66v62.55h-10.26v-62.55h10.26Z"/>
        <path class="cls-1" d="m472.36,256.66h11.16l-9.45,21.42h-7.2l5.49-21.42Z"/>
        <path class="cls-1" d="m563.04,271.24c3.09,1.62,5.52,4.02,7.29,7.2,1.77,3.18,2.66,7.02,2.66,11.52v29.25h-10.17v-27.72c0-4.44-1.11-7.84-3.33-10.21-2.22-2.37-5.25-3.56-9.09-3.56s-6.89,1.19-9.14,3.56-3.38,5.78-3.38,10.21v27.72h-10.17v-27.72c0-4.44-1.11-7.84-3.33-10.21s-5.25-3.56-9.09-3.56-6.88,1.19-9.13,3.56-3.38,5.78-3.38,10.21v27.72h-10.26v-49.59h10.26v5.67c1.68-2.04,3.81-3.63,6.39-4.77,2.58-1.14,5.34-1.71,8.28-1.71,3.96,0,7.5.84,10.62,2.52,3.12,1.68,5.52,4.11,7.2,7.29,1.5-3,3.84-5.38,7.02-7.16,3.18-1.77,6.6-2.66,10.26-2.66,3.9,0,7.39.81,10.49,2.43Z"/>
        <path class="cls-1" d="m655.78,256.66l-20.7,39.87v22.68h-10.26v-22.68l-20.79-39.87h11.43l14.49,30.69,14.49-30.69h11.34Z"/>
        <path class="cls-1" d="m672.7,316.83c-3.78-2.13-6.75-5.13-8.91-9s-3.24-8.35-3.24-13.46,1.11-9.51,3.33-13.41c2.22-3.9,5.25-6.9,9.09-9,3.84-2.1,8.13-3.15,12.87-3.15s9.03,1.05,12.87,3.15c3.84,2.1,6.87,5.1,9.09,9,2.22,3.9,3.33,8.37,3.33,13.41s-1.14,9.51-3.42,13.41c-2.28,3.9-5.39,6.92-9.31,9.04-3.93,2.13-8.27,3.19-13.01,3.19s-8.91-1.06-12.69-3.19Zm20.12-7.61c2.31-1.26,4.18-3.15,5.62-5.67,1.44-2.52,2.16-5.58,2.16-9.18s-.69-6.64-2.07-9.13c-1.38-2.49-3.21-4.37-5.49-5.62-2.28-1.26-4.74-1.89-7.38-1.89s-5.08.63-7.33,1.89c-2.25,1.26-4.04,3.14-5.36,5.62-1.32,2.49-1.98,5.53-1.98,9.13,0,5.34,1.36,9.46,4.09,12.38,2.73,2.91,6.17,4.37,10.3,4.37,2.64,0,5.12-.63,7.43-1.89Z"/>
        <path class="cls-1" d="m720.98,280.96c2.07-3.84,4.89-6.82,8.46-8.96,3.57-2.13,7.52-3.2,11.83-3.2,3.9,0,7.3.77,10.21,2.29,2.91,1.53,5.23,3.44,6.98,5.72v-7.2h10.35v49.59h-10.35v-7.38c-1.74,2.34-4.11,4.29-7.11,5.85-3,1.56-6.42,2.34-10.26,2.34-4.26,0-8.16-1.09-11.7-3.28-3.54-2.19-6.34-5.25-8.42-9.18-2.07-3.93-3.1-8.38-3.1-13.36s1.04-9.39,3.1-13.23Zm35.37,4.5c-1.41-2.52-3.26-4.44-5.54-5.76-2.28-1.32-4.74-1.98-7.38-1.98s-5.1.65-7.38,1.94c-2.28,1.29-4.13,3.18-5.54,5.67-1.41,2.49-2.12,5.44-2.12,8.87s.71,6.42,2.12,9c1.41,2.58,3.27,4.54,5.58,5.89,2.31,1.35,4.75,2.03,7.33,2.03s5.1-.66,7.38-1.98c2.28-1.32,4.12-3.25,5.54-5.8,1.41-2.55,2.12-5.54,2.12-8.96s-.71-6.39-2.12-8.91Z"/>
        <path class="cls-1" d="m817.82,271.24c3.09,1.62,5.5,4.02,7.25,7.2,1.74,3.18,2.61,7.02,2.61,11.52v29.25h-10.17v-27.72c0-4.44-1.11-7.84-3.33-10.21s-5.25-3.56-9.09-3.56-6.88,1.19-9.13,3.56-3.38,5.78-3.38,10.21v27.72h-10.26v-49.59h10.26v5.67c1.68-2.04,3.83-3.63,6.43-4.77,2.61-1.14,5.38-1.71,8.33-1.71,3.9,0,7.39.81,10.49,2.43Z"/>
      </g>
      <g>
        <g>
          <path class="cls-3" d="m538.14,395.88c-3.01-7.93-8.01-14.26-14.99-18.98-6.98-4.72-15.24-7.08-24.78-7.08-8.34,0-15.87,1.96-22.6,5.88-6.73,3.92-12.05,9.49-15.97,16.72-3.92,7.23-5.88,15.67-5.88,25.31s1.96,18.08,5.88,25.31c3.92,7.23,9.24,12.78,15.97,16.65,6.73,3.87,14.26,5.8,22.6,5.8s15.32-1.81,21.85-5.42c6.53-3.62,11.75-8.76,15.67-15.44,3.92-6.68,6.08-14.49,6.48-23.43h-47.16v-5.73h54.09v4.52c-.3,9.85-2.66,18.68-7.08,26.52-4.42,7.83-10.45,13.96-18.08,18.38-7.63,4.42-16.22,6.63-25.76,6.63s-18.53-2.28-26.37-6.86c-7.83-4.57-13.96-10.95-18.38-19.13-4.42-8.19-6.63-17.45-6.63-27.8s2.21-19.76,6.63-27.95c4.42-8.19,10.55-14.56,18.38-19.13,7.83-4.57,16.62-6.86,26.37-6.86,11.35,0,21.17,2.84,29.46,8.51,8.29,5.68,14.34,13.54,18.16,23.58h-7.84Z"/>
          <path class="cls-3" d="m626.88,470.46l-27.12-45.05h-23.2v45.05h-6.78v-105.77h29.08c11.75,0,20.57,2.76,26.44,8.29,5.88,5.53,8.81,12.86,8.81,22,0,8.14-2.29,14.84-6.86,20.11-4.57,5.27-11.23,8.51-19.96,9.72l27.72,45.65h-8.14Zm-50.32-50.78h22.6c9.34,0,16.32-2.26,20.94-6.78s6.93-10.5,6.93-17.93c0-16.17-9.39-24.26-28.18-24.26h-22.3v48.97Z"/>
          <path class="cls-3" d="m714.27,443.34h-50.17l-10.09,27.12h-7.38l38.87-103.36h7.53l38.72,103.36h-7.38l-10.09-27.12Zm-2.11-5.73l-22.9-61.62-23.05,61.62h45.95Z"/>
          <path class="cls-3" d="m804.07,416.29c-5.83,5.18-14.47,7.76-25.92,7.76h-22.6v46.41h-6.78v-105.77h29.38c11.65,0,20.34,2.69,26.07,8.06,5.73,5.38,8.59,12.63,8.59,21.77s-2.91,16.6-8.74,21.77Zm1.96-21.77c0-7.73-2.21-13.63-6.63-17.7-4.42-4.07-11.5-6.1-21.25-6.1h-22.6v47.31h22.6c18.58,0,27.87-7.83,27.87-23.5Z"/>
          <path class="cls-3" d="m906.37,364.69v105.77h-6.78v-51.23h-61.77v51.23h-6.78v-105.77h6.78v48.82h61.77v-48.82h6.78Z"/>
          <path class="cls-3" d="m938.01,364.69v105.77h-6.78v-105.77h6.78Z"/>
          <path class="cls-3" d="m965.21,389.77c4.37-8.19,10.4-14.59,18.08-19.21,7.68-4.62,16.3-6.93,25.84-6.93,12.05,0,22.2,2.81,30.44,8.44,8.23,5.63,14.26,13.51,18.08,23.65h-7.83c-3.01-8.04-8.01-14.39-14.99-19.06-6.98-4.67-15.55-7.01-25.69-7.01-8.14,0-15.52,1.94-22.15,5.8-6.63,3.87-11.85,9.44-15.67,16.72-3.82,7.28-5.73,15.8-5.73,25.54s1.91,18.06,5.73,25.24c3.82,7.18,9.04,12.73,15.67,16.65,6.63,3.92,14.01,5.88,22.15,5.88,10.14,0,18.71-2.34,25.69-7.01,6.98-4.67,11.98-11.02,14.99-19.06h7.83c-3.82,10.15-9.85,18.03-18.08,23.65-8.24,5.63-18.38,8.44-30.44,8.44-9.54,0-18.16-2.28-25.84-6.86-7.68-4.57-13.71-10.95-18.08-19.13-4.37-8.19-6.55-17.45-6.55-27.8s2.18-19.76,6.55-27.95Z"/>
        </g>
        <g>
          <path class="cls-3" d="m518.02,545.56c9.69,9.34,14.54,22.35,14.54,39.02s-4.85,29.63-14.54,38.87c-9.69,9.24-23.48,13.86-41.36,13.86h-29.68v-105.77h29.68c17.88,0,31.66,4.67,41.36,14.01Zm-4.9,73.6c8.34-8.29,12.51-19.81,12.51-34.58s-4.17-26.47-12.51-34.8c-8.34-8.34-20.49-12.51-36.46-12.51h-22.9v94.32h22.9c15.97,0,28.12-4.14,36.46-12.43Z"/>
          <path class="cls-3" d="m559.83,537.28v44.15h42.19v5.73h-42.19v44.45h46.71v5.73h-53.49v-105.77h53.49v5.73h-46.71Z"/>
          <path class="cls-3" d="m639.69,634.76c-5.12-2.41-9.12-5.67-11.98-9.79-2.86-4.12-4.5-8.69-4.9-13.71h7.08c.8,5.53,3.39,10.45,7.76,14.77,4.37,4.32,11.02,6.48,19.96,6.48,5.22,0,9.77-.95,13.63-2.86,3.87-1.91,6.86-4.52,8.97-7.83,2.11-3.32,3.16-6.98,3.16-11,0-5.12-1.23-9.19-3.69-12.2-2.46-3.01-5.52-5.27-9.19-6.78-3.67-1.51-8.61-3.11-14.84-4.82-6.83-1.81-12.33-3.62-16.5-5.42-4.17-1.81-7.68-4.6-10.55-8.36s-4.29-8.91-4.29-15.44c0-5.02,1.33-9.62,3.99-13.79,2.66-4.17,6.45-7.46,11.38-9.87,4.92-2.41,10.6-3.61,17.03-3.61,9.34,0,16.88,2.31,22.6,6.93,5.73,4.62,9.14,10.3,10.25,17.03h-7.23c-.6-2.71-1.94-5.47-3.99-8.29-2.06-2.81-4.97-5.15-8.74-7.01-3.77-1.86-8.26-2.79-13.49-2.79-7.03,0-12.96,1.93-17.78,5.8-4.82,3.87-7.23,9.02-7.23,15.44,0,5.12,1.25,9.22,3.77,12.28,2.51,3.07,5.6,5.38,9.27,6.93,3.67,1.56,8.61,3.14,14.84,4.75,6.93,1.91,12.43,3.74,16.5,5.5,4.07,1.76,7.53,4.52,10.4,8.29,2.86,3.77,4.29,8.87,4.29,15.29,0,4.72-1.26,9.19-3.77,13.41-2.51,4.22-6.2,7.66-11.07,10.32-4.87,2.66-10.77,3.99-17.7,3.99s-12.81-1.2-17.93-3.62Z"/>
          <path class="cls-3" d="m717.28,531.55v105.77h-6.78v-105.77h6.78Z"/>
          <path class="cls-3" d="m829.08,562.74c-3.01-7.93-8.01-14.26-14.99-18.98-6.98-4.72-15.24-7.08-24.78-7.08-8.34,0-15.87,1.96-22.6,5.88-6.73,3.92-12.05,9.49-15.97,16.72-3.92,7.23-5.88,15.67-5.88,25.31s1.96,18.08,5.88,25.31,9.24,12.78,15.97,16.65c6.73,3.87,14.26,5.8,22.6,5.8s15.32-1.81,21.85-5.42c6.53-3.62,11.75-8.76,15.67-15.44s6.08-14.49,6.48-23.43h-47.16v-5.73h54.09v4.52c-.3,9.85-2.66,18.68-7.08,26.52-4.42,7.83-10.45,13.96-18.08,18.38-7.63,4.42-16.22,6.63-25.76,6.63s-18.53-2.28-26.37-6.86c-7.83-4.57-13.96-10.95-18.38-19.13-4.42-8.19-6.63-17.45-6.63-27.8s2.21-19.76,6.63-27.95c4.42-8.19,10.55-14.56,18.38-19.13,7.83-4.57,16.62-6.86,26.37-6.86,11.35,0,21.17,2.84,29.46,8.51,8.29,5.68,14.34,13.54,18.16,23.58h-7.84Z"/>
          <path class="cls-3" d="m936.35,637.32h-6.78l-62.08-94.62v94.62h-6.78v-105.62h6.78l62.08,94.32v-94.32h6.78v105.62Z"/>
          <path class="cls-3" d="m967.99,537.28v44.15h42.19v5.73h-42.19v44.45h46.71v5.73h-53.49v-105.77h53.49v5.73h-46.71Z"/>
          <path class="cls-3" d="m1092.29,637.32l-27.12-45.05h-23.2v45.05h-6.78v-105.77h29.08c11.75,0,20.57,2.76,26.44,8.29,5.88,5.53,8.82,12.86,8.82,22,0,8.14-2.29,14.84-6.86,20.11-4.57,5.27-11.23,8.51-19.96,9.72l27.72,45.65h-8.14Zm-50.32-50.78h22.6c9.34,0,16.32-2.26,20.94-6.78,4.62-4.52,6.93-10.5,6.93-17.93,0-16.17-9.39-24.26-28.18-24.26h-22.3v48.97Z"/>
        </g>
      </g>
    </g>
    <g>
      <path class="cls-2" d="m669,778.75s-664.3,2.16-664.3,2.16h-2.6C1.03,780.61.79,5.79.01,4.69.01,4.69,0,0,0,0c56.92,0,113.85.07,170.77.29,104.06.36,228.09,1.07,332.15,2.02,48.38.95,118.23.87,166.07,1.93,0,0,0,.9,0,.9-27.68.43-55.36.74-83.04,1.05-74.01.9-175.11,1.65-249.11,2.12-107.64.72-224.89,1.02-332.15,1.07,0,0,4.69-4.69,4.69-4.69,0,0-2.08,773.61-2.08,773.61,0,0-2.61-2.61-2.61-2.61.27.29,665.91.91,664.3,3.06h0Z"/>
      <path class="cls-2" d="m878.42,4.24s664.3-2.16,664.3-2.16h2.6c1.07.3,1.32,775.11,2.09,776.21,0,0,.01,4.69.01,4.69-56.92,0-113.85-.07-170.77-.29-104.06-.36-228.09-1.07-332.15-2.02-48.38-.95-118.23-.87-166.07-1.93,0,0,0-.9,0-.9,27.68-.43,55.36-.74,83.04-1.05,74.01-.9,175.11-1.65,249.11-2.12,107.64-.72,224.89-1.02,332.15-1.07,0,0-4.69,4.69-4.69,4.69,0,0,2.08-773.61,2.08-773.61,0,0,2.61,2.61,2.61,2.61-.27-.29-665.91-.91-664.3-3.06h0Z"/>
    </g>
  </g>
</svg>